<?xml version="1.0" standalone="no"?>
<!DOCTYPE svg PUBLIC "-//W3C//DTD SVG 1.1//EN" "http://www.w3.org/Graphics/SVG/1.1/DTD/svg11.dtd" >
<svg xmlns="http://www.w3.org/2000/svg" xmlns:xlink="http://www.w3.org/1999/xlink" version="1.1">
<metadata>
Created by FontForge 20170731 at Thu Jan  5 13:51:17 2023
 By Aleksey,,,
Copyright (c) 2022 State of Qatar
</metadata>
<defs>
<font id="Lusail-Medium" horiz-adv-x="0" >
  <font-face 
    font-family="Lusail Medium"
    font-weight="500"
    font-stretch="normal"
    units-per-em="1000"
    panose-1="0 0 0 0 0 0 0 0 0 0"
    ascent="800"
    descent="-200"
    x-height="380"
    cap-height="630"
    bbox="-187 -442 1192 922"
    underline-thickness="50"
    underline-position="-175"
    unicode-range="U+0020-FDFC"
  />
<missing-glyph horiz-adv-x="600" 
 />
    <glyph glyph-name="fi" unicode="fi" horiz-adv-x="506" 
d="M358 303h-177v-303h-95v303h-64v77h64v122q0 74 40.5 116t113.5 42q45 0 81 -18l-23 -79q-15 9 -28 12.5t-34 3.5q-28 0 -44 -8q-11 -18 -11 -66v-125h274v-380h-97v303zM363.5 572.5q17.5 17.5 42.5 17.5q26 0 43.5 -17.5t17.5 -41.5t-17.5 -41.5t-43.5 -17.5
q-25 0 -42.5 17.5t-17.5 41.5t17.5 41.5z" />
    <glyph glyph-name="fl" unicode="fl" horiz-adv-x="507" 
d="M130.5 621q44.5 39 135.5 39q41 0 96 -6.5t92 -14.5v-639h-93v574q-48 8 -91 8q-53 0 -78 -11q-11 -18 -11 -66v-125h117v-77h-117v-303h-95v303h-64v77h64v122q0 80 44.5 119z" />
    <glyph glyph-name="f_f" unicode="ff" horiz-adv-x="580" 
d="M399 618q41 42 115 42q47 0 87 -20l-22 -79q-30 18 -64 18q-36 0 -51 -8q-11 -18 -11 -66v-125h128v-77h-128v-303h-95v303h-177v-303h-95v303h-64v77h64v122q0 74 40.5 116t114.5 42q44 0 80 -18l-23 -79q-26 16 -55 16q-36 0 -51 -8q-11 -18 -11 -66v-125h177v122
q0 74 41 116z" />
    <glyph glyph-name="f_f_i" unicode="ffi" horiz-adv-x="778" 
d="M630 303h-177v-303h-95v303h-177v-303h-95v303h-64v77h64v122q0 74 40.5 116t113.5 42q45 0 81 -18l-23 -79q-15 9 -28 12.5t-34 3.5q-28 0 -44 -8q-11 -18 -11 -66v-125h177v122q0 74 41 116t113 42q45 0 81 -18l-22 -79q-28 16 -56 16q-36 0 -51 -8q-11 -18 -11 -66
v-125h274v-380h-97v303zM635.5 572.5q17.5 17.5 43.5 17.5q25 0 42.5 -17.5t17.5 -41.5t-17.5 -41.5t-42.5 -17.5q-26 0 -43.5 17.5t-17.5 41.5t17.5 41.5z" />
    <glyph glyph-name="f_f_l" unicode="ffl" horiz-adv-x="779" 
d="M402.5 621q44.5 39 135.5 39q41 0 96 -6.5t92 -14.5v-639h-92v574q-54 8 -100 8q-48 0 -70 -11q-11 -18 -11 -66v-125h111v-77h-111v-303h-95v303h-177v-303h-95v303h-64v77h64v122q0 74 40.5 116t113.5 42q45 0 81 -18l-23 -79q-15 9 -28 12.5t-34 3.5q-28 0 -44 -8
q-11 -18 -11 -66v-125h177v122q0 80 44.5 119z" />
    <glyph glyph-name="uni0622.fina" unicode="&#x622;" horiz-adv-x="267" arabic-form="final" 
d="M130 17.5q-31 17.5 -45 59.5t-14 117v483h87v-480q0 -41 5.5 -62.5t21.5 -30.5t47 -9h35v-95h-53q-53 0 -84 17.5zM68 817q23 0 53 -7q34 -6 49 -6q29 0 49 16l16 -49q-28 -21 -67 -21q-17 0 -53 6l-21 3t-25 2q-37 0 -57 -23l-15 51q29 28 71 28z" />
    <glyph glyph-name="uni0623.fina" unicode="&#x623;" horiz-adv-x="267" arabic-form="final" 
d="M130 17.5q-31 17.5 -45 59.5t-14 117v483h87v-480q0 -41 5.5 -62.5t21.5 -30.5t47 -9h35v-95h-53q-53 0 -84 17.5zM12 790l57 6q-9 11 -14.5 26.5t-5.5 31.5q0 32 20 50t54 18q33 0 71 -16l-18 -48q-25 11 -45 11q-17 0 -30 -8q-1 -31 14 -45.5t43 -12.5l54 4l4 -47
l-199 -18z" />
    <glyph glyph-name="uni0624.fina" unicode="&#x624;" horiz-adv-x="463" arabic-form="final" 
d="M206.5 -93.5q63.5 40.5 92.5 94.5q-134 4 -197 38t-63 102q0 46 24.5 97.5t66 86t90.5 34.5q50 0 91.5 -37t65.5 -98t24 -129h62v-95h-77q-52 -157 -282 -241l-44 79q83 28 146.5 68.5zM195 103q50 -8 114 -8h8q-3 36 -15.5 75t-35 66.5t-52.5 27.5q-25 0 -46.5 -18.5
t-35 -48t-14.5 -62.5q27 -24 77 -32zM111 506l57 6q-9 11 -14.5 26.5t-5.5 31.5q0 32 20 50t54 18q33 0 71 -16l-18 -48q-25 11 -45 11q-17 0 -30 -8q-1 -31 14 -45.5t43 -12.5l54 4l4 -47l-199 -18z" />
    <glyph glyph-name="uni0625.fina" unicode="&#x625;" horiz-adv-x="267" arabic-form="final" 
d="M130 17.5q-31 17.5 -45 59.5t-14 117v483h87v-480q0 -41 5.5 -62.5t21.5 -30.5t47 -9h35v-95h-53q-53 0 -84 17.5zM7 -232l58 5q-10 10 -15.5 26t-5.5 33q0 32 20 50t54 18t71 -17l-18 -47q-25 11 -45 11q-17 0 -30 -8q-1 -31 14 -46t43 -13l54 5l4 -48l-199 -18z" />
    <glyph glyph-name="uni0626.init" unicode="&#x626;" horiz-adv-x="273" arabic-form="initial" 
d="M0 0l-18 48l18 47h111q6 62 6 146v121h88v-121q0 -71 -3 -126.5t-12 -114.5h-190zM37 554l57 6q-9 11 -14.5 26.5t-5.5 31.5q0 32 20 50t54 18q33 0 71 -16l-18 -48q-25 11 -45 11q-17 0 -30 -8q-1 -31 14 -45.5t43 -12.5l54 4l4 -47l-199 -18z" />
    <glyph glyph-name="uni0626.medi" unicode="&#x626;" horiz-adv-x="291" arabic-form="medial" 
d="M0 0l-18 48l18 47h81q11 47 11 172v95h90v-174q0 -52 19.5 -72.5t63.5 -20.5h26v-95h-47q-68 0 -102 49q-12 -26 -32 -49h-110zM33 523l57 6q-9 11 -14.5 26.5t-5.5 31.5q0 32 20 50t54 18q33 0 71 -16l-18 -48q-25 11 -45 11q-17 0 -30 -8q-1 -31 14 -45.5t43 -12.5
l54 4l4 -47l-199 -18z" />
    <glyph glyph-name="uni0626.fina" unicode="&#x626;" horiz-adv-x="664" arabic-form="final" 
d="M123 -145q-83 55 -83 173q0 56 21.5 108t67.5 114l70 -54q-34 -45 -51 -83t-17 -75q0 -69 56.5 -106t156.5 -37q156 0 219 87q-56 37 -177 110l49 78q58 -39 101.5 -57t84.5 -18h43v-95h-28q4 -9 4 -23q0 -44 -39 -85t-109.5 -66.5t-159.5 -25.5q-126 0 -209 55zM74 385
l57 6q-9 11 -14.5 26.5t-5.5 31.5q0 32 20 50t54 18q33 0 71 -16l-18 -48q-25 11 -45 11q-17 0 -30 -8q-1 -31 14 -45.5t43 -12.5l54 4l4 -47l-199 -18z" />
    <glyph glyph-name="uni0627.fina" unicode="&#x627;" horiz-adv-x="267" arabic-form="final" 
d="M130 17.5q-31 17.5 -45 59.5t-14 117v483h87v-480q0 -41 5.5 -62.5t21.5 -30.5t47 -9h35v-95h-53q-53 0 -84 17.5z" />
    <glyph glyph-name="uni0628.init" unicode="&#x628;" horiz-adv-x="273" arabic-form="initial" 
d="M0 0l-18 48l18 47h111q6 62 6 146v121h88v-121q0 -71 -3 -126.5t-12 -114.5h-190zM79.5 -185q-16.5 17 -16.5 42q0 26 16.5 43t41.5 17t42 -17t17 -43q0 -25 -17 -42t-42 -17t-41.5 17z" />
    <glyph glyph-name="uni0628.medi" unicode="&#x628;" horiz-adv-x="291" arabic-form="medial" 
d="M0 0l-18 48l18 47h81q11 47 11 172v95h90v-174q0 -52 19.5 -72.5t63.5 -20.5h26v-95h-47q-68 0 -102 49q-12 -26 -32 -49h-110zM96.5 -185q-16.5 17 -16.5 42q0 26 16.5 43t41.5 17t42 -17t17 -43q0 -25 -17 -42t-42 -17t-41.5 17z" />
    <glyph glyph-name="uni0628.fina" unicode="&#x628;" horiz-adv-x="890" arabic-form="final" 
d="M114 48.5q-54 48.5 -54 138.5q0 100 76 212l74 -49q-31 -47 -44.5 -83t-13.5 -69q0 -103 117 -103h427q8 55 8 172v95h89v-204q0 -35 16.5 -49t53.5 -14h27v-95h-34q-74 0 -105 40q-15 -23 -32 -40h-455q-96 0 -150 48.5zM423.5 -185q-16.5 17 -16.5 42q0 26 16.5 43
t41.5 17t42 -17t17 -43q0 -25 -17 -42t-42 -17t-41.5 17z" />
    <glyph glyph-name="uni0629.fina" unicode="&#x629;" horiz-adv-x="538" arabic-form="final" 
d="M132 56q-45 23 -69.5 59t-24.5 73q0 51 46 91.5t114.5 65.5t133.5 31v73h90v-139q0 -92 5 -135.5t20 -61.5t47 -18h44v-95h-62q-45 0 -73 15.5t-44 53.5q-51 -36 -123 -36q-59 0 -104 23zM169 142q33 -18 74 -18q54 0 96 30q-5 49 -7 131q-66 -5 -126 -31t-82 -60
q12 -34 45 -52zM306.5 552.5q-16.5 16.5 -16.5 41.5q0 26 16.5 43t41.5 17t41.5 -17t16.5 -43q0 -25 -16.5 -41.5t-41.5 -16.5t-41.5 16.5zM160.5 637q16.5 17 41.5 17t41.5 -17t16.5 -43q0 -25 -16.5 -41.5t-41.5 -16.5t-41.5 16.5t-16.5 41.5q0 26 16.5 43z" />
    <glyph glyph-name="uni062A.init" unicode="&#x62a;" horiz-adv-x="273" arabic-form="initial" 
d="M0 0l-18 48l18 47h111q6 62 6 146v121h88v-121q0 -71 -3 -126.5t-12 -114.5h-190zM170.5 511.5q-16.5 16.5 -16.5 41.5q0 26 16.5 43t41.5 17t41.5 -17t16.5 -43q0 -25 -16.5 -41.5t-41.5 -16.5t-41.5 16.5zM24.5 596q16.5 17 41.5 17t41.5 -17t16.5 -43
q0 -25 -16.5 -41.5t-41.5 -16.5t-41.5 16.5t-16.5 41.5q0 26 16.5 43z" />
    <glyph glyph-name="uni062A.medi" unicode="&#x62a;" horiz-adv-x="291" arabic-form="medial" 
d="M0 0l-18 48l18 47h81q11 47 11 172v95h90v-174q0 -52 19.5 -72.5t63.5 -20.5h26v-95h-47q-68 0 -102 49q-12 -26 -32 -49h-110zM166.5 480.5q-16.5 16.5 -16.5 41.5q0 26 16.5 43t41.5 17t41.5 -17t16.5 -43q0 -25 -16.5 -41.5t-41.5 -16.5t-41.5 16.5zM20.5 565
q16.5 17 41.5 17t41.5 -17t16.5 -43q0 -25 -16.5 -41.5t-41.5 -16.5t-41.5 16.5t-16.5 41.5q0 26 16.5 43z" />
    <glyph glyph-name="uni062A.fina" unicode="&#x62a;" horiz-adv-x="890" arabic-form="final" 
d="M114 48.5q-54 48.5 -54 138.5q0 100 76 212l74 -49q-31 -47 -44.5 -83t-13.5 -69q0 -103 117 -103h427q8 55 8 172v95h89v-204q0 -35 16.5 -49t53.5 -14h27v-95h-34q-74 0 -105 40q-15 -23 -32 -40h-455q-96 0 -150 48.5zM496.5 453.5q-16.5 16.5 -16.5 41.5
q0 26 16.5 43t41.5 17t41.5 -17t16.5 -43q0 -25 -16.5 -41.5t-41.5 -16.5t-41.5 16.5zM350.5 538q16.5 17 41.5 17t41.5 -17t16.5 -43q0 -25 -16.5 -41.5t-41.5 -16.5t-41.5 16.5t-16.5 41.5q0 26 16.5 43z" />
    <glyph glyph-name="uni062B.init" unicode="&#x62b;" horiz-adv-x="273" arabic-form="initial" 
d="M0 0l-18 48l18 47h111q6 62 6 146v121h88v-121q0 -71 -3 -126.5t-12 -114.5h-190zM30 508q-15 15 -15 37q0 23 15 38t37 15t37 -15t15 -38q0 -22 -14.5 -37t-37.5 -15q-22 0 -37 15zM103 698q15 15 37 15t36.5 -15t14.5 -38q0 -22 -14.5 -37t-36.5 -15t-37 15t-15 37
q0 23 15 38zM175 583q15 15 37 15t37 -15t15 -38q0 -22 -14.5 -37t-37.5 -15q-22 0 -37 15t-15 37q0 23 15 38z" />
    <glyph glyph-name="uni062B.medi" unicode="&#x62b;" horiz-adv-x="291" arabic-form="medial" 
d="M0 0l-18 48l18 47h81q11 47 11 172v95h90v-174q0 -52 19.5 -72.5t63.5 -20.5h26v-95h-47q-68 0 -102 49q-12 -26 -32 -49h-110zM26 477q-15 15 -15 37q0 23 15 38t37 15t37 -15t15 -38q0 -22 -14.5 -37t-37.5 -15q-22 0 -37 15zM99 667q15 15 37 15t36.5 -15t14.5 -38
q0 -22 -14.5 -37t-36.5 -15t-37 15t-15 37q0 23 15 38zM171 552q15 15 37 15t37 -15t15 -38q0 -22 -14.5 -37t-37.5 -15q-22 0 -37 15t-15 37q0 23 15 38z" />
    <glyph glyph-name="uni062B.fina" unicode="&#x62b;" horiz-adv-x="890" arabic-form="final" 
d="M114 48.5q-54 48.5 -54 138.5q0 100 76 212l74 -49q-31 -47 -44.5 -83t-13.5 -69q0 -103 117 -103h427q8 55 8 172v95h89v-204q0 -35 16.5 -49t53.5 -14h27v-95h-34q-74 0 -105 40q-15 -23 -32 -40h-455q-96 0 -150 48.5zM356 450q-15 15 -15 37q0 23 15 38t37 15t37 -15
t15 -38q0 -22 -14.5 -37t-37.5 -15q-22 0 -37 15zM429 640q15 15 37 15t36.5 -15t14.5 -38q0 -22 -14.5 -37t-36.5 -15t-37 15t-15 37q0 23 15 38zM501 525q15 15 37 15t37 -15t15 -38q0 -22 -14.5 -37t-37.5 -15q-22 0 -37 15t-15 37q0 23 15 38z" />
    <glyph glyph-name="uni062C.init" unicode="&#x62c;" horiz-adv-x="612" arabic-form="initial" 
d="M0 0l-18 48l18 47h40q78 0 154.5 36.5t138.5 93.5q-58 19 -103.5 29.5t-84.5 10.5q-55 0 -102 -21l-22 92q31 13 60 19t63 6q46 0 82 -8t88 -26q69 -22 123 -33.5t135 -10.5l-16 -95q-37 5 -64 5q-35 0 -64.5 -16.5t-75.5 -53.5q-50 -39 -89 -63t-97.5 -42t-133.5 -18
h-32zM243.5 -163q-16.5 17 -16.5 42q0 26 16.5 43t41.5 17t42 -17t17 -43q0 -25 -17 -42t-42 -17t-41.5 17z" />
    <glyph glyph-name="uni062C.medi" unicode="&#x62c;" horiz-adv-x="614" arabic-form="medial" 
d="M0 0l-18 48l18 47h40q78 0 155 36.5t138 93.5q-122 40 -187 40q-59 0 -103 -21l-22 92q31 13 60 19t63 6q46 0 82 -8t88 -26q69 -22 123 -33.5t135 -10.5l-16 -95q-37 5 -64 5t-51.5 -10.5t-53.5 -31.5q34 -56 127 -56h100v-95h-90q-77 0 -129 26.5t-73 74.5
q-60 -46 -127.5 -73.5t-162.5 -27.5h-32zM263.5 -185q-16.5 17 -16.5 42q0 26 16.5 43t41.5 17t42 -17t17 -43q0 -25 -17 -42t-42 -17t-41.5 17z" />
    <glyph glyph-name="uni062C.fina" unicode="&#x62c;" horiz-adv-x="641" arabic-form="final" 
d="M243 -338q-85 33 -134.5 97.5t-49.5 153.5q0 78 38 147t98 118t126 72q-87 29 -150 29q-54 0 -110 -21l-23 92q33 13 61 19t61 6q45 0 80.5 -8.5t89.5 -26.5q67 -23 123.5 -35.5t137.5 -12.5l-16 -93q-30 3 -59 3q-41 0 -80 -6q18 -45 52.5 -73t83.5 -28h69v-95h-67
q-163 0 -209 180q-87 -27 -148.5 -84.5t-86.5 -144.5q0 -68 40 -119t113 -79t171 -28q59 0 113 9l12 -93q-75 -12 -146 -12q-105 0 -190 33zM295.5 -112q-16.5 17 -16.5 42q0 26 16.5 43t41.5 17t42 -17t17 -43q0 -25 -17 -42t-42 -17t-41.5 17z" />
    <glyph glyph-name="uni062D.init" unicode="&#x62d;" horiz-adv-x="612" arabic-form="initial" 
d="M0 0l-18 48l18 47h40q78 0 154.5 36.5t138.5 93.5q-58 19 -103.5 29.5t-84.5 10.5q-55 0 -102 -21l-22 92q31 13 60 19t63 6q46 0 82 -8t88 -26q69 -22 123 -33.5t135 -10.5l-16 -95q-37 5 -64 5q-35 0 -64.5 -16.5t-75.5 -53.5q-50 -39 -89 -63t-97.5 -42t-133.5 -18
h-32z" />
    <glyph glyph-name="uni062D.medi" unicode="&#x62d;" horiz-adv-x="614" arabic-form="medial" 
d="M0 0l-18 48l18 47h40q78 0 155 36.5t138 93.5q-122 40 -187 40q-59 0 -103 -21l-22 92q31 13 60 19t63 6q46 0 82 -8t88 -26q69 -22 123 -33.5t135 -10.5l-16 -95q-37 5 -64 5t-51.5 -10.5t-53.5 -31.5q34 -56 127 -56h100v-95h-90q-77 0 -129 26.5t-73 74.5
q-60 -46 -127.5 -73.5t-162.5 -27.5h-32z" />
    <glyph glyph-name="uni062D.fina" unicode="&#x62d;" horiz-adv-x="641" arabic-form="final" 
d="M243 -338q-85 33 -134.5 97.5t-49.5 153.5q0 78 38 147t98 118t126 72q-87 29 -150 29q-54 0 -110 -21l-23 92q33 13 61 19t61 6q45 0 80.5 -8.5t89.5 -26.5q67 -23 123.5 -35.5t137.5 -12.5l-16 -93q-30 3 -59 3q-41 0 -80 -6q18 -45 52.5 -73t83.5 -28h69v-95h-67
q-163 0 -209 180q-87 -27 -148.5 -84.5t-86.5 -144.5q0 -68 40 -119t113 -79t171 -28q59 0 113 9l12 -93q-75 -12 -146 -12q-105 0 -190 33z" />
    <glyph glyph-name="uni062E.init" unicode="&#x62e;" horiz-adv-x="612" arabic-form="initial" 
d="M0 0l-18 48l18 47h40q78 0 154.5 36.5t138.5 93.5q-58 19 -103.5 29.5t-84.5 10.5q-55 0 -102 -21l-22 92q31 13 60 19t63 6q46 0 82 -8t88 -26q69 -22 123 -33.5t135 -10.5l-16 -95q-37 5 -64 5q-35 0 -64.5 -16.5t-75.5 -53.5q-50 -39 -89 -63t-97.5 -42t-133.5 -18
h-32zM263.5 490q-16.5 17 -16.5 42q0 26 16.5 43t41.5 17t42 -17t17 -43q0 -25 -17 -42t-42 -17t-41.5 17z" />
    <glyph glyph-name="uni062E.medi" unicode="&#x62e;" horiz-adv-x="614" arabic-form="medial" 
d="M0 0l-18 48l18 47h40q78 0 155 36.5t138 93.5q-122 40 -187 40q-59 0 -103 -21l-22 92q31 13 60 19t63 6q46 0 82 -8t88 -26q69 -22 123 -33.5t135 -10.5l-16 -95q-37 5 -64 5t-51.5 -10.5t-53.5 -31.5q34 -56 127 -56h100v-95h-90q-77 0 -129 26.5t-73 74.5
q-60 -46 -127.5 -73.5t-162.5 -27.5h-32zM263.5 490q-16.5 17 -16.5 42q0 26 16.5 43t41.5 17t42 -17t17 -43q0 -25 -17 -42t-42 -17t-41.5 17z" />
    <glyph glyph-name="uni062E.fina" unicode="&#x62e;" horiz-adv-x="641" arabic-form="final" 
d="M243 -338q-85 33 -134.5 97.5t-49.5 153.5q0 78 38 147t98 118t126 72q-87 29 -150 29q-54 0 -110 -21l-23 92q33 13 61 19t61 6q45 0 80.5 -8.5t89.5 -26.5q67 -23 123.5 -35.5t137.5 -12.5l-16 -93q-30 3 -59 3q-41 0 -80 -6q18 -45 52.5 -73t83.5 -28h69v-95h-67
q-163 0 -209 180q-87 -27 -148.5 -84.5t-86.5 -144.5q0 -68 40 -119t113 -79t171 -28q59 0 113 9l12 -93q-75 -12 -146 -12q-105 0 -190 33zM302.5 493q-16.5 17 -16.5 42q0 26 16.5 43t41.5 17t42 -17t17 -43q0 -25 -17 -42t-42 -17t-41.5 17z" />
    <glyph glyph-name="uni062F.fina" unicode="&#x62f;" horiz-adv-x="518" arabic-form="final" 
d="M421.5 16q-32.5 16 -60.5 49l-23 -33q-27 -16 -79.5 -24.5t-115.5 -8.5q-51 0 -104 6l7 96q56 -6 105 -6q110 0 173 30q-45 91 -82 280l90 18q25 -126 48.5 -196.5t51.5 -101t68 -30.5h18v-95h-23q-41 0 -73.5 16z" />
    <glyph glyph-name="uni0630.fina" unicode="&#x630;" horiz-adv-x="518" arabic-form="final" 
d="M421.5 16q-32.5 16 -60.5 49l-23 -33q-27 -16 -79.5 -24.5t-115.5 -8.5q-51 0 -104 6l7 96q56 -6 105 -6q110 0 173 30q-45 91 -82 280l90 18q25 -126 48.5 -196.5t51.5 -101t68 -30.5h18v-95h-23q-41 0 -73.5 16zM228.5 514q-16.5 17 -16.5 42q0 26 16.5 43t41.5 17
t42 -17t17 -43q0 -25 -17 -42t-42 -17t-41.5 17z" />
    <glyph glyph-name="uni0631.fina" unicode="&#x631;" horiz-adv-x="437" arabic-form="final" 
d="M248 88q-9 67 -61 219l85 33l44 -131q21 -65 46 -89.5t65 -24.5h10v-95h-22q-52 0 -96 35q-22 -76 -90.5 -141t-179.5 -123l-51 79q208 104 250 238z" />
    <glyph glyph-name="uni0632.fina" unicode="&#x632;" horiz-adv-x="437" arabic-form="final" 
d="M248 88q-9 67 -61 219l85 33l44 -131q21 -65 46 -89.5t65 -24.5h10v-95h-22q-52 0 -96 35q-22 -76 -90.5 -141t-179.5 -123l-51 79q208 104 250 238zM163.5 445q-16.5 17 -16.5 42q0 26 16.5 43t41.5 17t42 -17t17 -43q0 -25 -17 -42t-42 -17t-41.5 17z" />
    <glyph glyph-name="uni0633.init" unicode="&#x633;" horiz-adv-x="715" arabic-form="initial" 
d="M0 0l-18 48l18 47h111q10 57 10 172v75h89v-168q0 -42 17 -60.5t55 -18.5h65q11 42 11 109v138h88v-159q0 -53 18 -70.5t56 -17.5h46q9 38 9 114v133h88v-141q0 -112 -28 -201h-121q-32 0 -58.5 12t-42.5 31q-12 -23 -32 -43h-108q-33 0 -59 11.5t-41 30.5
q-11 -23 -32 -42h-141z" />
    <glyph glyph-name="uni0633.medi" unicode="&#x633;" horiz-adv-x="763" arabic-form="medial" 
d="M0 0l-18 48l18 47h111q10 45 10 138v109h89v-177q0 -70 76 -70h63q9 47 9 129v118h88v-177q0 -70 77 -70h41q10 37 10 90v157h89v-177q0 -70 69 -70h31v-95h-33q-33 0 -60 11t-43 30q-13 -23 -36 -41h-77q-32 0 -57.5 11.5t-41.5 30.5q-18 -28 -37 -42h-105
q-33 0 -59.5 12t-41.5 31q-12 -22 -31 -43h-141z" />
    <glyph glyph-name="uni0633.fina" unicode="&#x633;" horiz-adv-x="1157" arabic-form="final" 
d="M115.5 -75.5q-64.5 60.5 -64.5 169.5q0 64 23 128.5t66 120.5l70 -54q-32 -42 -50 -91t-18 -92q0 -70 44.5 -108t118.5 -38q72 0 126.5 35.5t74.5 98.5q-7 47 -17.5 97t-32.5 137l91 24l38 -162q13 -56 34 -75.5t63 -19.5h61q10 47 10 117v130h88v-161q0 -36 7.5 -54.5
t23 -25t43.5 -6.5h44q5 19 7 46t2 75v126h88v-171q0 -42 16 -59t55 -17h30v-95h-33q-28 0 -53 12.5t-41 33.5q-14 -29 -34 -46h-87q-69 0 -103 45q-14 -24 -33 -45h-91q-71 0 -109 38q-29 -75 -104 -124.5t-178 -49.5q-111 0 -175.5 60.5z" />
    <glyph glyph-name="uni0634.init" unicode="&#x634;" horiz-adv-x="715" arabic-form="initial" 
d="M0 0l-18 48l18 47h111q10 57 10 172v75h89v-168q0 -42 17 -60.5t55 -18.5h65q11 42 11 109v138h88v-159q0 -53 18 -70.5t56 -17.5h46q9 38 9 114v133h88v-141q0 -112 -28 -201h-121q-32 0 -58.5 12t-42.5 31q-12 -23 -32 -43h-108q-33 0 -59 11.5t-41 30.5
q-11 -23 -32 -42h-141zM293 489q-15 15 -15 37q0 23 15 38t37 15t37 -15t15 -38q0 -22 -14.5 -37t-37.5 -15q-22 0 -37 15zM366 679q15 15 37 15t36.5 -15t14.5 -38q0 -22 -14.5 -37t-36.5 -15t-37 15t-15 37q0 23 15 38zM438 564q15 15 37 15t37 -15t15 -38
q0 -22 -14.5 -37t-37.5 -15q-22 0 -37 15t-15 37q0 23 15 38z" />
    <glyph glyph-name="uni0634.medi" unicode="&#x634;" horiz-adv-x="763" arabic-form="medial" 
d="M0 0l-18 48l18 47h111q10 45 10 138v109h89v-177q0 -70 76 -70h63q9 47 9 129v118h88v-177q0 -70 77 -70h41q10 37 10 90v157h89v-177q0 -70 69 -70h31v-95h-33q-33 0 -60 11t-43 30q-13 -23 -36 -41h-77q-32 0 -57.5 11.5t-41.5 30.5q-18 -28 -37 -42h-105
q-33 0 -59.5 12t-41.5 31q-12 -22 -31 -43h-141zM293 489q-15 15 -15 37q0 23 15 38t37 15t37 -15t15 -38q0 -22 -14.5 -37t-37.5 -15q-22 0 -37 15zM366 679q15 15 37 15t36.5 -15t14.5 -38q0 -22 -14.5 -37t-36.5 -15t-37 15t-15 37q0 23 15 38zM438 564q15 15 37 15
t37 -15t15 -38q0 -22 -14.5 -37t-37.5 -15q-22 0 -37 15t-15 37q0 23 15 38z" />
    <glyph glyph-name="uni0634.fina" unicode="&#x634;" horiz-adv-x="1157" arabic-form="final" 
d="M115.5 -75.5q-64.5 60.5 -64.5 169.5q0 64 23 128.5t66 120.5l70 -54q-32 -42 -50 -91t-18 -92q0 -70 44.5 -108t118.5 -38q72 0 126.5 35.5t74.5 98.5q-7 47 -17.5 97t-32.5 137l91 24l38 -162q13 -56 34 -75.5t63 -19.5h61q10 47 10 117v130h88v-161q0 -36 7.5 -54.5
t23 -25t43.5 -6.5h44q5 19 7 46t2 75v126h88v-171q0 -42 16 -59t55 -17h30v-95h-33q-28 0 -53 12.5t-41 33.5q-14 -29 -34 -46h-87q-69 0 -103 45q-14 -24 -33 -45h-91q-71 0 -109 38q-29 -75 -104 -124.5t-178 -49.5q-111 0 -175.5 60.5zM689 489q-15 15 -15 37q0 23 15 38
t37 15t37 -15t15 -38q0 -22 -14.5 -37t-37.5 -15q-22 0 -37 15zM762 679q15 15 37 15t36.5 -15t14.5 -38q0 -22 -14.5 -37t-36.5 -15t-37 15t-15 37q0 23 15 38zM834 564q15 15 37 15t37 -15t15 -38q0 -22 -14.5 -37t-37.5 -15q-22 0 -37 15t-15 37q0 23 15 38z" />
    <glyph glyph-name="uni0635.init" unicode="&#x635;" horiz-adv-x="726" arabic-form="initial" 
d="M0 0l-18 48l18 47h68q9 48 9 104v143h88v-102q78 66 165.5 107.5t157.5 41.5q58 0 103.5 -28.5t70 -76t24.5 -101.5q0 -105 -87 -144t-229 -39h-108q-49 0 -79 10.5t-49 36.5q-12 -28 -29 -47h-105zM201.5 106q22.5 -11 60.5 -11h81q199 0 257 53q0 69 -33 108t-95 39
q-71 0 -156.5 -47t-145.5 -106q9 -25 31.5 -36z" />
    <glyph glyph-name="uni0635.medi" unicode="&#x635;" horiz-adv-x="738" arabic-form="medial" 
d="M0 0l-18 48l18 47h69q7 47 7 104v143h88v-101q79 66 163 107t155 41q59 0 105 -28.5t71 -75.5t25 -101t-26 -89h81v-95h-477q-48 0 -78.5 10t-49.5 35q-15 -29 -28 -45h-105zM199 104.5q21 -9.5 62 -9.5h81q197 0 255 53q2 65 -31.5 106t-96.5 41q-69 0 -153 -45.5
t-146 -105.5q8 -30 29 -39.5z" />
    <glyph glyph-name="uni0635.fina" unicode="&#x635;" horiz-adv-x="1158" arabic-form="final" 
d="M106.5 -77q-66.5 58 -66.5 171q0 62 22 126t67 123l70 -54q-33 -42 -50.5 -91t-17.5 -92q0 -70 44 -108t119 -38q71 0 126.5 36t74.5 99q-15 95 -48 233l89 27l31 -122q71 64 160.5 110t167.5 46q57 0 104 -26.5t74 -72.5t27 -103q0 -55 -28 -94q13 2 39 2h47v-95h-465
q-83 0 -132 34q-29 -75 -107 -122t-176 -47q-105 0 -171.5 58zM626 108q24 -13 73 -13h51q100 0 164.5 11.5t99.5 41.5q1 6 1 17q0 53 -33 91.5t-92 38.5q-65 0 -152.5 -42.5t-148.5 -98.5q13 -33 37 -46z" />
    <glyph glyph-name="uni0636.init" unicode="&#x636;" horiz-adv-x="726" arabic-form="initial" 
d="M0 0l-18 48l18 47h68q9 48 9 104v143h88v-102q78 66 165.5 107.5t157.5 41.5q58 0 103.5 -28.5t70 -76t24.5 -101.5q0 -105 -87 -144t-229 -39h-108q-49 0 -79 10.5t-49 36.5q-12 -28 -29 -47h-105zM201.5 106q22.5 -11 60.5 -11h81q199 0 257 53q0 69 -33 108t-95 39
q-71 0 -156.5 -47t-145.5 -106q9 -25 31.5 -36zM329.5 490q-16.5 17 -16.5 42q0 26 16.5 43t41.5 17t42 -17t17 -43q0 -25 -17 -42t-42 -17t-41.5 17z" />
    <glyph glyph-name="uni0636.medi" unicode="&#x636;" horiz-adv-x="738" arabic-form="medial" 
d="M0 0l-18 48l18 47h69q7 47 7 104v143h88v-101q79 66 163 107t155 41q59 0 105 -28.5t71 -75.5t25 -101t-26 -89h81v-95h-477q-48 0 -78.5 10t-49.5 35q-15 -29 -28 -45h-105zM199 104.5q21 -9.5 62 -9.5h81q197 0 255 53q2 65 -31.5 106t-96.5 41q-69 0 -153 -45.5
t-146 -105.5q8 -30 29 -39.5zM329.5 490q-16.5 17 -16.5 42q0 26 16.5 43t41.5 17t42 -17t17 -43q0 -25 -17 -42t-42 -17t-41.5 17z" />
    <glyph glyph-name="uni0636.fina" unicode="&#x636;" horiz-adv-x="1158" arabic-form="final" 
d="M106.5 -77q-66.5 58 -66.5 171q0 62 22 126t67 123l70 -54q-33 -42 -50.5 -91t-17.5 -92q0 -70 44 -108t119 -38q71 0 126.5 36t74.5 99q-15 95 -48 233l89 27l31 -122q71 64 160.5 110t167.5 46q57 0 104 -26.5t74 -72.5t27 -103q0 -55 -28 -94q13 2 39 2h47v-95h-465
q-83 0 -132 34q-29 -75 -107 -122t-176 -47q-105 0 -171.5 58zM626 108q24 -13 73 -13h51q100 0 164.5 11.5t99.5 41.5q1 6 1 17q0 53 -33 91.5t-92 38.5q-65 0 -152.5 -42.5t-148.5 -98.5q13 -33 37 -46zM628.5 490q-16.5 17 -16.5 42q0 26 16.5 43t41.5 17t42 -17t17 -43
q0 -25 -17 -42t-42 -17t-41.5 17z" />
    <glyph glyph-name="uni0637.init" unicode="&#x637;" horiz-adv-x="669" arabic-form="initial" 
d="M0 0l-18 48l18 47h39q46 73 92 129q9 73 9 179v274h88v-212q0 -65 -1 -94.5t-6 -56.5q95 75 193 75q63 0 111.5 -28t75 -75.5t26.5 -104.5t-35 -96t-130 -62t-269 -23h-193zM215 95q106 0 194.5 13t131.5 45q3 38 -14 70.5t-51 51.5t-79 19q-66 0 -131.5 -47t-137.5 -152
h87z" />
    <glyph glyph-name="uni0637.medi" unicode="&#x637;" horiz-adv-x="687" arabic-form="medial" 
d="M0 0l-18 48l18 47h44q47 75 93 129q9 75 9 179v274h88v-212q0 -65 -1 -94.5t-6 -56.5q95 75 193 75q63 0 111.5 -28t75 -74.5t26.5 -99.5q0 -30 -11 -54t-33 -47q35 9 74 9h24v-95h-687zM220 95q106 0 194.5 13t131.5 45q3 38 -14 70.5t-50.5 51.5t-78.5 19
q-66 0 -131.5 -47t-137.5 -152h86z" />
    <glyph glyph-name="uni0637.fina" unicode="&#x637;" horiz-adv-x="806" arabic-form="final" 
d="M40 95h120q56 83 92 126q9 75 9 182v274h88v-212q0 -66 -1 -95.5t-6 -56.5q93 76 190 76q65 0 114 -28t75.5 -75.5t26.5 -104.5q0 -55 -30 -90q50 4 67 4h21v-95h-755zM336 95q106 0 194.5 13t130.5 45q1 5 1 14q0 32 -19.5 61t-54.5 47.5t-78 18.5q-63 0 -126 -47
t-136 -152h88z" />
    <glyph glyph-name="uni0638.init" unicode="&#x638;" horiz-adv-x="669" arabic-form="initial" 
d="M0 0l-18 48l18 47h39q46 73 92 129q9 73 9 179v274h88v-212q0 -65 -1 -94.5t-6 -56.5q95 75 193 75q63 0 111.5 -28t75 -75.5t26.5 -104.5t-35 -96t-130 -62t-269 -23h-193zM215 95q106 0 194.5 13t131.5 45q3 38 -14 70.5t-51 51.5t-79 19q-66 0 -131.5 -47t-137.5 -152
h87zM360.5 510q-16.5 17 -16.5 42q0 26 16.5 43t41.5 17t42 -17t17 -43q0 -25 -17 -42t-42 -17t-41.5 17z" />
    <glyph glyph-name="uni0638.medi" unicode="&#x638;" horiz-adv-x="687" arabic-form="medial" 
d="M0 0l-18 48l18 47h44q47 75 93 129q9 75 9 179v274h88v-212q0 -65 -1 -94.5t-6 -56.5q95 75 193 75q63 0 111.5 -28t75 -74.5t26.5 -99.5q0 -30 -11 -54t-33 -47q35 9 74 9h24v-95h-687zM220 95q106 0 194.5 13t131.5 45q3 38 -14 70.5t-50.5 51.5t-78.5 19
q-66 0 -131.5 -47t-137.5 -152h86zM367.5 510q-16.5 17 -16.5 42q0 26 16.5 43t41.5 17t42 -17t17 -43q0 -25 -17 -42t-42 -17t-41.5 17z" />
    <glyph glyph-name="uni0638.fina" unicode="&#x638;" horiz-adv-x="806" arabic-form="final" 
d="M40 95h120q56 83 92 126q9 75 9 182v274h88v-212q0 -66 -1 -95.5t-6 -56.5q93 76 190 76q65 0 114 -28t75.5 -75.5t26.5 -104.5q0 -55 -30 -90q50 4 67 4h21v-95h-755zM336 95q106 0 194.5 13t130.5 45q1 5 1 14q0 32 -19.5 61t-54.5 47.5t-78 18.5q-63 0 -126 -47
t-136 -152h88zM487.5 510q-16.5 17 -16.5 42q0 26 16.5 43t41.5 17t42 -17t17 -43q0 -25 -17 -42t-42 -17t-41.5 17z" />
    <glyph glyph-name="uni0639.init" unicode="&#x639;" horiz-adv-x="480" arabic-form="initial" 
d="M0 0l-18 48l18 47h98q-44 53 -44 122q0 48 20.5 88.5t63 65.5t104.5 25q81 0 152 -39l-33 -84q-59 31 -120 31q-60 0 -96 -30q-4 -17 -4 -38q0 -60 40.5 -100.5t108.5 -40.5h142l-13 -95h-419z" />
    <glyph glyph-name="uni0639.medi" unicode="&#x639;" horiz-adv-x="541" arabic-form="medial" 
d="M0 0l-18 48l18 47h216q-27 33 -69 67t-92 65v100q40 26 99 41.5t117 15.5q86 0 142.5 -33t56.5 -98q0 -47 -27.5 -89.5t-67.5 -68.5h166v-95h-157q-52 0 -98 30q-28 -20 -50 -30h-236zM221.5 203.5q40.5 -35.5 70.5 -70.5q95 65 101 118q-15 21 -50.5 32.5t-79.5 11.5
q-72 0 -124 -29q42 -27 82.5 -62.5z" />
    <glyph glyph-name="uni0639.fina" unicode="&#x639;" horiz-adv-x="517" arabic-form="final" 
d="M128.5 -315.5q-90.5 53.5 -90.5 163.5q0 80 47.5 146.5t119.5 105.5q-101 95 -164 130v102q45 25 105 39.5t117 14.5q82 0 136.5 -32t54.5 -97q0 -84 -101 -159q30 -3 82 -3h82v-95h-65q-77 0 -115.5 7t-66.5 33q-58 -26 -104 -69t-60 -91q4 -71 73 -112.5t175 -41.5
q59 0 128 9l8 -92q-66 -12 -129 -12q-142 0 -232.5 53.5zM202.5 215.5q43.5 -34.5 77.5 -71.5q42 29 65.5 53.5t35.5 53.5q-7 21 -43.5 33.5t-83.5 12.5q-75 0 -131 -27q36 -20 79.5 -54.5z" />
    <glyph glyph-name="uni063A.init" unicode="&#x63a;" horiz-adv-x="480" arabic-form="initial" 
d="M0 0l-18 48l18 47h98q-44 53 -44 122q0 48 20.5 88.5t63 65.5t104.5 25q81 0 152 -39l-33 -84q-59 31 -120 31q-60 0 -96 -30q-4 -17 -4 -38q0 -60 40.5 -100.5t108.5 -40.5h142l-13 -95h-419zM204.5 503q-16.5 17 -16.5 42q0 26 16.5 43t41.5 17t42 -17t17 -43
q0 -25 -17 -42t-42 -17t-41.5 17z" />
    <glyph glyph-name="uni063A.medi" unicode="&#x63a;" horiz-adv-x="541" arabic-form="medial" 
d="M0 0l-18 48l18 47h216q-27 33 -69 67t-92 65v100q40 26 99 41.5t117 15.5q86 0 142.5 -33t56.5 -98q0 -47 -27.5 -89.5t-67.5 -68.5h166v-95h-157q-52 0 -98 30q-28 -20 -50 -30h-236zM221.5 203.5q40.5 -35.5 70.5 -70.5q95 65 101 118q-15 21 -50.5 32.5t-79.5 11.5
q-72 0 -124 -29q42 -27 82.5 -62.5zM216.5 493q-16.5 17 -16.5 42q0 26 16.5 43t41.5 17t42 -17t17 -43q0 -25 -17 -42t-42 -17t-41.5 17z" />
    <glyph glyph-name="uni063A.fina" unicode="&#x63a;" horiz-adv-x="517" arabic-form="final" 
d="M128.5 -315.5q-90.5 53.5 -90.5 163.5q0 80 47.5 146.5t119.5 105.5q-101 95 -164 130v102q45 25 105 39.5t117 14.5q82 0 136.5 -32t54.5 -97q0 -84 -101 -159q30 -3 82 -3h82v-95h-65q-77 0 -115.5 7t-66.5 33q-58 -26 -104 -69t-60 -91q4 -71 73 -112.5t175 -41.5
q59 0 128 9l8 -92q-66 -12 -129 -12q-142 0 -232.5 53.5zM202.5 215.5q43.5 -34.5 77.5 -71.5q42 29 65.5 53.5t35.5 53.5q-7 21 -43.5 33.5t-83.5 12.5q-75 0 -131 -27q36 -20 79.5 -54.5zM216.5 493q-16.5 17 -16.5 42q0 26 16.5 43t41.5 17t42 -17t17 -43q0 -25 -17 -42
t-42 -17t-41.5 17z" />
    <glyph glyph-name="uni0640.fina" unicode="&#x640;" horiz-adv-x="248" 
d="M0 95h248v-95h-248v95z" />
    <glyph glyph-name="uni0641.init" unicode="&#x641;" horiz-adv-x="495" arabic-form="initial" 
d="M0 0l-18 48l18 47h128q-68 48 -68 113q0 42 25.5 90.5t68 81.5t91.5 33q54 0 98 -41t69.5 -105.5t25.5 -132.5q0 -67 -23 -134h-415zM225.5 134q56.5 -31 116.5 -39q3 18 3 38q0 43 -15 86.5t-39 71.5t-49 28q-18 0 -39.5 -15t-38.5 -41t-21 -58q26 -40 82.5 -71z
M201.5 512q-16.5 17 -16.5 42q0 26 16.5 43t41.5 17t42 -17t17 -43q0 -25 -17 -42t-42 -17t-41.5 17z" />
    <glyph glyph-name="uni0641.medi" unicode="&#x641;" horiz-adv-x="486" arabic-form="medial" 
d="M0 0l-18 48l18 47h116q-23 22 -38.5 55t-15.5 67q0 46 31 91.5t77.5 74.5t90.5 29t81.5 -31.5t59.5 -78t22 -87.5q0 -36 -15 -66.5t-40 -53.5h117v-95h-124q-29 0 -63 9.5t-57 25.5q-56 -35 -135 -35h-107zM182.5 159.5q26.5 -30.5 57.5 -51.5q35 21 61 48.5t37 51.5
q-1 26 -13.5 52t-31.5 43t-39 17t-44.5 -18t-42 -43.5t-19.5 -46.5q8 -22 34.5 -52.5zM202.5 512q-16.5 17 -16.5 42q0 26 16.5 43t41.5 17t42 -17t17 -43q0 -25 -17 -42t-42 -17t-41.5 17z" />
    <glyph glyph-name="uni0641.fina" unicode="&#x641;" horiz-adv-x="949" arabic-form="final" 
d="M90.5 51q-50.5 51 -50.5 133q0 56 20.5 110.5t55.5 104.5l74 -49q-31 -47 -44.5 -82t-13.5 -70q0 -103 114 -103h337q-25 21 -41 52t-16 63q0 43 30.5 91t77.5 80t92 32t82 -33.5t58.5 -82t21.5 -90.5q0 -66 -53 -112h114v-95h-127q-66 0 -118 34q-30 -18 -58 -26t-66 -8
h-331q-108 0 -158.5 51zM647 155.5q26 -26.5 61 -47.5q69 39 95 93q-1 26 -12.5 54t-30.5 46.5t-40 18.5q-22 0 -47 -19.5t-42 -47.5t-17 -50q7 -21 33 -47.5zM673.5 512q-16.5 17 -16.5 42q0 26 16.5 43t41.5 17t42 -17t17 -43q0 -25 -17 -42t-42 -17t-41.5 17z" />
    <glyph glyph-name="uni0642.init" unicode="&#x642;" horiz-adv-x="495" arabic-form="initial" 
d="M0 0l-18 48l18 47h128q-68 48 -68 113q0 42 25.5 90.5t68 81.5t91.5 33q54 0 98 -41t69.5 -105.5t25.5 -132.5q0 -67 -23 -134h-415zM225.5 134q56.5 -31 116.5 -39q3 18 3 38q0 43 -15 86.5t-39 71.5t-49 28q-18 0 -39.5 -15t-38.5 -41t-21 -58q26 -40 82.5 -71z
M275.5 513.5q-16.5 16.5 -16.5 41.5q0 26 16.5 43t41.5 17t41.5 -17t16.5 -43q0 -25 -16.5 -41.5t-41.5 -16.5t-41.5 16.5zM129.5 598q16.5 17 41.5 17t41.5 -17t16.5 -43q0 -25 -16.5 -41.5t-41.5 -16.5t-41.5 16.5t-16.5 41.5q0 26 16.5 43z" />
    <glyph glyph-name="uni0642.medi" unicode="&#x642;" horiz-adv-x="486" arabic-form="medial" 
d="M0 0l-18 48l18 47h116q-23 22 -38.5 55t-15.5 67q0 46 31 91.5t77.5 74.5t90.5 29t81.5 -31.5t59.5 -78t22 -87.5q0 -36 -15 -66.5t-40 -53.5h117v-95h-124q-29 0 -63 9.5t-57 25.5q-56 -35 -135 -35h-107zM182.5 159.5q26.5 -30.5 57.5 -51.5q35 21 61 48.5t37 51.5
q-1 26 -13.5 52t-31.5 43t-39 17t-44.5 -18t-42 -43.5t-19.5 -46.5q8 -22 34.5 -52.5zM275.5 513.5q-16.5 16.5 -16.5 41.5q0 26 16.5 43t41.5 17t41.5 -17t16.5 -43q0 -25 -16.5 -41.5t-41.5 -16.5t-41.5 16.5zM129.5 598q16.5 17 41.5 17t41.5 -17t16.5 -43
q0 -25 -16.5 -41.5t-41.5 -16.5t-41.5 16.5t-16.5 41.5q0 26 16.5 43z" />
    <glyph glyph-name="uni0642.fina" unicode="&#x642;" horiz-adv-x="725" arabic-form="final" 
d="M192.5 -193q-69.5 26 -111 81.5t-41.5 138.5q0 59 22 122t66 121l71 -53q-33 -43 -50.5 -92.5t-17.5 -90.5q0 -79 62 -117.5t160 -38.5q71 0 126 18.5t85 49.5q8 30 10 55q-276 14 -276 152q0 42 24 93t66 86t93 35q54 0 93.5 -40t61 -102.5t25.5 -129.5h64v-95h-69
q-20 -110 -103.5 -164.5t-205.5 -54.5q-85 0 -154.5 26zM462 109q49 -11 113 -13q-6 75 -30.5 126t-67.5 51q-37 0 -65.5 -37.5t-34.5 -89.5q36 -26 85 -37zM501.5 509.5q-16.5 16.5 -16.5 41.5q0 26 16.5 43t41.5 17t41.5 -17t16.5 -43q0 -25 -16.5 -41.5t-41.5 -16.5
t-41.5 16.5zM355.5 594q16.5 17 41.5 17t41.5 -17t16.5 -43q0 -25 -16.5 -41.5t-41.5 -16.5t-41.5 16.5t-16.5 41.5q0 26 16.5 43z" />
    <glyph glyph-name="uni0643.init" unicode="&#x643;" horiz-adv-x="449" arabic-form="initial" 
d="M0 0l-18 48l18 47h270q-15 80 -77.5 150t-164.5 114l-13 107l378 199l38 -84l-315 -161q121 -64 181 -152.5t68 -206.5l-46 -61h-319z" />
    <glyph glyph-name="uni0643.medi" unicode="&#x643;" horiz-adv-x="536" arabic-form="medial" 
d="M0 0l-18 48l18 47h157q28 35 28 78q0 49 -38.5 95.5t-115.5 88.5l-13 107l426 190l33 -88l-358 -154q49 -24 95.5 -66t106.5 -107q68 -74 110.5 -109t83.5 -35h21v-95h-21q-61 0 -125.5 48t-118.5 118v-9q0 -53 -25.5 -92.5t-62.5 -64.5h-183z" />
    <glyph glyph-name="uni0643.fina" unicode="&#x643;" horiz-adv-x="884" arabic-form="final" 
d="M114 48.5q-54 48.5 -54 138.5q0 100 76 212l74 -49q-31 -47 -44.5 -83t-13.5 -69q0 -47 28 -75t97 -28h418q11 56 11 172v410h89v-521q0 -35 14.5 -48t54.5 -13h20v-95h-25q-41 0 -65.5 10.5t-38.5 34.5q-11 -21 -30 -45h-461q-96 0 -150 48.5zM393 341q-32 36 -32 86
q0 44 26 73.5t76 29.5q26 0 53 -7.5t48 -21.5l-28 -60q-34 21 -73 21q-22 0 -37 -7q-2 -5 -2 -18q0 -35 19.5 -61t57.5 -22l84 10l4 -60q-132 -15 -251 -37l-11 62z" />
    <glyph glyph-name="uni0644.init" unicode="&#x644;" horiz-adv-x="247" arabic-form="initial" 
d="M0 0l-18 48l18 47h82q6 92 6 219v363h88v-363q0 -218 -18 -314h-158z" />
    <glyph glyph-name="uni0644.medi" unicode="&#x644;" horiz-adv-x="262" arabic-form="medial" 
d="M0 0l-18 48l18 47h69q11 47 11 172v410h89v-505q0 -41 17.5 -59t54.5 -18h21v-95h-29q-42 0 -66.5 12t-38.5 39q-13 -28 -33 -51h-95z" />
    <glyph glyph-name="uni0644.fina" unicode="&#x644;" horiz-adv-x="698" arabic-form="final" 
d="M111.5 -159.5q-70.5 56.5 -70.5 172.5q0 63 22 127t67 123l70 -54q-33 -44 -50.5 -92t-17.5 -91q0 -72 48 -109.5t128 -37.5q60 0 109 21t81 65q13 58 13 292v420h87v-495q0 -47 19.5 -67t57.5 -20h23v-95h-36q-42 0 -74 22q-8 -74 -33 -119q-32 -58 -99.5 -88.5
t-155.5 -30.5q-118 0 -188.5 56.5z" />
    <glyph glyph-name="uni0645.init" unicode="&#x645;" horiz-adv-x="504" arabic-form="initial" 
d="M137 67q-7 -16 -26 -67h-111l-18 48l18 47h52q29 83 68.5 146t82 97t80.5 34q46 0 85.5 -45.5t63 -108.5t23.5 -109q0 -34 -16 -63.5t-48 -58.5q-140 14 -254 80zM263.5 114.5q55.5 -17.5 107.5 -23.5q-7 59 -33 112t-62 84q-30 -17 -54.5 -49.5t-48.5 -83.5
q35 -22 90.5 -39.5z" />
    <glyph glyph-name="uni0645.medi" unicode="&#x645;" horiz-adv-x="573" arabic-form="medial" 
d="M0 0l-18 48l18 47h52q43 122 106 199.5t128 77.5q34 0 59 -20t42.5 -49.5t40.5 -77.5q30 -65 54.5 -97.5t62.5 -32.5h28v-95h-15q-76 0 -124 41l-17 -46q-159 0 -278 83l-28 -78h-111zM271.5 117q60.5 -20 120.5 -27q-17 26 -38 74q-23 49 -39 75.5t-40 46.5
q-54 -34 -99 -122q35 -27 95.5 -47z" />
    <glyph glyph-name="uni0645.fina" unicode="&#x645;" horiz-adv-x="715" arabic-form="final" 
d="M76.5 -71q-24.5 120 -24.5 175q0 90 62.5 149.5t148 87t153.5 27.5q46 0 77 -21.5t49.5 -52t39.5 -79.5q19 -42 32 -65t33 -39t48 -16h20v-95h-16q-41 0 -67 8t-46 26l-16 -39q-63 0 -137.5 20t-126.5 57.5t-52 86.5q0 19 9 43.5t28 48.5q-46 -15 -92 -43t-59 -45
q10 -140 96 -490l-92 -21q-43 157 -67.5 277zM422 114.5q61 -22.5 125 -29.5q-17 27 -47 85q-21 42 -36.5 69t-33.5 45q-32 -21 -60.5 -54t-42.5 -66q34 -27 95 -49.5z" />
    <glyph glyph-name="uni0646.init" unicode="&#x646;" horiz-adv-x="273" arabic-form="initial" 
d="M0 0l-18 48l18 47h111q6 62 6 146v121h88v-121q0 -71 -3 -126.5t-12 -114.5h-190zM97.5 509q-16.5 17 -16.5 42q0 26 16.5 43t41.5 17t42 -17t17 -43q0 -25 -17 -42t-42 -17t-41.5 17z" />
    <glyph glyph-name="uni0646.medi" unicode="&#x646;" horiz-adv-x="291" arabic-form="medial" 
d="M0 0l-18 48l18 47h81q11 47 11 172v95h90v-174q0 -52 19.5 -72.5t63.5 -20.5h26v-95h-47q-68 0 -102 49q-12 -26 -32 -49h-110zM93.5 478q-16.5 17 -16.5 42q0 26 16.5 43t41.5 17t42 -17t17 -43q0 -25 -17 -42t-42 -17t-41.5 17z" />
    <glyph glyph-name="uni0646.fina" unicode="&#x646;" horiz-adv-x="665" arabic-form="final" 
d="M107.5 -77q-67.5 59 -67.5 173q0 62 22.5 125.5t66.5 121.5l70 -53q-32 -42 -50 -91.5t-18 -93.5q0 -69 44 -107t120 -38q71 0 125.5 34t73.5 95q-8 64 -18.5 117.5t-28.5 129.5l96 24l37 -186q6 -34 14.5 -51t20 -22.5t30.5 -5.5h20v-95h-25q-59 0 -86 21
q-32 -73 -103 -115t-166 -42q-110 0 -177.5 59zM264.5 430q-16.5 17 -16.5 42q0 26 16.5 43t41.5 17t42 -17t17 -43q0 -25 -17 -42t-42 -17t-41.5 17z" />
    <glyph glyph-name="uni0647.init" unicode="&#x647;" horiz-adv-x="608" arabic-form="initial" 
d="M0 0l-18 48l18 47h82q-17 18 -27 42t-10 50q0 44 28.5 89t73.5 71l20 89q111 -10 199.5 -54.5t139 -119t50.5 -170.5q0 -13 -2 -37l-44 -55h-175q-82 0 -135 36q-55 -36 -141 -36h-59zM156.5 141q19.5 -22 44.5 -37q63 35 88 78q-1 38 -22.5 71.5t-53.5 33.5
q-23 0 -43 -16.5t-32 -40.5t-12 -44q11 -23 30.5 -45zM467 95q1 6 1 16q0 55 -39.5 106.5t-101.5 83.5q36 -49 36 -105q0 -60 -38 -101h142z" />
    <glyph glyph-name="uni0647.medi" unicode="&#x647;" horiz-adv-x="416" arabic-form="medial" 
d="M79 -161.5q-42 67.5 -42 161.5h-37l-18 48l18 47h40q8 88 51 175t106 140h82q28 -36 46 -89t18 -101q0 -79 -52 -125h125v-95h-88q18 -18 28.5 -42t10.5 -49q0 -36 -19.5 -67.5t-55.5 -51t-81 -19.5q-90 0 -132 67.5zM147 -103q26 -37 74 -37q30 0 52 16t26 46
q-15 41 -60.5 58t-116.5 20q-1 -66 25 -103zM177 93q37 6 59 34t22 74q0 57 -32 124q-91 -108 -99 -232h50z" />
    <glyph glyph-name="uni0647.fina" unicode="&#x647;" horiz-adv-x="538" arabic-form="final" 
d="M132 56q-45 23 -69.5 59t-24.5 73q0 51 46 91.5t114.5 65.5t133.5 31v73h90v-139q0 -92 5 -135.5t20 -61.5t47 -18h44v-95h-62q-45 0 -73 15.5t-44 53.5q-51 -36 -123 -36q-59 0 -104 23zM169 142q33 -18 74 -18q54 0 96 30q-5 49 -7 131q-66 -5 -126 -31t-82 -60
q12 -34 45 -52z" />
    <glyph glyph-name="uni0648.fina" unicode="&#x648;" horiz-adv-x="463" arabic-form="final" 
d="M206.5 -93.5q63.5 40.5 92.5 94.5q-134 4 -197 38t-63 102q0 46 24.5 97.5t66 86t90.5 34.5q50 0 91.5 -37t65.5 -98t24 -129h62v-95h-77q-52 -157 -282 -241l-44 79q83 28 146.5 68.5zM195 103q50 -8 114 -8h8q-3 36 -15.5 75t-35 66.5t-52.5 27.5q-25 0 -46.5 -18.5
t-35 -48t-14.5 -62.5q27 -24 77 -32z" />
    <glyph glyph-name="uni0649.fina" unicode="&#x649;" horiz-adv-x="664" arabic-form="final" 
d="M123 -145q-83 55 -83 173q0 56 21.5 108t67.5 114l70 -54q-34 -45 -51 -83t-17 -75q0 -69 56.5 -106t156.5 -37q156 0 219 87q-56 37 -177 110l49 78q58 -39 101.5 -57t84.5 -18h43v-95h-28q4 -9 4 -23q0 -44 -39 -85t-109.5 -66.5t-159.5 -25.5q-126 0 -209 55z" />
    <glyph glyph-name="uni064A.init" unicode="&#x64a;" horiz-adv-x="273" arabic-form="initial" 
d="M0 0l-18 48l18 47h111q6 62 6 146v121h88v-121q0 -71 -3 -126.5t-12 -114.5h-190zM153.5 -184.5q-16.5 16.5 -16.5 41.5t16.5 42t41.5 17t41.5 -17t16.5 -42t-16.5 -41.5t-41.5 -16.5t-41.5 16.5zM7.5 -101q16.5 17 41.5 17t41.5 -17t16.5 -42t-16.5 -41.5t-41.5 -16.5
t-41.5 16.5t-16.5 41.5t16.5 42z" />
    <glyph glyph-name="uni064A.medi" unicode="&#x64a;" horiz-adv-x="291" arabic-form="medial" 
d="M0 0l-18 48l18 47h81q11 47 11 172v95h90v-174q0 -52 19.5 -72.5t63.5 -20.5h26v-95h-47q-68 0 -102 49q-12 -26 -32 -49h-110zM169.5 -184.5q-16.5 16.5 -16.5 41.5t16.5 42t41.5 17t41.5 -17t16.5 -42t-16.5 -41.5t-41.5 -16.5t-41.5 16.5zM23.5 -101q16.5 17 41.5 17
t41.5 -17t16.5 -42t-16.5 -41.5t-41.5 -16.5t-41.5 16.5t-16.5 41.5t16.5 42z" />
    <glyph glyph-name="uni064A.fina" unicode="&#x64a;" horiz-adv-x="664" arabic-form="final" 
d="M123 -145q-83 55 -83 173q0 56 21.5 108t67.5 114l70 -54q-34 -45 -51 -83t-17 -75q0 -69 56.5 -106t156.5 -37q156 0 219 87q-56 37 -177 110l49 78q58 -39 101.5 -57t84.5 -18h43v-95h-28q4 -9 4 -23q0 -44 -39 -85t-109.5 -66.5t-159.5 -25.5q-126 0 -209 55z
M361.5 -366.5q-16.5 16.5 -16.5 41.5t16.5 42t41.5 17t41.5 -17t16.5 -42t-16.5 -41.5t-41.5 -16.5t-41.5 16.5zM215.5 -283q16.5 17 41.5 17t41.5 -17t16.5 -42t-16.5 -41.5t-41.5 -16.5t-41.5 16.5t-16.5 41.5t16.5 42z" />
    <glyph glyph-name="uni066E.init" unicode="&#x66e;" horiz-adv-x="273" 
d="M0 0l-18 48l18 47h111q6 62 6 146v121h88v-121q0 -71 -3 -126.5t-12 -114.5h-190z" />
    <glyph glyph-name="uni066E.medi" unicode="&#x66e;" horiz-adv-x="291" 
d="M0 0l-18 48l18 47h81q11 47 11 172v95h90v-174q0 -52 19.5 -72.5t63.5 -20.5h26v-95h-47q-68 0 -102 49q-12 -26 -32 -49h-110z" />
    <glyph glyph-name="uni066E.fina" unicode="&#x66e;" horiz-adv-x="890" 
d="M114 48.5q-54 48.5 -54 138.5q0 100 76 212l74 -49q-31 -47 -44.5 -83t-13.5 -69q0 -103 117 -103h427q8 55 8 172v95h89v-204q0 -35 16.5 -49t53.5 -14h27v-95h-34q-74 0 -105 40q-15 -23 -32 -40h-455q-96 0 -150 48.5z" />
    <glyph glyph-name="uni066F.fina" unicode="&#x66f;" horiz-adv-x="725" 
d="M192.5 -193q-69.5 26 -111 81.5t-41.5 138.5q0 59 22 122t66 121l71 -53q-33 -43 -50.5 -92.5t-17.5 -90.5q0 -79 62 -117.5t160 -38.5q71 0 126 18.5t85 49.5q8 30 10 55q-276 14 -276 152q0 42 24 93t66 86t93 35q54 0 93.5 -40t61 -102.5t25.5 -129.5h64v-95h-69
q-20 -110 -103.5 -164.5t-205.5 -54.5q-85 0 -154.5 26zM462 109q49 -11 113 -13q-6 75 -30.5 126t-67.5 51q-37 0 -65.5 -37.5t-34.5 -89.5q36 -26 85 -37z" />
    <glyph glyph-name="uni0671.fina" unicode="&#x671;" horiz-adv-x="267" arabic-form="final" 
d="M130 17.5q-31 17.5 -45 59.5t-14 117v483h87v-480q0 -41 5.5 -62.5t21.5 -30.5t47 -9h35v-95h-53q-53 0 -84 17.5zM4 797q17 9 37 9q11 0 27 -4q22 34 46 52.5t53 18.5q28 0 46.5 -19t18.5 -46q0 -31 -24.5 -50.5t-67.5 -19.5q-19 0 -31 3.5t-32 10.5q-9 4 -18.5 7
t-18.5 3q-11 0 -21 -5t-23 -18l-25 30q16 19 33 28zM142 782q35 0 53 12q-2 14 -10 23t-24 9q-32 0 -61 -37q19 -7 42 -7z" />
    <glyph glyph-name="uni06A1.init" unicode="&#x6a1;" horiz-adv-x="495" 
d="M0 0l-18 48l18 47h128q-68 48 -68 113q0 42 25.5 90.5t68 81.5t91.5 33q54 0 98 -41t69.5 -105.5t25.5 -132.5q0 -67 -23 -134h-415zM225.5 134q56.5 -31 116.5 -39q3 18 3 38q0 43 -15 86.5t-39 71.5t-49 28q-18 0 -39.5 -15t-38.5 -41t-21 -58q26 -40 82.5 -71z" />
    <glyph glyph-name="uni06A1.medi" unicode="&#x6a1;" horiz-adv-x="486" 
d="M0 0l-18 48l18 47h116q-23 22 -38.5 55t-15.5 67q0 46 31 91.5t77.5 74.5t90.5 29t81.5 -31.5t59.5 -78t22 -87.5q0 -36 -15 -66.5t-40 -53.5h117v-95h-124q-29 0 -63 9.5t-57 25.5q-56 -35 -135 -35h-107zM182.5 159.5q26.5 -30.5 57.5 -51.5q35 21 61 48.5t37 51.5
q-1 26 -13.5 52t-31.5 43t-39 17t-44.5 -18t-42 -43.5t-19.5 -46.5q8 -22 34.5 -52.5z" />
    <glyph glyph-name="uni06A1.fina" unicode="&#x6a1;" horiz-adv-x="949" 
d="M90.5 51q-50.5 51 -50.5 133q0 56 20.5 110.5t55.5 104.5l74 -49q-31 -47 -44.5 -82t-13.5 -70q0 -103 114 -103h337q-25 21 -41 52t-16 63q0 43 30.5 91t77.5 80t92 32t82 -33.5t58.5 -82t21.5 -90.5q0 -66 -53 -112h114v-95h-127q-66 0 -118 34q-30 -18 -58 -26t-66 -8
h-331q-108 0 -158.5 51zM647 155.5q26 -26.5 61 -47.5q69 39 95 93q-1 26 -12.5 54t-30.5 46.5t-40 18.5q-22 0 -47 -19.5t-42 -47.5t-17 -50q7 -21 33 -47.5z" />
    <glyph glyph-name="uni06A4.init" unicode="&#x6a4;" horiz-adv-x="495" arabic-form="initial" 
d="M0 0l-18 48l18 47h128q-68 48 -68 113q0 42 25.5 90.5t68 81.5t91.5 33q54 0 98 -41t69.5 -105.5t25.5 -132.5q0 -67 -23 -134h-415zM225.5 134q56.5 -31 116.5 -39q3 18 3 38q0 43 -15 86.5t-39 71.5t-49 28q-18 0 -39.5 -15t-38.5 -41t-21 -58q26 -40 82.5 -71z
M134 511q-15 15 -15 37q0 23 15 38t37 15t37 -15t15 -38q0 -22 -14.5 -37t-37.5 -15q-22 0 -37 15zM207 701q15 15 37 15t36.5 -15t14.5 -38q0 -22 -14.5 -37t-36.5 -15t-37 15t-15 37q0 23 15 38zM279 586q15 15 37 15t37 -15t15 -38q0 -22 -14.5 -37t-37.5 -15
q-22 0 -37 15t-15 37q0 23 15 38z" />
    <glyph glyph-name="uni06A4.medi" unicode="&#x6a4;" horiz-adv-x="486" arabic-form="medial" 
d="M0 0l-18 48l18 47h116q-23 22 -38.5 55t-15.5 67q0 46 31 91.5t77.5 74.5t90.5 29t81.5 -31.5t59.5 -78t22 -87.5q0 -36 -15 -66.5t-40 -53.5h117v-95h-124q-29 0 -63 9.5t-57 25.5q-56 -35 -135 -35h-107zM182.5 159.5q26.5 -30.5 57.5 -51.5q35 21 61 48.5t37 51.5
q-1 26 -13.5 52t-31.5 43t-39 17t-44.5 -18t-42 -43.5t-19.5 -46.5q8 -22 34.5 -52.5zM135 511q-15 15 -15 37q0 23 15 38t37 15t37 -15t15 -38q0 -22 -14.5 -37t-37.5 -15q-22 0 -37 15zM208 701q15 15 37 15t36.5 -15t14.5 -38q0 -22 -14.5 -37t-36.5 -15t-37 15t-15 37
q0 23 15 38zM280 586q15 15 37 15t37 -15t15 -38q0 -22 -14.5 -37t-37.5 -15q-22 0 -37 15t-15 37q0 23 15 38z" />
    <glyph glyph-name="uni06A4.fina" unicode="&#x6a4;" horiz-adv-x="949" arabic-form="final" 
d="M90.5 51q-50.5 51 -50.5 133q0 56 20.5 110.5t55.5 104.5l74 -49q-31 -47 -44.5 -82t-13.5 -70q0 -103 114 -103h337q-25 21 -41 52t-16 63q0 43 30.5 91t77.5 80t92 32t82 -33.5t58.5 -82t21.5 -90.5q0 -66 -53 -112h114v-95h-127q-66 0 -118 34q-30 -18 -58 -26t-66 -8
h-331q-108 0 -158.5 51zM647 155.5q26 -26.5 61 -47.5q69 39 95 93q-1 26 -12.5 54t-30.5 46.5t-40 18.5q-22 0 -47 -19.5t-42 -47.5t-17 -50q7 -21 33 -47.5zM606 511q-15 15 -15 37q0 23 15 38t37 15t37 -15t15 -38q0 -22 -14.5 -37t-37.5 -15q-22 0 -37 15zM679 701
q15 15 37 15t36.5 -15t14.5 -38q0 -22 -14.5 -37t-36.5 -15t-37 15t-15 37q0 23 15 38zM751 586q15 15 37 15t37 -15t15 -38q0 -22 -14.5 -37t-37.5 -15q-22 0 -37 15t-15 37q0 23 15 38z" />
    <glyph glyph-name="uni06BA.fina" unicode="&#x6ba;" horiz-adv-x="665" arabic-form="final" 
d="M107.5 -77q-67.5 59 -67.5 173q0 62 22.5 125.5t66.5 121.5l70 -53q-32 -42 -50 -91.5t-18 -93.5q0 -69 44 -107t120 -38q71 0 125.5 34t73.5 95q-8 64 -18.5 117.5t-28.5 129.5l96 24l37 -186q6 -34 14.5 -51t20 -22.5t30.5 -5.5h20v-95h-25q-59 0 -86 21
q-32 -73 -103 -115t-166 -42q-110 0 -177.5 59z" />
    <glyph glyph-name="uniFDFC" unicode="&#xfdfc;" horiz-adv-x="1235" arabic-form="isolated" 
d="M103 -159q-62 57 -62 170q0 136 89 252l70 -54q-33 -44 -50.5 -92.5t-17.5 -93.5q0 -69 40.5 -106.5t109.5 -37.5q53 0 92 22t61 64q16 159 16 405v307h87v-304q0 -203 -9 -309.5t-30 -153.5q-26 -58 -89 -92t-144 -34q-101 0 -163 57zM606 -90q17 18 40 18t39 -17.5
t16 -41.5q0 -22 -16 -39.5t-39 -17.5t-40 17.5t-17 39.5q0 23 17 41zM633 677h87v-323q0 -155 4 -198q3 -33 19 -47t51 -14h69q6 62 6 146v66h88v-66q0 -71 -3 -126.5t-12 -114.5h-170q-63 0 -95 29t-38 86q-6 59 -6 240v322zM747 -89.5q16 17.5 38 17.5q24 0 41 -17.5
t17 -41.5q0 -22 -17 -39.5t-41 -17.5q-22 0 -38 17.5t-16 39.5q0 24 16 41.5zM1030 -91q59 62 77 122q-8 85 -60 219l87 32q27 -72 42.5 -127.5t15.5 -103.5q0 -98 -73 -184t-211 -156l-50 79q113 57 172 119z" />
    <glyph glyph-name=".notdef" horiz-adv-x="600" 
 />
    <glyph glyph-name=".null" 
 />
    <glyph glyph-name="nonmarkingreturn" horiz-adv-x="333" 
 />
    <glyph glyph-name="space" unicode=" " horiz-adv-x="200" 
 />
    <glyph glyph-name="exclam" unicode="!" horiz-adv-x="258" 
d="M89 248q-1 12 -5 67t-4 104v211h98v-211q0 -49 -4 -104t-5 -67l-6 -76h-68zM87 91.5q17 17.5 42 17.5t42 -18t17 -42q0 -25 -17 -42t-42 -17t-42 17t-17 42t17 42.5z" />
    <glyph glyph-name="quotedbl" unicode="&#x22;" horiz-adv-x="321" 
d="M57 479.5q-7 46.5 -7 87.5q0 48 11 70.5t34 22.5q45 0 45 -94q0 -68 -23 -172h-44q-9 39 -16 85.5zM188 479.5q-7 46.5 -7 87.5q0 48 11 70.5t34 22.5q45 0 45 -94q0 -68 -23 -172h-44q-9 39 -16 85.5z" />
    <glyph glyph-name="numbersign" unicode="#" horiz-adv-x="663" 
d="M364 151h-149l-37 -151h-82l37 151h-97v70h115l49 198h-121v70h138l35 141h82l-35 -141h149l35 141h82l-35 -141h97v-70h-115l-49 -198h121v-70h-138l-38 -151h-82zM381 221l49 198h-148l-49 -198h148z" />
    <glyph glyph-name="dollar" unicode="$" horiz-adv-x="492" 
d="M208 15q-92 5 -168 57l24 82q31 -27 82 -44.5t94 -17.5q20 0 44.5 3.5t36.5 9.5q19 12 30.5 34t11.5 47q0 29 -17.5 46.5t-42.5 27t-72 21.5q-58 14 -94.5 29t-62.5 47t-26 87q0 69 42 116.5t118 58.5v75h73v-73q92 -9 141 -57l-23 -79q-30 26 -74.5 42.5t-81.5 16.5
q-20 0 -43.5 -5.5t-36.5 -15.5q-11 -12 -18.5 -32.5t-7.5 -40.5q0 -29 17 -46t42.5 -26t70.5 -19q60 -14 96.5 -29t62.5 -47.5t26 -89.5q0 -73 -45 -119t-126 -57v-75h-73v73z" />
    <glyph glyph-name="percent" unicode="%" horiz-adv-x="634" 
d="M57.5 401q-37.5 35 -37.5 103q0 64 39 100.5t97 36.5q62 0 99.5 -34.5t37.5 -102.5q0 -65 -39.5 -101.5t-97.5 -36.5q-61 0 -98.5 35zM108 449.5q18 -18.5 48 -18.5q37 0 55 17q12 22 12 56q0 35 -19 54t-48 19q-34 0 -52 -15q-14 -20 -14 -58q0 -36 18 -54.5zM441 630
h87l-337 -630h-86zM380 229.5q39 36.5 97 36.5q62 0 99.5 -34.5t37.5 -102.5q0 -65 -39.5 -101.5t-97.5 -36.5q-61 0 -98.5 35t-37.5 103q0 64 39 100.5zM429 74.5q18 -18.5 48 -18.5q37 0 55 17q12 22 12 56q0 35 -19 54t-48 19q-34 0 -52 -15q-14 -20 -14 -58
q0 -36 18 -54.5z" />
    <glyph glyph-name="ampersand" unicode="&#x26;" horiz-adv-x="625" 
d="M121 35q-66 46 -66 138q0 59 31.5 102.5t90.5 65.5q-32 30 -49.5 61.5t-17.5 73.5q0 50 25.5 88t68 58t94.5 20t109 -18l-12 -80q-20 9 -45 13.5t-49 4.5q-44 0 -73 -14q-27 -24 -27 -65q0 -35 24 -65t58 -51l144 -90v169h85v-221l86 -54l-20 -85l-77 47q-9 -66 -71 -105
t-144 -39q-99 0 -165 46zM187.5 95.5q40.5 -26.5 100.5 -26.5q69 0 108 29q24 31 29 83l-180 112q-43 -7 -72 -27q-26 -31 -26 -86q0 -58 40.5 -84.5z" />
    <glyph glyph-name="quotesingle" unicode="'" horiz-adv-x="190" 
d="M57 479.5q-7 46.5 -7 87.5q0 48 11 70.5t34 22.5q45 0 45 -94q0 -68 -23 -172h-44q-9 39 -16 85.5z" />
    <glyph glyph-name="parenleft" unicode="(" horiz-adv-x="356" 
d="M100 11.5q-50 117.5 -50 266.5q0 150 50 267.5t159 212.5l57 -47q-77 -78 -123.5 -185t-46.5 -248q0 -140 46.5 -246.5t123.5 -184.5l-57 -49q-109 96 -159 213.5z" />
    <glyph glyph-name="parenright" unicode=")" horiz-adv-x="356" 
d="M163.5 31.5q46.5 106.5 46.5 246.5q0 141 -46.5 248t-123.5 185l57 47q109 -95 159 -212.5t50 -267.5q0 -149 -50 -266.5t-159 -213.5l-57 49q77 78 123.5 184.5z" />
    <glyph glyph-name="asterisk" unicode="*" horiz-adv-x="473" 
d="M95 393l90 116l-140 42l21 67l138 -49l-4 145h72l-5 -145l139 50l22 -68l-140 -42l88 -116l-57 -42l-83 121l-83 -121z" />
    <glyph glyph-name="plus" unicode="+" horiz-adv-x="557" 
d="M56 356h181v180h83v-180h181v-80h-181v-180h-83v180h-181v80z" />
    <glyph glyph-name="comma" unicode="," horiz-adv-x="208" 
d="M98 -38q0 14 -6 21.5t-18 16.5q-15 10 -22 20t-7 29q0 27 16 43.5t42 16.5q30 0 45 -22t15 -61q0 -53 -24 -104t-59 -80l-33 30q51 54 51 90z" />
    <glyph glyph-name="hyphen" unicode="-" horiz-adv-x="304" 
d="M50 301h204v-84h-204v84z" />
    <glyph glyph-name="period" unicode="." horiz-adv-x="208" 
d="M62 7q-17 17 -17 42t17 42.5t42 17.5t42 -18t17 -42q0 -25 -17 -42t-42 -17t-42 17z" />
    <glyph glyph-name="slash" unicode="/" horiz-adv-x="374" 
d="M264 690h90l-245 -762h-89z" />
    <glyph glyph-name="zero" unicode="0" horiz-adv-x="538" 
d="M141.5 19.5q-49.5 32.5 -74 104t-24.5 188.5q0 173 56 252t171 79q78 0 127.5 -32.5t73.5 -103t24 -187.5q0 -174 -56 -253.5t-170 -79.5q-78 0 -127.5 32.5zM175 128.5q30 -54.5 95 -54.5q59 0 93 34q30 63 30 208q0 130 -30 185t-95 55q-54 0 -89 -29
q-15 -29 -24.5 -83t-9.5 -130q0 -131 30 -185.5z" />
    <glyph glyph-name="one" unicode="1" horiz-adv-x="332" 
d="M165 522l-114 -73l-32 87l154 94h93v-630h-101v522z" />
    <glyph glyph-name="two" unicode="2" horiz-adv-x="480" 
d="M34 81l176 184l45 45q56 56 74 81q15 38 15 70q0 42 -26 68.5t-78 26.5q-47 0 -89.5 -19.5t-75.5 -48.5l-26 83q84 72 202 72q92 0 142.5 -44t50.5 -125q0 -47 -16 -85.5t-48 -77t-93 -99.5l-125 -126h275v-86h-403v81z" />
    <glyph glyph-name="three" unicode="3" horiz-adv-x="487" 
d="M123.5 2q-44.5 15 -89.5 48l26 83q32 -29 75.5 -44t92.5 -15q57 0 97 22q23 28 23 74q0 57 -36 88t-102 31h-41v81h41q79 0 115 31q15 28 15 62q0 93 -111 93q-43 0 -84 -15t-75 -43l-26 83q47 33 91 47.5t99 14.5q101 0 153 -42t52 -124q0 -108 -104 -150
q114 -34 114 -157q0 -86 -60 -134.5t-166 -48.5q-55 0 -99.5 15z" />
    <glyph glyph-name="four" unicode="4" horiz-adv-x="490" 
d="M30 221l129 409h105l-129 -402h205v240h100v-468h-100v143h-310v78z" />
    <glyph glyph-name="five" unicode="5" horiz-adv-x="493" 
d="M136 -0.5q-41 12.5 -86 41.5l25 81q36 -25 74.5 -36.5t84.5 -11.5q72 0 102 27q16 26 16 82q0 45 -14 70t-46.5 36t-90.5 11h-130v330h353v-86h-254v-160h64q113 0 166 -46.5t53 -143.5q0 -103 -57 -155t-168 -52q-51 0 -92 12.5z" />
    <glyph glyph-name="six" unicode="6" horiz-adv-x="509" 
d="M103.5 50.5q-60.5 63.5 -60.5 187.5q0 92 17 174.5t87 153.5t212 77l31 -84q-108 0 -167 -51t-76 -141q47 50 137 50q93 0 141.5 -53t48.5 -147q0 -72 -28 -124t-77 -79t-110 -27q-95 0 -155.5 63.5zM175.5 111q34.5 -39 88.5 -39q26 0 49 9t38 23q11 18 17.5 46t6.5 57
q0 59 -28.5 92.5t-85.5 33.5q-37 0 -68 -14t-52 -34v-55q0 -80 34.5 -119z" />
    <glyph glyph-name="seven" unicode="7" horiz-adv-x="452" 
d="M316 544h-302v86h411v-71l-247 -559h-108z" />
    <glyph glyph-name="eight" unicode="8" horiz-adv-x="534" 
d="M144.5 13q-50.5 25 -76 67t-25.5 93q0 55 26 95t73 60q-41 21 -62 57t-21 83q0 49 24.5 88.5t71.5 62.5t112 23q97 0 152 -48t55 -126q0 -47 -20.5 -83t-61.5 -57q47 -19 73 -60t26 -95q0 -50 -26 -92.5t-77 -67.5t-122 -25t-121.5 25zM175 98.5q33 -30.5 93 -30.5
q56 0 99 28q25 31 25 82q0 50 -33 79.5t-92 29.5q-49 0 -89 -19q-17 -15 -26.5 -38t-9.5 -50q0 -51 33 -81.5zM185 389q29 -26 83 -26q56 0 89 25q20 28 20 72q0 45 -27.5 73.5t-83.5 28.5q-48 0 -84 -21q-26 -31 -26 -79q0 -47 29 -73z" />
    <glyph glyph-name="nine" unicode="9" horiz-adv-x="505" 
d="M284.5 122q58.5 51 74.5 141q-46 -50 -132 -50q-95 0 -143.5 53t-48.5 151q0 70 27.5 121t76.5 78t110 27q102 0 157.5 -58t55.5 -176q0 -105 -16.5 -189.5t-85.5 -154.5t-212 -78l-31 84q109 0 167.5 51zM159.5 330q28.5 -33 85.5 -33q37 0 68 14t52 34v72
q0 68 -30.5 104.5t-87.5 36.5q-25 0 -51 -9t-40 -23q-12 -18 -18.5 -46t-6.5 -59q0 -58 28.5 -91z" />
    <glyph glyph-name="colon" unicode=":" horiz-adv-x="209" 
d="M62.5 289.5q-17.5 17.5 -17.5 41.5q0 25 17.5 42.5t42.5 17.5q24 0 41.5 -18t17.5 -42t-17.5 -41.5t-41.5 -17.5q-25 0 -42.5 17.5zM62 91.5q17 17.5 42 17.5t42 -18t17 -42q0 -25 -17 -42t-42 -17t-42 17t-17 42t17 42.5z" />
    <glyph glyph-name="semicolon" unicode=";" horiz-adv-x="209" 
d="M62.5 289.5q-17.5 17.5 -17.5 41.5q0 25 17.5 42.5t42.5 17.5q24 0 41.5 -18t17.5 -42t-17.5 -41.5t-41.5 -17.5q-25 0 -42.5 17.5zM61 92.5q16 16.5 42 16.5q30 0 45 -22t15 -61q0 -53 -24 -104t-59 -80l-33 30q51 54 51 90q0 14 -6 21.5t-18 16.5q-15 10 -22 20t-7 29
q0 27 16 43.5z" />
    <glyph glyph-name="less" unicode="&#x3c;" horiz-adv-x="557" 
d="M95 281v68l367 217v-94l-269 -157l269 -156v-94z" />
    <glyph glyph-name="equal" unicode="=" horiz-adv-x="557" 
d="M66 460h425v-78h-425v78zM66 252h425v-78h-425v78z" />
    <glyph glyph-name="greater" unicode="&#x3e;" horiz-adv-x="557" 
d="M95 159l269 156l-269 157v94l367 -217v-68l-367 -216v94z" />
    <glyph glyph-name="question" unicode="?" horiz-adv-x="411" 
d="M100 247q15 31 36 50.5t56 43.5q43 29 64 54t21 66q0 48 -29 73t-81 25q-29 0 -62 -7.5t-53 -17.5l-22 79q26 13 64 21.5t79 8.5q99 0 149.5 -43.5t50.5 -135.5q0 -46 -15.5 -77.5t-37.5 -51t-58 -42.5q-30 -20 -47.5 -34.5t-29.5 -36t-12 -50.5h-88q0 44 15 75zM87 91.5
q17 17.5 42 17.5t42 -18t17 -42q0 -25 -17 -42t-42 -17t-42 17t-17 42t17 42.5z" />
    <glyph glyph-name="at" unicode="@" horiz-adv-x="943" 
d="M248.5 -157q-88.5 44 -140.5 137.5t-52 235.5q0 130 51.5 226t147.5 147.5t228 51.5q179 0 291 -94t112 -296q0 -103 -36 -177.5t-123 -74.5q-44 0 -75.5 21.5t-46.5 59.5q-40 -82 -149 -82q-107 0 -145.5 62.5t-38.5 147.5q0 99 47.5 165.5t158.5 66.5q64 0 111.5 -22
t74.5 -52v-187q0 -103 60 -103q37 0 60 28q17 45 17 138q0 170 -88.5 246.5t-228.5 76.5q-153 0 -254 -78q-42 -47 -65.5 -117t-23.5 -159q0 -114 41.5 -189.5t113 -111.5t160.5 -36q66 0 117.5 20t85.5 51l45 -63q-39 -33 -105 -58t-150 -25q-112 0 -200.5 44zM380.5 112.5
q23.5 -36.5 82.5 -36.5q54 0 87 25q29 44 29 113v117q-49 33 -103 33q-47 0 -83 -20q-18 -21 -27 -55t-9 -74q0 -66 23.5 -102.5z" />
    <glyph glyph-name="A" unicode="A" horiz-adv-x="636" 
d="M257 630h122l240 -630h-107l-54 148h-281l-54 -148h-106zM427 232l-109 300l-110 -300h219z" />
    <glyph glyph-name="B" unicode="B" horiz-adv-x="591" 
d="M66 630h230q120 0 173 -42.5t53 -120.5q0 -53 -23.5 -87t-73.5 -54q117 -25 117 -148q0 -85 -56 -131.5t-174 -46.5h-246v630zM307 82q74 0 109 19q25 26 25 77t-30.5 78t-103.5 27h-141v-201h141zM291 362q74 0 108 21q22 30 22 71q0 94 -130 94h-125v-186h125z" />
    <glyph glyph-name="C" unicode="C" horiz-adv-x="587" 
d="M122 67q-83 79 -83 229q0 109 42.5 187.5t118 119t173.5 40.5q95 0 179 -42l-22 -84q-80 39 -153 39q-48 0 -99 -15.5t-81 -41.5q-27 -36 -41.5 -88t-14.5 -110q0 -108 56 -167t164 -59q52 0 102 12.5t90 33.5l21 -77q-86 -56 -215 -56q-154 0 -237 79z" />
    <glyph glyph-name="D" unicode="D" horiz-adv-x="658" 
d="M66 630h231q322 0 322 -305q0 -100 -42 -173.5t-117 -112.5t-173 -39h-221v630zM284 86q61 0 104 13.5t77 39.5q25 31 39.5 81t14.5 102q0 106 -54 164t-157 58h-142v-458h118z" />
    <glyph glyph-name="E" unicode="E" horiz-adv-x="502" 
d="M66 630h399v-86h-298v-191h260v-86h-260v-181h299v-86h-400v630z" />
    <glyph glyph-name="F" unicode="F" horiz-adv-x="497" 
d="M66 630h408v-86h-307v-212h269v-86h-269v-246h-101v630z" />
    <glyph glyph-name="G" unicode="G" horiz-adv-x="641" 
d="M122 66q-83 79 -83 231q0 109 43 187t120 118.5t178 40.5q99 0 183 -42l-22 -84q-89 39 -164 39q-50 0 -100.5 -15.5t-81.5 -40.5q-26 -36 -40.5 -88t-14.5 -109q0 -110 57 -169.5t167 -59.5q63 0 131 20v169h-139v85h232v-304q-44 -28 -103.5 -42.5t-124.5 -14.5
q-155 0 -238 79z" />
    <glyph glyph-name="H" unicode="H" horiz-adv-x="636" 
d="M468 266h-301v-266h-101v630h101v-278h301v278h101v-630h-101v266z" />
    <glyph glyph-name="I" unicode="I" horiz-adv-x="232" 
d="M66 630h100v-630h-100v630z" />
    <glyph glyph-name="J" unicode="J" horiz-adv-x="240" 
d="M36 -32.5q42 38.5 42 115.5v547h100v-520q0 -240 -215 -270l-33 85q64 4 106 42.5z" />
    <glyph glyph-name="K" unicode="K" horiz-adv-x="563" 
d="M181 316l232 314h118l-236 -310l257 -320h-123zM66 630h100v-630h-100v630z" />
    <glyph glyph-name="L" unicode="L" horiz-adv-x="483" 
d="M66 630h101v-544h305v-86h-406v630z" />
    <glyph glyph-name="M" unicode="M" horiz-adv-x="743" 
d="M66 630h136l170 -356l169 356h135v-630h-98v513l-168 -350h-77l-168 347v-510h-99v630z" />
    <glyph glyph-name="N" unicode="N" horiz-adv-x="640" 
d="M66 630h143l267 -511v511h97v-630h-141l-268 512v-512h-98v630z" />
    <glyph glyph-name="O" unicode="O" horiz-adv-x="707" 
d="M172.5 30.5q-69.5 43.5 -101.5 116t-32 162.5q0 99 37 174.5t109 117.5t172 42q96 0 166.5 -39.5t107.5 -112.5t37 -172q0 -95 -35 -170t-107 -118.5t-178 -43.5t-175.5 43.5zM163.5 195q23.5 -55 70.5 -88t116 -33q49 0 95.5 16.5t72.5 40.5q24 31 36 80.5t12 98.5
q0 67 -24 123t-72 89.5t-116 33.5q-47 0 -91.5 -16t-70.5 -38q-25 -31 -38.5 -83.5t-13.5 -103.5q0 -65 23.5 -120z" />
    <glyph glyph-name="P" unicode="P" horiz-adv-x="573" 
d="M66 630h222q256 0 256 -211q0 -108 -72 -167.5t-188 -59.5h-117v-192h-101v630zM291 277q76 0 121 30q32 36 32 108q0 130 -148 130h-129v-268h124z" />
    <glyph glyph-name="Q" unicode="Q" horiz-adv-x="707" 
d="M542 -171.5q-46 16.5 -85.5 40t-100.5 63.5q-74 50 -119 73q-100 31 -149 108t-49 201q0 96 37.5 170.5t108.5 116.5t167 42q151 0 233.5 -87.5t82.5 -239.5q0 -128 -66.5 -213t-192.5 -100q143 -104 253 -104q16 0 37.5 5t38.5 13l18 -74q-49 -31 -123 -31
q-45 0 -91 16.5zM163.5 195.5q23.5 -54.5 71 -87.5t116.5 -33q47 0 93.5 16.5t72.5 38.5q24 32 36.5 83t12.5 101q0 65 -24.5 120.5t-73 88.5t-117.5 33q-44 0 -89 -16t-70 -38q-25 -31 -38.5 -83t-13.5 -104q0 -65 23.5 -119.5z" />
    <glyph glyph-name="R" unicode="R" horiz-adv-x="594" 
d="M66 630h237q132 0 186.5 -48t54.5 -142q0 -73 -38.5 -119.5t-105.5 -63.5l167 -257h-124l-150 244h-126v-244h-101v630zM303 330q72 0 112 19q27 31 27 90q0 52 -31 78.5t-108 26.5h-136v-214h136z" />
    <glyph glyph-name="S" unicode="S" horiz-adv-x="538" 
d="M34 47l25 91q41 -31 99.5 -47.5t108.5 -16.5q25 0 52 4t43 9q19 11 31 32.5t12 46.5q0 30 -20 49.5t-49.5 30.5t-81.5 25q-67 18 -109 35t-71.5 52t-29.5 94q0 58 29.5 101t83 66.5t121.5 23.5q53 0 105.5 -14.5t90.5 -46.5l-24 -87q-39 29 -90 45t-102 16t-89 -20
q-12 -12 -20 -31.5t-8 -39.5q0 -30 19.5 -49t49 -29.5t81.5 -23.5q69 -18 111 -35t72.5 -53t30.5 -96q0 -90 -68.5 -141t-185.5 -51q-125 0 -217 60z" />
    <glyph glyph-name="T" unicode="T" horiz-adv-x="529" 
d="M214 543h-202v87h506v-87h-203v-543h-101v543z" />
    <glyph glyph-name="U" unicode="U" horiz-adv-x="623" 
d="M62 250v380h99v-380q0 -94 38 -134.5t113 -40.5q83 0 118 29q32 40 32 146v380h99v-380q0 -136 -65.5 -199t-183.5 -63q-250 0 -250 262z" />
    <glyph glyph-name="V" unicode="V" horiz-adv-x="625" 
d="M17 630h106l190 -533l189 533h106l-235 -630h-121z" />
    <glyph glyph-name="W" unicode="W" horiz-adv-x="916" 
d="M17 630h101l142 -498l146 498h104l145 -498l144 498h100l-187 -630h-112l-142 483l-142 -483h-114z" />
    <glyph glyph-name="X" unicode="X" horiz-adv-x="586" 
d="M232 329l-202 301h117l151 -229l142 229h116l-202 -301l222 -329h-119l-167 256l-160 -256h-120z" />
    <glyph glyph-name="Y" unicode="Y" horiz-adv-x="639" 
d="M269 221l-252 409h114l189 -316l189 316h113l-252 -409v-221h-101v221z" />
    <glyph glyph-name="Z" unicode="Z" horiz-adv-x="539" 
d="M32 75l339 468h-327v87h453v-75l-339 -468h349v-87h-475v75z" />
    <glyph glyph-name="bracketleft" unicode="[" horiz-adv-x="283" 
d="M50 752h203v-73h-117v-798h117v-73h-203v944z" />
    <glyph glyph-name="backslash" unicode="\" horiz-adv-x="374" 
d="M265 -72l-245 762h90l244 -762h-89z" />
    <glyph glyph-name="bracketright" unicode="]" horiz-adv-x="283" 
d="M30 -192v73h117v798h-117v73h203v-944h-203z" />
    <glyph glyph-name="asciicircum" unicode="^" horiz-adv-x="557" 
d="M243 692h70l156 -329h-88l-103 227l-102 -227h-87z" />
    <glyph glyph-name="underscore" unicode="_" horiz-adv-x="400" 
d="M0 -60h400v-79h-400v79z" />
    <glyph glyph-name="grave" unicode="`" horiz-adv-x="259" 
d="M40 598h102l77 -136h-81z" />
    <glyph glyph-name="a" unicode="a" horiz-adv-x="419" 
d="M283 37q-43 -49 -123 -49q-61 0 -97.5 31t-36.5 92q0 116 166 116h87v18q0 36 -20.5 52t-64.5 16q-29 0 -61.5 -7t-52.5 -17l-22 74q31 13 71.5 21t76.5 8q86 0 126 -37t40 -116v-239h-79zM182 64q28 0 54.5 11t42.5 29v52h-87q-44 0 -64 -7q-9 -16 -9 -37q0 -48 63 -48z
" />
    <glyph glyph-name="b" unicode="b" horiz-adv-x="469" 
d="M96.5 38q-49.5 51 -49.5 144v468h95v-294q45 36 115 36q87 0 135.5 -52.5t48.5 -142.5q0 -95 -53.5 -152.5t-146.5 -57.5q-95 0 -144.5 51zM167.5 98.5q25.5 -31.5 74.5 -31.5q25 0 48.5 6.5t35.5 18.5q16 30 16 97q0 56 -25.5 90t-75.5 34q-23 0 -53 -9.5t-46 -24.5
v-101q0 -48 25.5 -79.5z" />
    <glyph glyph-name="c" unicode="c" horiz-adv-x="381" 
d="M83 37q-55 50 -55 145q0 62 28.5 110t78 74t111.5 26q56 0 111 -25l-24 -82q-14 10 -39 18.5t-50 8.5q-21 0 -49 -8.5t-45 -21.5q-11 -16 -17.5 -42.5t-6.5 -54.5q0 -56 31 -86.5t87 -30.5q27 0 56 7t51 21l20 -72q-27 -19 -62.5 -28t-73.5 -9q-97 0 -152 50z" />
    <glyph glyph-name="d" unicode="d" horiz-adv-x="460" 
d="M74 41.5q-46 54.5 -46 142.5q0 64 28 111.5t77.5 72t111.5 24.5q35 0 67 -10v268h95v-650h-82l-11 36q-14 -21 -43.5 -35t-68.5 -14q-82 0 -128 54.5zM152.5 101q26.5 -34 74.5 -34q24 0 46 10.5t39 28.5v191q-28 16 -64 16q-28 0 -56 -8t-45 -22q-9 -16 -15 -43t-6 -52
q0 -53 26.5 -87z" />
    <glyph glyph-name="e" unicode="e" horiz-adv-x="429" 
d="M82.5 36.5q-54.5 49.5 -54.5 146.5q0 93 51.5 151t140.5 58q93 0 137 -54t44 -143q0 -12 -2 -38h-278q1 -40 32.5 -65.5t87.5 -25.5q61 0 113 31l20 -73q-58 -37 -144 -37q-93 0 -147.5 49.5zM311 229q-3 41 -27.5 63t-64.5 22q-51 0 -80 -29q-17 -30 -18 -56h190z" />
    <glyph glyph-name="f" unicode="f" horiz-adv-x="307" 
d="M126.5 618q40.5 42 114.5 42q48 0 88 -20l-22 -79q-12 7 -29.5 12.5t-34.5 5.5q-36 0 -51 -8q-11 -18 -11 -67v-124h119v-77h-119v-303h-95v303h-64v77h64v122q0 74 40.5 116z" />
    <glyph glyph-name="g" unicode="g" horiz-adv-x="457" 
d="M128.5 -191.5q-37.5 9.5 -69.5 26.5l24 84q56 -39 128 -39q52 0 83 26q13 20 17 47.5t4 67.5v22q-20 -20 -50 -30.5t-65 -10.5q-81 0 -126.5 49.5t-45.5 137.5q0 95 53.5 149t143.5 54q185 0 185 -204v-173q0 -115 -53 -165.5t-153 -50.5q-38 0 -75.5 9.5zM150 111
q25 -31 69 -31q26 0 52 11t44 29v72q0 63 -25 92t-65 29q-21 0 -41 -6t-34 -15q-12 -16 -18.5 -43t-6.5 -54q0 -53 25 -84z" />
    <glyph glyph-name="h" unicode="h" horiz-adv-x="455" 
d="M295.5 286.5q-17.5 26.5 -56.5 26.5q-23 0 -48 -14.5t-43 -34.5v-264h-95v650h95v-309q45 51 118 51q72 0 107 -42.5t35 -116.5v-233h-95v217q0 43 -17.5 69.5z" />
    <glyph glyph-name="i" unicode="i" horiz-adv-x="201" 
d="M53 380h95v-380h-95v380zM58.5 489.5q-17.5 17.5 -17.5 41.5t17.5 41.5t42.5 17.5q26 0 43 -17.5t17 -41.5t-17 -41.5t-43 -17.5q-25 0 -42.5 17.5z" />
    <glyph glyph-name="j" unicode="j" horiz-adv-x="201" 
d="M24.5 -84.5q28.5 31.5 28.5 95.5v369h95v-343q0 -209 -165 -237l-30 81q43 3 71.5 34.5zM58.5 489.5q-17.5 17.5 -17.5 41.5t17.5 41.5t42.5 17.5q26 0 43 -17.5t17 -41.5t-17 -41.5t-43 -17.5q-25 0 -42.5 17.5z" />
    <glyph glyph-name="k" unicode="k" horiz-adv-x="419" 
d="M163 202l126 176h114l-137 -176l147 -202h-113zM53 650h95v-650h-95v650z" />
    <glyph glyph-name="l" unicode="l" horiz-adv-x="201" 
d="M53 650h95v-650h-95v650z" />
    <glyph glyph-name="m" unicode="m" horiz-adv-x="688" 
d="M478 313q-25 0 -46.5 -13.5t-38.5 -35.5q1 -9 1 -29v-235h-95v218q0 44 -15 69.5t-51 25.5q-23 0 -45.5 -12.5t-39.5 -32.5v-268h-95v380h82l9 -44q41 56 115 56q88 0 117 -56q54 56 128 56q72 0 104 -43t32 -116v-233h-95v218q0 95 -67 95z" />
    <glyph glyph-name="n" unicode="n" horiz-adv-x="455" 
d="M296.5 286.5q-16.5 26.5 -53.5 26.5q-25 0 -51 -14.5t-44 -34.5v-264h-95v380h82l9 -44q46 56 122 56q72 0 107 -42.5t35 -116.5v-233h-95v217q0 43 -16.5 69.5z" />
    <glyph glyph-name="o" unicode="o" horiz-adv-x="452" 
d="M79 41q-51 54 -51 148q0 59 24 105t69 72t105 26q95 0 146 -53.5t51 -148.5q0 -91 -53.5 -147t-144.5 -56q-95 0 -146 54zM151 103q25 -35 75 -35q24 0 47 7t35 19q18 26 18 94q0 53 -26 89t-75 36q-24 0 -45 -6.5t-33 -18.5q-21 -28 -21 -97q0 -53 25 -88z" />
    <glyph glyph-name="p" unicode="p" horiz-adv-x="461" 
d="M148 -3v-185h-95v568h82l10 -37q15 22 43.5 35.5t64.5 13.5q85 0 132 -54t47 -142q0 -64 -27.5 -111t-76 -72t-110.5 -25q-34 0 -70 9zM212 67q28 0 55.5 8t44.5 22q9 17 16 43.5t7 51.5q0 53 -26.5 87t-75.5 34q-46 0 -85 -41v-191q28 -14 64 -14z" />
    <glyph glyph-name="q" unicode="q" horiz-adv-x="469" 
d="M301 281q-26 32 -74 32q-25 0 -48.5 -6.5t-35.5 -18.5q-16 -27 -16 -98q0 -55 25.5 -89t75.5 -34q23 0 53 9.5t46 24.5v101q0 47 -26 79zM81 335.5q53 56.5 147 56.5q101 0 147.5 -54t46.5 -140v-386h-95v210q-46 -35 -112 -35q-89 0 -138 53t-49 143q0 96 53 152.5z" />
    <glyph glyph-name="r" unicode="r" horiz-adv-x="322" 
d="M53 380h82l10 -46q39 58 107 58q39 0 70 -21l-26 -88q-18 13 -32 19t-31 6q-26 0 -48.5 -14.5t-36.5 -36.5v-257h-95v380z" />
    <glyph glyph-name="s" unicode="s" horiz-adv-x="364" 
d="M22 25l24 82q26 -21 62.5 -31t72.5 -10t60 8q10 13 10 28q0 18 -19 27.5t-60 18.5q-43 9 -71 20t-48 34t-20 61q0 63 44.5 96t111.5 33q89 0 139 -38l-23 -79q-25 19 -58 30t-63 11t-55 -11q-7 -12 -7 -25q0 -19 20 -28.5t62 -19.5q43 -10 70.5 -20t47.5 -33t20 -62
q0 -66 -48 -97.5t-120 -31.5q-89 0 -152 37z" />
    <glyph glyph-name="t" unicode="t" horiz-adv-x="334" 
d="M119 24.5q-33 37.5 -33 102.5v176h-66v77h66v133h94v-133h121v-77h-121v-168q0 -32 16 -49.5t48 -17.5q30 0 54 14l16 -74q-20 -12 -42.5 -16.5t-53.5 -4.5q-66 0 -99 37.5z" />
    <glyph glyph-name="u" unicode="u" horiz-adv-x="454" 
d="M83 30q-36 43 -36 115v235h95v-221q0 -39 17.5 -65t55.5 -26q24 0 48.5 12t42.5 29v271h95v-380h-81l-10 39q-22 -25 -53.5 -38.5t-67.5 -13.5q-70 0 -106 43z" />
    <glyph glyph-name="v" unicode="v" horiz-adv-x="431" 
d="M7 380h106l105 -279l104 279h102l-159 -380h-102z" />
    <glyph glyph-name="w" unicode="w" horiz-adv-x="687" 
d="M7 380h102l94 -282l94 282h95l94 -282l94 282h100l-145 -380h-100l-92 271l-92 -271h-99z" />
    <glyph glyph-name="x" unicode="x" horiz-adv-x="425" 
d="M153 201l-131 179h111l80 -122l79 122h110l-132 -179l148 -201h-111l-95 144l-95 -144h-111z" />
    <glyph glyph-name="y" unicode="y" horiz-adv-x="454" 
d="M51 -165l24 83q56 -37 122 -37q27 0 49 6t36 17q14 21 18.5 49.5t5.5 94.5q-44 -47 -115 -47t-107.5 42.5t-36.5 117.5v219h95v-209q0 -46 20 -69t52 -23q25 0 50 12t42 28v261h95v-370q0 -123 -64 -167t-142 -44q-80 0 -144 36z" />
    <glyph glyph-name="z" unicode="z" horiz-adv-x="380" 
d="M33 71l196 232h-193v77h306v-71l-196 -232h200v-77h-313v71z" />
    <glyph glyph-name="braceleft" unicode="{" horiz-adv-x="397" 
d="M199.5 -143q-41.5 49 -41.5 142v102q0 73 -24 112t-71 39h-23v74h23q47 0 71 39.5t24 111.5v84q0 94 40.5 142.5t120.5 48.5h48v-73h-38q-89 0 -89 -140v-81q0 -127 -83 -169q83 -40 83 -169v-99q0 -140 89 -140h38v-73h-48q-78 0 -119.5 49z" />
    <glyph glyph-name="bar" unicode="|" horiz-adv-x="251" 
d="M80 732h91v-964h-91v964z" />
    <glyph glyph-name="braceright" unicode="}" horiz-adv-x="397" 
d="M30 -192v73h38q89 0 89 140v99q0 129 83 169q-83 42 -83 169v81q0 140 -89 140h-38v73h48q80 0 120.5 -48.5t40.5 -142.5v-84q0 -72 24 -111.5t71 -39.5h23v-74h-23q-47 0 -71 -39t-24 -112v-102q0 -93 -41.5 -142t-119.5 -49h-48z" />
    <glyph glyph-name="asciitilde" unicode="~" horiz-adv-x="557" 
d="M314 208.5q-29 14.5 -62 41.5q-23 20 -40 29.5t-37 9.5q-29 0 -43.5 -24.5t-14.5 -63.5h-73q0 77 34 117t95 40q42 0 70.5 -14.5t62.5 -42.5q25 -20 40.5 -29t34.5 -9q58 0 58 88h73q0 -77 -33.5 -117t-94.5 -40q-41 0 -70 14.5z" />
    <glyph glyph-name="uni00A0" unicode="&#xa0;" horiz-adv-x="188" 
 />
    <glyph glyph-name="exclamdown" unicode="&#xa1;" horiz-adv-x="258" 
d="M169 132q1 -12 5 -67t4 -104v-211h-98v211q0 49 4 104t5 67l6 76h68zM87 373q17 17 42 17t42 -17t17 -42t-17 -42.5t-42 -17.5t-42 18t-17 42q0 25 17 42z" />
    <glyph glyph-name="cent" unicode="&#xa2;" horiz-adv-x="455" 
d="M241 81q-101 12 -146 75t-45 160q0 94 45 157t146 76v81h73v-79q51 -3 92 -20l-13 -82q-54 22 -106 22q-28 0 -63.5 -8t-52.5 -22q-16 -16 -24 -53t-8 -69q0 -81 33.5 -120.5t117.5 -39.5q62 0 113 20l12 -82q-50 -17 -101 -18v-79h-73v81z" />
    <glyph glyph-name="sterling" unicode="&#xa3;" horiz-adv-x="507" 
d="M115 214v60h-75v70h75v37q0 94 19 151.5t60.5 84t109.5 26.5q79 0 141 -36l-21 -76q-52 28 -110 28q-46 0 -82 -24q-21 -36 -21 -123v-68h158v-70h-158v-59q0 -44 -9 -78.5t-31 -61.5q16 5 34 6t53 1h199v-82h-417v77q75 13 75 137z" />
    <glyph glyph-name="currency" unicode="&#xa4;" horiz-adv-x="637" 
d="M245 185l-131 -132l-58 58l129 128q-25 36 -25 77q0 40 24 77l-127 127l57 58l131 -131q38 18 74 18t74 -18l130 131l58 -58l-128 -127q25 -36 25 -77q0 -42 -25 -78l128 -126l-58 -59l-131 132q-36 -18 -73 -18q-36 0 -74 18zM260 257q24 -24 59 -24t59 24t24 59t-24 59
t-59 24q-34 0 -58.5 -24t-24.5 -59t24 -59z" />
    <glyph glyph-name="yen" unicode="&#xa5;" horiz-adv-x="594" 
d="M250 73h-163v69h163v62h-163v69h142l-212 357h108l172 -302l172 302h108l-213 -357h143v-69h-162v-62h162v-69h-162v-73h-95v73z" />
    <glyph glyph-name="brokenbar" unicode="&#xa6;" horiz-adv-x="251" 
d="M80 174h91v-406h-91v406zM80 732h91v-385h-91v385z" />
    <glyph glyph-name="section" unicode="&#xa7;" horiz-adv-x="481" 
d="M122.5 -184.5q-50.5 16.5 -87.5 42.5l24 83q34 -31 83 -46.5t91 -15.5q43 0 81 13q36 34 36 77q0 30 -18 49t-44.5 29.5t-73.5 23.5q-56 16 -90.5 30.5t-59 44.5t-24.5 79q0 72 58 125q-58 39 -58 114q0 82 59 130.5t155 48.5q47 0 94 -13.5t80 -44.5l-23 -81
q-79 59 -157 59q-47 0 -89 -17q-10 -11 -17.5 -29.5t-7.5 -38.5q0 -29 17 -46.5t43 -27t71 -21.5q58 -14 94.5 -29.5t62.5 -48.5t26 -89q0 -76 -54 -123q52 -40 52 -114q0 -86 -61.5 -133t-154.5 -47q-57 0 -107.5 16.5zM150.5 197.5q17.5 -18.5 43 -28.5t71.5 -23
q34 -8 61 -18q28 28 28 69q0 34 -18.5 55t-46 32t-75.5 23q-21 5 -49 14q-32 -34 -32 -75q0 -30 17.5 -48.5z" />
    <glyph glyph-name="dieresis" unicode="&#xa8;" horiz-adv-x="367" 
d="M57 489.5q-17 17.5 -17 41.5q0 25 17 42t42 17t42 -17t17 -42q0 -24 -17 -41.5t-42 -17.5t-42 17.5zM225.5 573q17.5 17 42.5 17t42 -17t17 -42q0 -24 -17 -41.5t-42 -17.5t-42.5 17.5t-17.5 41.5q0 25 17.5 42z" />
    <glyph glyph-name="copyright" unicode="&#xa9;" horiz-adv-x="833" 
d="M237.5 7.5q-81.5 47.5 -128.5 128.5t-47 176q0 96 47 177t128.5 129t179.5 48t179 -48t128 -129t47 -177q0 -95 -47 -176t-128 -128.5t-179 -47.5t-179.5 47.5zM157.5 164q39.5 -68 108 -108t151.5 -40t151 40t107.5 107.5t39.5 148.5t-39.5 149.5t-107.5 108.5t-151 40
t-151.5 -40t-108 -108.5t-39.5 -149.5q0 -80 39.5 -148zM287 457.5q49 55.5 145 55.5q56 0 104 -21l-11 -71q-27 12 -47 16.5t-45 4.5q-57 0 -92 -26q-23 -39 -23 -104q0 -64 28.5 -96.5t92.5 -32.5q52 0 95 20l9 -71q-41 -20 -108 -20q-98 0 -147.5 51t-49.5 146
q0 93 49 148.5z" />
    <glyph glyph-name="ordfeminine" unicode="&#xaa;" horiz-adv-x="315" 
d="M200 399q-27 -32 -83 -32q-40 0 -65.5 20.5t-25.5 60.5q0 81 116 81h55v11q0 23 -12.5 33.5t-40.5 10.5q-21 0 -44.5 -4.5t-37.5 -11.5l-14 52q48 20 107 20q58 0 85.5 -25.5t27.5 -78.5v-162h-61zM135 420q18 0 35 7.5t27 18.5v34h-55q-25 0 -37 -4q-8 -13 -8 -26
q0 -30 38 -30z" />
    <glyph glyph-name="guillemotleft" unicode="&#xab;" horiz-adv-x="436" 
d="M30 250l104 132h100l-104 -132l104 -132h-100zM193 250l104 132h100l-104 -132l104 -132h-100z" />
    <glyph glyph-name="logicalnot" unicode="&#xac;" horiz-adv-x="557" 
d="M422 373h-368v77h450v-255h-82v178z" />
    <glyph glyph-name="uni00AD" unicode="&#xad;" horiz-adv-x="304" 
d="M50 301h204v-84h-204v84z" />
    <glyph glyph-name="registered" unicode="&#xae;" horiz-adv-x="833" 
d="M237.5 7.5q-81.5 47.5 -128.5 128.5t-47 176q0 96 47 177t128.5 129t179.5 48t179 -48t128 -129t47 -177q0 -95 -47 -176t-128 -128.5t-179 -47.5t-179.5 47.5zM157.5 164q39.5 -68 108 -108t151.5 -40t151 40t107.5 107.5t39.5 148.5t-39.5 149.5t-107.5 108.5t-151 40
t-151.5 -40t-108 -108.5t-39.5 -149.5q0 -80 39.5 -148zM279 507h147q65 0 104 -27.5t39 -87.5q0 -42 -21.5 -72t-61.5 -40l95 -162h-84l-84 154h-57v-154h-77v389zM424 336q40 0 59 13q10 15 10 41q0 52 -69 52h-68v-106h68z" />
    <glyph glyph-name="macron" unicode="&#xaf;" horiz-adv-x="334" 
d="M40 564h254v-73h-254v73z" />
    <glyph glyph-name="degree" unicode="&#xb0;" horiz-adv-x="393" 
d="M91 394q-42 42 -42 104q0 40 19.5 73t53 52.5t74.5 19.5t75 -19.5t53.5 -52.5t19.5 -73t-19.5 -73.5t-53.5 -53t-75 -19.5q-63 0 -105 42zM140.5 440.5q22.5 -22.5 56.5 -22.5q32 0 55 24t23 56q0 33 -22 56.5t-56 23.5q-35 0 -57 -23t-22 -57q0 -35 22.5 -57.5z" />
    <glyph glyph-name="plusminus" unicode="&#xb1;" horiz-adv-x="557" 
d="M237 337h-181v78h181v181h83v-181h181v-78h-181v-187h-83v187zM56 110h445v-78h-445v78z" />
    <glyph glyph-name="uni00B2" unicode="&#xb2;" horiz-adv-x="273" 
d="M34 428l85 61q24 18 34.5 32.5t10.5 29.5q0 33 -38 33q-35 0 -71 -24l-18 52q49 30 101 30q45 0 71 -22t26 -59q0 -31 -15 -54t-48 -46l-43 -29h109v-54h-204v50z" />
    <glyph glyph-name="uni00B3" unicode="&#xb3;" horiz-adv-x="255" 
d="M61.5 374q-23.5 6 -45.5 19l14 49q44 -22 83 -22q44 0 44 31q0 15 -13 23.5t-35 8.5h-27v50h27q45 0 45 30q0 13 -10 18.5t-33 5.5q-40 0 -76 -19l-14 49q24 13 45.5 18t49.5 5q108 0 108 -67q0 -46 -56 -63q61 -12 61 -61q0 -36 -31 -58.5t-81 -22.5q-32 0 -55.5 6z" />
    <glyph glyph-name="acute" unicode="&#xb4;" horiz-adv-x="264" 
d="M119 598h105l-100 -136h-84z" />
    <glyph glyph-name="uni00B5" unicode="&#xb5;" horiz-adv-x="490" 
d="M50 380h95v-223q0 -37 17.5 -63t53.5 -26q25 0 49.5 12t43.5 30v270h94v-273q0 -22 5 -30.5t16 -8.5q13 0 30 10l16 -70q-25 -20 -68 -20q-63 0 -83 53q-35 -53 -107 -53q-45 0 -70 22v-198h-92v568z" />
    <glyph glyph-name="paragraph" unicode="&#xb6;" horiz-adv-x="534" 
d="M213 262q-56 0 -98 25t-64.5 67.5t-22.5 94.5q0 85 51 133t146 48h242v-716h-81v649h-92v-649h-81v348z" />
    <glyph glyph-name="periodcentered" unicode="&#xb7;" horiz-adv-x="208" 
d="M62 263q-17 17 -17 42t17 42.5t42 17.5t42 -18t17 -42t-17 -41.5t-42 -17.5t-42 17z" />
    <glyph glyph-name="cedilla" unicode="&#xb8;" horiz-adv-x="252" 
d="M40 -184l9 52q20 -9 47 -9q21 0 34.5 7.5t13.5 23.5t-14 23.5t-36 7.5h-37l26 104h59l-16 -65q37 1 61.5 -16t24.5 -54q0 -42 -30.5 -64t-75.5 -22q-32 0 -66 12z" />
    <glyph glyph-name="uni00B9" unicode="&#xb9;" horiz-adv-x="247" 
d="M34 432h60v132l-57 -23l-13 53l83 36h57v-198h51v-54h-181v54z" />
    <glyph glyph-name="ordmasculine" unicode="&#xba;" horiz-adv-x="341" 
d="M65 403q-37 36 -37 100q0 61 39 99t104 38q68 0 105 -36.5t37 -100.5q0 -61 -38.5 -98.5t-104.5 -37.5q-68 0 -105 36zM120 451q17 -21 51 -21q16 0 31.5 4.5t23.5 12.5q13 19 13 55q0 33 -17.5 54t-51.5 21q-37 0 -52 -16q-7 -10 -11 -26.5t-4 -30.5q0 -32 17 -53z" />
    <glyph glyph-name="guillemotright" unicode="&#xbb;" horiz-adv-x="436" 
d="M39 118l104 132l-104 132h100l104 -132l-104 -132h-100zM306 250l-104 132h100l104 -132l-104 -132h-100z" />
    <glyph glyph-name="onequarter" unicode="&#xbc;" horiz-adv-x="626" 
d="M34 432h60v132l-57 -23l-13 53l83 36h57v-198h51v-54h-181v54zM429 630h87l-337 -630h-86zM369 98l59 154h71l-57 -147h65v84h68v-189h-68v53h-138v45z" />
    <glyph glyph-name="onehalf" unicode="&#xbd;" horiz-adv-x="622" 
d="M34 432h60v132l-57 -23l-13 53l83 36h57v-198h51v-54h-181v54zM429 630h87l-337 -630h-86zM383 50l85 61q24 18 34.5 32.5t10.5 29.5q0 33 -38 33q-35 0 -71 -24l-18 52q49 30 101 30q45 0 71 -22t26 -59q0 -31 -15 -54t-48 -46l-43 -29h109v-54h-204v50z" />
    <glyph glyph-name="threequarters" unicode="&#xbe;" horiz-adv-x="634" 
d="M61.5 374q-23.5 6 -45.5 19l14 49q44 -22 83 -22q44 0 44 31q0 15 -13 23.5t-35 8.5h-27v50h27q45 0 45 30q0 13 -10 18.5t-33 5.5q-40 0 -76 -19l-14 49q24 13 45.5 18t49.5 5q108 0 108 -67q0 -46 -56 -63q61 -12 61 -61q0 -36 -31 -58.5t-81 -22.5q-32 0 -55.5 6z
M437 630h87l-337 -630h-86zM377 98l59 154h71l-57 -147h65v84h68v-189h-68v53h-138v45z" />
    <glyph glyph-name="questiondown" unicode="&#xbf;" horiz-adv-x="411" 
d="M311 133q-15 -31 -36 -50.5t-56 -43.5q-43 -29 -64 -54t-21 -66q0 -48 29 -73t81 -25q29 0 62 7.5t53 17.5l22 -79q-26 -13 -64 -21.5t-79 -8.5q-99 0 -149.5 43.5t-50.5 135.5q0 46 15.5 77.5t37.5 51t58 42.5q30 20 47.5 34.5t29.5 36t12 50.5h88q0 -44 -15 -75z
M240 373q17 17 42 17t42 -17t17 -42t-17 -42.5t-42 -17.5t-42 18t-17 42q0 25 17 42z" />
    <glyph glyph-name="Agrave" unicode="&#xc0;" horiz-adv-x="636" 
d="M257 630h122l240 -630h-107l-54 148h-281l-54 -148h-106zM427 232l-109 300l-110 -300h219zM187 820h102l77 -136h-81z" />
    <glyph glyph-name="Aacute" unicode="&#xc1;" horiz-adv-x="636" 
d="M257 630h122l240 -630h-107l-54 148h-281l-54 -148h-106zM427 232l-109 300l-110 -300h219zM355 820h105l-100 -136h-84z" />
    <glyph glyph-name="Acircumflex" unicode="&#xc2;" horiz-adv-x="636" 
d="M257 630h122l240 -630h-107l-54 148h-281l-54 -148h-106zM427 232l-109 300l-110 -300h219zM271 820h94l87 -136h-82l-51 82l-53 -82h-82z" />
    <glyph glyph-name="Atilde" unicode="&#xc3;" horiz-adv-x="636" 
d="M257 630h122l240 -630h-107l-54 148h-281l-54 -148h-106zM427 232l-109 300l-110 -300h219zM339.5 685.5q-15.5 8.5 -38.5 25.5q-2 2 -10.5 8.5t-14.5 9.5t-12 3q-14 0 -21 -12.5t-7 -35.5h-64q0 55 23 84t65 29q21 0 38 -9t36 -25q14 -11 22 -16t16 -5q14 0 21 12.5
t7 35.5h64q0 -54 -23 -83.5t-65 -29.5q-21 0 -36.5 8.5z" />
    <glyph glyph-name="Adieresis" unicode="&#xc4;" horiz-adv-x="636" 
d="M257 630h122l240 -630h-107l-54 148h-281l-54 -148h-106zM427 232l-109 300l-110 -300h219zM190 711.5q-17 17.5 -17 41.5t17.5 41t41.5 17q25 0 42.5 -17.5t17.5 -40.5q0 -24 -17.5 -41.5t-42.5 -17.5t-42 17.5zM361.5 794q17.5 17 41.5 17q25 0 42 -17t17 -41
t-17 -41.5t-42 -17.5t-42 17.5t-17 41.5t17.5 41z" />
    <glyph glyph-name="Aring" unicode="&#xc5;" horiz-adv-x="636" 
d="M257 630h122l240 -630h-107l-54 148h-281l-54 -148h-106zM427 232l-109 300l-110 -300h219zM247 689.5q-28 25.5 -28 68.5q0 44 27.5 69.5t70.5 25.5q44 0 72 -25.5t28 -69.5q0 -43 -28 -68.5t-72 -25.5q-42 0 -70 25.5zM286.5 727.5q11.5 -12.5 30.5 -12.5
q20 0 31.5 12.5t11.5 30.5q0 20 -11.5 32t-31.5 12q-19 0 -30.5 -12t-11.5 -32q0 -18 11.5 -30.5z" />
    <glyph glyph-name="AE" unicode="&#xc6;" horiz-adv-x="871" 
d="M383 630h452v-86h-298v-191h260v-86h-260v-181h299v-86h-400v151h-227l-86 -151h-106zM436 232v319l-181 -319h181z" />
    <glyph glyph-name="Ccedilla" unicode="&#xc7;" horiz-adv-x="587" 
d="M288 -184l9 52q20 -9 47 -9q21 0 34.5 7.5t13.5 23.5t-14 23.5t-36 7.5h-37l17 68q-136 10 -209.5 88t-73.5 219q0 109 42.5 187.5t118 119t173.5 40.5q95 0 179 -42l-22 -84q-80 39 -153 39q-48 0 -99 -15.5t-81 -41.5q-27 -36 -41.5 -88t-14.5 -110q0 -108 56 -167
t164 -59q52 0 102 12.5t90 33.5l21 -77q-79 -51 -193 -56l-7 -28q37 1 61.5 -16t24.5 -54q0 -42 -30.5 -64t-75.5 -22q-32 0 -66 12z" />
    <glyph glyph-name="Egrave" unicode="&#xc8;" horiz-adv-x="502" 
d="M66 630h399v-86h-298v-191h260v-86h-260v-181h299v-86h-400v630zM135 820h102l77 -136h-81z" />
    <glyph glyph-name="Eacute" unicode="&#xc9;" horiz-adv-x="502" 
d="M66 630h399v-86h-298v-191h260v-86h-260v-181h299v-86h-400v630zM303 820h105l-100 -136h-84z" />
    <glyph glyph-name="Ecircumflex" unicode="&#xca;" horiz-adv-x="502" 
d="M66 630h399v-86h-298v-191h260v-86h-260v-181h299v-86h-400v630zM219 820h94l87 -136h-82l-51 82l-53 -82h-82z" />
    <glyph glyph-name="Edieresis" unicode="&#xcb;" horiz-adv-x="502" 
d="M66 630h399v-86h-298v-191h260v-86h-260v-181h299v-86h-400v630zM138 711.5q-17 17.5 -17 41.5t17.5 41t41.5 17q25 0 42.5 -17.5t17.5 -40.5q0 -24 -17.5 -41.5t-42.5 -17.5t-42 17.5zM309.5 794q17.5 17 41.5 17q25 0 42 -17t17 -41t-17 -41.5t-42 -17.5t-42 17.5
t-17 41.5t17.5 41z" />
    <glyph glyph-name="Igrave" unicode="&#xcc;" horiz-adv-x="232" 
d="M66 630h100v-630h-100v630zM-15 820h102l77 -136h-81z" />
    <glyph glyph-name="Iacute" unicode="&#xcd;" horiz-adv-x="232" 
d="M66 630h100v-630h-100v630zM153 820h105l-100 -136h-84z" />
    <glyph glyph-name="Icircumflex" unicode="&#xce;" horiz-adv-x="232" 
d="M66 630h100v-630h-100v630zM69 820h94l87 -136h-82l-51 82l-53 -82h-82z" />
    <glyph glyph-name="Idieresis" unicode="&#xcf;" horiz-adv-x="232" 
d="M66 630h100v-630h-100v630zM-12 711.5q-17 17.5 -17 41.5t17.5 41t41.5 17q25 0 42.5 -17.5t17.5 -40.5q0 -24 -17.5 -41.5t-42.5 -17.5t-42 17.5zM159.5 794q17.5 17 41.5 17q25 0 42 -17t17 -41t-17 -41.5t-42 -17.5t-42 17.5t-17 41.5t17.5 41z" />
    <glyph glyph-name="Eth" unicode="&#xd0;" horiz-adv-x="688" 
d="M96 276h-88v77h88v277h231q322 0 322 -305q0 -100 -42 -173.5t-117 -112.5t-173 -39h-221v276zM314 86q61 0 104 13.5t77 39.5q25 31 39.5 81t14.5 102q0 106 -54 164t-157 58h-142v-191h156v-77h-156v-190h118z" />
    <glyph glyph-name="Ntilde" unicode="&#xd1;" horiz-adv-x="640" 
d="M66 630h143l267 -511v511h97v-630h-141l-268 512v-512h-98v630zM340.5 685.5q-15.5 8.5 -38.5 25.5q-2 2 -10.5 8.5t-14.5 9.5t-12 3q-14 0 -21 -12.5t-7 -35.5h-64q0 55 23 84t65 29q21 0 38 -9t36 -25q14 -11 22 -16t16 -5q14 0 21 12.5t7 35.5h64q0 -54 -23 -83.5
t-65 -29.5q-21 0 -36.5 8.5z" />
    <glyph glyph-name="Ograve" unicode="&#xd2;" horiz-adv-x="707" 
d="M172.5 30.5q-69.5 43.5 -101.5 116t-32 162.5q0 99 37 174.5t109 117.5t172 42q96 0 166.5 -39.5t107.5 -112.5t37 -172q0 -95 -35 -170t-107 -118.5t-178 -43.5t-175.5 43.5zM163.5 195q23.5 -55 70.5 -88t116 -33q49 0 95.5 16.5t72.5 40.5q24 31 36 80.5t12 98.5
q0 67 -24 123t-72 89.5t-116 33.5q-47 0 -91.5 -16t-70.5 -38q-25 -31 -38.5 -83.5t-13.5 -103.5q0 -65 23.5 -120zM223 820h102l77 -136h-81z" />
    <glyph glyph-name="Oacute" unicode="&#xd3;" horiz-adv-x="707" 
d="M172.5 30.5q-69.5 43.5 -101.5 116t-32 162.5q0 99 37 174.5t109 117.5t172 42q96 0 166.5 -39.5t107.5 -112.5t37 -172q0 -95 -35 -170t-107 -118.5t-178 -43.5t-175.5 43.5zM163.5 195q23.5 -55 70.5 -88t116 -33q49 0 95.5 16.5t72.5 40.5q24 31 36 80.5t12 98.5
q0 67 -24 123t-72 89.5t-116 33.5q-47 0 -91.5 -16t-70.5 -38q-25 -31 -38.5 -83.5t-13.5 -103.5q0 -65 23.5 -120zM391 820h105l-100 -136h-84z" />
    <glyph glyph-name="Ocircumflex" unicode="&#xd4;" horiz-adv-x="707" 
d="M172.5 30.5q-69.5 43.5 -101.5 116t-32 162.5q0 99 37 174.5t109 117.5t172 42q96 0 166.5 -39.5t107.5 -112.5t37 -172q0 -95 -35 -170t-107 -118.5t-178 -43.5t-175.5 43.5zM163.5 195q23.5 -55 70.5 -88t116 -33q49 0 95.5 16.5t72.5 40.5q24 31 36 80.5t12 98.5
q0 67 -24 123t-72 89.5t-116 33.5q-47 0 -91.5 -16t-70.5 -38q-25 -31 -38.5 -83.5t-13.5 -103.5q0 -65 23.5 -120zM307 820h94l87 -136h-82l-51 82l-53 -82h-82z" />
    <glyph glyph-name="Otilde" unicode="&#xd5;" horiz-adv-x="707" 
d="M172.5 30.5q-69.5 43.5 -101.5 116t-32 162.5q0 99 37 174.5t109 117.5t172 42q96 0 166.5 -39.5t107.5 -112.5t37 -172q0 -95 -35 -170t-107 -118.5t-178 -43.5t-175.5 43.5zM163.5 195q23.5 -55 70.5 -88t116 -33q49 0 95.5 16.5t72.5 40.5q24 31 36 80.5t12 98.5
q0 67 -24 123t-72 89.5t-116 33.5q-47 0 -91.5 -16t-70.5 -38q-25 -31 -38.5 -83.5t-13.5 -103.5q0 -65 23.5 -120zM375.5 685.5q-15.5 8.5 -38.5 25.5q-2 2 -10.5 8.5t-14.5 9.5t-12 3q-14 0 -21 -12.5t-7 -35.5h-64q0 55 23 84t65 29q21 0 38 -9t36 -25q14 -11 22 -16
t16 -5q14 0 21 12.5t7 35.5h64q0 -54 -23 -83.5t-65 -29.5q-21 0 -36.5 8.5z" />
    <glyph glyph-name="Odieresis" unicode="&#xd6;" horiz-adv-x="707" 
d="M172.5 30.5q-69.5 43.5 -101.5 116t-32 162.5q0 99 37 174.5t109 117.5t172 42q96 0 166.5 -39.5t107.5 -112.5t37 -172q0 -95 -35 -170t-107 -118.5t-178 -43.5t-175.5 43.5zM163.5 195q23.5 -55 70.5 -88t116 -33q49 0 95.5 16.5t72.5 40.5q24 31 36 80.5t12 98.5
q0 67 -24 123t-72 89.5t-116 33.5q-47 0 -91.5 -16t-70.5 -38q-25 -31 -38.5 -83.5t-13.5 -103.5q0 -65 23.5 -120zM226 711.5q-17 17.5 -17 41.5t17.5 41t41.5 17q25 0 42.5 -17.5t17.5 -40.5q0 -24 -17.5 -41.5t-42.5 -17.5t-42 17.5zM397.5 794q17.5 17 41.5 17
q25 0 42 -17t17 -41t-17 -41.5t-42 -17.5t-42 17.5t-17 41.5t17.5 41z" />
    <glyph glyph-name="multiply" unicode="&#xd7;" horiz-adv-x="557" 
d="M63 157l160 160l-160 159l56 55l160 -159l160 159l56 -55l-160 -159l160 -160l-56 -55l-160 159l-160 -159z" />
    <glyph glyph-name="Oslash" unicode="&#xd8;" horiz-adv-x="707" 
d="M163 36l-31 -36h-94l72 84q-36 43 -53.5 101t-17.5 124q0 99 37 174.5t109 117.5t172 42q109 0 185 -51l32 38h94l-73 -85q73 -87 73 -226q0 -95 -35 -170t-107 -118.5t-178 -43.5q-111 0 -185 49zM179 166l299 351q-54 39 -124 39q-47 0 -91.5 -16t-70.5 -38
q-25 -31 -38.5 -83.5t-13.5 -103.5q0 -86 39 -149zM350 74q49 0 95.5 16.5t72.5 40.5q24 31 36 80.5t12 98.5q0 91 -40 153l-299 -351q51 -38 123 -38z" />
    <glyph glyph-name="Ugrave" unicode="&#xd9;" horiz-adv-x="623" 
d="M62 250v380h99v-380q0 -94 38 -134.5t113 -40.5q83 0 118 29q32 40 32 146v380h99v-380q0 -136 -65.5 -199t-183.5 -63q-250 0 -250 262zM182 820h102l77 -136h-81z" />
    <glyph glyph-name="Uacute" unicode="&#xda;" horiz-adv-x="623" 
d="M62 250v380h99v-380q0 -94 38 -134.5t113 -40.5q83 0 118 29q32 40 32 146v380h99v-380q0 -136 -65.5 -199t-183.5 -63q-250 0 -250 262zM349 820h105l-100 -136h-84z" />
    <glyph glyph-name="Ucircumflex" unicode="&#xdb;" horiz-adv-x="623" 
d="M62 250v380h99v-380q0 -94 38 -134.5t113 -40.5q83 0 118 29q32 40 32 146v380h99v-380q0 -136 -65.5 -199t-183.5 -63q-250 0 -250 262zM265 820h94l87 -136h-82l-51 82l-53 -82h-82z" />
    <glyph glyph-name="Udieresis" unicode="&#xdc;" horiz-adv-x="623" 
d="M62 250v380h99v-380q0 -94 38 -134.5t113 -40.5q83 0 118 29q32 40 32 146v380h99v-380q0 -136 -65.5 -199t-183.5 -63q-250 0 -250 262zM185 711.5q-17 17.5 -17 41.5t17.5 41t41.5 17q25 0 42.5 -17.5t17.5 -40.5q0 -24 -17.5 -41.5t-42.5 -17.5t-42 17.5zM356.5 794
q17.5 17 41.5 17q25 0 42 -17t17 -41t-17 -41.5t-42 -17.5t-42 17.5t-17 41.5t17.5 41z" />
    <glyph glyph-name="Yacute" unicode="&#xdd;" horiz-adv-x="639" 
d="M269 221l-252 409h114l189 -316l189 316h113l-252 -409v-221h-101v221zM356 820h105l-100 -136h-84z" />
    <glyph glyph-name="Thorn" unicode="&#xde;" horiz-adv-x="573" 
d="M66 630h101v-90h121q256 0 256 -203q0 -107 -71.5 -166.5t-188.5 -59.5h-117v-111h-101v630zM291 196q78 0 121 29q32 36 32 109q0 121 -148 121h-129v-259h124z" />
    <glyph glyph-name="germandbls" unicode="&#xdf;" horiz-adv-x="503" 
d="M235.5 -5.5q-29.5 6.5 -50.5 15.5l23 81q19 -10 44 -16t48 -6q32 0 50 12q11 12 19 36.5t8 55.5q0 65 -36 96.5t-98 31.5h-33v79h20q40 0 60.5 5t37.5 16q9 14 14.5 37t5.5 47q0 49 -25 74t-68 25q-53 0 -80 -37t-27 -100v-447h-95v441q0 96 50 159t155 63
q84 0 135.5 -43t51.5 -127q0 -112 -95 -148q124 -33 124 -171q0 -87 -47.5 -136.5t-130.5 -49.5q-31 0 -60.5 6.5z" />
    <glyph glyph-name="agrave" unicode="&#xe0;" horiz-adv-x="419" 
d="M283 37q-43 -49 -123 -49q-61 0 -97.5 31t-36.5 92q0 116 166 116h87v18q0 36 -20.5 52t-64.5 16q-29 0 -61.5 -7t-52.5 -17l-22 74q31 13 71.5 21t76.5 8q86 0 126 -37t40 -116v-239h-79zM182 64q28 0 54.5 11t42.5 29v52h-87q-44 0 -64 -7q-9 -16 -9 -37q0 -48 63 -48z
M78 598h102l77 -136h-81z" />
    <glyph glyph-name="aacute" unicode="&#xe1;" horiz-adv-x="419" 
d="M283 37q-43 -49 -123 -49q-61 0 -97.5 31t-36.5 92q0 116 166 116h87v18q0 36 -20.5 52t-64.5 16q-29 0 -61.5 -7t-52.5 -17l-22 74q31 13 71.5 21t76.5 8q86 0 126 -37t40 -116v-239h-79zM182 64q28 0 54.5 11t42.5 29v52h-87q-44 0 -64 -7q-9 -16 -9 -37q0 -48 63 -48z
M234 598h105l-100 -136h-84z" />
    <glyph glyph-name="acircumflex" unicode="&#xe2;" horiz-adv-x="419" 
d="M283 37q-43 -49 -123 -49q-61 0 -97.5 31t-36.5 92q0 116 166 116h87v18q0 36 -20.5 52t-64.5 16q-29 0 -61.5 -7t-52.5 -17l-22 74q31 13 71.5 21t76.5 8q86 0 126 -37t40 -116v-239h-79zM182 64q28 0 54.5 11t42.5 29v52h-87q-44 0 -64 -7q-9 -16 -9 -37q0 -48 63 -48z
M160 598h94l87 -136h-82l-51 82l-53 -82h-82z" />
    <glyph glyph-name="atilde" unicode="&#xe3;" horiz-adv-x="419" 
d="M283 37q-43 -49 -123 -49q-61 0 -97.5 31t-36.5 92q0 116 166 116h87v18q0 36 -20.5 52t-64.5 16q-29 0 -61.5 -7t-52.5 -17l-22 74q31 13 71.5 21t76.5 8q86 0 126 -37t40 -116v-239h-79zM182 64q28 0 54.5 11t42.5 29v52h-87q-44 0 -64 -7q-9 -16 -9 -37q0 -48 63 -48z
M228.5 461.5q-15.5 8.5 -38.5 25.5q-2 2 -10.5 8.5t-14.5 9.5t-12 3q-14 0 -21 -12.5t-7 -35.5h-64q0 55 23 84t65 29q21 0 38 -9t36 -25q14 -11 22 -16t16 -5q13 0 20.5 12.5t7.5 35.5h64q0 -54 -23 -83.5t-65 -29.5q-21 0 -36.5 8.5z" />
    <glyph glyph-name="adieresis" unicode="&#xe4;" horiz-adv-x="419" 
d="M283 37q-43 -49 -123 -49q-61 0 -97.5 31t-36.5 92q0 116 166 116h87v18q0 36 -20.5 52t-64.5 16q-29 0 -61.5 -7t-52.5 -17l-22 74q31 13 71.5 21t76.5 8q86 0 126 -37t40 -116v-239h-79zM182 64q28 0 54.5 11t42.5 29v52h-87q-44 0 -64 -7q-9 -16 -9 -37q0 -48 63 -48z
M81 489.5q-17 17.5 -17 41.5q0 25 17 42t42 17t42 -17t17 -42q0 -24 -17 -41.5t-42 -17.5t-42 17.5zM249.5 573q17.5 17 42.5 17t42 -17t17 -42q0 -24 -17 -41.5t-42 -17.5t-42.5 17.5t-17.5 41.5q0 25 17.5 42z" />
    <glyph glyph-name="aring" unicode="&#xe5;" horiz-adv-x="419" 
d="M283 37q-43 -49 -123 -49q-61 0 -97.5 31t-36.5 92q0 116 166 116h87v18q0 36 -20.5 52t-64.5 16q-29 0 -61.5 -7t-52.5 -17l-22 74q31 13 71.5 21t76.5 8q86 0 126 -37t40 -116v-239h-79zM182 64q28 0 54.5 11t42.5 29v52h-87q-44 0 -64 -7q-9 -16 -9 -37q0 -48 63 -48z
M137.5 464.5q-25.5 24.5 -25.5 65.5t25.5 66t68.5 25t69 -25t26 -66t-26 -65.5t-69 -24.5t-68.5 24.5zM175 498.5q11 -11.5 31 -11.5t31.5 11.5t11.5 31.5q0 21 -11.5 32.5t-31.5 11.5t-31 -11.5t-11 -32.5q0 -20 11 -31.5z" />
    <glyph glyph-name="ae" unicode="&#xe6;" horiz-adv-x="683" 
d="M259 296.5q-20 16.5 -63 16.5q-31 0 -63.5 -7t-52.5 -17l-22 74q32 13 72.5 21t80.5 8q94 0 129 -50q52 50 133 50q93 0 137 -54t44 -143q0 -12 -2 -38h-278q1 -40 32.5 -65.5t87.5 -25.5q61 0 113 31l20 -73q-58 -37 -144 -37q-53 0 -95 17t-69 51q-27 -33 -68.5 -49.5
t-90.5 -16.5q-61 0 -97.5 30.5t-36.5 88.5q0 119 166 119h87v18q0 35 -20 51.5zM179 64q32 0 62 13t50 35q-6 19 -9 44h-90q-44 0 -64 -7q-9 -16 -9 -37q0 -48 60 -48zM564 229q-3 41 -27.5 63t-64.5 22q-51 0 -80 -29q-17 -30 -18 -56h190z" />
    <glyph glyph-name="ccedilla" unicode="&#xe7;" horiz-adv-x="381" 
d="M154 -184l9 52q20 -9 47 -9q21 0 34.5 7.5t13.5 23.5t-14 23.5t-36 7.5h-37l17 69q-76 11 -118 60t-42 132q0 62 28.5 110t78 74t111.5 26q56 0 111 -25l-24 -82q-14 10 -39 18.5t-50 8.5q-21 0 -49 -8.5t-45 -21.5q-11 -16 -17.5 -42.5t-6.5 -54.5q0 -56 31 -86.5
t87 -30.5q27 0 56 7t51 21l20 -72q-47 -34 -124 -37l-7 -27q37 1 61.5 -16t24.5 -54q0 -42 -30.5 -64t-75.5 -22q-32 0 -66 12z" />
    <glyph glyph-name="egrave" unicode="&#xe8;" horiz-adv-x="429" 
d="M82.5 36.5q-54.5 49.5 -54.5 146.5q0 93 51.5 151t140.5 58q93 0 137 -54t44 -143q0 -12 -2 -38h-278q1 -40 32.5 -65.5t87.5 -25.5q61 0 113 31l20 -73q-58 -37 -144 -37q-93 0 -147.5 49.5zM311 229q-3 41 -27.5 63t-64.5 22q-51 0 -80 -29q-17 -30 -18 -56h190z
M91 598h102l77 -136h-81z" />
    <glyph glyph-name="eacute" unicode="&#xe9;" horiz-adv-x="429" 
d="M82.5 36.5q-54.5 49.5 -54.5 146.5q0 93 51.5 151t140.5 58q93 0 137 -54t44 -143q0 -12 -2 -38h-278q1 -40 32.5 -65.5t87.5 -25.5q61 0 113 31l20 -73q-58 -37 -144 -37q-93 0 -147.5 49.5zM311 229q-3 41 -27.5 63t-64.5 22q-51 0 -80 -29q-17 -30 -18 -56h190z
M246 598h105l-100 -136h-84z" />
    <glyph glyph-name="ecircumflex" unicode="&#xea;" horiz-adv-x="429" 
d="M82.5 36.5q-54.5 49.5 -54.5 146.5q0 93 51.5 151t140.5 58q93 0 137 -54t44 -143q0 -12 -2 -38h-278q1 -40 32.5 -65.5t87.5 -25.5q61 0 113 31l20 -73q-58 -37 -144 -37q-93 0 -147.5 49.5zM311 229q-3 41 -27.5 63t-64.5 22q-51 0 -80 -29q-17 -30 -18 -56h190z
M172 598h94l87 -136h-82l-51 82l-53 -82h-82z" />
    <glyph glyph-name="edieresis" unicode="&#xeb;" horiz-adv-x="429" 
d="M82.5 36.5q-54.5 49.5 -54.5 146.5q0 93 51.5 151t140.5 58q93 0 137 -54t44 -143q0 -12 -2 -38h-278q1 -40 32.5 -65.5t87.5 -25.5q61 0 113 31l20 -73q-58 -37 -144 -37q-93 0 -147.5 49.5zM311 229q-3 41 -27.5 63t-64.5 22q-51 0 -80 -29q-17 -30 -18 -56h190z
M93 489.5q-17 17.5 -17 41.5q0 25 17 42t42 17t42 -17t17 -42q0 -24 -17 -41.5t-42 -17.5t-42 17.5zM261.5 573q17.5 17 42.5 17t42 -17t17 -42q0 -24 -17 -41.5t-42 -17.5t-42.5 17.5t-17.5 41.5q0 25 17.5 42z" />
    <glyph glyph-name="igrave" unicode="&#xec;" horiz-adv-x="201" 
d="M53 380h95v-380h-95v380zM-27 598h102l77 -136h-81z" />
    <glyph glyph-name="iacute" unicode="&#xed;" horiz-adv-x="201" 
d="M53 380h95v-380h-95v380zM129 598h105l-100 -136h-84z" />
    <glyph glyph-name="icircumflex" unicode="&#xee;" horiz-adv-x="201" 
d="M53 380h95v-380h-95v380zM55 598h94l87 -136h-82l-51 82l-53 -82h-82z" />
    <glyph glyph-name="idieresis" unicode="&#xef;" horiz-adv-x="201" 
d="M53 380h95v-380h-95v380zM-16 489q-17 17 -17 42t17 42t42 17t42 -17t17 -42t-17 -42t-42 -17t-42 17zM134 573q17 17 42 17t42 -17t17 -42t-17 -42t-42 -17t-42 17t-17 42t17 42z" />
    <glyph glyph-name="eth" unicode="&#xf0;" horiz-adv-x="452" 
d="M78.5 39.5q-50.5 52.5 -50.5 141.5q0 97 55 153.5t146 56.5q45 0 76 -15q-23 63 -83 113l-67 -58h-95l111 95q-33 22 -125 73l64 60q75 -41 127 -76l78 67h96l-123 -106q76 -63 105.5 -135t29.5 -182q0 -124 -48 -182t-149 -58q-97 0 -147.5 52.5zM150.5 102.5
q24.5 -34.5 77.5 -34.5q56 0 77 36.5t21 117.5q0 38 -3 69q-47 21 -93 21q-28 0 -50 -6.5t-33 -19.5q-11 -17 -16 -43t-5 -52q0 -54 24.5 -88.5z" />
    <glyph glyph-name="ntilde" unicode="&#xf1;" horiz-adv-x="455" 
d="M296.5 286.5q-16.5 26.5 -53.5 26.5q-25 0 -51 -14.5t-44 -34.5v-264h-95v380h82l9 -44q46 56 122 56q72 0 107 -42.5t35 -116.5v-233h-95v217q0 43 -16.5 69.5zM248.5 461.5q-15.5 8.5 -38.5 25.5q-2 2 -10.5 8.5t-14.5 9.5t-12 3q-14 0 -21 -12.5t-7 -35.5h-64
q0 55 23 84t65 29q21 0 38 -9t36 -25q14 -11 22 -16t16 -5q13 0 20.5 12.5t7.5 35.5h64q0 -54 -23 -83.5t-65 -29.5q-21 0 -36.5 8.5z" />
    <glyph glyph-name="ograve" unicode="&#xf2;" horiz-adv-x="452" 
d="M79 41q-51 54 -51 148q0 59 24 105t69 72t105 26q95 0 146 -53.5t51 -148.5q0 -91 -53.5 -147t-144.5 -56q-95 0 -146 54zM151 103q25 -35 75 -35q24 0 47 7t35 19q18 26 18 94q0 53 -26 89t-75 36q-24 0 -45 -6.5t-33 -18.5q-21 -28 -21 -97q0 -53 25 -88zM98 598h102
l77 -136h-81z" />
    <glyph glyph-name="oacute" unicode="&#xf3;" horiz-adv-x="452" 
d="M79 41q-51 54 -51 148q0 59 24 105t69 72t105 26q95 0 146 -53.5t51 -148.5q0 -91 -53.5 -147t-144.5 -56q-95 0 -146 54zM151 103q25 -35 75 -35q24 0 47 7t35 19q18 26 18 94q0 53 -26 89t-75 36q-24 0 -45 -6.5t-33 -18.5q-21 -28 -21 -97q0 -53 25 -88zM254 598h105
l-100 -136h-84z" />
    <glyph glyph-name="ocircumflex" unicode="&#xf4;" horiz-adv-x="452" 
d="M79 41q-51 54 -51 148q0 59 24 105t69 72t105 26q95 0 146 -53.5t51 -148.5q0 -91 -53.5 -147t-144.5 -56q-95 0 -146 54zM151 103q25 -35 75 -35q24 0 47 7t35 19q18 26 18 94q0 53 -26 89t-75 36q-24 0 -45 -6.5t-33 -18.5q-21 -28 -21 -97q0 -53 25 -88zM180 598h94
l87 -136h-82l-51 82l-53 -82h-82z" />
    <glyph glyph-name="otilde" unicode="&#xf5;" horiz-adv-x="452" 
d="M79 41q-51 54 -51 148q0 59 24 105t69 72t105 26q95 0 146 -53.5t51 -148.5q0 -91 -53.5 -147t-144.5 -56q-95 0 -146 54zM151 103q25 -35 75 -35q24 0 47 7t35 19q18 26 18 94q0 53 -26 89t-75 36q-24 0 -45 -6.5t-33 -18.5q-21 -28 -21 -97q0 -53 25 -88zM247.5 461.5
q-15.5 8.5 -38.5 25.5q-2 2 -10.5 8.5t-14.5 9.5t-12 3q-14 0 -21 -12.5t-7 -35.5h-64q0 55 23 84t65 29q21 0 38 -9t36 -25q14 -11 22 -16t16 -5q13 0 20.5 12.5t7.5 35.5h64q0 -54 -23 -83.5t-65 -29.5q-21 0 -36.5 8.5z" />
    <glyph glyph-name="odieresis" unicode="&#xf6;" horiz-adv-x="452" 
d="M79 41q-51 54 -51 148q0 59 24 105t69 72t105 26q95 0 146 -53.5t51 -148.5q0 -91 -53.5 -147t-144.5 -56q-95 0 -146 54zM151 103q25 -35 75 -35q24 0 47 7t35 19q18 26 18 94q0 53 -26 89t-75 36q-24 0 -45 -6.5t-33 -18.5q-21 -28 -21 -97q0 -53 25 -88zM101 489.5
q-17 17.5 -17 41.5q0 25 17 42t42 17t42 -17t17 -42q0 -24 -17 -41.5t-42 -17.5t-42 17.5zM269.5 573q17.5 17 42.5 17t42 -17t17 -42q0 -24 -17 -41.5t-42 -17.5t-42.5 17.5t-17.5 41.5q0 25 17.5 42z" />
    <glyph glyph-name="divide" unicode="&#xf7;" horiz-adv-x="557" 
d="M56 355h445v-78h-445v78zM238.5 175.5q16.5 16.5 41.5 16.5q24 0 41 -16.5t17 -40.5t-17 -40.5t-41 -16.5t-41 17t-17 40q0 24 16.5 40.5zM239 537.5q17 16.5 41 16.5q25 0 41.5 -16.5t16.5 -40.5t-17 -40.5t-41 -16.5q-25 0 -41.5 16.5t-16.5 40.5t17 40.5z" />
    <glyph glyph-name="oslash" unicode="&#xf8;" horiz-adv-x="452" 
d="M107 18l-17 -18h-73l50 55q-39 51 -39 134q0 59 24 105t69 72t105 26q71 0 119 -31l17 19h74l-51 -56q38 -52 38 -134q0 -91 -53.5 -147t-144.5 -56q-71 0 -118 31zM136 131l148 163q-25 19 -59 19q-24 0 -45 -6.5t-33 -18.5q-21 -28 -21 -97q0 -34 10 -60zM226 68
q24 0 47 7t35 19q18 26 18 94q0 34 -10 60l-148 -162q25 -18 58 -18z" />
    <glyph glyph-name="ugrave" unicode="&#xf9;" horiz-adv-x="454" 
d="M83 30q-36 43 -36 115v235h95v-221q0 -39 17.5 -65t55.5 -26q24 0 48.5 12t42.5 29v271h95v-380h-81l-10 39q-22 -25 -53.5 -38.5t-67.5 -13.5q-70 0 -106 43zM99 598h102l77 -136h-81z" />
    <glyph glyph-name="uacute" unicode="&#xfa;" horiz-adv-x="454" 
d="M83 30q-36 43 -36 115v235h95v-221q0 -39 17.5 -65t55.5 -26q24 0 48.5 12t42.5 29v271h95v-380h-81l-10 39q-22 -25 -53.5 -38.5t-67.5 -13.5q-70 0 -106 43zM255 598h105l-100 -136h-84z" />
    <glyph glyph-name="ucircumflex" unicode="&#xfb;" horiz-adv-x="454" 
d="M83 30q-36 43 -36 115v235h95v-221q0 -39 17.5 -65t55.5 -26q24 0 48.5 12t42.5 29v271h95v-380h-81l-10 39q-22 -25 -53.5 -38.5t-67.5 -13.5q-70 0 -106 43zM181 598h94l87 -136h-82l-51 82l-53 -82h-82z" />
    <glyph glyph-name="udieresis" unicode="&#xfc;" horiz-adv-x="454" 
d="M83 30q-36 43 -36 115v235h95v-221q0 -39 17.5 -65t55.5 -26q24 0 48.5 12t42.5 29v271h95v-380h-81l-10 39q-22 -25 -53.5 -38.5t-67.5 -13.5q-70 0 -106 43zM102 489.5q-17 17.5 -17 41.5q0 25 17 42t42 17t42 -17t17 -42q0 -24 -17 -41.5t-42 -17.5t-42 17.5z
M270.5 573q17.5 17 42.5 17t42 -17t17 -42q0 -24 -17 -41.5t-42 -17.5t-42.5 17.5t-17.5 41.5q0 25 17.5 42z" />
    <glyph glyph-name="yacute" unicode="&#xfd;" horiz-adv-x="454" 
d="M51 -165l24 83q56 -37 122 -37q27 0 49 6t36 17q14 21 18.5 49.5t5.5 94.5q-44 -47 -115 -47t-107.5 42.5t-36.5 117.5v219h95v-209q0 -46 20 -69t52 -23q25 0 50 12t42 28v261h95v-370q0 -123 -64 -167t-142 -44q-80 0 -144 36zM255 598h105l-100 -136h-84z" />
    <glyph glyph-name="thorn" unicode="&#xfe;" horiz-adv-x="461" 
d="M53 650h95v-300q42 42 105 42q85 0 132 -54.5t47 -141.5q0 -64 -27.5 -111t-76 -72t-110.5 -25q-34 0 -70 9v-185h-95v838zM212 67q28 0 55.5 8t44.5 22q9 17 16 43.5t7 51.5q0 53 -26.5 87t-75.5 34q-46 0 -85 -41v-191q28 -14 64 -14z" />
    <glyph glyph-name="ydieresis" unicode="&#xff;" horiz-adv-x="454" 
d="M51 -165l24 83q56 -37 122 -37q27 0 49 6t36 17q14 21 18.5 49.5t5.5 94.5q-44 -47 -115 -47t-107.5 42.5t-36.5 117.5v219h95v-209q0 -46 20 -69t52 -23q25 0 50 12t42 28v261h95v-370q0 -123 -64 -167t-142 -44q-80 0 -144 36zM102 489.5q-17 17.5 -17 41.5q0 25 17 42
t42 17t42 -17t17 -42q0 -24 -17 -41.5t-42 -17.5t-42 17.5zM270.5 573q17.5 17 42.5 17t42 -17t17 -42q0 -24 -17 -41.5t-42 -17.5t-42.5 17.5t-17.5 41.5q0 25 17.5 42z" />
    <glyph glyph-name="Amacron" unicode="&#x100;" horiz-adv-x="636" 
d="M257 630h122l240 -630h-107l-54 148h-281l-54 -148h-106zM427 232l-109 300l-110 -300h219zM191 778h254v-74h-254v74z" />
    <glyph glyph-name="amacron" unicode="&#x101;" horiz-adv-x="419" 
d="M283 37q-43 -49 -123 -49q-61 0 -97.5 31t-36.5 92q0 116 166 116h87v18q0 36 -20.5 52t-64.5 16q-29 0 -61.5 -7t-52.5 -17l-22 74q31 13 71.5 21t76.5 8q86 0 126 -37t40 -116v-239h-79zM182 64q28 0 54.5 11t42.5 29v52h-87q-44 0 -64 -7q-9 -16 -9 -37q0 -48 63 -48z
M80 564h254v-73h-254v73z" />
    <glyph glyph-name="Abreve" unicode="&#x102;" horiz-adv-x="636" 
d="M257 630h122l240 -630h-107l-54 148h-281l-54 -148h-106zM427 232l-109 300l-110 -300h219zM220.5 714.5q-35.5 34.5 -43.5 97.5l69 11q5 -39 22.5 -57t48.5 -18t48.5 18t22.5 57l69 -11q-8 -63 -43 -97.5t-97 -34.5q-61 0 -96.5 34.5z" />
    <glyph glyph-name="abreve" unicode="&#x103;" horiz-adv-x="419" 
d="M283 37q-43 -49 -123 -49q-61 0 -97.5 31t-36.5 92q0 116 166 116h87v18q0 36 -20.5 52t-64.5 16q-29 0 -61.5 -7t-52.5 -17l-22 74q31 13 71.5 21t76.5 8q86 0 126 -37t40 -116v-239h-79zM182 64q28 0 54.5 11t42.5 29v52h-87q-44 0 -64 -7q-9 -16 -9 -37q0 -48 63 -48z
M110.5 492.5q-35.5 34.5 -43.5 97.5l69 11q5 -39 22.5 -57t48.5 -18t48.5 18t22.5 57l69 -11q-8 -63 -43 -97.5t-97 -34.5q-61 0 -96.5 34.5z" />
    <glyph glyph-name="Aogonek" unicode="&#x104;" horiz-adv-x="636" 
d="M257 630h122l240 -630h-44q-39 -21 -61 -47t-22 -53q0 -29 35 -29q19 0 33 9l15 -62q-30 -14 -63 -14q-42 0 -70 21t-28 62q0 39 27.5 71t66.5 54l-50 136h-281l-54 -148h-106zM427 232l-109 300l-110 -300h219z" />
    <glyph glyph-name="aogonek" unicode="&#x105;" horiz-adv-x="419" 
d="M62.5 19q-36.5 31 -36.5 92q0 116 166 116h87v18q0 36 -20.5 52t-64.5 16q-29 0 -61.5 -7t-52.5 -17l-22 74q31 13 71.5 21t76.5 8q86 0 126 -37t40 -116v-239h-5q-39 -21 -61 -47t-22 -53q0 -29 35 -29q19 0 33 9l15 -62q-30 -14 -63 -14q-42 0 -70 21t-28 62
q0 37 24.5 67.5t60.5 52.5l-8 30q-43 -49 -123 -49q-61 0 -97.5 31zM182 64q28 0 54.5 11t42.5 29v52h-87q-44 0 -64 -7q-9 -16 -9 -37q0 -48 63 -48z" />
    <glyph glyph-name="Cacute" unicode="&#x106;" horiz-adv-x="587" 
d="M122 67q-83 79 -83 229q0 109 42.5 187.5t118 119t173.5 40.5q95 0 179 -42l-22 -84q-80 39 -153 39q-48 0 -99 -15.5t-81 -41.5q-27 -36 -41.5 -88t-14.5 -110q0 -108 56 -167t164 -59q52 0 102 12.5t90 33.5l21 -77q-86 -56 -215 -56q-154 0 -237 79zM395 820h105
l-100 -136h-84z" />
    <glyph glyph-name="cacute" unicode="&#x107;" horiz-adv-x="381" 
d="M83 37q-55 50 -55 145q0 62 28.5 110t78 74t111.5 26q56 0 111 -25l-24 -82q-14 10 -39 18.5t-50 8.5q-21 0 -49 -8.5t-45 -21.5q-11 -16 -17.5 -42.5t-6.5 -54.5q0 -56 31 -86.5t87 -30.5q27 0 56 7t51 21l20 -72q-27 -19 -62.5 -28t-73.5 -9q-97 0 -152 50zM254 598
h105l-100 -136h-84z" />
    <glyph glyph-name="Ccircumflex" unicode="&#x108;" horiz-adv-x="587" 
d="M122 67q-83 79 -83 229q0 109 42.5 187.5t118 119t173.5 40.5q95 0 179 -42l-22 -84q-80 39 -153 39q-48 0 -99 -15.5t-81 -41.5q-27 -36 -41.5 -88t-14.5 -110q0 -108 56 -167t164 -59q52 0 102 12.5t90 33.5l21 -77q-86 -56 -215 -56q-154 0 -237 79zM311 820h94
l87 -136h-82l-51 82l-53 -82h-82z" />
    <glyph glyph-name="ccircumflex" unicode="&#x109;" horiz-adv-x="381" 
d="M83 37q-55 50 -55 145q0 62 28.5 110t78 74t111.5 26q56 0 111 -25l-24 -82q-14 10 -39 18.5t-50 8.5q-21 0 -49 -8.5t-45 -21.5q-11 -16 -17.5 -42.5t-6.5 -54.5q0 -56 31 -86.5t87 -30.5q27 0 56 7t51 21l20 -72q-27 -19 -62.5 -28t-73.5 -9q-97 0 -152 50zM180 598h94
l87 -136h-82l-51 82l-53 -82h-82z" />
    <glyph glyph-name="Cdotaccent" unicode="&#x10a;" horiz-adv-x="587" 
d="M122 67q-83 79 -83 229q0 109 42.5 187.5t118 119t173.5 40.5q95 0 179 -42l-22 -84q-80 39 -153 39q-48 0 -99 -15.5t-81 -41.5q-27 -36 -41.5 -88t-14.5 -110q0 -108 56 -167t164 -59q52 0 102 12.5t90 33.5l21 -77q-86 -56 -215 -56q-154 0 -237 79zM316 711.5
q-17 17.5 -17 41.5t17 41t42 17t42.5 -17t17.5 -41t-17.5 -41.5t-42.5 -17.5t-42 17.5z" />
    <glyph glyph-name="cdotaccent" unicode="&#x10b;" horiz-adv-x="381" 
d="M83 37q-55 50 -55 145q0 62 28.5 110t78 74t111.5 26q56 0 111 -25l-24 -82q-14 10 -39 18.5t-50 8.5q-21 0 -49 -8.5t-45 -21.5q-11 -16 -17.5 -42.5t-6.5 -54.5q0 -56 31 -86.5t87 -30.5q27 0 56 7t51 21l20 -72q-27 -19 -62.5 -28t-73.5 -9q-97 0 -152 50z
M184.5 489.5q-17.5 17.5 -17.5 41.5t17.5 41.5t42.5 17.5q26 0 43 -17.5t17 -41.5t-17 -41.5t-43 -17.5q-25 0 -42.5 17.5z" />
    <glyph glyph-name="Ccaron" unicode="&#x10c;" horiz-adv-x="587" 
d="M122 67q-83 79 -83 229q0 109 42.5 187.5t118 119t173.5 40.5q95 0 179 -42l-22 -84q-80 39 -153 39q-48 0 -99 -15.5t-81 -41.5q-27 -36 -41.5 -88t-14.5 -110q0 -108 56 -167t164 -59q52 0 102 12.5t90 33.5l21 -77q-86 -56 -215 -56q-154 0 -237 79zM224 820h82
l53 -82l51 82h82l-87 -136h-94z" />
    <glyph glyph-name="ccaron" unicode="&#x10d;" horiz-adv-x="381" 
d="M83 37q-55 50 -55 145q0 62 28.5 110t78 74t111.5 26q56 0 111 -25l-24 -82q-14 10 -39 18.5t-50 8.5q-21 0 -49 -8.5t-45 -21.5q-11 -16 -17.5 -42.5t-6.5 -54.5q0 -56 31 -86.5t87 -30.5q27 0 56 7t51 21l20 -72q-27 -19 -62.5 -28t-73.5 -9q-97 0 -152 50zM93 600h82
l53 -83l51 83h82l-87 -138h-94z" />
    <glyph glyph-name="Dcaron" unicode="&#x10e;" horiz-adv-x="658" 
d="M66 630h231q322 0 322 -305q0 -100 -42 -173.5t-117 -112.5t-173 -39h-221v630zM284 86q61 0 104 13.5t77 39.5q25 31 39.5 81t14.5 102q0 106 -54 164t-157 58h-142v-458h118zM158 820h82l53 -82l51 82h82l-87 -136h-94z" />
    <glyph glyph-name="dcaron" unicode="&#x10f;" horiz-adv-x="460" 
d="M74 41.5q-46 54.5 -46 142.5q0 64 28 111.5t77.5 72t111.5 24.5q35 0 67 -10v268h95v-650h-82l-11 36q-14 -21 -43.5 -35t-68.5 -14q-82 0 -128 54.5zM152.5 101q26.5 -34 74.5 -34q24 0 46 10.5t39 28.5v191q-28 16 -64 16q-28 0 -56 -8t-45 -22q-9 -16 -15 -43t-6 -52
q0 -53 26.5 -87zM454 650h82l-30 -188h-62z" />
    <glyph glyph-name="Dcroat" unicode="&#x110;" horiz-adv-x="708" 
d="M116 276h-88v77h88v277h231q322 0 322 -305q0 -100 -42 -173.5t-117 -112.5t-173 -39h-221v276zM334 86q61 0 104 13.5t77 39.5q25 31 39.5 81t14.5 102q0 106 -54 164t-157 58h-142v-191h156v-77h-156v-190h118z" />
    <glyph glyph-name="dcroat" unicode="&#x111;" horiz-adv-x="460" 
d="M74 41.5q-46 54.5 -46 142.5q0 64 28 111.5t77.5 72t111.5 24.5q35 0 67 -10v115h-123v70h123v83h95v-83h63v-70h-63v-497h-82l-11 36q-14 -21 -43.5 -35t-68.5 -14q-82 0 -128 54.5zM152.5 101q26.5 -34 74.5 -34q24 0 46 10.5t39 28.5v191q-28 16 -64 16q-28 0 -56 -8
t-45 -22q-9 -16 -15 -43t-6 -52q0 -53 26.5 -87z" />
    <glyph glyph-name="Emacron" unicode="&#x112;" horiz-adv-x="502" 
d="M66 630h399v-86h-298v-191h260v-86h-260v-181h299v-86h-400v630zM139 778h254v-74h-254v74z" />
    <glyph glyph-name="emacron" unicode="&#x113;" horiz-adv-x="429" 
d="M82.5 36.5q-54.5 49.5 -54.5 146.5q0 93 51.5 151t140.5 58q93 0 137 -54t44 -143q0 -12 -2 -38h-278q1 -40 32.5 -65.5t87.5 -25.5q61 0 113 31l20 -73q-58 -37 -144 -37q-93 0 -147.5 49.5zM311 229q-3 41 -27.5 63t-64.5 22q-51 0 -80 -29q-17 -30 -18 -56h190z
M93 564h254v-73h-254v73z" />
    <glyph glyph-name="Edotaccent" unicode="&#x116;" horiz-adv-x="502" 
d="M66 630h399v-86h-298v-191h260v-86h-260v-181h299v-86h-400v630zM224 711.5q-17 17.5 -17 41.5t17 41t42 17t42.5 -17t17.5 -41t-17.5 -41.5t-42.5 -17.5t-42 17.5z" />
    <glyph glyph-name="edotaccent" unicode="&#x117;" horiz-adv-x="429" 
d="M82.5 36.5q-54.5 49.5 -54.5 146.5q0 93 51.5 151t140.5 58q93 0 137 -54t44 -143q0 -12 -2 -38h-278q1 -40 32.5 -65.5t87.5 -25.5q61 0 113 31l20 -73q-58 -37 -144 -37q-93 0 -147.5 49.5zM311 229q-3 41 -27.5 63t-64.5 22q-51 0 -80 -29q-17 -30 -18 -56h190z
M176.5 489.5q-17.5 17.5 -17.5 41.5t17.5 41.5t42.5 17.5q26 0 43 -17.5t17 -41.5t-17 -41.5t-43 -17.5q-25 0 -42.5 17.5z" />
    <glyph glyph-name="Eogonek" unicode="&#x118;" horiz-adv-x="502" 
d="M66 630h399v-86h-298v-191h260v-86h-260v-181h299v-86h-1q-39 -21 -61 -47t-22 -53q0 -29 35 -29q19 0 33 9l15 -62q-30 -14 -63 -14q-42 0 -70 21t-28 62q0 34 21 62.5t53 50.5h-312v630z" />
    <glyph glyph-name="eogonek" unicode="&#x119;" horiz-adv-x="429" 
d="M185 -175q-28 21 -28 62q0 54 61 100q-87 3 -138.5 52.5t-51.5 143.5q0 93 51.5 151t140.5 58q93 0 137 -54t44 -143q0 -12 -2 -38h-278q1 -40 32.5 -65.5t87.5 -25.5q61 0 113 31l20 -73q-10 -6 -15 -8q-8 -5 -44.5 -25t-58 -43.5t-21.5 -47.5q0 -29 34 -29q20 0 34 9
l15 -62q-31 -14 -64 -14q-41 0 -69 21zM311 229q-3 41 -27.5 63t-64.5 22q-51 0 -80 -29q-17 -30 -18 -56h190z" />
    <glyph glyph-name="Ecaron" unicode="&#x11a;" horiz-adv-x="502" 
d="M66 630h399v-86h-298v-191h260v-86h-260v-181h299v-86h-400v630zM132 820h82l53 -82l51 82h82l-87 -136h-94z" />
    <glyph glyph-name="ecaron" unicode="&#x11b;" horiz-adv-x="429" 
d="M82.5 36.5q-54.5 49.5 -54.5 146.5q0 93 51.5 151t140.5 58q93 0 137 -54t44 -143q0 -12 -2 -38h-278q1 -40 32.5 -65.5t87.5 -25.5q61 0 113 31l20 -73q-58 -37 -144 -37q-93 0 -147.5 49.5zM311 229q-3 41 -27.5 63t-64.5 22q-51 0 -80 -29q-17 -30 -18 -56h190z
M85 600h82l53 -83l51 83h82l-87 -138h-94z" />
    <glyph glyph-name="Gcircumflex" unicode="&#x11c;" horiz-adv-x="641" 
d="M122 66q-83 79 -83 231q0 109 43 187t120 118.5t178 40.5q99 0 183 -42l-22 -84q-89 39 -164 39q-50 0 -100.5 -15.5t-81.5 -40.5q-26 -36 -40.5 -88t-14.5 -109q0 -110 57 -169.5t167 -59.5q63 0 131 20v169h-139v85h232v-304q-44 -28 -103.5 -42.5t-124.5 -14.5
q-155 0 -238 79zM322 820h94l87 -136h-82l-51 82l-53 -82h-82z" />
    <glyph glyph-name="gcircumflex" unicode="&#x11d;" horiz-adv-x="457" 
d="M128.5 -191.5q-37.5 9.5 -69.5 26.5l24 84q56 -39 128 -39q52 0 83 26q13 20 17 47.5t4 67.5v22q-20 -20 -50 -30.5t-65 -10.5q-81 0 -126.5 49.5t-45.5 137.5q0 95 53.5 149t143.5 54q185 0 185 -204v-173q0 -115 -53 -165.5t-153 -50.5q-38 0 -75.5 9.5zM150 111
q25 -31 69 -31q26 0 52 11t44 29v72q0 63 -25 92t-65 29q-21 0 -41 -6t-34 -15q-12 -16 -18.5 -43t-6.5 -54q0 -53 25 -84zM180 598h94l87 -136h-82l-51 82l-53 -82h-82z" />
    <glyph glyph-name="Gbreve" unicode="&#x11e;" horiz-adv-x="641" 
d="M122 66q-83 79 -83 231q0 109 43 187t120 118.5t178 40.5q99 0 183 -42l-22 -84q-89 39 -164 39q-50 0 -100.5 -15.5t-81.5 -40.5q-26 -36 -40.5 -88t-14.5 -109q0 -110 57 -169.5t167 -59.5q63 0 131 20v169h-139v85h232v-304q-44 -28 -103.5 -42.5t-124.5 -14.5
q-155 0 -238 79zM272.5 714.5q-35.5 34.5 -43.5 97.5l69 11q5 -39 22.5 -57t48.5 -18t48.5 18t22.5 57l69 -11q-8 -63 -43 -97.5t-97 -34.5q-61 0 -96.5 34.5z" />
    <glyph glyph-name="gbreve" unicode="&#x11f;" horiz-adv-x="457" 
d="M128.5 -191.5q-37.5 9.5 -69.5 26.5l24 84q56 -39 128 -39q52 0 83 26q13 20 17 47.5t4 67.5v22q-20 -20 -50 -30.5t-65 -10.5q-81 0 -126.5 49.5t-45.5 137.5q0 95 53.5 149t143.5 54q185 0 185 -204v-173q0 -115 -53 -165.5t-153 -50.5q-38 0 -75.5 9.5zM150 111
q25 -31 69 -31q26 0 52 11t44 29v72q0 63 -25 92t-65 29q-21 0 -41 -6t-34 -15q-12 -16 -18.5 -43t-6.5 -54q0 -53 25 -84zM129.5 492.5q-35.5 34.5 -43.5 97.5l69 11q5 -39 22.5 -57t48.5 -18t48.5 18t22.5 57l69 -11q-8 -63 -43 -97.5t-97 -34.5q-61 0 -96.5 34.5z" />
    <glyph glyph-name="Gdotaccent" unicode="&#x120;" horiz-adv-x="641" 
d="M122 66q-83 79 -83 231q0 109 43 187t120 118.5t178 40.5q99 0 183 -42l-22 -84q-89 39 -164 39q-50 0 -100.5 -15.5t-81.5 -40.5q-26 -36 -40.5 -88t-14.5 -109q0 -110 57 -169.5t167 -59.5q63 0 131 20v169h-139v85h232v-304q-44 -28 -103.5 -42.5t-124.5 -14.5
q-155 0 -238 79zM327 711.5q-17 17.5 -17 41.5t17 41t42 17t42.5 -17t17.5 -41t-17.5 -41.5t-42.5 -17.5t-42 17.5z" />
    <glyph glyph-name="gdotaccent" unicode="&#x121;" horiz-adv-x="457" 
d="M128.5 -191.5q-37.5 9.5 -69.5 26.5l24 84q56 -39 128 -39q52 0 83 26q13 20 17 47.5t4 67.5v22q-20 -20 -50 -30.5t-65 -10.5q-81 0 -126.5 49.5t-45.5 137.5q0 95 53.5 149t143.5 54q185 0 185 -204v-173q0 -115 -53 -165.5t-153 -50.5q-38 0 -75.5 9.5zM150 111
q25 -31 69 -31q26 0 52 11t44 29v72q0 63 -25 92t-65 29q-21 0 -41 -6t-34 -15q-12 -16 -18.5 -43t-6.5 -54q0 -53 25 -84zM183.5 489.5q-17.5 17.5 -17.5 41.5t17.5 41.5t42.5 17.5q26 0 43 -17.5t17 -41.5t-17 -41.5t-43 -17.5q-25 0 -42.5 17.5z" />
    <glyph glyph-name="uni0122" unicode="&#x122;" horiz-adv-x="641" 
d="M122 66q-83 79 -83 231q0 109 43 187t120 118.5t178 40.5q99 0 183 -42l-22 -84q-89 39 -164 39q-50 0 -100.5 -15.5t-81.5 -40.5q-26 -36 -40.5 -88t-14.5 -109q0 -110 57 -169.5t167 -59.5q63 0 131 20v169h-139v85h232v-304q-44 -28 -103.5 -42.5t-124.5 -14.5
q-155 0 -238 79zM356 -159q0 11 -19 21q-14 8 -21.5 16.5t-7.5 23.5q0 21 15 33.5t40 12.5q32 0 48 -17t16 -46q0 -38 -22.5 -71t-58.5 -52l-28 33q38 28 38 46z" />
    <glyph glyph-name="uni0123" unicode="&#x123;" horiz-adv-x="457" 
d="M128.5 -191.5q-37.5 9.5 -69.5 26.5l24 84q56 -39 128 -39q52 0 83 26q13 20 17 47.5t4 67.5v22q-20 -20 -50 -30.5t-65 -10.5q-81 0 -126.5 49.5t-45.5 137.5q0 95 53.5 149t143.5 54q185 0 185 -204v-173q0 -115 -53 -165.5t-153 -50.5q-38 0 -75.5 9.5zM150 111
q25 -31 69 -31q26 0 52 11t44 29v72q0 63 -25 92t-65 29q-21 0 -41 -6t-34 -15q-12 -16 -18.5 -43t-6.5 -54q0 -53 25 -84zM179 455q-16 17 -16 46q0 38 22.5 70.5t57.5 52.5l29 -33q-39 -28 -39 -46q0 -7 5 -12t15 -10q15 -9 22 -16.5t7 -22.5q0 -21 -15 -33.5t-40 -12.5
q-32 0 -48 17z" />
    <glyph glyph-name="Hcircumflex" unicode="&#x124;" horiz-adv-x="636" 
d="M468 266h-301v-266h-101v630h101v-278h301v278h101v-630h-101v266zM271 820h94l87 -136h-82l-51 82l-53 -82h-82z" />
    <glyph glyph-name="hcircumflex" unicode="&#x125;" horiz-adv-x="455" 
d="M295.5 286.5q-17.5 26.5 -56.5 26.5q-23 0 -48 -14.5t-43 -34.5v-264h-95v650h95v-309q45 51 118 51q72 0 107 -42.5t35 -116.5v-233h-95v217q0 43 -17.5 69.5zM181 820h94l87 -136h-82l-51 82l-53 -82h-82z" />
    <glyph glyph-name="Hbar" unicode="&#x126;" horiz-adv-x="656" 
d="M478 266h-301v-266h-101v460h-52v77h52v93h101v-93h301v93h101v-93h53v-77h-53v-460h-101v266zM478 352v108h-301v-108h301z" />
    <glyph glyph-name="hbar" unicode="&#x127;" horiz-adv-x="455" 
d="M295.5 286.5q-17.5 26.5 -56.5 26.5q-23 0 -48 -14.5t-43 -34.5v-264h-95v497h-63v70h63v83h95v-83h123v-70h-123v-156q45 51 118 51q72 0 107 -42.5t35 -116.5v-233h-95v217q0 43 -17.5 69.5z" />
    <glyph glyph-name="Itilde" unicode="&#x128;" horiz-adv-x="232" 
d="M66 630h100v-630h-100v630zM138.5 685.5q-15.5 8.5 -38.5 25.5q-2 2 -10.5 8.5t-14.5 9.5t-12 3q-14 0 -21 -12.5t-7 -35.5h-64q0 55 23 84t65 29q21 0 38 -9t36 -25q14 -11 22 -16t16 -5q14 0 21 12.5t7 35.5h64q0 -54 -23 -83.5t-65 -29.5q-21 0 -36.5 8.5z" />
    <glyph glyph-name="itilde" unicode="&#x129;" horiz-adv-x="201" 
d="M53 380h95v-380h-95v380zM122.5 461.5q-15.5 8.5 -38.5 25.5q-2 2 -10.5 8.5t-14.5 9.5t-12 3q-14 0 -21 -12.5t-7 -35.5h-64q0 55 23 84t65 29q21 0 38 -9t36 -25q14 -11 22 -16t16 -5q13 0 20.5 12.5t7.5 35.5h64q0 -54 -23 -83.5t-65 -29.5q-21 0 -36.5 8.5z" />
    <glyph glyph-name="Imacron" unicode="&#x12a;" horiz-adv-x="232" 
d="M66 630h100v-630h-100v630zM-11 778h254v-74h-254v74z" />
    <glyph glyph-name="imacron" unicode="&#x12b;" horiz-adv-x="201" 
d="M53 380h95v-380h-95v380zM-25 564h254v-73h-254v73z" />
    <glyph glyph-name="Iogonek" unicode="&#x12e;" horiz-adv-x="232" 
d="M66 630h100v-630h-1q-39 -21 -61 -47t-22 -53q0 -29 35 -29q19 0 33 9l15 -62q-30 -14 -63 -14q-42 0 -70 21t-28 62q0 34 21 62.5t53 50.5h-12v630z" />
    <glyph glyph-name="iogonek" unicode="&#x12f;" horiz-adv-x="201" 
d="M53 380h95v-379l1 -1q-39 -21 -61 -47t-22 -53q0 -29 35 -29q19 0 33 9l15 -62q-30 -14 -63 -14q-42 0 -70 21t-28 62q0 34 21 62.5t53 50.5h-9v380zM58.5 572.5q17.5 17.5 42.5 17.5q26 0 43 -17.5t17 -41.5t-17 -41.5t-43 -17.5q-25 0 -42.5 17.5t-17.5 41.5t17.5 41.5
z" />
    <glyph glyph-name="Idotaccent" unicode="&#x130;" horiz-adv-x="232" 
d="M66 630h100v-630h-100v630zM74 711.5q-17 17.5 -17 41.5t17 41t42 17t42.5 -17t17.5 -41t-17.5 -41.5t-42.5 -17.5t-42 17.5z" />
    <glyph glyph-name="dotlessi" unicode="&#x131;" horiz-adv-x="201" 
d="M53 380h95v-380h-95v380z" />
    <glyph glyph-name="IJ" unicode="&#x132;" horiz-adv-x="472" 
d="M66 630h100v-630h-100v630zM268 -32.5q42 38.5 42 115.5v547h100v-520q0 -240 -215 -270l-33 85q64 4 106 42.5z" />
    <glyph glyph-name="ij" unicode="&#x133;" horiz-adv-x="402" 
d="M53 380h95v-380h-95v380zM58.5 489.5q-17.5 17.5 -17.5 41.5t17.5 41.5t42.5 17.5q26 0 43 -17.5t17 -41.5t-17 -41.5t-43 -17.5q-25 0 -42.5 17.5zM225.5 -84.5q28.5 31.5 28.5 95.5v369h95v-343q0 -209 -165 -237l-30 81q43 3 71.5 34.5zM259.5 489.5
q-17.5 17.5 -17.5 41.5t17.5 41.5t42.5 17.5q26 0 43 -17.5t17 -41.5t-17 -41.5t-43 -17.5q-25 0 -42.5 17.5z" />
    <glyph glyph-name="Jcircumflex" unicode="&#x134;" horiz-adv-x="240" 
d="M36 -32.5q42 38.5 42 115.5v547h100v-520q0 -240 -215 -270l-33 85q64 4 106 42.5zM73 820h94l87 -136h-82l-51 82l-53 -82h-82z" />
    <glyph glyph-name="jcircumflex" unicode="&#x135;" horiz-adv-x="201" 
d="M24.5 -84.5q28.5 31.5 28.5 95.5v369h95v-343q0 -209 -165 -237l-30 81q43 3 71.5 34.5zM54 598h94l87 -136h-82l-51 82l-53 -82h-82z" />
    <glyph glyph-name="uni0136" unicode="&#x136;" horiz-adv-x="563" 
d="M181 316l232 314h118l-236 -310l257 -320h-123zM66 630h100v-630h-100v630zM277 -159q0 11 -19 21q-14 8 -21.5 16.5t-7.5 23.5q0 21 15 33.5t40 12.5q32 0 48 -17t16 -46q0 -38 -22.5 -71t-58.5 -52l-28 33q38 28 38 46z" />
    <glyph glyph-name="uni0137" unicode="&#x137;" horiz-adv-x="419" 
d="M163 202l126 176h114l-137 -176l147 -202h-113zM53 650h95v-650h-95v650zM212 -159q0 11 -19 21q-14 8 -21.5 16.5t-7.5 23.5q0 21 15 33.5t40 12.5q32 0 48 -17t16 -46q0 -38 -22.5 -71t-58.5 -52l-28 33q38 28 38 46z" />
    <glyph glyph-name="Lacute" unicode="&#x139;" horiz-adv-x="483" 
d="M66 630h101v-544h305v-86h-406v630zM155 820h105l-100 -136h-84z" />
    <glyph glyph-name="lacute" unicode="&#x13a;" horiz-adv-x="201" 
d="M53 650h95v-650h-95v650zM138 824h105l-100 -136h-84z" />
    <glyph glyph-name="uni013B" unicode="&#x13b;" horiz-adv-x="483" 
d="M66 630h101v-544h305v-86h-406v630zM265 -159q0 11 -19 21q-14 8 -21.5 16.5t-7.5 23.5q0 21 15 33.5t40 12.5q32 0 48 -17t16 -46q0 -38 -22.5 -71t-58.5 -52l-28 33q38 28 38 46z" />
    <glyph glyph-name="uni013C" unicode="&#x13c;" horiz-adv-x="201" 
d="M53 650h95v-650h-95v650zM95 -159q0 11 -19 21q-14 8 -21.5 16.5t-7.5 23.5q0 21 15 33.5t40 12.5q32 0 48 -17t16 -46q0 -38 -22.5 -71t-58.5 -52l-28 33q38 28 38 46z" />
    <glyph glyph-name="Lcaron" unicode="&#x13d;" horiz-adv-x="483" 
d="M66 630h101v-544h305v-86h-406v630zM215 630h82l-30 -188h-62z" />
    <glyph glyph-name="lcaron" unicode="&#x13e;" horiz-adv-x="201" 
d="M53 650h95v-650h-95v650zM195 650h82l-30 -188h-62z" />
    <glyph glyph-name="Ldot" unicode="&#x13f;" horiz-adv-x="483" 
d="M66 630h101v-544h305v-86h-406v630zM313 291q-17 17 -17 42t17 42t42 17t42.5 -17.5t17.5 -41.5q0 -25 -17.5 -42t-42.5 -17t-42 17z" />
    <glyph glyph-name="ldot" unicode="&#x140;" horiz-adv-x="282" 
d="M53 650h95v-650h-95v650zM200.5 273.5q-16.5 16.5 -16.5 40.5t16.5 41t41.5 17q24 0 40.5 -17t16.5 -41q0 -23 -16.5 -40t-40.5 -17q-25 0 -41.5 16.5z" />
    <glyph glyph-name="Lslash" unicode="&#x141;" horiz-adv-x="503" 
d="M86 200l-69 -45v92l69 45v338h101v-273l143 93v-92l-143 -93v-179h305v-86h-406v200z" />
    <glyph glyph-name="lslash" unicode="&#x142;" horiz-adv-x="261" 
d="M83 256l-60 -42v89l60 42v305h95v-254l63 44v-89l-63 -44v-307h-95v256z" />
    <glyph glyph-name="Nacute" unicode="&#x143;" horiz-adv-x="640" 
d="M66 630h143l267 -511v511h97v-630h-141l-268 512v-512h-98v630zM355 820h105l-100 -136h-84z" />
    <glyph glyph-name="nacute" unicode="&#x144;" horiz-adv-x="455" 
d="M296.5 286.5q-16.5 26.5 -53.5 26.5q-25 0 -51 -14.5t-44 -34.5v-264h-95v380h82l9 -44q46 56 122 56q72 0 107 -42.5t35 -116.5v-233h-95v217q0 43 -16.5 69.5zM254 598h105l-100 -136h-84z" />
    <glyph glyph-name="uni0145" unicode="&#x145;" horiz-adv-x="640" 
d="M66 630h143l267 -511v511h97v-630h-141l-268 512v-512h-98v630zM312 -159q0 11 -19 21q-14 8 -21.5 16.5t-7.5 23.5q0 21 15 33.5t40 12.5q32 0 48 -17t16 -46q0 -38 -22.5 -71t-58.5 -52l-28 33q38 28 38 46z" />
    <glyph glyph-name="uni0146" unicode="&#x146;" horiz-adv-x="455" 
d="M296.5 286.5q-16.5 26.5 -53.5 26.5q-25 0 -51 -14.5t-44 -34.5v-264h-95v380h82l9 -44q46 56 122 56q72 0 107 -42.5t35 -116.5v-233h-95v217q0 43 -16.5 69.5zM220 -159q0 11 -19 21q-14 8 -21.5 16.5t-7.5 23.5q0 21 15 33.5t40 12.5q32 0 48 -17t16 -46
q0 -38 -22.5 -71t-58.5 -52l-28 33q38 28 38 46z" />
    <glyph glyph-name="Ncaron" unicode="&#x147;" horiz-adv-x="640" 
d="M66 630h143l267 -511v511h97v-630h-141l-268 512v-512h-98v630zM184 820h82l53 -82l51 82h82l-87 -136h-94z" />
    <glyph glyph-name="ncaron" unicode="&#x148;" horiz-adv-x="455" 
d="M296.5 286.5q-16.5 26.5 -53.5 26.5q-25 0 -51 -14.5t-44 -34.5v-264h-95v380h82l9 -44q46 56 122 56q72 0 107 -42.5t35 -116.5v-233h-95v217q0 43 -16.5 69.5zM93 600h82l53 -83l51 83h82l-87 -138h-94z" />
    <glyph glyph-name="Omacron" unicode="&#x14c;" horiz-adv-x="707" 
d="M172.5 30.5q-69.5 43.5 -101.5 116t-32 162.5q0 99 37 174.5t109 117.5t172 42q96 0 166.5 -39.5t107.5 -112.5t37 -172q0 -95 -35 -170t-107 -118.5t-178 -43.5t-175.5 43.5zM163.5 195q23.5 -55 70.5 -88t116 -33q49 0 95.5 16.5t72.5 40.5q24 31 36 80.5t12 98.5
q0 67 -24 123t-72 89.5t-116 33.5q-47 0 -91.5 -16t-70.5 -38q-25 -31 -38.5 -83.5t-13.5 -103.5q0 -65 23.5 -120zM227 778h254v-74h-254v74z" />
    <glyph glyph-name="omacron" unicode="&#x14d;" horiz-adv-x="452" 
d="M79 41q-51 54 -51 148q0 59 24 105t69 72t105 26q95 0 146 -53.5t51 -148.5q0 -91 -53.5 -147t-144.5 -56q-95 0 -146 54zM151 103q25 -35 75 -35q24 0 47 7t35 19q18 26 18 94q0 53 -26 89t-75 36q-24 0 -45 -6.5t-33 -18.5q-21 -28 -21 -97q0 -53 25 -88zM100 564h254
v-73h-254v73z" />
    <glyph glyph-name="Ohungarumlaut" unicode="&#x150;" horiz-adv-x="707" 
d="M172.5 30.5q-69.5 43.5 -101.5 116t-32 162.5q0 99 37 174.5t109 117.5t172 42q96 0 166.5 -39.5t107.5 -112.5t37 -172q0 -95 -35 -170t-107 -118.5t-178 -43.5t-175.5 43.5zM163.5 195q23.5 -55 70.5 -88t116 -33q49 0 95.5 16.5t72.5 40.5q24 31 36 80.5t12 98.5
q0 67 -24 123t-72 89.5t-116 33.5q-47 0 -91.5 -16t-70.5 -38q-25 -31 -38.5 -83.5t-13.5 -103.5q0 -65 23.5 -120zM321 820h95l-89 -136h-75zM469 820h94l-107 -136h-76z" />
    <glyph glyph-name="ohungarumlaut" unicode="&#x151;" horiz-adv-x="452" 
d="M79 41q-51 54 -51 148q0 59 24 105t69 72t105 26q95 0 146 -53.5t51 -148.5q0 -91 -53.5 -147t-144.5 -56q-95 0 -146 54zM151 103q25 -35 75 -35q24 0 47 7t35 19q18 26 18 94q0 53 -26 89t-75 36q-24 0 -45 -6.5t-33 -18.5q-21 -28 -21 -97q0 -53 25 -88zM187 598h94
l-89 -136h-74zM334 598h92l-107 -136h-74z" />
    <glyph glyph-name="OE" unicode="&#x152;" horiz-adv-x="1006" 
d="M171.5 30.5q-68.5 43.5 -100.5 116t-32 162.5q0 99 37 174.5t108 117.5t169 42q70 0 125 -24t92 -69v80h399v-86h-298v-191h260v-86h-260v-181h299v-86h-400v85q-79 -98 -227 -98q-103 0 -171.5 43.5zM163.5 195q23.5 -55 70.5 -88t116 -33q49 0 95.5 16.5t72.5 40.5
q24 31 36 80.5t12 98.5q0 67 -24 123t-72 89.5t-116 33.5q-47 0 -91.5 -16t-70.5 -38q-25 -31 -38.5 -83.5t-13.5 -103.5q0 -65 23.5 -120z" />
    <glyph glyph-name="oe" unicode="&#x153;" horiz-adv-x="734" 
d="M79 41q-51 54 -51 148q0 59 24 105t69 72t105 26q103 0 154 -63q53 63 145 63q93 0 137 -54t44 -143q0 -12 -2 -38h-278q1 -40 32.5 -65.5t87.5 -25.5q61 0 113 31l20 -73q-58 -37 -144 -37q-107 0 -159 62q-56 -62 -151 -62t-146 54zM151 103q25 -35 75 -35q24 0 47 7
t35 19q18 26 18 94q0 53 -26 89t-75 36q-24 0 -45 -6.5t-33 -18.5q-21 -28 -21 -97q0 -53 25 -88zM616 229q-3 41 -27.5 63t-64.5 22q-51 0 -80 -29q-17 -30 -18 -56h190z" />
    <glyph glyph-name="Racute" unicode="&#x154;" horiz-adv-x="594" 
d="M66 630h237q132 0 186.5 -48t54.5 -142q0 -73 -38.5 -119.5t-105.5 -63.5l167 -257h-124l-150 244h-126v-244h-101v630zM303 330q72 0 112 19q27 31 27 90q0 52 -31 78.5t-108 26.5h-136v-214h136zM333 820h105l-100 -136h-84z" />
    <glyph glyph-name="racute" unicode="&#x155;" horiz-adv-x="322" 
d="M53 380h82l10 -46q39 58 107 58q39 0 70 -21l-26 -88q-18 13 -32 19t-31 6q-26 0 -48.5 -14.5t-36.5 -36.5v-257h-95v380zM198 598h105l-100 -136h-84z" />
    <glyph glyph-name="uni0156" unicode="&#x156;" horiz-adv-x="594" 
d="M66 630h237q132 0 186.5 -48t54.5 -142q0 -73 -38.5 -119.5t-105.5 -63.5l167 -257h-124l-150 244h-126v-244h-101v630zM303 330q72 0 112 19q27 31 27 90q0 52 -31 78.5t-108 26.5h-136v-214h136zM289 -159q0 11 -19 21q-14 8 -21.5 16.5t-7.5 23.5q0 21 15 33.5
t40 12.5q32 0 48 -17t16 -46q0 -38 -22.5 -71t-58.5 -52l-28 33q38 28 38 46z" />
    <glyph glyph-name="uni0157" unicode="&#x157;" horiz-adv-x="322" 
d="M53 380h82l10 -46q39 58 107 58q39 0 70 -21l-26 -88q-18 13 -32 19t-31 6q-26 0 -48.5 -14.5t-36.5 -36.5v-257h-95v380zM93 -159q0 11 -19 21q-14 8 -21.5 16.5t-7.5 23.5q0 21 15 33.5t40 12.5q32 0 48 -17t16 -46q0 -38 -22.5 -71t-58.5 -52l-28 33q38 28 38 46z" />
    <glyph glyph-name="Rcaron" unicode="&#x158;" horiz-adv-x="594" 
d="M66 630h237q132 0 186.5 -48t54.5 -142q0 -73 -38.5 -119.5t-105.5 -63.5l167 -257h-124l-150 244h-126v-244h-101v630zM303 330q72 0 112 19q27 31 27 90q0 52 -31 78.5t-108 26.5h-136v-214h136zM162 820h82l53 -82l51 82h82l-87 -136h-94z" />
    <glyph glyph-name="rcaron" unicode="&#x159;" horiz-adv-x="322" 
d="M53 380h82l10 -46q39 58 107 58q39 0 70 -21l-26 -88q-18 13 -32 19t-31 6q-26 0 -48.5 -14.5t-36.5 -36.5v-257h-95v380zM37 600h82l53 -83l51 83h82l-87 -138h-94z" />
    <glyph glyph-name="Sacute" unicode="&#x15a;" horiz-adv-x="538" 
d="M34 47l25 91q41 -31 99.5 -47.5t108.5 -16.5q25 0 52 4t43 9q19 11 31 32.5t12 46.5q0 30 -20 49.5t-49.5 30.5t-81.5 25q-67 18 -109 35t-71.5 52t-29.5 94q0 58 29.5 101t83 66.5t121.5 23.5q53 0 105.5 -14.5t90.5 -46.5l-24 -87q-39 29 -90 45t-102 16t-89 -20
q-12 -12 -20 -31.5t-8 -39.5q0 -30 19.5 -49t49 -29.5t81.5 -23.5q69 -18 111 -35t72.5 -53t30.5 -96q0 -90 -68.5 -141t-185.5 -51q-125 0 -217 60zM304 820h105l-100 -136h-84z" />
    <glyph glyph-name="sacute" unicode="&#x15b;" horiz-adv-x="364" 
d="M22 25l24 82q26 -21 62.5 -31t72.5 -10t60 8q10 13 10 28q0 18 -19 27.5t-60 18.5q-43 9 -71 20t-48 34t-20 61q0 63 44.5 96t111.5 33q89 0 139 -38l-23 -79q-25 19 -58 30t-63 11t-55 -11q-7 -12 -7 -25q0 -19 20 -28.5t62 -19.5q43 -10 70.5 -20t47.5 -33t20 -62
q0 -66 -48 -97.5t-120 -31.5q-89 0 -152 37zM210 598h105l-100 -136h-84z" />
    <glyph glyph-name="Scircumflex" unicode="&#x15c;" horiz-adv-x="538" 
d="M34 47l25 91q41 -31 99.5 -47.5t108.5 -16.5q25 0 52 4t43 9q19 11 31 32.5t12 46.5q0 30 -20 49.5t-49.5 30.5t-81.5 25q-67 18 -109 35t-71.5 52t-29.5 94q0 58 29.5 101t83 66.5t121.5 23.5q53 0 105.5 -14.5t90.5 -46.5l-24 -87q-39 29 -90 45t-102 16t-89 -20
q-12 -12 -20 -31.5t-8 -39.5q0 -30 19.5 -49t49 -29.5t81.5 -23.5q69 -18 111 -35t72.5 -53t30.5 -96q0 -90 -68.5 -141t-185.5 -51q-125 0 -217 60zM220 820h94l87 -136h-82l-51 82l-53 -82h-82z" />
    <glyph glyph-name="scircumflex" unicode="&#x15d;" horiz-adv-x="364" 
d="M22 25l24 82q26 -21 62.5 -31t72.5 -10t60 8q10 13 10 28q0 18 -19 27.5t-60 18.5q-43 9 -71 20t-48 34t-20 61q0 63 44.5 96t111.5 33q89 0 139 -38l-23 -79q-25 19 -58 30t-63 11t-55 -11q-7 -12 -7 -25q0 -19 20 -28.5t62 -19.5q43 -10 70.5 -20t47.5 -33t20 -62
q0 -66 -48 -97.5t-120 -31.5q-89 0 -152 37zM136 598h94l87 -136h-82l-51 82l-53 -82h-82z" />
    <glyph glyph-name="Scedilla" unicode="&#x15e;" horiz-adv-x="538" 
d="M198 -184l9 52q20 -9 47 -9q21 0 34.5 7.5t13.5 23.5t-14 23.5t-36 7.5h-37l17 66q-114 5 -198 60l25 91q41 -31 99.5 -47.5t108.5 -16.5q25 0 52 4t43 9q19 11 31 32.5t12 46.5q0 30 -20 49.5t-49.5 30.5t-81.5 25q-67 18 -109 35t-71.5 52t-29.5 94q0 58 29.5 101
t83 66.5t121.5 23.5q53 0 105.5 -14.5t90.5 -46.5l-24 -87q-39 29 -90 45t-102 16t-89 -20q-12 -12 -20 -31.5t-8 -39.5q0 -30 19.5 -49t49 -29.5t81.5 -23.5q69 -18 111 -35t72.5 -53t30.5 -96q0 -82 -57 -132t-157 -58l-7 -29q37 1 61.5 -16t24.5 -54q0 -42 -30.5 -64
t-75.5 -22q-32 0 -66 12z" />
    <glyph glyph-name="scedilla" unicode="&#x15f;" horiz-adv-x="364" 
d="M106 -184l9 52q20 -9 47 -9q21 0 34.5 7.5t13.5 23.5t-14 23.5t-36 7.5h-37l17 68q-67 7 -118 36l24 82q26 -21 62.5 -31t72.5 -10t60 8q10 13 10 28q0 18 -19 27.5t-60 18.5q-43 9 -71 20t-48 34t-20 61q0 63 44.5 96t111.5 33q89 0 139 -38l-23 -79q-25 19 -58 30
t-63 11t-55 -11q-7 -12 -7 -25q0 -19 20 -28.5t62 -19.5q43 -10 70.5 -20t47.5 -33t20 -62q0 -60 -40 -91.5t-103 -36.5l-7 -29q37 1 61.5 -16t24.5 -54q0 -42 -30.5 -64t-75.5 -22q-32 0 -66 12z" />
    <glyph glyph-name="Scaron" unicode="&#x160;" horiz-adv-x="538" 
d="M34 47l25 91q41 -31 99.5 -47.5t108.5 -16.5q25 0 52 4t43 9q19 11 31 32.5t12 46.5q0 30 -20 49.5t-49.5 30.5t-81.5 25q-67 18 -109 35t-71.5 52t-29.5 94q0 58 29.5 101t83 66.5t121.5 23.5q53 0 105.5 -14.5t90.5 -46.5l-24 -87q-39 29 -90 45t-102 16t-89 -20
q-12 -12 -20 -31.5t-8 -39.5q0 -30 19.5 -49t49 -29.5t81.5 -23.5q69 -18 111 -35t72.5 -53t30.5 -96q0 -90 -68.5 -141t-185.5 -51q-125 0 -217 60zM133 820h82l53 -82l51 82h82l-87 -136h-94z" />
    <glyph glyph-name="scaron" unicode="&#x161;" horiz-adv-x="364" 
d="M22 25l24 82q26 -21 62.5 -31t72.5 -10t60 8q10 13 10 28q0 18 -19 27.5t-60 18.5q-43 9 -71 20t-48 34t-20 61q0 63 44.5 96t111.5 33q89 0 139 -38l-23 -79q-25 19 -58 30t-63 11t-55 -11q-7 -12 -7 -25q0 -19 20 -28.5t62 -19.5q43 -10 70.5 -20t47.5 -33t20 -62
q0 -66 -48 -97.5t-120 -31.5q-89 0 -152 37zM49 600h82l53 -83l51 83h82l-87 -138h-94z" />
    <glyph glyph-name="uni0162" unicode="&#x162;" horiz-adv-x="529" 
d="M214 543h-202v87h506v-87h-203v-543h-23l-10 -40q37 1 61.5 -16t24.5 -54q0 -42 -30.5 -64t-75.5 -22q-32 0 -66 12l9 52q20 -9 47 -9q21 0 34.5 7.5t13.5 23.5t-14 23.5t-36 7.5h-37l20 79h-19v543z" />
    <glyph glyph-name="uni0163" unicode="&#x163;" horiz-adv-x="334" 
d="M20 380h66v133h94v-133h121v-77h-121v-168q0 -32 16 -49.5t48 -17.5q30 0 54 14l16 -74q-20 -12 -41.5 -16.5t-49.5 -4.5l-7 -27q37 1 61.5 -16t24.5 -54q0 -42 -30.5 -64t-75.5 -22q-32 0 -66 12l9 52q20 -9 47 -9q21 0 34.5 7.5t13.5 23.5t-14 23.5t-36 7.5h-37l18 74
q-39 13 -59 47.5t-20 84.5v176h-66v77z" />
    <glyph glyph-name="Tcaron" unicode="&#x164;" horiz-adv-x="529" 
d="M214 543h-202v87h506v-87h-203v-543h-101v543zM132 820h82l53 -82l51 82h82l-87 -136h-94z" />
    <glyph glyph-name="tcaron" unicode="&#x165;" horiz-adv-x="334" 
d="M119 24.5q-33 37.5 -33 102.5v176h-66v77h66v133h94v-133h121v-77h-121v-168q0 -32 16 -49.5t48 -17.5q30 0 54 14l16 -74q-20 -12 -42.5 -16.5t-53.5 -4.5q-66 0 -99 37.5zM228 650h82l-30 -188h-62z" />
    <glyph glyph-name="Utilde" unicode="&#x168;" horiz-adv-x="623" 
d="M62 250v380h99v-380q0 -94 38 -134.5t113 -40.5q83 0 118 29q32 40 32 146v380h99v-380q0 -136 -65.5 -199t-183.5 -63q-250 0 -250 262zM334.5 685.5q-15.5 8.5 -38.5 25.5q-2 2 -10.5 8.5t-14.5 9.5t-12 3q-14 0 -21 -12.5t-7 -35.5h-64q0 55 23 84t65 29q21 0 38 -9
t36 -25q14 -11 22 -16t16 -5q14 0 21 12.5t7 35.5h64q0 -54 -23 -83.5t-65 -29.5q-21 0 -36.5 8.5z" />
    <glyph glyph-name="utilde" unicode="&#x169;" horiz-adv-x="454" 
d="M83 30q-36 43 -36 115v235h95v-221q0 -39 17.5 -65t55.5 -26q24 0 48.5 12t42.5 29v271h95v-380h-81l-10 39q-22 -25 -53.5 -38.5t-67.5 -13.5q-70 0 -106 43zM249.5 461.5q-15.5 8.5 -38.5 25.5q-2 2 -10.5 8.5t-14.5 9.5t-12 3q-14 0 -21 -12.5t-7 -35.5h-64
q0 55 23 84t65 29q21 0 38 -9t36 -25q14 -11 22 -16t16 -5q13 0 20.5 12.5t7.5 35.5h64q0 -54 -23 -83.5t-65 -29.5q-21 0 -36.5 8.5z" />
    <glyph glyph-name="Umacron" unicode="&#x16a;" horiz-adv-x="623" 
d="M62 250v380h99v-380q0 -94 38 -134.5t113 -40.5q83 0 118 29q32 40 32 146v380h99v-380q0 -136 -65.5 -199t-183.5 -63q-250 0 -250 262zM186 778h254v-74h-254v74z" />
    <glyph glyph-name="umacron" unicode="&#x16b;" horiz-adv-x="454" 
d="M83 30q-36 43 -36 115v235h95v-221q0 -39 17.5 -65t55.5 -26q24 0 48.5 12t42.5 29v271h95v-380h-81l-10 39q-22 -25 -53.5 -38.5t-67.5 -13.5q-70 0 -106 43zM101 564h254v-73h-254v73z" />
    <glyph glyph-name="Ubreve" unicode="&#x16c;" horiz-adv-x="623" 
d="M62 250v380h99v-380q0 -94 38 -134.5t113 -40.5q83 0 118 29q32 40 32 146v380h99v-380q0 -136 -65.5 -199t-183.5 -63q-250 0 -250 262zM215.5 714.5q-35.5 34.5 -43.5 97.5l69 11q5 -39 22.5 -57t48.5 -18t48.5 18t22.5 57l69 -11q-8 -63 -43 -97.5t-97 -34.5
q-61 0 -96.5 34.5z" />
    <glyph glyph-name="ubreve" unicode="&#x16d;" horiz-adv-x="454" 
d="M83 30q-36 43 -36 115v235h95v-221q0 -39 17.5 -65t55.5 -26q24 0 48.5 12t42.5 29v271h95v-380h-81l-10 39q-22 -25 -53.5 -38.5t-67.5 -13.5q-70 0 -106 43zM130.5 492.5q-35.5 34.5 -43.5 97.5l69 11q5 -39 22.5 -57t48.5 -18t48.5 18t22.5 57l69 -11
q-8 -63 -43 -97.5t-97 -34.5q-61 0 -96.5 34.5z" />
    <glyph glyph-name="Uring" unicode="&#x16e;" horiz-adv-x="623" 
d="M62 250v380h99v-380q0 -94 38 -134.5t113 -40.5q83 0 118 29q32 40 32 146v380h99v-380q0 -136 -65.5 -199t-183.5 -63q-250 0 -250 262zM241 689.5q-28 25.5 -28 68.5q0 44 27.5 69.5t70.5 25.5q44 0 72 -25.5t28 -69.5q0 -43 -28 -68.5t-72 -25.5q-42 0 -70 25.5z
M280.5 727.5q11.5 -12.5 30.5 -12.5q20 0 31.5 12.5t11.5 30.5q0 20 -11.5 32t-31.5 12q-19 0 -30.5 -12t-11.5 -32q0 -18 11.5 -30.5z" />
    <glyph glyph-name="uring" unicode="&#x16f;" horiz-adv-x="454" 
d="M83 30q-36 43 -36 115v235h95v-221q0 -39 17.5 -65t55.5 -26q24 0 48.5 12t42.5 29v271h95v-380h-81l-10 39q-22 -25 -53.5 -38.5t-67.5 -13.5q-70 0 -106 43zM158.5 464.5q-25.5 24.5 -25.5 65.5t25.5 66t68.5 25t69 -25t26 -66t-26 -65.5t-69 -24.5t-68.5 24.5z
M196 498.5q11 -11.5 31 -11.5t31.5 11.5t11.5 31.5q0 21 -11.5 32.5t-31.5 11.5t-31 -11.5t-11 -32.5q0 -20 11 -31.5z" />
    <glyph glyph-name="Uhungarumlaut" unicode="&#x170;" horiz-adv-x="623" 
d="M62 250v380h99v-380q0 -94 38 -134.5t113 -40.5q83 0 118 29q32 40 32 146v380h99v-380q0 -136 -65.5 -199t-183.5 -63q-250 0 -250 262zM280 820h95l-89 -136h-75zM428 820h94l-107 -136h-76z" />
    <glyph glyph-name="uhungarumlaut" unicode="&#x171;" horiz-adv-x="454" 
d="M83 30q-36 43 -36 115v235h95v-221q0 -39 17.5 -65t55.5 -26q24 0 48.5 12t42.5 29v271h95v-380h-81l-10 39q-22 -25 -53.5 -38.5t-67.5 -13.5q-70 0 -106 43zM188 598h94l-89 -136h-74zM335 598h92l-107 -136h-74z" />
    <glyph glyph-name="Uogonek" unicode="&#x172;" horiz-adv-x="623" 
d="M270 -175q-28 21 -28 62q0 54 58 101q-238 7 -238 262v380h99v-380q0 -94 38 -134.5t113 -40.5q83 0 118 29q32 40 32 146v380h99v-380q0 -210 -161 -252q-38 -21 -59 -46.5t-21 -51.5q0 -29 35 -29q19 0 33 9l15 -62q-30 -14 -63 -14q-42 0 -70 21z" />
    <glyph glyph-name="uogonek" unicode="&#x173;" horiz-adv-x="454" 
d="M83 30q-36 43 -36 115v235h95v-221q0 -39 17.5 -65t55.5 -26q24 0 48.5 12t42.5 29v271h95v-380h-9q-39 -21 -61 -47t-22 -53q0 -29 35 -29q19 0 33 9l15 -62q-30 -14 -63 -14q-42 0 -70 21t-28 62q0 37 25 68t62 53l-8 31q-22 -25 -53.5 -38.5t-67.5 -13.5
q-70 0 -106 43z" />
    <glyph glyph-name="Wcircumflex" unicode="&#x174;" horiz-adv-x="916" 
d="M17 630h101l142 -498l146 498h104l145 -498l144 498h100l-187 -630h-112l-142 483l-142 -483h-114zM412 820h94l87 -136h-82l-51 82l-53 -82h-82z" />
    <glyph glyph-name="wcircumflex" unicode="&#x175;" horiz-adv-x="687" 
d="M7 380h102l94 -282l94 282h95l94 -282l94 282h100l-145 -380h-100l-92 271l-92 -271h-99zM297 598h94l87 -136h-82l-51 82l-53 -82h-82z" />
    <glyph glyph-name="Ycircumflex" unicode="&#x176;" horiz-adv-x="639" 
d="M269 221l-252 409h114l189 -316l189 316h113l-252 -409v-221h-101v221zM273 820h94l87 -136h-82l-51 82l-53 -82h-82z" />
    <glyph glyph-name="ycircumflex" unicode="&#x177;" horiz-adv-x="454" 
d="M51 -165l24 83q56 -37 122 -37q27 0 49 6t36 17q14 21 18.5 49.5t5.5 94.5q-44 -47 -115 -47t-107.5 42.5t-36.5 117.5v219h95v-209q0 -46 20 -69t52 -23q25 0 50 12t42 28v261h95v-370q0 -123 -64 -167t-142 -44q-80 0 -144 36zM181 598h94l87 -136h-82l-51 82l-53 -82
h-82z" />
    <glyph glyph-name="Ydieresis" unicode="&#x178;" horiz-adv-x="639" 
d="M269 221l-252 409h114l189 -316l189 316h113l-252 -409v-221h-101v221zM192 711.5q-17 17.5 -17 41.5t17.5 41t41.5 17q25 0 42.5 -17.5t17.5 -40.5q0 -24 -17.5 -41.5t-42.5 -17.5t-42 17.5zM363.5 794q17.5 17 41.5 17q25 0 42 -17t17 -41t-17 -41.5t-42 -17.5
t-42 17.5t-17 41.5t17.5 41z" />
    <glyph glyph-name="Zacute" unicode="&#x179;" horiz-adv-x="539" 
d="M32 75l339 468h-327v87h453v-75l-339 -468h349v-87h-475v75zM312 820h105l-100 -136h-84z" />
    <glyph glyph-name="zacute" unicode="&#x17a;" horiz-adv-x="380" 
d="M33 71l196 232h-193v77h306v-71l-196 -232h200v-77h-313v71zM217 598h105l-100 -136h-84z" />
    <glyph glyph-name="Zdotaccent" unicode="&#x17b;" horiz-adv-x="539" 
d="M32 75l339 468h-327v87h453v-75l-339 -468h349v-87h-475v75zM232 711.5q-17 17.5 -17 41.5t17 41t42 17t42.5 -17t17.5 -41t-17.5 -41.5t-42.5 -17.5t-42 17.5z" />
    <glyph glyph-name="zdotaccent" unicode="&#x17c;" horiz-adv-x="380" 
d="M33 71l196 232h-193v77h306v-71l-196 -232h200v-77h-313v71zM146.5 489.5q-17.5 17.5 -17.5 41.5t17.5 41.5t42.5 17.5q26 0 43 -17.5t17 -41.5t-17 -41.5t-43 -17.5q-25 0 -42.5 17.5z" />
    <glyph glyph-name="Zcaron" unicode="&#x17d;" horiz-adv-x="539" 
d="M32 75l339 468h-327v87h453v-75l-339 -468h349v-87h-475v75zM141 820h82l53 -82l51 82h82l-87 -136h-94z" />
    <glyph glyph-name="zcaron" unicode="&#x17e;" horiz-adv-x="380" 
d="M33 71l196 232h-193v77h306v-71l-196 -232h200v-77h-313v71zM56 600h82l53 -83l51 83h82l-87 -138h-94z" />
    <glyph glyph-name="uni018F" unicode="&#x18f;" horiz-adv-x="682" 
d="M170.5 28.5q-64.5 41.5 -98 115t-33.5 169.5q0 26 1 39h499q-9 91 -63 147.5t-158 56.5q-51 0 -102.5 -14t-88.5 -33l-21 77q41 27 96 42t119 15q155 0 238.5 -86.5t83.5 -237.5q0 -94 -34 -169t-105.5 -119t-178.5 -44q-90 0 -154.5 41.5zM198 127.5q47 -53.5 133 -53.5
q57 0 94.5 16.5t69.5 44.5q17 24 28 58.5t15 72.5h-393q6 -85 53 -138.5z" />
    <glyph glyph-name="florin" unicode="&#x191;" horiz-adv-x="537" 
d="M76 -90q53 0 83 31q20 39 36 143l31 194h-113v73h124l17 105q15 93 59 139t120 46q32 0 64 -7l-12 -80q-24 8 -50 8q-41 0 -61 -19q-17 -26 -27 -89l-16 -103h147v-73h-159l-31 -198q-40 -256 -187 -256q-30 0 -61 10v79q18 -3 36 -3z" />
    <glyph glyph-name="florin" unicode="&#x192;" horiz-adv-x="537" 
d="M76 -90q53 0 83 31q20 39 36 143l31 194h-113v73h124l17 105q15 93 59 139t120 46q32 0 64 -7l-12 -80q-24 8 -50 8q-41 0 -61 -19q-17 -26 -27 -89l-16 -103h147v-73h-159l-31 -198q-40 -256 -187 -256q-30 0 -61 10v79q18 -3 36 -3z" />
    <glyph glyph-name="uni0218" unicode="&#x218;" horiz-adv-x="538" 
d="M34 47l25 91q41 -31 99.5 -47.5t108.5 -16.5q25 0 52 4t43 9q19 11 31 32.5t12 46.5q0 30 -20 49.5t-49.5 30.5t-81.5 25q-67 18 -109 35t-71.5 52t-29.5 94q0 58 29.5 101t83 66.5t121.5 23.5q53 0 105.5 -14.5t90.5 -46.5l-24 -87q-39 29 -90 45t-102 16t-89 -20
q-12 -12 -20 -31.5t-8 -39.5q0 -30 19.5 -49t49 -29.5t81.5 -23.5q69 -18 111 -35t72.5 -53t30.5 -96q0 -90 -68.5 -141t-185.5 -51q-125 0 -217 60zM260 -159q0 11 -19 21q-14 8 -21.5 16.5t-7.5 23.5q0 21 15 33.5t40 12.5q32 0 48 -17t16 -46q0 -38 -22.5 -71t-58.5 -52
l-28 33q38 28 38 46z" />
    <glyph glyph-name="uni0219" unicode="&#x219;" horiz-adv-x="364" 
d="M22 25l24 82q26 -21 62.5 -31t72.5 -10t60 8q10 13 10 28q0 18 -19 27.5t-60 18.5q-43 9 -71 20t-48 34t-20 61q0 63 44.5 96t111.5 33q89 0 139 -38l-23 -79q-25 19 -58 30t-63 11t-55 -11q-7 -12 -7 -25q0 -19 20 -28.5t62 -19.5q43 -10 70.5 -20t47.5 -33t20 -62
q0 -66 -48 -97.5t-120 -31.5q-89 0 -152 37zM169 -159q0 11 -19 21q-14 8 -21.5 16.5t-7.5 23.5q0 21 15 33.5t40 12.5q32 0 48 -17t16 -46q0 -38 -22.5 -71t-58.5 -52l-28 33q38 28 38 46z" />
    <glyph glyph-name="uni021A" unicode="&#x21a;" horiz-adv-x="529" 
d="M214 543h-202v87h506v-87h-203v-543h-101v543zM259 -159q0 11 -19 21q-14 8 -21.5 16.5t-7.5 23.5q0 21 15 33.5t40 12.5q32 0 48 -17t16 -46q0 -38 -22.5 -71t-58.5 -52l-28 33q38 28 38 46z" />
    <glyph glyph-name="uni021B" unicode="&#x21b;" horiz-adv-x="334" 
d="M119 24.5q-33 37.5 -33 102.5v176h-66v77h66v133h94v-133h121v-77h-121v-168q0 -32 16 -49.5t48 -17.5q30 0 54 14l16 -74q-20 -12 -42.5 -16.5t-53.5 -4.5q-66 0 -99 37.5zM193 -159q0 11 -19 21q-14 8 -21.5 16.5t-7.5 23.5q0 21 15 33.5t40 12.5q32 0 48 -17t16 -46
q0 -38 -22.5 -71t-58.5 -52l-28 33q38 28 38 46z" />
    <glyph glyph-name="uni0237" unicode="&#x237;" horiz-adv-x="201" 
d="M24.5 -84.5q28.5 31.5 28.5 95.5v369h95v-343q0 -209 -165 -237l-30 81q43 3 71.5 34.5z" />
    <glyph glyph-name="uni0259" unicode="&#x259;" horiz-adv-x="429" 
d="M346.5 343.5q54.5 -49.5 54.5 -146.5q0 -93 -51.5 -151t-140.5 -58q-93 0 -137 54t-44 143q0 12 2 38h278q-1 40 -32.5 65.5t-87.5 25.5q-61 0 -113 -31l-20 73q58 37 144 37q93 0 147.5 -49.5zM145.5 88q24.5 -22 64.5 -22q51 0 80 29q17 30 18 56h-190q3 -41 27.5 -63z
" />
    <glyph glyph-name="uni02BC" unicode="&#x2bc;" horiz-adv-x="176" 
d="M84 523q0 12 -5.5 18.5t-17.5 15.5q-14 9 -22 19.5t-8 30.5q0 25 15 40t40 15q30 0 44.5 -21.5t14.5 -60.5q0 -44 -17.5 -82t-51.5 -66l-29 27q37 36 37 64z" />
    <glyph glyph-name="circumflex" unicode="&#x2c6;" horiz-adv-x="348" 
d="M127 598h94l87 -136h-82l-51 82l-53 -82h-82z" />
    <glyph glyph-name="caron" unicode="&#x2c7;" horiz-adv-x="348" 
d="M40 600h82l53 -83l51 83h82l-87 -138h-94z" />
    <glyph glyph-name="breve" unicode="&#x2d8;" horiz-adv-x="360" 
d="M83.5 492.5q-35.5 34.5 -43.5 97.5l69 11q5 -39 22.5 -57t48.5 -18t48.5 18t22.5 57l69 -11q-8 -63 -43 -97.5t-97 -34.5q-61 0 -96.5 34.5z" />
    <glyph glyph-name="dotaccent" unicode="&#x2d9;" horiz-adv-x="200" 
d="M57.5 489.5q-17.5 17.5 -17.5 41.5t17.5 41.5t42.5 17.5q26 0 43 -17.5t17 -41.5t-17 -41.5t-43 -17.5q-25 0 -42.5 17.5z" />
    <glyph glyph-name="ring" unicode="&#x2da;" horiz-adv-x="269" 
d="M65.5 464.5q-25.5 24.5 -25.5 65.5t25.5 66t68.5 25t69 -25t26 -66t-26 -65.5t-69 -24.5t-68.5 24.5zM103 498.5q11 -11.5 31 -11.5t31.5 11.5t11.5 31.5q0 21 -11.5 32.5t-31.5 11.5t-31 -11.5t-11 -32.5q0 -20 11 -31.5z" />
    <glyph glyph-name="ogonek" unicode="&#x2db;" horiz-adv-x="241" 
d="M68 -175q-28 21 -28 62q0 50 42.5 88t88.5 54l30 -29q-39 -21 -61 -47t-22 -53q0 -29 35 -29q19 0 33 9l15 -62q-30 -14 -63 -14q-42 0 -70 21z" />
    <glyph glyph-name="tilde" unicode="&#x2dc;" horiz-adv-x="372" 
d="M207.5 461.5q-15.5 8.5 -38.5 25.5q-2 2 -10.5 8.5t-14.5 9.5t-12 3q-14 0 -21 -12.5t-7 -35.5h-64q0 55 23 84t65 29q21 0 38 -9t36 -25q14 -11 22 -16t16 -5q13 0 20.5 12.5t7.5 35.5h64q0 -54 -23 -83.5t-65 -29.5q-21 0 -36.5 8.5z" />
    <glyph glyph-name="hungarumlaut" unicode="&#x2dd;" horiz-adv-x="388" 
d="M109 598h94l-89 -136h-74zM256 598h92l-107 -136h-74z" />
    <glyph glyph-name="gravecomb" unicode="&#x300;" 
d="M40 598h102l77 -136h-81z" />
    <glyph glyph-name="acutecomb" unicode="&#x301;" 
d="M119 598h105l-100 -136h-84z" />
    <glyph glyph-name="uni0302" unicode="&#x302;" 
d="M127 598h94l87 -136h-82l-51 82l-53 -82h-82z" />
    <glyph glyph-name="tildecomb" unicode="&#x303;" 
d="M207.5 461.5q-15.5 8.5 -38.5 25.5q-2 2 -10.5 8.5t-14.5 9.5t-12 3q-14 0 -21 -12.5t-7 -35.5h-64q0 55 23 84t65 29q21 0 38 -9t36 -25q14 -11 22 -16t16 -5q13 0 20.5 12.5t7.5 35.5h64q0 -54 -23 -83.5t-65 -29.5q-21 0 -36.5 8.5z" />
    <glyph glyph-name="uni0304" unicode="&#x304;" 
d="M40 564h254v-73h-254v73z" />
    <glyph glyph-name="uni0306" unicode="&#x306;" 
d="M83.5 492.5q-35.5 34.5 -43.5 97.5l69 11q5 -39 22.5 -57t48.5 -18t48.5 18t22.5 57l69 -11q-8 -63 -43 -97.5t-97 -34.5q-61 0 -96.5 34.5z" />
    <glyph glyph-name="uni0307" unicode="&#x307;" 
d="M57.5 489.5q-17.5 17.5 -17.5 41.5t17.5 41.5t42.5 17.5q26 0 43 -17.5t17 -41.5t-17 -41.5t-43 -17.5q-25 0 -42.5 17.5z" />
    <glyph glyph-name="uni0308" unicode="&#x308;" 
d="M57 489.5q-17 17.5 -17 41.5q0 25 17 42t42 17t42 -17t17 -42q0 -24 -17 -41.5t-42 -17.5t-42 17.5zM225.5 573q17.5 17 42.5 17t42 -17t17 -42q0 -24 -17 -41.5t-42 -17.5t-42.5 17.5t-17.5 41.5q0 25 17.5 42z" />
    <glyph glyph-name="uni030A" unicode="&#x30a;" 
d="M65.5 464.5q-25.5 24.5 -25.5 65.5t25.5 66t68.5 25t69 -25t26 -66t-26 -65.5t-69 -24.5t-68.5 24.5zM103 498.5q11 -11.5 31 -11.5t31.5 11.5t11.5 31.5q0 21 -11.5 32.5t-31.5 11.5t-31 -11.5t-11 -32.5q0 -20 11 -31.5z" />
    <glyph glyph-name="uni030B" unicode="&#x30b;" 
d="M109 598h94l-89 -136h-74zM256 598h92l-107 -136h-74z" />
    <glyph glyph-name="uni030C" unicode="&#x30c;" 
d="M40 600h82l53 -83l51 83h82l-87 -138h-94z" />
    <glyph glyph-name="uni0312" unicode="&#x312;" 
d="M56 455q-16 17 -16 46q0 38 22.5 70.5t57.5 52.5l29 -33q-39 -28 -39 -46q0 -7 5 -12t15 -10q15 -9 22 -16.5t7 -22.5q0 -21 -15 -33.5t-40 -12.5q-32 0 -48 17z" />
    <glyph glyph-name="uni0326" unicode="&#x326;" 
d="M88 -159q0 11 -19 21q-14 8 -21.5 16.5t-7.5 23.5q0 21 15 33.5t40 12.5q32 0 48 -17t16 -46q0 -38 -22.5 -71t-58.5 -52l-28 33q38 28 38 46z" />
    <glyph glyph-name="uni0327" unicode="&#x327;" 
d="M40 -184l9 52q20 -9 47 -9q21 0 34.5 7.5t13.5 23.5t-14 23.5t-36 7.5h-37l26 104h59l-16 -65q37 1 61.5 -16t24.5 -54q0 -42 -30.5 -64t-75.5 -22q-32 0 -66 12z" />
    <glyph glyph-name="uni0328" unicode="&#x328;" 
d="M68 -175q-28 21 -28 62q0 50 42.5 88t88.5 54l30 -29q-39 -21 -61 -47t-22 -53q0 -29 35 -29q19 0 33 9l15 -62q-30 -14 -63 -14q-42 0 -70 21z" />
    <glyph glyph-name="uni03A9" unicode="&#x3a9;" horiz-adv-x="707" 
d="M41 94h113q-115 67 -115 250q0 85 37.5 153t109.5 107t171 39q97 0 167.5 -37.5t107 -103.5t36.5 -150q0 -96 -34.5 -160t-95.5 -98h128v-94h-266v84q81 29 124 94t43 153q0 62 -25 113.5t-73 81.5t-114 30q-49 0 -94 -15t-72 -36q-24 -29 -36 -74.5t-12 -99.5
q0 -95 41 -156t126 -91v-84h-267v94z" />
    <glyph glyph-name="pi" unicode="&#x3c0;" horiz-adv-x="474" 
d="M276 100v199h-108v-299h-93v299h-55v81h431v-81h-84v-190q0 -39 31 -39q19 0 40 12l16 -76q-16 -9 -35.5 -14t-37.5 -5q-105 0 -105 113z" />
    <glyph glyph-name="uni060C" unicode="&#x60c;" horiz-adv-x="221" 
d="M55 69q0 55 24.5 106.5t61.5 82.5l30 -29q-49 -52 -49 -90q0 -14 5.5 -21t18.5 -18q14 -10 21.5 -20.5t7.5 -30.5q0 -28 -16 -43.5t-43 -15.5q-61 0 -61 79z" />
    <glyph glyph-name="uni061B" unicode="&#x61b;" horiz-adv-x="246" 
d="M69 286q0 54 24.5 105t60.5 82l30 -29q-48 -51 -48 -89q0 -14 6 -21.5t18 -16.5q14 -10 21 -20.5t7 -29.5q0 -28 -16 -43.5t-43 -15.5q-60 0 -60 78zM80 92.5q17 17.5 43 17.5t43 -17.5t17 -43.5t-17 -43.5t-43 -17.5t-43 17.5t-17 43.5t17 43.5z" />
    <glyph glyph-name="uni061F" unicode="&#x61f;" horiz-adv-x="418" 
d="M210 237.5q-19 22.5 -58 50.5q-34 25 -54.5 45t-35.5 52t-15 78q0 89 56 134t148 45q42 0 79 -8.5t61 -20.5l-25 -80q-20 10 -52 17.5t-61 7.5q-52 0 -83 -25.5t-31 -71.5q0 -38 20.5 -63t61.5 -56q32 -24 52 -43.5t34 -49t14 -69.5h-92q0 35 -19 57.5zM231 89.5
q17 17.5 41 17.5q25 0 41.5 -17t16.5 -42t-16.5 -41.5t-41.5 -16.5t-41.5 17t-16.5 41t17 41.5z" />
    <glyph glyph-name="uni0621" unicode="&#x621;" horiz-adv-x="444" 
d="M129 102q-21 21 -33 51.5t-12 66.5q0 61 36 102t106 41q37 0 74 -10.5t66 -29.5l-39 -83q-46 29 -100 29q-32 0 -52 -10q-3 -7 -3 -26q0 -47 27 -83.5t80 -30.5l116 14l7 -84q-154 -15 -349 -50l-17 86z" />
    <glyph glyph-name="uni0622" unicode="&#x622;" horiz-adv-x="230" 
d="M71 677h88v-677h-88v677zM68 817q23 0 53 -7q34 -6 49 -6q29 0 49 16l16 -49q-28 -21 -67 -21q-17 0 -53 6l-21 3t-25 2q-37 0 -57 -23l-15 51q29 28 71 28z" />
    <glyph glyph-name="uni0623" unicode="&#x623;" horiz-adv-x="230" 
d="M71 677h88v-677h-88v677zM12 790l57 6q-9 11 -14.5 26.5t-5.5 31.5q0 32 20 50t54 18q33 0 71 -16l-18 -48q-25 11 -45 11q-17 0 -30 -8q-1 -31 14 -45.5t43 -12.5l54 4l4 -47l-199 -18z" />
    <glyph glyph-name="uni0624" unicode="&#x624;" horiz-adv-x="445" 
d="M298 -2q-132 4 -195.5 39t-63.5 104q0 46 24.5 97.5t66 86t90.5 34.5q50 0 91.5 -37.5t65.5 -98.5t24 -129q0 -123 -82 -204.5t-215 -130.5l-44 79q184 62 238 160zM195 103q50 -8 114 -8h8q-3 36 -15.5 75t-35 66.5t-52.5 27.5q-25 0 -46.5 -18.5t-35 -48t-14.5 -62.5
q27 -24 77 -32zM111 506l57 6q-9 11 -14.5 26.5t-5.5 31.5q0 32 20 50t54 18q33 0 71 -16l-18 -48q-25 11 -45 11q-17 0 -30 -8q-1 -31 14 -45.5t43 -12.5l54 4l4 -47l-199 -18z" />
    <glyph glyph-name="uni0625" unicode="&#x625;" horiz-adv-x="230" 
d="M71 677h88v-677h-88v677zM7 -232l58 5q-10 10 -15.5 26t-5.5 33q0 32 20 50t54 18t71 -17l-18 -47q-25 11 -45 11q-17 0 -30 -8q-1 -31 14 -46t43 -13l54 5l4 -48l-199 -18z" />
    <glyph glyph-name="uni0626" unicode="&#x626;" horiz-adv-x="689" 
d="M109.5 -94q-75.5 55 -75.5 165q0 63 25 125t65 109l70 -53q-30 -41 -49.5 -86.5t-19.5 -87.5q0 -69 53.5 -99.5t137.5 -30.5q76 0 139.5 22t91.5 62q-10 13 -26 22.5t-54 28.5q-42 19 -69.5 36t-46.5 43.5t-19 62.5q0 50 35 95.5t93 73t121 27.5q54 0 90 -23l-34 -85
q-25 13 -61 13q-52 0 -98.5 -25t-61.5 -63q11 -19 32.5 -33t57.5 -30q38 -18 61.5 -33t40 -38.5t16.5 -57.5q0 -56 -43 -100.5t-115.5 -69.5t-157.5 -25q-123 0 -198.5 55zM57 429l57 6q-9 11 -14.5 26.5t-5.5 31.5q0 32 20 50t54 18q33 0 71 -16l-18 -48q-25 11 -45 11
q-17 0 -30 -8q-1 -31 14 -45.5t43 -12.5l54 4l4 -47l-199 -18z" />
    <glyph glyph-name="uni0627" unicode="&#x627;" horiz-adv-x="230" 
d="M71 677h88v-677h-88v677z" />
    <glyph glyph-name="uni0628" unicode="&#x628;" horiz-adv-x="863" 
d="M114 48.5q-54 48.5 -54 138.5q0 100 76 212l74 -49q-31 -47 -44.5 -83t-13.5 -69q0 -103 117 -103h432q5 54 5 130v137h89v-131q0 -128 -13 -231h-518q-96 0 -150 48.5zM423.5 -185q-16.5 17 -16.5 42q0 26 16.5 43t41.5 17t42 -17t17 -43q0 -25 -17 -42t-42 -17
t-41.5 17z" />
    <glyph glyph-name="uni0629" unicode="&#x629;" horiz-adv-x="451" 
d="M90.5 37q-42.5 47 -42.5 112q0 47 24 94t64 80q-13 5 -39 13l29 87q137 -35 207 -99.5t70 -156.5q0 -83 -48.5 -130t-134.5 -47q-87 0 -129.5 47zM157 104.5q32 -20.5 71 -20.5q34 0 58.5 16.5t40.5 43.5q-3 83 -111 144q-36 -23 -61.5 -57t-35.5 -70q6 -36 38 -56.5z
M245.5 500.5q-16.5 16.5 -16.5 41.5q0 26 16.5 43t41.5 17t41.5 -17t16.5 -43q0 -25 -16.5 -41.5t-41.5 -16.5t-41.5 16.5zM99.5 585q16.5 17 41.5 17t41.5 -17t16.5 -43q0 -25 -16.5 -41.5t-41.5 -16.5t-41.5 16.5t-16.5 41.5q0 26 16.5 43z" />
    <glyph glyph-name="uni062A" unicode="&#x62a;" horiz-adv-x="863" 
d="M114 48.5q-54 48.5 -54 138.5q0 100 76 212l74 -49q-31 -47 -44.5 -83t-13.5 -69q0 -103 117 -103h432q5 54 5 130v137h89v-131q0 -128 -13 -231h-518q-96 0 -150 48.5zM496.5 454.5q-16.5 16.5 -16.5 41.5q0 26 16.5 43t41.5 17t41.5 -17t16.5 -43q0 -25 -16.5 -41.5
t-41.5 -16.5t-41.5 16.5zM350.5 539q16.5 17 41.5 17t41.5 -17t16.5 -43q0 -25 -16.5 -41.5t-41.5 -16.5t-41.5 16.5t-16.5 41.5q0 26 16.5 43z" />
    <glyph glyph-name="uni062B" unicode="&#x62b;" horiz-adv-x="863" 
d="M114 48.5q-54 48.5 -54 138.5q0 100 76 212l74 -49q-31 -47 -44.5 -83t-13.5 -69q0 -103 117 -103h432q5 54 5 130v137h89v-131q0 -128 -13 -231h-518q-96 0 -150 48.5zM356 451q-15 15 -15 37q0 23 15 38t37 15t37 -15t15 -38q0 -22 -14.5 -37t-37.5 -15q-22 0 -37 15z
M429 641q15 15 37 15t36.5 -15t14.5 -38q0 -22 -14.5 -37t-36.5 -15t-37 15t-15 37q0 23 15 38zM501 526q15 15 37 15t37 -15t15 -38q0 -22 -14.5 -37t-37.5 -15q-22 0 -37 15t-15 37q0 23 15 38z" />
    <glyph glyph-name="uni062C" unicode="&#x62c;" horiz-adv-x="631" 
d="M243 -338q-85 33 -134.5 97.5t-49.5 153.5q0 78 38 147t98 118t126 72q-87 29 -150 29q-54 0 -110 -21l-23 92q33 13 61 19t61 6q45 0 80.5 -8.5t89.5 -26.5q67 -23 123.5 -35.5t137.5 -12.5l-16 -93q-30 3 -60 3q-89 0 -168 -27.5t-136.5 -84t-80.5 -139.5
q0 -68 40 -119t113 -79t171 -28q59 0 113 9l12 -93q-75 -12 -146 -12q-105 0 -190 33zM328.5 -74q-16.5 17 -16.5 42q0 26 16.5 43t41.5 17t42 -17t17 -43q0 -25 -17 -42t-42 -17t-41.5 17z" />
    <glyph glyph-name="uni062D" unicode="&#x62d;" horiz-adv-x="631" 
d="M243 -338q-85 33 -134.5 97.5t-49.5 153.5q0 78 38 147t98 118t126 72q-87 29 -150 29q-54 0 -110 -21l-23 92q33 13 61 19t61 6q45 0 80.5 -8.5t89.5 -26.5q67 -23 123.5 -35.5t137.5 -12.5l-16 -93q-30 3 -60 3q-89 0 -168 -27.5t-136.5 -84t-80.5 -139.5
q0 -68 40 -119t113 -79t171 -28q59 0 113 9l12 -93q-75 -12 -146 -12q-105 0 -190 33z" />
    <glyph glyph-name="uni062E" unicode="&#x62e;" horiz-adv-x="631" 
d="M243 -338q-85 33 -134.5 97.5t-49.5 153.5q0 78 38 147t98 118t126 72q-87 29 -150 29q-54 0 -110 -21l-23 92q33 13 61 19t61 6q45 0 80.5 -8.5t89.5 -26.5q67 -23 123.5 -35.5t137.5 -12.5l-16 -93q-30 3 -60 3q-89 0 -168 -27.5t-136.5 -84t-80.5 -139.5
q0 -68 40 -119t113 -79t171 -28q59 0 113 9l12 -93q-75 -12 -146 -12q-105 0 -190 33zM302.5 493q-16.5 17 -16.5 42q0 26 16.5 43t41.5 17t42 -17t17 -43q0 -25 -17 -42t-42 -17t-41.5 17z" />
    <glyph glyph-name="uni062F" unicode="&#x62f;" horiz-adv-x="442" 
d="M97.5 1.5q-33.5 1.5 -65.5 5.5l3 96q78 -8 159 -8h126q-29 155 -175 237l40 79q69 -28 120 -82t77 -123t22 -143l-47 -63h-160q-66 0 -99.5 1.5z" />
    <glyph glyph-name="uni0630" unicode="&#x630;" horiz-adv-x="442" 
d="M97.5 1.5q-33.5 1.5 -65.5 5.5l3 96q78 -8 159 -8h126q-29 155 -175 237l40 79q69 -28 120 -82t77 -123t22 -143l-47 -63h-160q-66 0 -99.5 1.5zM150.5 509q-16.5 17 -16.5 42q0 26 16.5 43t41.5 17t42 -17t17 -43q0 -25 -17 -42t-42 -17t-41.5 17z" />
    <glyph glyph-name="uni0631" unicode="&#x631;" horiz-adv-x="376" 
d="M170 -31.5q59 61.5 78 122.5q-8 85 -60 219l87 32q27 -74 42 -129t15 -102q0 -98 -73 -184t-210 -156l-51 79q113 57 172 118.5z" />
    <glyph glyph-name="uni0632" unicode="&#x632;" horiz-adv-x="376" 
d="M170 -31.5q59 61.5 78 122.5q-8 85 -60 219l87 32q27 -74 42 -129t15 -102q0 -98 -73 -184t-210 -156l-51 79q113 57 172 118.5zM163.5 443q-16.5 17 -16.5 42q0 26 16.5 43t41.5 17t42 -17t17 -43q0 -25 -17 -42t-42 -17t-41.5 17z" />
    <glyph glyph-name="uni0633" unicode="&#x633;" horiz-adv-x="1108" 
d="M115.5 -75.5q-64.5 60.5 -64.5 169.5q0 64 23 128.5t66 120.5l70 -54q-32 -42 -50 -91t-18 -92q0 -70 44.5 -108t118.5 -38q72 0 126.5 35.5t74.5 98.5q-7 47 -17.5 97t-32.5 137l91 24l38 -162q13 -56 34 -75.5t63 -19.5h61q10 47 10 117v130h88v-161q0 -36 7.5 -54.5
t23 -25t43.5 -6.5h45q8 35 8 126v121h88v-123q0 -137 -26 -219h-121q-69 0 -103 45q-14 -24 -33 -45h-91q-71 0 -109 38q-29 -75 -104 -124.5t-178 -49.5q-111 0 -175.5 60.5z" />
    <glyph glyph-name="uni0634" unicode="&#x634;" horiz-adv-x="1108" 
d="M115.5 -75.5q-64.5 60.5 -64.5 169.5q0 64 23 128.5t66 120.5l70 -54q-32 -42 -50 -91t-18 -92q0 -70 44.5 -108t118.5 -38q72 0 126.5 35.5t74.5 98.5q-7 47 -17.5 97t-32.5 137l91 24l38 -162q13 -56 34 -75.5t63 -19.5h61q10 47 10 117v130h88v-161q0 -36 7.5 -54.5
t23 -25t43.5 -6.5h45q8 35 8 126v121h88v-123q0 -137 -26 -219h-121q-69 0 -103 45q-14 -24 -33 -45h-91q-71 0 -109 38q-29 -75 -104 -124.5t-178 -49.5q-111 0 -175.5 60.5zM686 489q-15 15 -15 37q0 23 15 38t37 15t37 -15t15 -38q0 -22 -14.5 -37t-37.5 -15
q-22 0 -37 15zM759 679q15 15 37 15t36.5 -15t14.5 -38q0 -22 -14.5 -37t-36.5 -15t-37 15t-15 37q0 23 15 38zM831 564q15 15 37 15t37 -15t15 -38q0 -22 -14.5 -37t-37.5 -15q-22 0 -37 15t-15 37q0 23 15 38z" />
    <glyph glyph-name="uni0635" unicode="&#x635;" horiz-adv-x="1140" 
d="M106.5 -77q-66.5 58 -66.5 171q0 62 22 126t67 123l70 -54q-33 -42 -50.5 -91t-17.5 -92q0 -70 44 -108t119 -38q71 0 126.5 36t74.5 99q-20 115 -48 233l89 27l31 -122q68 64 159.5 110t168.5 46q57 0 104 -26.5t74 -73t27 -103.5q0 -110 -92.5 -148t-234.5 -38h-80
q-83 0 -132 34q-29 -75 -107 -122t-176 -47q-105 0 -171.5 58zM626 108q24 -13 73 -13h51q100 0 164.5 11.5t99.5 41.5q1 6 1 17q0 53 -33 91.5t-92 38.5q-65 0 -153 -42.5t-148 -98.5q13 -33 37 -46z" />
    <glyph glyph-name="uni0636" unicode="&#x636;" horiz-adv-x="1140" 
d="M106.5 -77q-66.5 58 -66.5 171q0 62 22 126t67 123l70 -54q-33 -42 -50.5 -91t-17.5 -92q0 -70 44 -108t119 -38q71 0 126.5 36t74.5 99q-20 115 -48 233l89 27l31 -122q68 64 159.5 110t168.5 46q57 0 104 -26.5t74 -73t27 -103.5q0 -110 -92.5 -148t-234.5 -38h-80
q-83 0 -132 34q-29 -75 -107 -122t-176 -47q-105 0 -171.5 58zM626 108q24 -13 73 -13h51q100 0 164.5 11.5t99.5 41.5q1 6 1 17q0 53 -33 91.5t-92 38.5q-65 0 -153 -42.5t-148 -98.5q13 -33 37 -46zM628.5 490q-16.5 17 -16.5 42q0 26 16.5 43t41.5 17t42 -17t17 -43
q0 -25 -17 -42t-42 -17t-41.5 17z" />
    <glyph glyph-name="uni0637" unicode="&#x637;" horiz-adv-x="788" 
d="M40 95h120q56 83 92 126q9 75 9 182v274h88v-212q0 -66 -1 -95.5t-6 -56.5q93 76 190 76q65 0 114 -28t75.5 -75.5t26.5 -104.5t-35 -96t-130.5 -62t-268.5 -23h-263zM336 95q106 0 194.5 13t130.5 45q1 5 1 14q0 32 -19.5 61t-54.5 47.5t-78 18.5q-63 0 -126 -47
t-136 -152h88z" />
    <glyph glyph-name="uni0638" unicode="&#x638;" horiz-adv-x="788" 
d="M40 95h120q56 83 92 126q9 75 9 182v274h88v-212q0 -66 -1 -95.5t-6 -56.5q93 76 190 76q65 0 114 -28t75.5 -75.5t26.5 -104.5t-35 -96t-130.5 -62t-268.5 -23h-263zM336 95q106 0 194.5 13t130.5 45q1 5 1 14q0 32 -19.5 61t-54.5 47.5t-78 18.5q-63 0 -126 -47
t-136 -152h88zM487.5 510q-16.5 17 -16.5 42q0 26 16.5 43t41.5 17t42 -17t17 -43q0 -25 -17 -42t-42 -17t-41.5 17z" />
    <glyph glyph-name="uni0639" unicode="&#x639;" horiz-adv-x="539" 
d="M221.5 -342q-74.5 27 -118.5 82.5t-44 135.5q0 71 35 133.5t95 103.5q-52 27 -75.5 69.5t-23.5 92.5q0 74 46 124t134 50q43 0 85.5 -11.5t69.5 -27.5l-32 -84q-68 31 -126 31q-62 0 -92 -31q-2 -10 -2 -28q0 -59 41 -94.5t107 -35.5q19 0 60 5t89 11l-4 -84
q-120 -3 -215.5 -50t-120.5 -135q2 -91 71.5 -139t206.5 -48q46 0 105 7l8 -92q-29 -6 -67 -9t-68 -3q-90 0 -164.5 27z" />
    <glyph glyph-name="uni063A" unicode="&#x63a;" horiz-adv-x="539" 
d="M221.5 -342q-74.5 27 -118.5 82.5t-44 135.5q0 71 35 133.5t95 103.5q-52 27 -75.5 69.5t-23.5 92.5q0 74 46 124t134 50q43 0 85.5 -11.5t69.5 -27.5l-32 -84q-68 31 -126 31q-62 0 -92 -31q-2 -10 -2 -28q0 -59 41 -94.5t107 -35.5q19 0 60 5t89 11l-4 -84
q-120 -3 -215.5 -50t-120.5 -135q2 -91 71.5 -139t206.5 -48q46 0 105 7l8 -92q-29 -6 -67 -9t-68 -3q-90 0 -164.5 27zM221.5 539q-16.5 17 -16.5 42q0 26 16.5 43t41.5 17t42 -17t17 -43q0 -25 -17 -42t-42 -17t-41.5 17z" />
    <glyph glyph-name="uni0640" unicode="&#x640;" horiz-adv-x="248" 
d="M0 0l-18 48l18 47h248v-95h-248z" />
    <glyph glyph-name="uni0641" unicode="&#x641;" horiz-adv-x="988" 
d="M114 48.5q-54 48.5 -54 138.5q0 100 76 212l74 -49q-31 -47 -44.5 -83t-13.5 -69q0 -103 117 -103h345q-65 44 -65 105q0 42 27 92.5t70.5 85.5t92.5 35q54 0 98 -44t69 -112t25 -137q0 -63 -21 -120h-646q-96 0 -150 48.5zM716 130q58 -29 122 -36q3 15 3 32
q0 42 -15.5 87.5t-39 75.5t-47.5 30q-18 0 -42 -17.5t-42.5 -46.5t-22.5 -61q26 -35 84 -64zM693.5 512q-16.5 17 -16.5 42q0 26 16.5 43t41.5 17t42 -17t17 -43q0 -25 -17 -42t-42 -17t-41.5 17z" />
    <glyph glyph-name="uni0642" unicode="&#x642;" horiz-adv-x="707" 
d="M192.5 -171q-69.5 26 -111 81.5t-41.5 139.5q0 59 22 121.5t66 121.5l71 -54q-33 -43 -50.5 -92.5t-17.5 -90.5q0 -79 62 -117.5t160 -38.5q70 0 125.5 18.5t85.5 49.5q7 23 10 59q-113 3 -194.5 37t-81.5 108q0 41 24.5 92.5t66.5 88t93 36.5q57 0 97.5 -45t61.5 -114.5
t21 -139.5q0 -145 -87.5 -216t-227.5 -71q-85 0 -154.5 26zM460.5 132q48.5 -11 114.5 -14q-6 76 -31 126.5t-69 50.5q-23 0 -45.5 -18t-37 -47t-15.5 -60q35 -27 83.5 -38zM505.5 509.5q-16.5 16.5 -16.5 41.5q0 26 16.5 43t41.5 17t41.5 -17t16.5 -43q0 -25 -16.5 -41.5
t-41.5 -16.5t-41.5 16.5zM359.5 594q16.5 17 41.5 17t41.5 -17t16.5 -43q0 -25 -16.5 -41.5t-41.5 -16.5t-41.5 16.5t-16.5 41.5q0 26 16.5 43z" />
    <glyph glyph-name="uni0643" unicode="&#x643;" horiz-adv-x="865" 
d="M114 48.5q-54 48.5 -54 138.5q0 100 76 212l74 -49q-31 -47 -44.5 -83t-13.5 -69q0 -103 117 -103h432q5 73 5 238v344h88v-338q0 -234 -18 -339h-512q-96 0 -150 48.5zM394 341q-15 15 -24 37.5t-9 48.5q0 44 26 73.5t76 29.5q26 0 53 -7.5t48 -21.5l-28 -60
q-34 21 -73 21q-22 0 -37 -7q-2 -5 -2 -18q0 -35 19.5 -61t57.5 -22l84 10l4 -60q-132 -15 -251 -37l-11 62z" />
    <glyph glyph-name="uni0644" unicode="&#x644;" horiz-adv-x="657" 
d="M111 -159q-70 57 -70 173q0 62 22 126t67 123l70 -54q-33 -44 -50.5 -92t-17.5 -91q0 -72 48.5 -109.5t131.5 -37.5q64 0 110.5 22t72.5 64q16 159 16 405v307h87v-304q0 -202 -9 -309.5t-30 -153.5q-27 -59 -98.5 -92.5t-164.5 -33.5q-115 0 -185 57z" />
    <glyph glyph-name="uni0645" unicode="&#x645;" horiz-adv-x="575" 
d="M39 -45q0 62 19 92.5t53.5 40t95.5 10.5q47 1 128 1q87 0 119 -2q-18 52 -52 95.5t-75 62.5q-21 -10 -45.5 -42.5t-43.5 -82.5l-80 32q32 85 78.5 132.5t97.5 47.5q43 0 87.5 -33.5t78 -91.5t46.5 -130l-51 -87q-88 3 -188 3q-55 0 -177 -2q2 -76 17.5 -156.5
t50.5 -201.5l-92 -21q-67 219 -67 333z" />
    <glyph glyph-name="uni0646" unicode="&#x646;" horiz-adv-x="637" 
d="M111 -76.5q-71 56.5 -71 172.5q0 63 22 127t67 123l70 -54q-32 -43 -50 -92t-18 -92q0 -70 47.5 -108t128.5 -38q60 0 113 22t83 68q-1 52 -22.5 123.5t-59.5 151.5l81 39q83 -160 83 -270q0 -112 -79 -170.5t-204 -58.5q-120 0 -191 56.5zM264.5 430q-16.5 17 -16.5 42
q0 26 16.5 43t41.5 17t42 -17t17 -43q0 -25 -17 -42t-42 -17t-41.5 17z" />
    <glyph glyph-name="uni0647" unicode="&#x647;" horiz-adv-x="451" 
d="M90.5 37q-42.5 47 -42.5 112q0 47 24 94t64 80q-13 5 -39 13l29 87q137 -35 207 -99.5t70 -156.5q0 -83 -48.5 -130t-134.5 -47q-87 0 -129.5 47zM157 104.5q32 -20.5 71 -20.5q34 0 58.5 16.5t40.5 43.5q-3 83 -111 144q-36 -23 -61.5 -57t-35.5 -70q6 -36 38 -56.5z
" />
    <glyph glyph-name="uni0648" unicode="&#x648;" horiz-adv-x="445" 
d="M298 -2q-132 4 -195.5 39t-63.5 104q0 46 24.5 97.5t66 86t90.5 34.5q50 0 91.5 -37.5t65.5 -98.5t24 -129q0 -123 -82 -204.5t-215 -130.5l-44 79q184 62 238 160zM195 103q50 -8 114 -8h8q-3 36 -15.5 75t-35 66.5t-52.5 27.5q-25 0 -46.5 -18.5t-35 -48t-14.5 -62.5
q27 -24 77 -32z" />
    <glyph glyph-name="uni0649" unicode="&#x649;" horiz-adv-x="689" 
d="M109.5 -94q-75.5 55 -75.5 165q0 63 25 125t65 109l70 -53q-30 -41 -49.5 -86.5t-19.5 -87.5q0 -69 53.5 -99.5t137.5 -30.5q76 0 139.5 22t91.5 62q-10 13 -26 22.5t-54 28.5q-42 19 -69.5 36t-46.5 43.5t-19 62.5q0 50 35 95.5t93 73t121 27.5q54 0 90 -23l-34 -85
q-25 13 -61 13q-52 0 -98.5 -25t-61.5 -63q11 -19 32.5 -33t57.5 -30q38 -18 61.5 -33t40 -38.5t16.5 -57.5q0 -56 -43 -100.5t-115.5 -69.5t-157.5 -25q-123 0 -198.5 55z" />
    <glyph glyph-name="uni064A" unicode="&#x64a;" horiz-adv-x="689" 
d="M109.5 -94q-75.5 55 -75.5 165q0 63 25 125t65 109l70 -53q-30 -41 -49.5 -86.5t-19.5 -87.5q0 -69 53.5 -99.5t137.5 -30.5q76 0 139.5 22t91.5 62q-10 13 -26 22.5t-54 28.5q-42 19 -69.5 36t-46.5 43.5t-19 62.5q0 50 35 95.5t93 73t121 27.5q54 0 90 -23l-34 -85
q-25 13 -61 13q-52 0 -98.5 -25t-61.5 -63q11 -19 32.5 -33t57.5 -30q38 -18 61.5 -33t40 -38.5t16.5 -57.5q0 -56 -43 -100.5t-115.5 -69.5t-157.5 -25q-123 0 -198.5 55zM355.5 -317.5q-16.5 16.5 -16.5 41.5t16.5 42t41.5 17t41.5 -17t16.5 -42t-16.5 -41.5t-41.5 -16.5
t-41.5 16.5zM209.5 -234q16.5 17 41.5 17t41.5 -17t16.5 -42t-16.5 -41.5t-41.5 -16.5t-41.5 16.5t-16.5 41.5t16.5 42z" />
    <glyph glyph-name="uni064B" unicode="&#x64b;" 
d="M45 170l218 45l7 -45l-216 -44zM270 132l9 -44l-217 -44l-7 43z" />
    <glyph glyph-name="uni064C" unicode="&#x64c;" 
d="M117 190q-34 9 -51.5 23.5t-17.5 39.5q0 29 21.5 50.5t47.5 21.5q27 0 43.5 -23.5t16.5 -55.5q0 -51 -44 -90q85 22 119 55q-34 9 -50.5 22.5t-16.5 37.5q0 30 22 51.5t49 21.5t43.5 -23.5t16.5 -55.5q0 -74 -83.5 -112.5t-179.5 -49.5l-8 36q46 17 72 51zM101.5 235.5
q11.5 -6.5 33.5 -12.5q4 16 4 26q0 15 -7 25.5t-19 10.5q-10 0 -19.5 -7.5t-12.5 -23.5q9 -12 20.5 -18.5zM238.5 254.5q11.5 -6.5 35.5 -12.5q4 9 4 23q0 16 -7 27.5t-19 11.5q-10 0 -20 -7.5t-15 -22.5q10 -13 21.5 -19.5z" />
    <glyph glyph-name="uni064D" unicode="&#x64d;" 
d="M45 -37l216 45l9 -43l-216 -45zM269 -76l9 -42l-216 -45l-9 42z" />
    <glyph glyph-name="uni064E" unicode="&#x64e;" 
d="M45 80l216 45l9 -51l-214 -44z" />
    <glyph glyph-name="uni064F" unicode="&#x64f;" 
d="M179 142q-30 9 -52 27.5t-22 46.5q0 30 25.5 55.5t56.5 25.5q30 0 51 -27.5t21 -64.5q0 -63 -58 -100.5t-144 -53.5l-12 45q88 12 134 46zM210 182q4 11 4 25q0 19 -9 30.5t-22 11.5q-11 0 -22 -8.5t-15 -23.5q16 -20 64 -35z" />
    <glyph glyph-name="uni0650" unicode="&#x650;" 
d="M45 -72l216 45l9 -51l-214 -44z" />
    <glyph glyph-name="uni0651" unicode="&#x651;" 
d="M63 49.5q-18 16.5 -18 42.5v62h43v-48q0 -15 6.5 -21t22.5 -6h21q4 13 4 35v40h44v-44q0 -18 6.5 -24t22.5 -6h17q3 14 3 43v31h42v-29q0 -57 -11 -91h-48q-38 0 -52 23q-10 -14 -22.5 -19t-34.5 -5q-28 0 -46 16.5z" />
    <glyph glyph-name="uni0652" unicode="&#x652;" 
d="M65 56.5q-20 21.5 -20 50.5q0 22 13 45.5t39 43.5l-20 13l27 37q106 -67 106 -135q0 -32 -21.5 -54t-63.5 -22q-40 0 -60 21.5zM99 87.5q11 -7.5 28 -7.5q20 0 30 9t10 22q0 26 -37 59q-42 -26 -42 -58q0 -17 11 -24.5z" />
    <glyph glyph-name="uni0653" unicode="&#x653;" 
d="M116 118q23 0 53 -7q34 -6 49 -6q29 0 49 16l16 -49q-28 -21 -67 -21q-17 0 -53 6l-21 3t-25 2q-37 0 -57 -23l-15 51q29 28 71 28z" />
    <glyph glyph-name="uni0654" unicode="&#x654;" 
d="M45 404l57 6q-9 11 -14.5 26.5t-5.5 31.5q0 32 20 50t54 18q33 0 71 -16l-18 -48q-25 11 -45 11q-17 0 -30 -8q-1 -31 14 -45.5t43 -12.5l54 4l4 -47l-199 -18z" />
    <glyph glyph-name="uni0655" unicode="&#x655;" 
d="M45 -199l58 5q-10 10 -15.5 26t-5.5 33q0 32 20 50t54 18t71 -17l-18 -47q-25 11 -45 11q-17 0 -30 -8q-1 -31 14 -46t43 -13l54 5l4 -48l-199 -18z" />
    <glyph glyph-name="uni0656" unicode="&#x656;" 
d="M45 -35l53 8q11 -57 19 -166l-53 -6q-3 86 -19 164z" />
    <glyph glyph-name="uni0660" unicode="&#x660;" horiz-adv-x="286" 
d="M46 277l96 99l98 -99l-98 -97z" />
    <glyph glyph-name="uni0661" unicode="&#x661;" horiz-adv-x="324" 
d="M129.5 299.5q-34.5 167.5 -87.5 299.5l85 34q54 -126 89.5 -305t36.5 -322l-88 -14q-1 140 -35.5 307.5z" />
    <glyph glyph-name="uni0662" unicode="&#x662;" horiz-adv-x="467" 
d="M163 195.5q-27 83.5 -69 177.5q-24 51 -34 79t-10 54q0 59 63.5 88t152.5 29q50 0 95.5 -9t71.5 -25l-22 -88q-24 11 -63.5 17.5t-81.5 6.5q-87 0 -130 -23q59 -97 101 -233.5t51 -261.5l-87 -15q-11 120 -38 203.5z" />
    <glyph glyph-name="uni0663" unicode="&#x663;" horiz-adv-x="617" 
d="M131 280.5q-31 135.5 -95 313.5l82 31q21 -68 38 -102t36.5 -47t48.5 -13q32 0 46 23t14 69v68h83q0 -89 14.5 -123.5t48.5 -35.5q20 0 35 4q5 37 5 77q0 18 -2 78h87q1 -91 -11 -144.5t-38 -78t-71 -24.5q-33 0 -57 13t-45 43q-18 -28 -46 -42.5t-59 -14.5q-26 0 -50 11
q51 -177 70 -379l-88 -15q-15 153 -46 288.5z" />
    <glyph glyph-name="uni0664" unicode="&#x664;" horiz-adv-x="422" 
d="M140 478q11 -11 31 -24.5t26 -17.5q49 -33 75 -57.5t26 -54.5q0 -27 -21 -50t-66 -58q-33 -25 -53.5 -43.5t-35.5 -39.5q31 -26 84 -38.5t108 -12.5q37 0 60 4v-92q-38 -5 -80 -5q-100 0 -172.5 32t-72.5 106q0 47 36 91.5t121 105.5q-59 36 -88 57.5t-43 41t-14 44.5
q0 45 39 83.5t100.5 59.5t123.5 17l-8 -86q-118 2 -176 -63z" />
    <glyph glyph-name="uni0665" unicode="&#x665;" horiz-adv-x="559" 
d="M111 79q-57 57 -57 167q0 90 35.5 169.5t91 126.5t110.5 47t104.5 -47t79.5 -122.5t30 -154.5q0 -107 -58.5 -175t-174.5 -68q-104 0 -161 57zM175.5 151q43.5 -33 108.5 -33q42 0 71.5 13.5t56.5 40.5q11 23 11 69q0 54 -16.5 111.5t-47.5 96.5t-72 39q-38 0 -74 -34.5
t-58.5 -88.5t-22.5 -108q0 -73 43.5 -106z" />
    <glyph glyph-name="uni0666" unicode="&#x666;" horiz-adv-x="530" 
d="M333.5 222.5q-26.5 145.5 -37.5 291.5q-60 -4 -87 -4q-103 0 -185 22l19 91q84 -21 176 -21q84 0 157 19q4 -153 33.5 -315.5t69.5 -277.5l-88 -36q-31 85 -57.5 230.5z" />
    <glyph glyph-name="uni0667" unicode="&#x667;" horiz-adv-x="600" 
d="M156.5 310.5q-61.5 150.5 -134.5 266.5l82 49q46 -68 101 -192.5t101 -263.5q33 115 84 235t106 216l82 -45q-76 -132 -136.5 -284t-86.5 -293h-94q-43 161 -104.5 311.5z" />
    <glyph glyph-name="uni0668" unicode="&#x668;" horiz-adv-x="605" 
d="M309 452q-30 -102 -80 -211t-126 -239l-81 43q72 122 144.5 286t93.5 293h93q31 -125 99 -295t131 -279l-82 -49q-115 211 -192 451z" />
    <glyph glyph-name="uni0669" unicode="&#x669;" horiz-adv-x="515" 
d="M313 287q-21 -8 -49 -12.5t-53 -4.5q-47 0 -87 17t-64 49t-24 75q0 52 22.5 101.5t61.5 81t87 31.5q54 0 87.5 -31.5t54.5 -93.5t41 -171q30 -159 72 -315l-84 -22q-36 132 -65 295zM156 375.5q30 -12.5 61 -12.5q33 0 77 14q-16 85 -37 117.5t-54 32.5q-39 0 -65 -36
t-27 -85q15 -18 45 -30.5z" />
    <glyph glyph-name="uni066A" unicode="&#x66a;" horiz-adv-x="679" 
d="M459 630h93l-330 -630h-90zM142 554l98 -99l-98 -97l-96 97zM535 254l98 -99l-98 -97l-96 97z" />
    <glyph glyph-name="uni066B" unicode="&#x66b;" horiz-adv-x="195" 
d="M73 5q0 14 -4 23t-13 22q-9 12 -13 21t-4 22q0 23 14 38t37 15q30 0 48 -23.5t18 -68.5q0 -91 -81 -158l-36 31q34 41 34 78z" />
    <glyph glyph-name="uni066C" unicode="&#x66c;" horiz-adv-x="215" 
d="M73 87.5q21 56.5 61 56.5q20 0 31 -12t11 -33q0 -33 -29.5 -89t-73.5 -116l-40 15q19 122 40 178.5z" />
    <glyph glyph-name="uni066D" unicode="&#x66d;" horiz-adv-x="466" 
d="M232 472l-82 -120l-58 41l90 116l-140 42l21 67l138 -49l-4 145h72l-5 -145l139 50l21 -68l-140 -42l89 -116l-58 -42z" />
    <glyph glyph-name="uni066E" unicode="&#x66e;" horiz-adv-x="863" 
d="M114 48.5q-54 48.5 -54 138.5q0 100 76 212l74 -49q-31 -47 -44.5 -83t-13.5 -69q0 -103 117 -103h432q5 54 5 130v137h89v-131q0 -128 -13 -231h-518q-96 0 -150 48.5z" />
    <glyph glyph-name="uni066F" unicode="&#x66f;" horiz-adv-x="707" 
d="M192.5 -171q-69.5 26 -111 81.5t-41.5 139.5q0 59 22 121.5t66 121.5l71 -54q-33 -43 -50.5 -92.5t-17.5 -90.5q0 -79 62 -117.5t160 -38.5q70 0 125.5 18.5t85.5 49.5q7 23 10 59q-113 3 -194.5 37t-81.5 108q0 41 24.5 92.5t66.5 88t93 36.5q57 0 97.5 -45t61.5 -114.5
t21 -139.5q0 -145 -87.5 -216t-227.5 -71q-85 0 -154.5 26zM460.5 132q48.5 -11 114.5 -14q-6 76 -31 126.5t-69 50.5q-23 0 -45.5 -18t-37 -47t-15.5 -60q35 -27 83.5 -38z" />
    <glyph glyph-name="uni0670" unicode="&#x670;" 
d="M-42 214l53 7q11 -57 19 -166l-53 -6q-3 87 -19 165z" />
    <glyph glyph-name="uni0671" unicode="&#x671;" horiz-adv-x="230" 
d="M71 677h88v-677h-88v677zM4 797q17 9 37 9q11 0 27 -4q22 34 46 52.5t53 18.5q28 0 46.5 -19t18.5 -46q0 -31 -24.5 -50.5t-67.5 -19.5q-19 0 -31 3.5t-32 10.5q-9 4 -18.5 7t-18.5 3q-11 0 -21 -5t-23 -18l-25 30q16 19 33 28zM142 782q35 0 53 12q-2 14 -10 23t-24 9
q-32 0 -61 -37q19 -7 42 -7z" />
    <glyph glyph-name="uni06A1" unicode="&#x6a1;" horiz-adv-x="988" 
d="M114 48.5q-54 48.5 -54 138.5q0 100 76 212l74 -49q-31 -47 -44.5 -83t-13.5 -69q0 -103 117 -103h345q-65 44 -65 105q0 42 27 92.5t70.5 85.5t92.5 35q54 0 98 -44t69 -112t25 -137q0 -63 -21 -120h-646q-96 0 -150 48.5zM716 130q58 -29 122 -36q3 15 3 32
q0 42 -15.5 87.5t-39 75.5t-47.5 30q-18 0 -42 -17.5t-42.5 -46.5t-22.5 -61q26 -35 84 -64z" />
    <glyph glyph-name="uni06A4" unicode="&#x6a4;" horiz-adv-x="988" 
d="M114 48.5q-54 48.5 -54 138.5q0 100 76 212l74 -49q-31 -47 -44.5 -83t-13.5 -69q0 -103 117 -103h345q-65 44 -65 105q0 42 27 92.5t70.5 85.5t92.5 35q54 0 98 -44t69 -112t25 -137q0 -63 -21 -120h-646q-96 0 -150 48.5zM716 130q58 -29 122 -36q3 15 3 32
q0 42 -15.5 87.5t-39 75.5t-47.5 30q-18 0 -42 -17.5t-42.5 -46.5t-22.5 -61q26 -35 84 -64zM625 511q-15 15 -15 37q0 23 15 38t37 15t37 -15t15 -38q0 -22 -14.5 -37t-37.5 -15q-22 0 -37 15zM698 701q15 15 37 15t36.5 -15t14.5 -38q0 -22 -14.5 -37t-36.5 -15t-37 15
t-15 37q0 23 15 38zM770 586q15 15 37 15t37 -15t15 -38q0 -22 -14.5 -37t-37.5 -15q-22 0 -37 15t-15 37q0 23 15 38z" />
    <glyph glyph-name="uni06BA" unicode="&#x6ba;" horiz-adv-x="637" 
d="M111 -76.5q-71 56.5 -71 172.5q0 63 22 127t67 123l70 -54q-32 -43 -50 -92t-18 -92q0 -70 47.5 -108t128.5 -38q60 0 113 22t83 68q-1 52 -22.5 123.5t-59.5 151.5l81 39q83 -160 83 -270q0 -112 -79 -170.5t-204 -58.5q-120 0 -191 56.5z" />
    <glyph glyph-name="Wgrave" unicode="&#x1e80;" horiz-adv-x="916" 
d="M17 630h101l142 -498l146 498h104l145 -498l144 498h100l-187 -630h-112l-142 483l-142 -483h-114zM328 820h102l77 -136h-81z" />
    <glyph glyph-name="wgrave" unicode="&#x1e81;" horiz-adv-x="687" 
d="M7 380h102l94 -282l94 282h95l94 -282l94 282h100l-145 -380h-100l-92 271l-92 -271h-99zM215 598h102l77 -136h-81z" />
    <glyph glyph-name="Wacute" unicode="&#x1e82;" horiz-adv-x="916" 
d="M17 630h101l142 -498l146 498h104l145 -498l144 498h100l-187 -630h-112l-142 483l-142 -483h-114zM495 820h105l-100 -136h-84z" />
    <glyph glyph-name="wacute" unicode="&#x1e83;" horiz-adv-x="687" 
d="M7 380h102l94 -282l94 282h95l94 -282l94 282h100l-145 -380h-100l-92 271l-92 -271h-99zM371 598h105l-100 -136h-84z" />
    <glyph glyph-name="Wdieresis" unicode="&#x1e84;" horiz-adv-x="916" 
d="M17 630h101l142 -498l146 498h104l145 -498l144 498h100l-187 -630h-112l-142 483l-142 -483h-114zM331 711.5q-17 17.5 -17 41.5t17.5 41t41.5 17q25 0 42.5 -17.5t17.5 -40.5q0 -24 -17.5 -41.5t-42.5 -17.5t-42 17.5zM502.5 794q17.5 17 41.5 17q25 0 42 -17t17 -41
t-17 -41.5t-42 -17.5t-42 17.5t-17 41.5t17.5 41z" />
    <glyph glyph-name="wdieresis" unicode="&#x1e85;" horiz-adv-x="687" 
d="M7 380h102l94 -282l94 282h95l94 -282l94 282h100l-145 -380h-100l-92 271l-92 -271h-99zM218 489.5q-17 17.5 -17 41.5q0 25 17 42t42 17t42 -17t17 -42q0 -24 -17 -41.5t-42 -17.5t-42 17.5zM386.5 573q17.5 17 42.5 17t42 -17t17 -42q0 -24 -17 -41.5t-42 -17.5
t-42.5 17.5t-17.5 41.5q0 25 17.5 42z" />
    <glyph glyph-name="uni1E9E" unicode="&#x1e9e;" horiz-adv-x="637" 
d="M306 -0.5q-41 11.5 -81 40.5l25 81q29 -24 70.5 -36t75.5 -12q26 0 52 6.5t42 19.5q14 26 14 68q0 61 -34 88t-111 27h-86v74l160 187h-266v-543h-101v630h498v-75l-169 -190q110 -5 159.5 -45.5t49.5 -132.5q0 -199 -210 -199q-47 0 -88 11.5z" />
    <glyph glyph-name="uni1EBC" unicode="&#x1ebc;" horiz-adv-x="502" 
d="M66 630h399v-86h-298v-191h260v-86h-260v-181h299v-86h-400v630zM287.5 685.5q-15.5 8.5 -38.5 25.5q-2 2 -10.5 8.5t-14.5 9.5t-12 3q-14 0 -21 -12.5t-7 -35.5h-64q0 55 23 84t65 29q21 0 38 -9t36 -25q14 -11 22 -16t16 -5q14 0 21 12.5t7 35.5h64q0 -54 -23 -83.5
t-65 -29.5q-21 0 -36.5 8.5z" />
    <glyph glyph-name="uni1EBD" unicode="&#x1ebd;" horiz-adv-x="429" 
d="M82.5 36.5q-54.5 49.5 -54.5 146.5q0 93 51.5 151t140.5 58q93 0 137 -54t44 -143q0 -12 -2 -38h-278q1 -40 32.5 -65.5t87.5 -25.5q61 0 113 31l20 -73q-58 -37 -144 -37q-93 0 -147.5 49.5zM311 229q-3 41 -27.5 63t-64.5 22q-51 0 -80 -29q-17 -30 -18 -56h190z
M240.5 461.5q-15.5 8.5 -38.5 25.5q-2 2 -10.5 8.5t-14.5 9.5t-12 3q-14 0 -21 -12.5t-7 -35.5h-64q0 55 23 84t65 29q21 0 38 -9t36 -25q14 -11 22 -16t16 -5q13 0 20.5 12.5t7.5 35.5h64q0 -54 -23 -83.5t-65 -29.5q-21 0 -36.5 8.5z" />
    <glyph glyph-name="Ygrave" unicode="&#x1ef2;" horiz-adv-x="639" 
d="M269 221l-252 409h114l189 -316l189 316h113l-252 -409v-221h-101v221zM189 820h102l77 -136h-81z" />
    <glyph glyph-name="ygrave" unicode="&#x1ef3;" horiz-adv-x="454" 
d="M51 -165l24 83q56 -37 122 -37q27 0 49 6t36 17q14 21 18.5 49.5t5.5 94.5q-44 -47 -115 -47t-107.5 42.5t-36.5 117.5v219h95v-209q0 -46 20 -69t52 -23q25 0 50 12t42 28v261h95v-370q0 -123 -64 -167t-142 -44q-80 0 -144 36zM99 598h102l77 -136h-81z" />
    <glyph glyph-name="uni1EF8" unicode="&#x1ef8;" horiz-adv-x="639" 
d="M269 221l-252 409h114l189 -316l189 316h113l-252 -409v-221h-101v221zM341.5 685.5q-15.5 8.5 -38.5 25.5q-2 2 -10.5 8.5t-14.5 9.5t-12 3q-14 0 -21 -12.5t-7 -35.5h-64q0 55 23 84t65 29q21 0 38 -9t36 -25q14 -11 22 -16t16 -5q14 0 21 12.5t7 35.5h64
q0 -54 -23 -83.5t-65 -29.5q-21 0 -36.5 8.5z" />
    <glyph glyph-name="uni1EF9" unicode="&#x1ef9;" horiz-adv-x="454" 
d="M51 -165l24 83q56 -37 122 -37q27 0 49 6t36 17q14 21 18.5 49.5t5.5 94.5q-44 -47 -115 -47t-107.5 42.5t-36.5 117.5v219h95v-209q0 -46 20 -69t52 -23q25 0 50 12t42 28v261h95v-370q0 -123 -64 -167t-142 -44q-80 0 -144 36zM249.5 461.5q-15.5 8.5 -38.5 25.5
q-2 2 -10.5 8.5t-14.5 9.5t-12 3q-14 0 -21 -12.5t-7 -35.5h-64q0 55 23 84t65 29q21 0 38 -9t36 -25q14 -11 22 -16t16 -5q13 0 20.5 12.5t7.5 35.5h64q0 -54 -23 -83.5t-65 -29.5q-21 0 -36.5 8.5z" />
    <glyph glyph-name="uni2000" unicode="&#x2000;" horiz-adv-x="500" 
 />
    <glyph glyph-name="uni2001" unicode="&#x2001;" horiz-adv-x="1000" 
 />
    <glyph glyph-name="uni2002" unicode="&#x2002;" horiz-adv-x="500" 
 />
    <glyph glyph-name="uni2003" unicode="&#x2003;" horiz-adv-x="1000" 
 />
    <glyph glyph-name="uni2004" unicode="&#x2004;" horiz-adv-x="333" 
 />
    <glyph glyph-name="uni2005" unicode="&#x2005;" horiz-adv-x="250" 
 />
    <glyph glyph-name="uni2006" unicode="&#x2006;" horiz-adv-x="166" 
 />
    <glyph glyph-name="uni2007" unicode="&#x2007;" horiz-adv-x="538" 
 />
    <glyph glyph-name="uni2008" unicode="&#x2008;" horiz-adv-x="208" 
 />
    <glyph glyph-name="uni2009" unicode="&#x2009;" horiz-adv-x="125" 
 />
    <glyph glyph-name="uni200A" unicode="&#x200a;" horiz-adv-x="70" 
 />
    <glyph glyph-name="uni200B" unicode="&#x200b;" 
 />
    <glyph glyph-name="endash" unicode="&#x2013;" horiz-adv-x="540" 
d="M50 301h440v-79h-440v79z" />
    <glyph glyph-name="emdash" unicode="&#x2014;" horiz-adv-x="980" 
d="M50 301h880v-79h-880v79z" />
    <glyph glyph-name="quoteleft" unicode="&#x2018;" horiz-adv-x="176" 
d="M92 569q0 -12 5.5 -18.5t17.5 -15.5q14 -9 22 -19.5t8 -30.5q0 -25 -15 -40t-40 -15q-30 0 -44.5 21.5t-14.5 60.5q0 44 17.5 82t51.5 66l29 -27q-37 -36 -37 -64z" />
    <glyph glyph-name="quoteright" unicode="&#x2019;" horiz-adv-x="176" 
d="M84 523q0 12 -5.5 18.5t-17.5 15.5q-14 9 -22 19.5t-8 30.5q0 25 15 40t40 15q30 0 44.5 -21.5t14.5 -60.5q0 -44 -17.5 -82t-51.5 -66l-29 27q37 36 37 64z" />
    <glyph glyph-name="quotesinglbase" unicode="&#x201a;" horiz-adv-x="176" 
d="M84 -38q0 12 -6 19t-17 15q-15 10 -22.5 20t-7.5 30q0 25 15 40t40 15q30 0 44.5 -21.5t14.5 -60.5q0 -88 -69 -148l-29 27q37 37 37 64z" />
    <glyph glyph-name="quotedblleft" unicode="&#x201c;" horiz-adv-x="317" 
d="M92 569q0 -12 5.5 -18.5t17.5 -15.5q14 -9 22 -19.5t8 -30.5q0 -25 -15 -40t-40 -15q-30 0 -44.5 21.5t-14.5 60.5q0 44 17.5 82t51.5 66l29 -27q-37 -36 -37 -64zM233 569q0 -12 5.5 -18.5t17.5 -15.5q14 -9 22 -19.5t8 -30.5q0 -25 -15 -40t-40 -15q-30 0 -44.5 21.5
t-14.5 60.5q0 44 17.5 82t51.5 66l29 -27q-37 -36 -37 -64z" />
    <glyph glyph-name="quotedblright" unicode="&#x201d;" horiz-adv-x="317" 
d="M84 523q0 12 -5.5 18.5t-17.5 15.5q-14 9 -22 19.5t-8 30.5q0 25 15 40t40 15q30 0 44.5 -21.5t14.5 -60.5q0 -44 -17.5 -82t-51.5 -66l-29 27q37 36 37 64zM225 523q0 12 -5.5 18.5t-17.5 15.5q-14 9 -22 19.5t-8 30.5q0 25 15 40t40 15q30 0 44.5 -21.5t14.5 -60.5
q0 -44 -17.5 -82t-51.5 -66l-29 27q37 36 37 64z" />
    <glyph glyph-name="quotedblbase" unicode="&#x201e;" horiz-adv-x="317" 
d="M84 -38q0 12 -6 19t-17 15q-15 10 -22.5 20t-7.5 30q0 25 15 40t40 15q30 0 44.5 -21.5t14.5 -60.5q0 -88 -69 -148l-29 27q37 37 37 64zM225 -38q0 12 -6 19t-17 15q-15 10 -22.5 20t-7.5 30q0 25 15 40t40 15q30 0 44.5 -21.5t14.5 -60.5q0 -88 -69 -148l-29 27
q37 37 37 64z" />
    <glyph glyph-name="dagger" unicode="&#x2020;" horiz-adv-x="445" 
d="M172 372h-132v86h132v172h101v-172h132v-86h-132v-472h-101v472z" />
    <glyph glyph-name="daggerdbl" unicode="&#x2021;" horiz-adv-x="445" 
d="M172 72h-132v86h132v214h-132v86h132v172h101v-172h132v-86h-132v-214h132v-86h-132v-172h-101v172z" />
    <glyph glyph-name="bullet" unicode="&#x2022;" horiz-adv-x="272" 
d="M65.5 224.5q-27.5 27.5 -27.5 70.5t27.5 70.5t70.5 27.5t70.5 -27.5t27.5 -70.5t-27.5 -70.5t-70.5 -27.5t-70.5 27.5z" />
    <glyph glyph-name="ellipsis" unicode="&#x2026;" horiz-adv-x="611" 
d="M82 7q-17 17 -17 42t17 42.5t42 17.5t42 -18t17 -42q0 -25 -17 -42t-42 -17t-42 17zM263 7q-17 17 -17 42t17 42.5t42 17.5t42 -18t17 -42q0 -25 -17 -42t-42 -17t-42 17zM445 7q-17 17 -17 42t17 42.5t42 17.5t42 -18t17 -42q0 -25 -17 -42t-42 -17t-42 17z" />
    <glyph glyph-name="uni202F" unicode="&#x202f;" horiz-adv-x="38" 
 />
    <glyph glyph-name="perthousand" unicode="&#x2030;" horiz-adv-x="926" 
d="M57.5 401q-37.5 35 -37.5 103q0 64 39 100.5t97 36.5q62 0 99.5 -34.5t37.5 -102.5q0 -65 -39.5 -101.5t-97.5 -36.5q-61 0 -98.5 35zM108 449.5q18 -18.5 48 -18.5q37 0 55 17q12 22 12 56q0 35 -19 54t-48 19q-34 0 -52 -15q-14 -20 -14 -58q0 -36 18 -54.5zM441 630
h87l-337 -630h-86zM380 229.5q39 36.5 97 36.5q62 0 99.5 -34.5t37.5 -102.5q0 -65 -39.5 -101.5t-97.5 -36.5q-61 0 -98.5 35t-37.5 103q0 64 39 100.5zM429 74.5q18 -18.5 48 -18.5q37 0 55 17q12 22 12 56q0 35 -19 54t-48 19q-34 0 -52 -15q-14 -20 -14 -58
q0 -36 18 -54.5zM673 229.5q39 36.5 97 36.5q62 0 99.5 -34.5t37.5 -102.5q0 -65 -39.5 -101.5t-97.5 -36.5q-61 0 -98.5 35t-37.5 103q0 64 39 100.5zM722 74.5q18 -18.5 48 -18.5q37 0 55 17q12 22 12 56q0 35 -19 54t-48 19q-34 0 -52 -15q-14 -20 -14 -58
q0 -36 18 -54.5z" />
    <glyph glyph-name="guilsinglleft" unicode="&#x2039;" horiz-adv-x="273" 
d="M30 250l104 132h100l-104 -132l104 -132h-100z" />
    <glyph glyph-name="guilsinglright" unicode="&#x203a;" horiz-adv-x="273" 
d="M39 118l104 132l-104 132h100l104 -132l-104 -132h-100z" />
    <glyph glyph-name="fraction" unicode="&#x2044;" horiz-adv-x="115" 
d="M182 630h87l-337 -630h-86z" />
    <glyph glyph-name="uni205F" unicode="&#x205f;" horiz-adv-x="222" 
 />
    <glyph glyph-name="Euro" unicode="&#x20ac;" horiz-adv-x="593" 
d="M119 214h-79v69h73q-1 9 -1 27q0 24 1 36h-73v69h80q18 101 79 164t181 63q85 0 157 -30l-17 -79q-28 12 -67.5 20t-76.5 8q-72 0 -119 -37q-33 -47 -44 -109h275l-14 -69h-269q-1 -11 -1 -32q0 -20 1 -31h257l-14 -69h-235q30 -144 168 -144q40 0 84 9.5t67 20.5l11 -80
q-70 -31 -161 -31q-225 0 -263 225z" />
    <glyph glyph-name="uni2116" unicode="&#x2116;" horiz-adv-x="1011" 
d="M66 630h143l267 -511v511h97v-630h-141l-268 512v-512h-98v630zM705 403q-37 36 -37 100q0 61 39 99t104 38q68 0 105 -36.5t37 -100.5q0 -61 -38.5 -98.5t-104.5 -37.5q-68 0 -105 36zM760 451q17 -21 51 -21q16 0 31.5 4.5t23.5 12.5q13 19 13 55q0 33 -17.5 54
t-51.5 21q-37 0 -52 -16q-7 -10 -11 -26.5t-4 -30.5q0 -32 17 -53z" />
    <glyph glyph-name="trademark" unicode="&#x2122;" horiz-adv-x="795" 
d="M386 630h96l86 -208l82 208h95v-290h-62v226l-91 -226h-50l-95 227v-227h-61v290zM50 630h271v-52h-103v-238h-64v238h-104v52z" />
    <glyph glyph-name="estimated" unicode="&#x212e;" horiz-adv-x="781" 
d="M209 39.5q-80 39.5 -124.5 112t-44.5 168.5q0 94 45 167t124.5 113t181.5 40q157 0 250 -85.5t100 -243.5h-557q-8 0 -11 -3t-3 -14v-156q0 -18 29.5 -45.5t80 -47.5t111.5 -20q63 0 122.5 28.5t98.5 73.5h65q-62 -70 -125.5 -98.5t-160.5 -28.5q-102 0 -182 39.5z
M184 331h411q10 0 12.5 3t2.5 12v153q0 25 -34.5 53t-86 47t-99.5 19q-58 0 -108.5 -21t-81 -48t-30.5 -43v-167q0 -8 14 -8z" />
    <glyph glyph-name="partialdiff" unicode="&#x2202;" horiz-adv-x="530" 
d="M106.5 40.5q-56.5 53.5 -56.5 158.5q0 104 56 161t147 57q79 0 122 -48q-16 89 -74 139.5t-164 50.5l32 84q139 -6 208 -70t86 -130t17 -116q0 -180 -62 -260t-166 -80q-89 0 -145.5 53.5zM175 107q27 -37 82 -37q57 0 91 45t34 140v31q-21 20 -52 33.5t-68 13.5
q-57 0 -85.5 -34.5t-28.5 -95.5q0 -59 27 -96z" />
    <glyph glyph-name="uni2206" unicode="&#x2206;" horiz-adv-x="702" 
d="M290 630h122l240 -630h-602zM518 79l-167 452l-168 -452h335z" />
    <glyph glyph-name="product" unicode="&#x220f;" horiz-adv-x="605" 
d="M398 544h-191v-644h-97v644h-60v86h505v-86h-60v-644h-97v644z" />
    <glyph glyph-name="summation" unicode="&#x2211;" horiz-adv-x="551" 
d="M50 -26l252 291l-252 291v74h451v-86h-316l213 -247v-64l-213 -247h316v-86h-451v74z" />
    <glyph glyph-name="minus" unicode="&#x2212;" horiz-adv-x="557" 
d="M56 356h445v-80h-445v80z" />
    <glyph glyph-name="radical" unicode="&#x221a;" horiz-adv-x="624" 
d="M50 270h99l99 -270l179 630h147v-86h-75l-193 -644h-113z" />
    <glyph glyph-name="infinity" unicode="&#x221e;" horiz-adv-x="641" 
d="M67 202q-37 38 -37 105q0 65 39.5 105.5t107.5 40.5q56 0 90.5 -20.5t57.5 -57.5q28 39 64.5 58t76.5 19q70 0 107.5 -38t37.5 -106q0 -65 -39.5 -104.5t-108.5 -39.5q-58 0 -92 20t-55 56q-61 -76 -142 -76q-70 0 -107 38zM120.5 252.5q19.5 -22.5 57.5 -22.5t64 16.5
t45 52.5q-21 44 -44 66t-68 22q-38 0 -58 -11q-16 -21 -16 -67q0 -34 19.5 -56.5zM399 252q23 -22 66 -22q18 0 34.5 3t25.5 9q15 20 15 65q0 35 -20 57.5t-57 22.5q-74 0 -108 -70q21 -43 44 -65z" />
    <glyph glyph-name="integral" unicode="&#x222b;" horiz-adv-x="440" 
d="M50 -104v81q27 -7 55 -7q36 0 53 17q16 30 16 90v378q0 87 35.5 137t115.5 50q36 0 65 -8v-81q-27 7 -55 7q-36 0 -53 -17q-16 -30 -16 -90v-378q0 -87 -35.5 -137t-115.5 -50q-35 0 -65 8z" />
    <glyph glyph-name="approxequal" unicode="&#x2248;" horiz-adv-x="557" 
d="M315 348.5q-28 14.5 -63 41.5q-23 20 -40 29.5t-36 9.5q-30 0 -44.5 -24.5t-14.5 -63.5h-73q0 77 34.5 117t96.5 40q40 0 68.5 -14.5t61.5 -41.5q23 -20 40 -29.5t37 -9.5q57 0 57 88h73q0 -77 -33.5 -117t-95.5 -40q-40 0 -68 14.5zM78.5 258q34.5 40 96.5 40
q40 0 68.5 -14.5t61.5 -41.5q23 -20 40 -29.5t37 -9.5q57 0 57 88h73q0 -77 -33.5 -117t-95.5 -40q-40 0 -68 14.5t-63 41.5q-23 20 -40 29.5t-36 9.5q-30 0 -44.5 -24.5t-14.5 -63.5h-73q0 77 34.5 117z" />
    <glyph glyph-name="notequal" unicode="&#x2260;" horiz-adv-x="557" 
d="M66 460h220l29 90h82l-29 -90h123v-78h-148l-41 -130h189v-78h-214l-29 -91h-81l29 91h-130v78h155l41 130h-196v78z" />
    <glyph glyph-name="lessequal" unicode="&#x2264;" horiz-adv-x="557" 
d="M56 320v88l445 157v-93l-333 -108l333 -107v-93zM56 112h445v-80h-445v80z" />
    <glyph glyph-name="greaterequal" unicode="&#x2265;" horiz-adv-x="557" 
d="M56 257l333 107l-333 108v93l445 -157v-88l-445 -156v93zM56 112h445v-80h-445v80z" />
    <glyph glyph-name="lozenge" unicode="&#x25ca;" horiz-adv-x="460" 
d="M95 134l134 136l136 -136l-136 -134z" />
    <glyph glyph-name="uniA78B" unicode="&#xa78b;" horiz-adv-x="209" 
d="M56 630h97l-12 -430h-85v430z" />
    <glyph glyph-name="uniA78C" unicode="&#xa78c;" horiz-adv-x="201" 
d="M53 598h95l-10 -398h-85v398z" />
    <glyph glyph-name="uniF8FF" unicode="&#xf8ff;" horiz-adv-x="460" 
d="M95 134l134 136l136 -136l-136 -134z" />
    <glyph glyph-name="uniFD3E" unicode="&#xfd3e;" horiz-adv-x="362" 
d="M104 -18q-48 118 -48 268t48 268t151 214l59 -54q-80 -73 -126 -179.5t-46 -248.5q0 -269 172 -427l-59 -55q-103 96 -151 214z" />
    <glyph glyph-name="uniFD3F" unicode="&#xfd3f;" horiz-adv-x="362" 
d="M220 250q0 142 -46 248.5t-126 179.5l59 54q103 -96 151 -214t48 -268t-48 -268t-151 -214l-59 55q172 158 172 427z" />
    <glyph glyph-name="uni066E.medi.wide" horiz-adv-x="371" 
d="M0 0l-18 48l18 47h121q11 47 11 172v95h90v-174q0 -52 19.5 -72.5t63.5 -20.5h66v-95h-87q-68 0 -102 49q-12 -26 -32 -49h-150z" />
    <glyph glyph-name="uni066E.init.wide" horiz-adv-x="327" 
d="M0 0l-18 48l18 47h164q7 50 7 134v133h88v-121q0 -71 -3 -126.5t-12 -114.5h-244z" />
    <glyph glyph-name="uni066E.init.wide.shifted" horiz-adv-x="362" 
d="M0 0l-18 48l18 47h199q7 50 7 134v133h88v-121q0 -71 -3 -126.5t-12 -114.5h-279z" />
    <glyph glyph-name="uni0628.medi.wide" horiz-adv-x="371" 
d="M0 0l-18 48l18 47h121q11 47 11 172v95h90v-174q0 -52 19.5 -72.5t63.5 -20.5h66v-95h-87q-68 0 -102 49q-12 -26 -32 -49h-150zM131.5 -185q-16.5 17 -16.5 42q0 26 16.5 43t41.5 17t42 -17t17 -43q0 -25 -17 -42t-42 -17t-41.5 17z" />
    <glyph glyph-name="uni0628.init.wide" horiz-adv-x="327" 
d="M0 0l-18 48l18 47h164q7 50 7 134v133h88v-121q0 -71 -3 -126.5t-12 -114.5h-244zM113.5 -185q-16.5 17 -16.5 42q0 26 16.5 43t41.5 17t42 -17t17 -43q0 -25 -17 -42t-42 -17t-41.5 17z" />
    <glyph glyph-name="uni062A.medi.wide" horiz-adv-x="371" 
d="M0 0l-18 48l18 47h121q11 47 11 172v95h90v-174q0 -52 19.5 -72.5t63.5 -20.5h66v-95h-87q-68 0 -102 49q-12 -26 -32 -49h-150zM204.5 480.5q-16.5 16.5 -16.5 41.5q0 26 16.5 43t41.5 17t41.5 -17t16.5 -43q0 -25 -16.5 -41.5t-41.5 -16.5t-41.5 16.5zM58.5 565
q16.5 17 41.5 17t41.5 -17t16.5 -43q0 -25 -16.5 -41.5t-41.5 -16.5t-41.5 16.5t-16.5 41.5q0 26 16.5 43z" />
    <glyph glyph-name="uni062A.init.wide" horiz-adv-x="327" 
d="M0 0l-18 48l18 47h164q7 50 7 134v133h88v-121q0 -71 -3 -126.5t-12 -114.5h-244zM207.5 511.5q-16.5 16.5 -16.5 41.5q0 26 16.5 43t41.5 17t41.5 -17t16.5 -43q0 -25 -16.5 -41.5t-41.5 -16.5t-41.5 16.5zM61.5 596q16.5 17 41.5 17t41.5 -17t16.5 -43
q0 -25 -16.5 -41.5t-41.5 -16.5t-41.5 16.5t-16.5 41.5q0 26 16.5 43z" />
    <glyph glyph-name="uni062B.medi.wide" horiz-adv-x="371" 
d="M0 0l-18 48l18 47h121q11 47 11 172v95h90v-174q0 -52 19.5 -72.5t63.5 -20.5h66v-95h-87q-68 0 -102 49q-12 -26 -32 -49h-150zM64 477q-15 15 -15 37q0 23 15 38t37 15t37 -15t15 -38q0 -22 -14.5 -37t-37.5 -15q-22 0 -37 15zM137 667q15 15 37 15t36.5 -15t14.5 -38
q0 -22 -14.5 -37t-36.5 -15t-37 15t-15 37q0 23 15 38zM209 552q15 15 37 15t37 -15t15 -38q0 -22 -14.5 -37t-37.5 -15q-22 0 -37 15t-15 37q0 23 15 38z" />
    <glyph glyph-name="uni062B.init.wide" horiz-adv-x="327" 
d="M0 0l-18 48l18 47h164q7 50 7 134v133h88v-121q0 -71 -3 -126.5t-12 -114.5h-244zM67 508q-15 15 -15 37q0 23 15 38t37 15t37 -15t15 -38q0 -22 -14.5 -37t-37.5 -15q-22 0 -37 15zM140 698q15 15 37 15t36.5 -15t14.5 -38q0 -22 -14.5 -37t-36.5 -15t-37 15t-15 37
q0 23 15 38zM212 583q15 15 37 15t37 -15t15 -38q0 -22 -14.5 -37t-37.5 -15q-22 0 -37 15t-15 37q0 23 15 38z" />
    <glyph glyph-name="uni0643.medi.ss01" horiz-adv-x="799" 
d="M0 0l-18 48l18 47h613q-7 67 -53.5 94.5t-145.5 27.5h-327l-42 123l387 229l48 -85l-317 -174h281q228 0 252 -175q4 -24 20.5 -32t61.5 -8h21v-95h-35q-43 0 -71 11t-47 36l-35 -47h-611z" />
    <glyph glyph-name="uni0643.init.ss01" horiz-adv-x="736" 
d="M0 0l-18 48l18 47h604q-7 67 -51.5 94.5t-141.5 27.5h-324l-42 123l387 229l48 -85l-317 -174h253q93 0 153.5 -20t94 -73.5t33.5 -152.5l-47 -64h-650z" />
    <glyph glyph-name="uni0646.medi.wide" horiz-adv-x="371" 
d="M0 0l-18 48l18 47h121q11 47 11 172v95h90v-174q0 -52 19.5 -72.5t63.5 -20.5h66v-95h-87q-68 0 -102 49q-12 -26 -32 -49h-150zM131.5 478q-16.5 17 -16.5 42q0 26 16.5 43t41.5 17t42 -17t17 -43q0 -25 -17 -42t-42 -17t-41.5 17z" />
    <glyph glyph-name="uni0646.init.wide" horiz-adv-x="327" 
d="M0 0l-18 48l18 47h164q7 50 7 134v133h88v-121q0 -71 -3 -126.5t-12 -114.5h-244zM134.5 509q-16.5 17 -16.5 42q0 26 16.5 43t41.5 17t42 -17t17 -43q0 -25 -17 -42t-42 -17t-41.5 17z" />
    <glyph glyph-name="uni064A.medi.wide" horiz-adv-x="371" 
d="M0 0l-18 48l18 47h121q11 47 11 172v95h90v-174q0 -52 19.5 -72.5t63.5 -20.5h66v-95h-87q-68 0 -102 49q-12 -26 -32 -49h-150zM204.5 -184.5q-16.5 16.5 -16.5 41.5t16.5 42t41.5 17t41.5 -17t16.5 -42t-16.5 -41.5t-41.5 -16.5t-41.5 16.5zM58.5 -101q16.5 17 41.5 17
t41.5 -17t16.5 -42t-16.5 -41.5t-41.5 -16.5t-41.5 16.5t-16.5 41.5t16.5 42z" />
    <glyph glyph-name="uni064A.medi.wide.shifted" horiz-adv-x="371" 
d="M0 0l-18 48l18 47h121q11 47 11 172v95h90v-174q0 -52 19.5 -72.5t63.5 -20.5h66v-95h-87q-68 0 -102 49q-12 -26 -32 -49h-150zM174.5 -184.5q-16.5 16.5 -16.5 41.5t16.5 42t41.5 17t41.5 -17t16.5 -42t-16.5 -41.5t-41.5 -16.5t-41.5 16.5zM28.5 -101q16.5 17 41.5 17
t41.5 -17t16.5 -42t-16.5 -41.5t-41.5 -16.5t-41.5 16.5t-16.5 41.5t16.5 42z" />
    <glyph glyph-name="uni064A.init.wide" horiz-adv-x="327" 
d="M0 0l-18 48l18 47h164q7 50 7 134v133h88v-121q0 -71 -3 -126.5t-12 -114.5h-244zM186.5 -184.5q-16.5 16.5 -16.5 41.5t16.5 42t41.5 17t41.5 -17t16.5 -42t-16.5 -41.5t-41.5 -16.5t-41.5 16.5zM40.5 -101q16.5 17 41.5 17t41.5 -17t16.5 -42t-16.5 -41.5t-41.5 -16.5
t-41.5 16.5t-16.5 41.5t16.5 42z" />
    <glyph glyph-name="uni064A.init.wide.shifted" horiz-adv-x="362" 
d="M0 0l-18 48l18 47h199q7 50 7 134v133h88v-121q0 -71 -3 -126.5t-12 -114.5h-279zM144.5 -184.5q-16.5 16.5 -16.5 41.5t16.5 42t41.5 17t41.5 -17t16.5 -42t-16.5 -41.5t-41.5 -16.5t-41.5 16.5zM-1.5 -101q16.5 17 41.5 17t41.5 -17t16.5 -42t-16.5 -41.5t-41.5 -16.5
t-41.5 16.5t-16.5 41.5t16.5 42z" />
    <glyph glyph-name="uni0626.medi.wide" horiz-adv-x="371" 
d="M0 0l-18 48l18 47h121q11 47 11 172v95h90v-174q0 -52 19.5 -72.5t63.5 -20.5h66v-95h-87q-68 0 -102 49q-12 -26 -32 -49h-150zM71 523l57 6q-9 11 -14.5 26.5t-5.5 31.5q0 32 20 50t54 18q33 0 71 -16l-18 -48q-25 11 -45 11q-17 0 -30 -8q-1 -31 14 -45.5t43 -12.5
l54 4l4 -47l-199 -18z" />
    <glyph glyph-name="uni0626.init.wide" horiz-adv-x="327" 
d="M0 0l-18 48l18 47h164q7 50 7 134v133h88v-121q0 -71 -3 -126.5t-12 -114.5h-244zM74 554l57 6q-9 11 -14.5 26.5t-5.5 31.5q0 32 20 50t54 18q33 0 71 -16l-18 -48q-25 11 -45 11q-17 0 -30 -8q-1 -31 14 -45.5t43 -12.5l54 4l4 -47l-199 -18z" />
    <glyph glyph-name="uni06440627" horiz-adv-x="478" 
d="M186.5 216q51.5 42 85.5 87q-41 60 -97.5 116t-134.5 123l59 71q71 -62 124.5 -116.5t94.5 -110.5q26 69 26 175v116h86v-107q0 -87 -14.5 -151.5t-44.5 -115.5q63 -118 60 -241l-47 -62h-320l-25 106q96 68 147.5 110zM355 95q-7 67 -39 134q-30 -32 -68 -62.5
t-96 -71.5h203z" />
    <glyph glyph-name="uni06440627.fina" horiz-adv-x="512" 
d="M223 94q77 30 105 86q2 26 2 208v289h89v-461q0 -121 81 -121h12v-95h-13q-52 0 -87 23.5t-50 69.5q-40 -63 -128 -91t-192 -27l-4 90q108 -1 185 29zM153 638l68 -428l-86 -13l-67 430z" />
    <glyph glyph-name="uni06440623" horiz-adv-x="478" 
d="M186.5 216q51.5 42 85.5 87q-41 60 -97.5 116t-134.5 123l59 71q71 -62 124.5 -116.5t94.5 -110.5q26 69 26 175v116h86v-107q0 -87 -14.5 -151.5t-44.5 -115.5q63 -118 60 -241l-47 -62h-320l-25 106q96 68 147.5 110zM355 95q-7 67 -39 134q-30 -32 -68 -62.5
t-96 -71.5h203zM-18 722l57 6q-9 11 -14.5 26.5t-5.5 31.5q0 32 20 50t54 18q33 0 71 -16l-18 -48q-25 11 -45 11q-17 0 -30 -8q-1 -31 14 -45.5t43 -12.5l54 4l4 -47l-199 -18z" />
    <glyph glyph-name="uni06440623.fina" horiz-adv-x="512" 
d="M223 94q77 30 105 86q2 26 2 208v289h89v-461q0 -121 81 -121h12v-95h-13q-52 0 -87 23.5t-50 69.5q-40 -63 -128 -91t-192 -27l-4 90q108 -1 185 29zM153 638l68 -428l-86 -13l-67 430zM-8 765l57 6q-9 11 -14.5 26.5t-5.5 31.5q0 32 20 50t54 18q33 0 71 -16l-18 -48
q-25 11 -45 11q-17 0 -30 -8q-1 -31 14 -45.5t43 -12.5l54 4l4 -47l-199 -18z" />
    <glyph glyph-name="uni06440625" horiz-adv-x="478" 
d="M186.5 216q51.5 42 85.5 87q-41 60 -97.5 116t-134.5 123l59 71q71 -62 124.5 -116.5t94.5 -110.5q26 69 26 175v116h86v-107q0 -87 -14.5 -151.5t-44.5 -115.5q63 -118 60 -241l-47 -62h-320l-25 106q96 68 147.5 110zM355 95q-7 67 -39 134q-30 -32 -68 -62.5
t-96 -71.5h203zM0 -212l58 5q-10 10 -15.5 26t-5.5 33q0 32 20 50t54 18t71 -17l-18 -47q-25 11 -45 11q-17 0 -30 -8q-1 -31 14 -46t43 -13l54 5l4 -48l-199 -18z" />
    <glyph glyph-name="uni06440625.fina" horiz-adv-x="512" 
d="M223 94q77 30 105 86q2 26 2 208v289h89v-461q0 -121 81 -121h12v-95h-13q-52 0 -87 23.5t-50 69.5q-40 -63 -128 -91t-192 -27l-4 90q108 -1 185 29zM153 638l68 -428l-86 -13l-67 430zM45 -199l58 5q-10 10 -15.5 26t-5.5 33q0 32 20 50t54 18t71 -17l-18 -47
q-25 11 -45 11q-17 0 -30 -8q-1 -31 14 -46t43 -13l54 5l4 -48l-199 -18z" />
    <glyph glyph-name="uni06440622" horiz-adv-x="478" 
d="M186.5 216q51.5 42 85.5 87q-41 60 -97.5 116t-134.5 123l59 71q71 -62 124.5 -116.5t94.5 -110.5q26 69 26 175v116h86v-107q0 -87 -14.5 -151.5t-44.5 -115.5q63 -118 60 -241l-47 -62h-320l-25 106q96 68 147.5 110zM355 95q-7 67 -39 134q-30 -32 -68 -62.5
t-96 -71.5h203zM38 750q23 0 53 -7q34 -6 49 -6q29 0 49 16l16 -49q-28 -21 -67 -21q-17 0 -53 6l-21 3t-25 2q-37 0 -57 -23l-15 51q29 28 71 28z" />
    <glyph glyph-name="uni06440622.fina" horiz-adv-x="512" 
d="M223 94q77 30 105 86q2 26 2 208v289h89v-461q0 -121 81 -121h12v-95h-13q-52 0 -87 23.5t-50 69.5q-40 -63 -128 -91t-192 -27l-4 90q108 -1 185 29zM153 638l68 -428l-86 -13l-67 430zM48 792q23 0 53 -7q34 -6 49 -6q29 0 49 16l16 -49q-28 -21 -67 -21q-17 0 -53 6
l-21 3t-25 2q-37 0 -57 -23l-15 51q29 28 71 28z" />
    <glyph glyph-name="uni06440671" horiz-adv-x="478" 
d="M186.5 216q51.5 42 85.5 87q-41 60 -97.5 116t-134.5 123l59 71q71 -62 124.5 -116.5t94.5 -110.5q26 69 26 175v116h86v-107q0 -87 -14.5 -151.5t-44.5 -115.5q63 -118 60 -241l-47 -62h-320l-25 106q96 68 147.5 110zM355 95q-7 67 -39 134q-30 -32 -68 -62.5
t-96 -71.5h203zM-26 729q17 9 37 9q11 0 27 -4q22 34 46 52.5t53 18.5q28 0 46.5 -19t18.5 -46q0 -31 -24.5 -50.5t-67.5 -19.5q-19 0 -31 3.5t-32 10.5q-9 4 -18.5 7t-18.5 3q-11 0 -21 -5t-23 -18l-25 30q16 19 33 28zM112 714q35 0 53 12q-2 14 -10 23t-24 9
q-32 0 -61 -37q19 -7 42 -7z" />
    <glyph glyph-name="uni06440671.fina" horiz-adv-x="512" 
d="M223 94q77 30 105 86q2 26 2 208v289h89v-461q0 -121 81 -121h12v-95h-13q-52 0 -87 23.5t-50 69.5q-40 -63 -128 -91t-192 -27l-4 90q108 -1 185 29zM153 638l68 -428l-86 -13l-67 430zM-16 772q17 9 37 9q11 0 27 -4q22 34 46 52.5t53 18.5q28 0 46.5 -19t18.5 -46
q0 -31 -24.5 -50.5t-67.5 -19.5q-19 0 -31 3.5t-32 10.5q-9 4 -18.5 7t-18.5 3q-11 0 -21 -5t-23 -18l-25 30q16 19 33 28zM122 757q35 0 53 12q-2 14 -10 23t-24 9q-32 0 -61 -37q19 -7 42 -7z" />
    <glyph glyph-name="uni06410649" horiz-adv-x="698" 
d="M124 -144q-84 56 -84 173q0 55 21.5 107t67.5 114l70 -54q-34 -45 -51 -83.5t-17 -73.5q0 -70 60 -107t157 -37q76 0 130 22.5t84 65.5q-74 41 -215 65l21 83q72 -11 122 -25q33 33 53 86q-128 7 -194 43.5t-66 102.5q0 39 22.5 86t63 79.5t91.5 32.5q54 0 95.5 -38.5
t63.5 -98.5t22 -122q0 -57 -19 -110.5t-52 -90.5q68 -38 68 -98q0 -52 -42.5 -92.5t-113 -63t-150.5 -22.5q-124 0 -208 56zM443.5 293.5q52.5 -12.5 113.5 -14.5q-6 75 -33 119t-69 44q-34 0 -59 -31.5t-33 -81.5q28 -23 80.5 -35.5zM416.5 625q-16.5 17 -16.5 42
q0 26 16.5 43t41.5 17t42 -17t17 -43q0 -25 -17 -42t-42 -17t-41.5 17z" />
    <glyph glyph-name="uni0641064A" horiz-adv-x="698" 
d="M124 -144q-84 56 -84 173q0 55 21.5 107t67.5 114l70 -54q-34 -45 -51 -83.5t-17 -73.5q0 -70 60 -107t157 -37q76 0 130 22.5t84 65.5q-74 41 -215 65l21 83q72 -11 122 -25q33 33 53 86q-128 7 -194 43.5t-66 102.5q0 39 22.5 86t63 79.5t91.5 32.5q54 0 95.5 -38.5
t63.5 -98.5t22 -122q0 -57 -19 -110.5t-52 -90.5q68 -38 68 -98q0 -52 -42.5 -92.5t-113 -63t-150.5 -22.5q-124 0 -208 56zM443.5 293.5q52.5 -12.5 113.5 -14.5q-6 75 -33 119t-69 44q-34 0 -59 -31.5t-33 -81.5q28 -23 80.5 -35.5zM416.5 625q-16.5 17 -16.5 42
q0 26 16.5 43t41.5 17t42 -17t17 -43q0 -25 -17 -42t-42 -17t-41.5 17zM312.5 -365.5q-16.5 16.5 -16.5 41.5t16.5 42t41.5 17t41.5 -17t16.5 -42t-16.5 -41.5t-41.5 -16.5t-41.5 16.5zM166.5 -282q16.5 17 41.5 17t41.5 -17t16.5 -42t-16.5 -41.5t-41.5 -16.5t-41.5 16.5
t-16.5 41.5t16.5 42z" />
    <glyph glyph-name="uni06410626" horiz-adv-x="698" 
d="M124 -144q-84 56 -84 173q0 55 21.5 107t67.5 114l70 -54q-34 -45 -51 -83.5t-17 -73.5q0 -70 60 -107t157 -37q76 0 130 22.5t84 65.5q-74 41 -215 65l21 83q72 -11 122 -25q33 33 53 86q-128 7 -194 43.5t-66 102.5q0 39 22.5 86t63 79.5t91.5 32.5q54 0 95.5 -38.5
t63.5 -98.5t22 -122q0 -57 -19 -110.5t-52 -90.5q68 -38 68 -98q0 -52 -42.5 -92.5t-113 -63t-150.5 -22.5q-124 0 -208 56zM443.5 293.5q52.5 -12.5 113.5 -14.5q-6 75 -33 119t-69 44q-34 0 -59 -31.5t-33 -81.5q28 -23 80.5 -35.5zM416.5 625q-16.5 17 -16.5 42
q0 26 16.5 43t41.5 17t42 -17t17 -43q0 -25 -17 -42t-42 -17t-41.5 17zM17 404l57 6q-9 11 -14.5 26.5t-5.5 31.5q0 32 20 50t54 18q33 0 71 -16l-18 -48q-25 11 -45 11q-17 0 -30 -8q-1 -31 14 -45.5t43 -12.5l54 4l4 -47l-199 -18z" />
    <glyph glyph-name="uni06A10649" horiz-adv-x="698" 
d="M124 -144q-84 56 -84 173q0 55 21.5 107t67.5 114l70 -54q-34 -45 -51 -83.5t-17 -73.5q0 -70 60 -107t157 -37q76 0 130 22.5t84 65.5q-74 41 -215 65l21 83q72 -11 122 -25q33 33 53 86q-128 7 -194 43.5t-66 102.5q0 39 22.5 86t63 79.5t91.5 32.5q54 0 95.5 -38.5
t63.5 -98.5t22 -122q0 -57 -19 -110.5t-52 -90.5q68 -38 68 -98q0 -52 -42.5 -92.5t-113 -63t-150.5 -22.5q-124 0 -208 56zM443.5 293.5q52.5 -12.5 113.5 -14.5q-6 75 -33 119t-69 44q-34 0 -59 -31.5t-33 -81.5q28 -23 80.5 -35.5z" />
    <glyph glyph-name="uni06420649" horiz-adv-x="698" 
d="M124 -144q-84 56 -84 173q0 55 21.5 107t67.5 114l70 -54q-34 -45 -51 -83.5t-17 -73.5q0 -70 60 -107t157 -37q76 0 130 22.5t84 65.5q-74 41 -215 65l21 83q72 -11 122 -25q33 33 53 86q-128 7 -194 43.5t-66 102.5q0 39 22.5 86t63 79.5t91.5 32.5q54 0 95.5 -38.5
t63.5 -98.5t22 -122q0 -57 -19 -110.5t-52 -90.5q68 -38 68 -98q0 -52 -42.5 -92.5t-113 -63t-150.5 -22.5q-124 0 -208 56zM443.5 293.5q52.5 -12.5 113.5 -14.5q-6 75 -33 119t-69 44q-34 0 -59 -31.5t-33 -81.5q28 -23 80.5 -35.5zM489.5 626.5q-16.5 16.5 -16.5 41.5
q0 26 16.5 43t41.5 17t41.5 -17t16.5 -43q0 -25 -16.5 -41.5t-41.5 -16.5t-41.5 16.5zM343.5 711q16.5 17 41.5 17t41.5 -17t16.5 -43q0 -25 -16.5 -41.5t-41.5 -16.5t-41.5 16.5t-16.5 41.5q0 26 16.5 43z" />
    <glyph glyph-name="uni0642064A" horiz-adv-x="698" 
d="M124 -144q-84 56 -84 173q0 55 21.5 107t67.5 114l70 -54q-34 -45 -51 -83.5t-17 -73.5q0 -70 60 -107t157 -37q76 0 130 22.5t84 65.5q-74 41 -215 65l21 83q72 -11 122 -25q33 33 53 86q-128 7 -194 43.5t-66 102.5q0 39 22.5 86t63 79.5t91.5 32.5q54 0 95.5 -38.5
t63.5 -98.5t22 -122q0 -57 -19 -110.5t-52 -90.5q68 -38 68 -98q0 -52 -42.5 -92.5t-113 -63t-150.5 -22.5q-124 0 -208 56zM443.5 293.5q52.5 -12.5 113.5 -14.5q-6 75 -33 119t-69 44q-34 0 -59 -31.5t-33 -81.5q28 -23 80.5 -35.5zM489.5 626.5q-16.5 16.5 -16.5 41.5
q0 26 16.5 43t41.5 17t41.5 -17t16.5 -43q0 -25 -16.5 -41.5t-41.5 -16.5t-41.5 16.5zM343.5 711q16.5 17 41.5 17t41.5 -17t16.5 -43q0 -25 -16.5 -41.5t-41.5 -16.5t-41.5 16.5t-16.5 41.5q0 26 16.5 43zM312.5 -365.5q-16.5 16.5 -16.5 41.5t16.5 42t41.5 17t41.5 -17
t16.5 -42t-16.5 -41.5t-41.5 -16.5t-41.5 16.5zM166.5 -282q16.5 17 41.5 17t41.5 -17t16.5 -42t-16.5 -41.5t-41.5 -16.5t-41.5 16.5t-16.5 41.5t16.5 42z" />
    <glyph glyph-name="uni06420626" horiz-adv-x="698" 
d="M124 -144q-84 56 -84 173q0 55 21.5 107t67.5 114l70 -54q-34 -45 -51 -83.5t-17 -73.5q0 -70 60 -107t157 -37q76 0 130 22.5t84 65.5q-74 41 -215 65l21 83q72 -11 122 -25q33 33 53 86q-128 7 -194 43.5t-66 102.5q0 39 22.5 86t63 79.5t91.5 32.5q54 0 95.5 -38.5
t63.5 -98.5t22 -122q0 -57 -19 -110.5t-52 -90.5q68 -38 68 -98q0 -52 -42.5 -92.5t-113 -63t-150.5 -22.5q-124 0 -208 56zM443.5 293.5q52.5 -12.5 113.5 -14.5q-6 75 -33 119t-69 44q-34 0 -59 -31.5t-33 -81.5q28 -23 80.5 -35.5zM17 404l57 6q-9 11 -14.5 26.5
t-5.5 31.5q0 32 20 50t54 18q33 0 71 -16l-18 -48q-25 11 -45 11q-17 0 -30 -8q-1 -31 14 -45.5t43 -12.5l54 4l4 -47l-199 -18zM489.5 626.5q-16.5 16.5 -16.5 41.5q0 26 16.5 43t41.5 17t41.5 -17t16.5 -43q0 -25 -16.5 -41.5t-41.5 -16.5t-41.5 16.5zM343.5 711
q16.5 17 41.5 17t41.5 -17t16.5 -43q0 -25 -16.5 -41.5t-41.5 -16.5t-41.5 16.5t-16.5 41.5q0 26 16.5 43z" />
    <glyph glyph-name="uni064406440647.rlig" horiz-adv-x="978" 
d="M403 15.5q-28 15.5 -44 53.5q-51 -36 -123 -36q-59 0 -104 23t-69.5 59t-24.5 73q0 51 46 91.5t114.5 65.5t133.5 31v73h90v-139q0 -92 5 -135.5t20 -61.5t47 -18h79q12 71 12 297v95h90v-299q0 -52 19 -72.5t65 -20.5h52q5 61 7 118t2 153v121h88v-121q0 -107 -3 -192
t-12 -174h-155q-69 0 -103 49q-14 -29 -31 -49h-128q-45 0 -73 15.5zM169 142q33 -18 74 -18q54 0 96 30q-5 49 -7 131q-66 -5 -126 -31t-82 -60q12 -34 45 -52z" />
    <glyph glyph-name="uniFDF2" horiz-adv-x="1208" 
d="M1049 677h88v-677h-88v677zM403 15.5q-28 15.5 -44 53.5q-51 -36 -123 -36q-59 0 -104 23t-69.5 59t-24.5 73q0 51 46 91.5t114.5 65.5t133.5 31v73h90v-139q0 -92 5 -135.5t20 -61.5t47 -18h79q12 71 12 297v95h90v-299q0 -52 19 -72.5t65 -20.5h52q5 61 7 118t2 153
v121h88v-121q0 -107 -3 -192t-12 -174h-155q-69 0 -103 49q-14 -29 -31 -49h-128q-45 0 -73 15.5zM169 142q33 -18 74 -18q54 0 96 30q-5 49 -7 131q-66 -5 -126 -31t-82 -60q12 -34 45 -52z" />
    <glyph glyph-name="dotabove-ar" 
d="M61.5 310q-16.5 17 -16.5 42q0 26 16.5 43t41.5 17t42 -17t17 -43q0 -25 -17 -42t-42 -17t-41.5 17z" />
    <glyph glyph-name="dotbelow-ar" 
d="M61.5 -190q-16.5 17 -16.5 42q0 26 16.5 43t41.5 17t42 -17t17 -43q0 -25 -17 -42t-42 -17t-41.5 17z" />
    <glyph glyph-name="dotcenter-ar" 
d="M61.5 310q-16.5 17 -16.5 42q0 26 16.5 43t41.5 17t42 -17t17 -43q0 -25 -17 -42t-42 -17t-41.5 17z" />
    <glyph glyph-name="twodotshorizontalabove-ar" 
d="M207.5 311.5q-16.5 16.5 -16.5 41.5q0 26 16.5 43t41.5 17t41.5 -17t16.5 -43q0 -25 -16.5 -41.5t-41.5 -16.5t-41.5 16.5zM61.5 396q16.5 17 41.5 17t41.5 -17t16.5 -43q0 -25 -16.5 -41.5t-41.5 -16.5t-41.5 16.5t-16.5 41.5q0 26 16.5 43z" />
    <glyph glyph-name="twodotshorizontalbelow-ar" 
d="M207.5 -192.5q-16.5 16.5 -16.5 41.5t16.5 42t41.5 17t41.5 -17t16.5 -42t-16.5 -41.5t-41.5 -16.5t-41.5 16.5zM61.5 -109q16.5 17 41.5 17t41.5 -17t16.5 -42t-16.5 -41.5t-41.5 -16.5t-41.5 16.5t-16.5 41.5t16.5 42z" />
    <glyph glyph-name="threedotsupabove-ar" 
d="M60 314q-15 15 -15 37q0 23 15 38t37 15t37 -15t15 -38q0 -22 -14.5 -37t-37.5 -15q-22 0 -37 15zM133 504q15 15 37 15t36.5 -15t14.5 -38q0 -22 -14.5 -37t-36.5 -15t-37 15t-15 37q0 23 15 38zM205 389q15 15 37 15t37 -15t15 -38q0 -22 -14.5 -37t-37.5 -15
q-22 0 -37 15t-15 37q0 23 15 38z" />
    <glyph glyph-name="wasla-ar" 
d="M78 241q17 9 37 9q11 0 27 -4q22 34 46 52.5t53 18.5q28 0 46.5 -19t18.5 -46q0 -31 -24.5 -50.5t-67.5 -19.5q-19 0 -31 3.5t-32 10.5q-9 4 -18.5 7t-18.5 3q-11 0 -21 -5t-23 -18l-25 30q16 19 33 28zM216 226q35 0 53 12q-2 14 -10 23t-24 9q-32 0 -61 -37
q19 -7 42 -7z" />
    <glyph glyph-name="uni0654064F" 
d="M45 404l57 6q-9 11 -14.5 26.5t-5.5 31.5q0 32 20 50t54 18q33 0 71 -16l-18 -48q-25 11 -45 11q-17 0 -30 -8q-1 -31 14 -45.5t43 -12.5l54 4l4 -47l-199 -18zM162 660q-30 9 -52 27.5t-22 46.5q0 30 25.5 55.5t56.5 25.5q30 0 51 -27.5t21 -64.5q0 -63 -58 -100.5
t-144 -53.5l-12 45q88 12 134 46zM193 700q4 11 4 25q0 19 -9 30.5t-22 11.5q-11 0 -22 -8.5t-15 -23.5q16 -20 64 -35z" />
    <glyph glyph-name="uni0654064C" 
d="M45 404l57 6q-9 11 -14.5 26.5t-5.5 31.5q0 32 20 50t54 18q33 0 71 -16l-18 -48q-25 11 -45 11q-17 0 -30 -8q-1 -31 14 -45.5t43 -12.5l54 4l4 -47l-199 -18zM94 655q-34 9 -51.5 23.5t-17.5 39.5q0 29 21.5 50.5t47.5 21.5q27 0 43.5 -23.5t16.5 -55.5q0 -51 -44 -90
q85 22 119 55q-34 9 -50.5 22.5t-16.5 37.5q0 30 22 51.5t49 21.5t43.5 -23.5t16.5 -55.5q0 -74 -83.5 -112.5t-179.5 -49.5l-8 36q46 17 72 51zM78.5 700.5q11.5 -6.5 33.5 -12.5q4 16 4 26q0 15 -7 25.5t-19 10.5q-10 0 -19.5 -7.5t-12.5 -23.5q9 -12 20.5 -18.5z
M215.5 719.5q11.5 -6.5 35.5 -12.5q4 9 4 23q0 16 -7 27.5t-19 11.5q-10 0 -20 -7.5t-15 -22.5q10 -13 21.5 -19.5z" />
    <glyph glyph-name="uni0654064E" 
d="M90 404l57 6q-9 11 -14.5 26.5t-5.5 31.5q0 32 20 50t54 18q33 0 71 -16l-18 -48q-25 11 -45 11q-17 0 -30 -8q-1 -31 14 -45.5t43 -12.5l54 4l4 -47l-199 -18zM78 616l216 45l9 -51l-214 -44z" />
    <glyph glyph-name="uni0654064B" 
d="M45 404l57 6q-9 11 -14.5 26.5t-5.5 31.5q0 32 20 50t54 18q33 0 71 -16l-18 -48q-25 11 -45 11q-17 0 -30 -8q-1 -31 14 -45.5t43 -12.5l54 4l4 -47l-199 -18zM30 698l218 45l7 -45l-216 -44zM255 660l9 -44l-217 -44l-7 43z" />
    <glyph glyph-name="uni06540652" 
d="M45 404l57 6q-9 11 -14.5 26.5t-5.5 31.5q0 32 20 50t54 18q33 0 71 -16l-18 -48q-25 11 -45 11q-17 0 -30 -8q-1 -31 14 -45.5t43 -12.5l54 4l4 -47l-199 -18zM87 599.5q-20 21.5 -20 50.5q0 22 13 45.5t39 43.5l-20 13l27 37q106 -67 106 -135q0 -32 -21.5 -54
t-63.5 -22q-40 0 -60 21.5zM121 630.5q11 -7.5 28 -7.5q20 0 30 9t10 22q0 26 -37 59q-42 -26 -42 -58q0 -17 11 -24.5z" />
    <glyph glyph-name="uni06550650" 
d="M45 -199l58 5q-10 10 -15.5 26t-5.5 33q0 32 20 50t54 18t71 -17l-18 -47q-25 11 -45 11q-17 0 -30 -8q-1 -31 14 -46t43 -13l54 5l4 -48l-199 -18zM39 -322l216 45l9 -51l-214 -44z" />
    <glyph glyph-name="uni0655064D" 
d="M45 -199l58 5q-10 10 -15.5 26t-5.5 33q0 32 20 50t54 18t71 -17l-18 -47q-25 11 -45 11q-17 0 -30 -8q-1 -31 14 -46t43 -13l54 5l4 -48l-199 -18zM38 -316l216 45l9 -43l-216 -45zM262 -355l9 -42l-216 -45l-9 42z" />
    <glyph glyph-name="uni0651064B" 
d="M63 49.5q-18 16.5 -18 42.5v62h43v-48q0 -15 6.5 -21t22.5 -6h21q4 13 4 35v40h44v-44q0 -18 6.5 -24t22.5 -6h17q3 14 3 43v31h42v-29q0 -57 -11 -91h-48q-38 0 -52 23q-10 -14 -22.5 -19t-34.5 -5q-28 0 -46 16.5zM46 328l218 45l7 -45l-216 -44zM271 290l9 -44
l-217 -44l-7 43z" />
    </font>
</defs>
</svg>
