<svg width="15" height="18" viewBox="0 0 15 18" fill="none" xmlns="http://www.w3.org/2000/svg">
<g clip-path="url(#clip0_1545_24279)">
<path d="M10.0012 17.994H9.5514C8.98258 17.8468 8.80174 17.4386 8.66888 16.9056C8.27121 15.3123 8.10836 13.2283 7.45788 11.7423C7.25213 11.2731 7.1391 11.2033 6.91582 11.7179C6.21598 13.3328 6.11264 15.4984 5.64301 17.2051C5.49861 17.6186 5.26564 17.8675 4.84583 17.994C4.70235 17.9809 4.53489 18.0118 4.39603 17.994C3.92224 17.9326 3.48582 17.4915 3.49366 16.9932C3.84012 14.7962 4.33928 12.6189 4.66775 10.4195C4.7554 9.83216 5.02436 8.17981 4.87074 7.69466C4.79277 7.44997 4.6147 7.35481 4.39557 7.26388C3.45491 6.87341 0.749203 6.35263 0.195144 5.66216C-0.283257 5.06544 0.170232 3.87106 0.987711 3.94466C2.73662 4.42934 4.53304 4.92575 6.35115 5.06778C8.16926 5.20981 10.0192 4.817 11.7727 4.39044C12.2442 4.27559 12.7475 4.08575 13.2116 3.98966C13.7647 3.87528 14.155 4.11341 14.3276 4.66231C14.6113 5.56559 14.0148 5.92841 13.2965 6.21856C12.2447 6.64325 11.0364 6.92169 10.0118 7.38013C9.82036 7.46591 9.56017 7.59294 9.49697 7.80622C9.34796 8.31059 9.63906 10.0534 9.73363 10.6604C10.0639 12.7797 10.5566 14.8782 10.8962 16.997C10.9031 17.4906 10.4727 17.9331 10.0003 17.994H10.0012Z" fill="white"/>
<path d="M7.43889 0.0101953C9.8069 0.281602 9.62191 4.04332 7.10857 3.94582C4.75624 3.85441 4.65337 0.274102 6.95449 0.0101953C7.07305 -0.00339844 7.32032 -0.00339844 7.43889 0.0101953Z" fill="white"/>
</g>
<defs>
<clipPath id="clip0_1545_24279">
<rect width="14.4" height="18" fill="white"/>
</clipPath>
</defs>
</svg>
