<svg width="14" height="11" viewBox="0 0 14 11" fill="none" xmlns="http://www.w3.org/2000/svg">
<path d="M7.99102 0.206114C8.26584 -0.0687038 8.7113 -0.0687038 8.98612 0.206114L13.4641 4.68406C13.7389 4.95887 13.7389 5.40434 13.4641 5.67915L8.98612 10.1571C8.7113 10.4319 8.26584 10.4319 7.99102 10.1571C7.7162 9.88227 7.7162 9.43681 7.99102 9.162L11.2677 5.88532L0.703715 5.88532C0.315064 5.88532 -4.86967e-07 5.57025 -4.5299e-07 5.1816C-4.19013e-07 4.79295 0.315064 4.47789 0.703715 4.47789L11.2677 4.47789L7.99102 1.20121C7.7162 0.926394 7.7162 0.480932 7.99102 0.206114Z" fill="white"/>
</svg>
