<svg width="66" height="52" viewBox="0 0 66 52" fill="none" xmlns="http://www.w3.org/2000/svg">
<path d="M60.5923 19.8352V9.27615L56.3136 10.4902L56.2246 23.5732C55.961 24.1929 54.5655 24.292 53.9342 24.4246C50.391 25.1719 46.4851 25.9594 42.9117 26.475C36.2485 27.4355 28.8213 25.7445 22.2522 24.2987C21.7148 24.1794 20.8299 24.1391 20.5898 23.5732L20.4403 10.3996C20.2304 10.1023 14.3749 8.89999 13.4211 8.4953C12.3649 8.04694 12.4506 6.81101 13.5555 6.54569L38.623 0L62.9818 6.44661C63.536 6.63637 64.0918 6.75896 64.1203 7.45584C64.1707 8.72703 62.7132 8.38783 62.6023 8.96045V19.5212C62.7249 20.1677 65.3311 20.7907 65.4402 21.711L65.4688 30.8057C64.4646 32.9367 62.8223 30.1727 61.5545 29.7848C60.8207 30.2063 58.5906 32.6764 57.9223 31.1147L57.8535 21.5565C57.9928 21.0812 60.0415 20.0535 60.5923 19.8336V19.8352ZM59.0827 7.51797L38.4064 2.04867L17.7284 7.5801L38.4064 13.0477L59.0827 7.51965V7.51797ZM54.3069 10.9101L38.4064 15.0679L22.5058 10.9101V22.3491C25.8709 22.784 29.1874 23.637 32.5375 24.1946C36.4081 24.8394 38.8564 25.0476 42.7858 24.4649C46.643 23.8923 50.4346 22.8495 54.3069 22.3474V10.9084V10.9101ZM63.4839 22.475L61.6384 21.4927L59.8383 22.5371V28.5085C60.4932 28.2466 60.9113 27.4808 61.6636 27.4892C62.4159 27.4976 62.8105 28.3121 63.4839 28.5085V22.475Z" fill="#A29374"/>
<path d="M0 48.9667V23.3314C0.506392 22.4744 1.56462 22.5085 1.81457 23.5213L1.81945 48.423C1.90547 49.1323 2.42159 49.6549 3.1049 49.8091L41.7368 49.8221C42.5727 49.827 43.2608 49.1404 43.256 48.3029V29.108C43.441 27.9605 45.129 28.0206 45.0787 29.2168L45.0738 48.7833C44.7962 50.3675 43.4897 51.5929 41.8585 51.6432L2.97506 51.6384C1.45426 51.4241 0.460947 50.374 0 48.9651V48.9667Z" fill="#A29374"/>
<path d="M0.00162464 11.6729C0.396026 10.376 1.46238 9.18142 2.86957 9.01424C5.38854 8.71234 8.41878 9.20901 10.9929 9.00287C11.9684 9.30802 11.8629 10.6601 10.8663 10.8159C8.67846 11.1584 5.63848 10.6016 3.33699 10.8191C2.51573 10.8954 1.92332 11.3612 1.81945 12.2182C1.54515 14.4971 2.05641 17.2694 1.79023 19.6018C1.5062 20.4279 0.439847 20.363 0 19.6926V11.6745L0.00162464 11.6729Z" fill="#A29374"/>
<path d="M5.67355 42.5586L39.2367 42.5959C40.0855 43.1754 39.8534 44.2353 38.8163 44.357H6.0079C4.97239 44.3797 4.7192 42.7761 5.67193 42.5586H5.67355Z" fill="#A29374"/>
<path d="M5.25819 37.9482C5.3085 37.8849 5.59415 37.721 5.67693 37.7031L39.2368 37.734C40.0856 38.3134 39.8535 39.3733 38.8164 39.495L5.61688 39.3993C5.06666 39.185 4.90436 38.3865 5.25656 37.9466L5.25819 37.9482Z" fill="#A29374"/>
</svg>
