<svg width="298" height="58" viewBox="0 0 298 58" fill="none" xmlns="http://www.w3.org/2000/svg">
<path d="M290.863 27.4486H286.154L285.748 25.984L286.154 24.542H288.474C288.587 23.6407 288.61 22.8746 288.61 21.6353V18.5259H291.268V21.6353C291.268 23.4154 291.246 25.3531 290.863 27.4486ZM285.816 14.335C285.816 13.4562 286.447 12.7803 287.325 12.7803C288.204 12.7803 288.835 13.4562 288.835 14.335C288.835 15.1912 288.204 15.8897 287.325 15.8897C286.447 15.8897 285.816 15.1912 285.816 14.335ZM289.533 14.335C289.533 13.4562 290.164 12.7803 291.043 12.7803C291.922 12.7803 292.553 13.4562 292.553 14.335C292.553 15.1912 291.922 15.8897 291.043 15.8897C290.164 15.8897 289.533 15.1912 289.533 14.335Z" fill="white"/>
<path d="M279.113 27.4482H273.278L272.872 25.9836L273.278 24.5415H277.762C276.95 23.7078 275.959 22.9418 274.63 22.1531V19.4268C275.846 18.5931 277.874 18.0298 279.812 18.0298C282.741 18.0298 284.634 19.1339 284.634 21.2969C284.634 22.7164 283.845 23.798 283.011 24.5415H286.143V27.4482H282.583C281.457 27.4482 280.691 27.0651 280.172 26.637C279.789 26.9975 279.406 27.2904 279.113 27.4482ZM277.424 21.0941C278.55 21.8377 279.564 22.739 280.308 23.5952C281.367 22.784 282.11 21.9729 282.245 21.3871C281.84 20.8913 280.916 20.6435 279.812 20.6435C278.911 20.6435 278.122 20.8012 277.424 21.0941Z" fill="white"/>
<path d="M272.426 27.4481C271.096 27.4481 270.015 26.9299 269.136 25.8033L268.46 26.8398C267.243 27.4707 264.292 27.6735 261.655 27.2904L261.903 24.3613C264.404 24.6316 266.567 24.5866 268.077 23.9782C267.378 22.446 266.815 20.3506 266.319 17.6467L269.023 17.106C270.15 22.9643 270.938 24.5415 272.538 24.5415H273.282V27.4481H272.426Z" fill="white"/>
<path d="M256.787 27.449V12.1948H259.468V27.449H256.787Z" fill="white"/>
<path d="M249.378 27.4488C247.621 27.4488 246.787 27.4038 245.593 27.2686L245.705 24.3619C246.832 24.4746 247.598 24.5422 249.311 24.5422H251.969C251.406 22.4017 250.144 20.8244 247.936 19.7429L249.243 17.3545C252.758 18.6163 254.944 22.0186 254.651 25.804L253.434 27.4488H249.378Z" fill="white"/>
<path d="M238.525 27.4484H228.611L228.205 25.9838L228.611 24.5418H230.909C230.301 24.001 229.895 23.3251 229.895 22.4463C229.895 20.4635 231.923 17.3766 234.469 17.3766C237.263 17.3766 239.133 21.0268 239.133 24.1813C239.133 25.2628 238.93 26.4345 238.525 27.4484ZM231.044 14.0869C231.044 13.2082 231.675 12.5322 232.554 12.5322C233.432 12.5322 234.063 13.2082 234.063 14.0869C234.063 14.9432 233.432 15.6416 232.554 15.6416C231.675 15.6416 231.044 14.9432 231.044 14.0869ZM232.351 22.4688C233.049 23.4828 234.739 24.2939 236.384 24.5643C236.407 24.4066 236.407 24.2489 236.407 24.1137C236.407 22.3111 235.325 20.2156 234.379 20.2156C233.748 20.2156 232.599 21.162 232.351 22.4688ZM234.762 14.0869C234.762 13.2082 235.393 12.5322 236.272 12.5322C237.15 12.5322 237.781 13.2082 237.781 14.0869C237.781 14.9432 237.15 15.6416 236.272 15.6416C235.393 15.6416 234.762 14.9432 234.762 14.0869Z" fill="white"/>
<path d="M228.618 27.449H212.462L212.057 25.9844L212.462 24.5424H213.882C214.422 23.6411 215.008 22.7849 215.639 21.9962C215.819 20.4641 215.865 19.2248 215.865 17.9855V12.1948H218.523V16.2956C218.523 17.6476 218.501 18.5038 218.411 19.2699C219.627 18.4137 220.934 17.918 222.331 17.918C225.508 17.918 227.423 20.5091 227.423 22.7173C227.423 23.5284 227.131 24.1593 226.657 24.7226C227.131 24.61 227.626 24.5424 228.122 24.5424H228.618V27.449ZM216.518 24.5424H218.253C220.641 24.5424 223.48 24.317 224.787 23.3932C224.787 21.9512 223.683 20.8246 221.881 20.8246C220.146 20.8246 218.523 21.816 216.518 24.5424Z" fill="white"/>
<path d="M201.72 30.2873C204.874 28.6875 206.722 26.9976 207.533 25.0148C207.375 23.9783 206.947 22.5137 206.001 19.9L208.615 18.9312L209.764 22.2208C210.395 24.136 210.935 24.5416 211.972 24.5416H212.467V27.4482H211.634C210.935 27.4482 210.237 27.268 209.628 26.8399C208.727 29.2283 206.406 31.0759 203.274 32.6982L201.72 30.2873Z" fill="white"/>
<path d="M191.154 19.0873C193.685 19.0873 195.68 19.4446 197.14 20.1593C198.599 20.859 199.328 21.9608 199.328 23.4645C199.328 24.4025 198.963 25.2214 198.234 25.9212C197.519 26.6209 196.537 27.1644 195.286 27.5515C194.035 27.9237 192.643 28.1098 191.11 28.1098C188.995 28.1098 187.164 27.8865 185.616 27.4398C184.082 26.9932 182.802 26.472 181.774 25.8765L182.534 24.1122C183.501 24.6631 184.737 25.147 186.241 25.5638C187.76 25.9807 189.397 26.1892 191.154 26.1892C192.807 26.1892 194.206 25.9509 195.353 25.4745C196.514 24.9981 197.095 24.3206 197.095 23.4422C197.095 22.6233 196.566 22.0054 195.509 21.5886C194.467 21.1717 192.785 20.9632 190.462 20.9632C189.301 20.9632 188.244 21.0154 187.291 21.1196C186.338 21.2089 185.266 21.3429 184.075 21.5216C183.539 21.6109 183.137 21.6705 182.869 21.7002V13.9507H198.792V15.8043H185.057V19.6009C187.291 19.2585 189.323 19.0873 191.154 19.0873Z" fill="white"/>
<path d="M179.963 22.6165V27.7978H161.829V25.9442C161.904 24.5744 162.596 23.4726 163.906 22.6389C165.231 21.7902 167.33 21.1277 170.204 20.6512C172.303 20.3088 173.785 20.0408 174.648 19.8472C175.527 19.6537 176.189 19.408 176.636 19.1103C177.097 18.8125 177.328 18.3956 177.328 17.8596C177.328 17.145 176.844 16.5792 175.877 16.1623C174.909 15.7454 173.628 15.537 172.035 15.537C170.412 15.537 168.804 15.7901 167.211 16.2963C165.618 16.7876 164.182 17.4725 162.901 18.3509L161.985 16.7206C164.978 14.666 168.358 13.6387 172.125 13.6387C173.42 13.6387 174.633 13.8024 175.765 14.13C176.911 14.4575 177.834 14.9414 178.534 15.5816C179.234 16.2219 179.584 16.9961 179.584 17.9043C179.584 18.8274 179.264 19.5792 178.624 20.1599C177.983 20.7257 177.06 21.1723 175.854 21.4999C174.663 21.8274 173.077 22.1252 171.097 22.3932C169.296 22.6463 167.896 22.9292 166.899 23.2419C165.901 23.5545 165.186 23.9267 164.755 24.3585C164.338 24.7754 164.107 25.3039 164.062 25.9442H178.11V22.6165H179.963Z" fill="white"/>
<path d="M151.015 28.0881C149.273 28.0881 147.643 27.8276 146.124 27.3065C144.606 26.7705 143.377 25.959 142.439 24.8722C141.516 23.7853 141.055 22.4528 141.055 20.8746C141.055 19.341 141.531 18.0308 142.484 16.944C143.437 15.8571 144.673 15.0382 146.191 14.4873C147.725 13.9216 149.333 13.6387 151.015 13.6387C152.742 13.6387 154.365 13.9216 155.884 14.4873C157.417 15.0382 158.653 15.8571 159.591 16.944C160.544 18.0308 161.02 19.341 161.02 20.8746C161.02 22.4528 160.544 23.7853 159.591 24.8722C158.638 25.9442 157.395 26.7481 155.861 27.2841C154.343 27.8201 152.727 28.0881 151.015 28.0881ZM151.038 26.3461C152.407 26.3461 153.68 26.1377 154.856 25.7208C156.033 25.3039 156.971 24.6861 157.67 23.8672C158.385 23.0334 158.742 22.0359 158.742 20.8746C158.742 19.7579 158.393 18.7901 157.693 17.9713C156.993 17.1375 156.055 16.4973 154.879 16.0506C153.717 15.604 152.437 15.3806 151.038 15.3806C149.698 15.3806 148.439 15.604 147.263 16.0506C146.087 16.4973 145.142 17.1375 144.427 17.9713C143.712 18.805 143.355 19.7728 143.355 20.8746C143.355 22.0359 143.697 23.0334 144.382 23.8672C145.082 24.6861 146.013 25.3039 147.174 25.7208C148.35 26.1377 149.638 26.3461 151.038 26.3461Z" fill="white"/>
<path d="M139.418 22.6165V27.7978H121.283V25.9442C121.358 24.5744 122.05 23.4726 123.36 22.6389C124.685 21.7902 126.785 21.1277 129.658 20.6512C131.757 20.3088 133.239 20.0408 134.102 19.8472C134.981 19.6537 135.643 19.408 136.09 19.1103C136.552 18.8125 136.782 18.3956 136.782 17.8596C136.782 17.145 136.298 16.5792 135.331 16.1623C134.363 15.7454 133.082 15.537 131.489 15.537C129.867 15.537 128.259 15.7901 126.665 16.2963C125.072 16.7876 123.636 17.4725 122.355 18.3509L121.44 16.7206C124.432 14.666 127.812 13.6387 131.579 13.6387C132.874 13.6387 134.087 13.8024 135.219 14.13C136.365 14.4575 137.289 14.9414 137.988 15.5816C138.688 16.2219 139.038 16.9961 139.038 17.9043C139.038 18.8274 138.718 19.5792 138.078 20.1599C137.437 20.7257 136.514 21.1723 135.308 21.4999C134.117 21.8274 132.532 22.1252 130.551 22.3932C128.75 22.6463 127.35 22.9292 126.353 23.2419C125.355 23.5545 124.641 23.9267 124.209 24.3585C123.792 24.7754 123.561 25.3039 123.517 25.9442H137.564V22.6165H139.418Z" fill="white"/>
<path d="M284.357 41.4942C285.471 41.4942 286.349 41.6515 286.992 41.9661C287.634 42.2742 287.955 42.7592 287.955 43.4212C287.955 43.8342 287.795 44.1947 287.474 44.5027C287.159 44.8108 286.726 45.05 286.176 45.2204C285.625 45.3843 285.012 45.4662 284.337 45.4662C283.406 45.4662 282.6 45.3679 281.919 45.1713C281.243 44.9746 280.68 44.7452 280.228 44.4831L280.562 43.7063C280.988 43.9489 281.532 44.1619 282.194 44.3454C282.862 44.5289 283.583 44.6207 284.357 44.6207C285.084 44.6207 285.701 44.5158 286.205 44.3061C286.716 44.0963 286.972 43.7981 286.972 43.4114C286.972 43.0509 286.739 42.7789 286.274 42.5954C285.815 42.4118 285.075 42.3201 284.052 42.3201C283.541 42.3201 283.075 42.343 282.656 42.3889C282.236 42.4282 281.765 42.4872 281.24 42.5659C281.004 42.6052 280.827 42.6314 280.709 42.6445V39.2329H287.719V40.0489H281.673V41.7203C282.656 41.5696 283.551 41.4942 284.357 41.4942Z" fill="white"/>
<path d="M275.499 43.0485V45.3295H267.516V44.5135C267.548 43.9105 267.853 43.4254 268.43 43.0584C269.013 42.6848 269.938 42.3931 271.203 42.1834C272.127 42.0326 272.779 41.9146 273.159 41.8294C273.546 41.7442 273.837 41.6361 274.034 41.505C274.237 41.3739 274.339 41.1903 274.339 40.9544C274.339 40.6398 274.126 40.3907 273.7 40.2072C273.274 40.0237 272.71 39.9319 272.009 39.9319C271.294 39.9319 270.586 40.0433 269.885 40.2662C269.184 40.4825 268.551 40.784 267.988 41.1707L267.584 40.453C268.902 39.5485 270.39 39.0962 272.048 39.0962C272.618 39.0962 273.152 39.1683 273.651 39.3125C274.155 39.4567 274.562 39.6697 274.87 39.9516C275.178 40.2334 275.332 40.5742 275.332 40.9741C275.332 41.3804 275.191 41.7114 274.909 41.9671C274.627 42.2161 274.221 42.4128 273.69 42.557C273.166 42.7012 272.468 42.8322 271.596 42.9502C270.803 43.0617 270.187 43.1862 269.747 43.3238C269.308 43.4615 268.994 43.6253 268.804 43.8154C268.62 43.9989 268.518 44.2316 268.499 44.5135H274.683V43.0485H275.499Z" fill="white"/>
<path d="M258.824 45.4573C258.058 45.4573 257.34 45.3426 256.671 45.1132C256.003 44.8772 255.462 44.52 255.049 44.0415C254.643 43.5631 254.439 42.9764 254.439 42.2817C254.439 41.6066 254.649 41.0298 255.069 40.5513C255.488 40.0728 256.032 39.7123 256.701 39.4698C257.376 39.2207 258.084 39.0962 258.824 39.0962C259.585 39.0962 260.299 39.2207 260.968 39.4698C261.643 39.7123 262.187 40.0728 262.6 40.5513C263.019 41.0298 263.229 41.6066 263.229 42.2817C263.229 42.9764 263.019 43.5631 262.6 44.0415C262.18 44.5135 261.633 44.8674 260.958 45.1034C260.289 45.3393 259.578 45.4573 258.824 45.4573ZM258.834 44.6904C259.437 44.6904 259.998 44.5987 260.515 44.4152C261.033 44.2316 261.446 43.9596 261.754 43.5991C262.069 43.2321 262.226 42.7929 262.226 42.2817C262.226 41.7901 262.072 41.364 261.764 41.0035C261.456 40.6365 261.043 40.3547 260.525 40.158C260.014 39.9614 259.45 39.8631 258.834 39.8631C258.244 39.8631 257.69 39.9614 257.173 40.158C256.655 40.3547 256.239 40.6365 255.924 41.0035C255.609 41.3706 255.452 41.7966 255.452 42.2817C255.452 42.7929 255.603 43.2321 255.904 43.5991C256.212 43.9596 256.622 44.2316 257.133 44.4152C257.651 44.5987 258.218 44.6904 258.834 44.6904Z" fill="white"/>
<path d="M249.784 43.0485V45.3295H241.801V44.5135C241.834 43.9105 242.138 43.4254 242.715 43.0584C243.298 42.6848 244.223 42.3931 245.488 42.1834C246.412 42.0326 247.064 41.9146 247.444 41.8294C247.831 41.7442 248.123 41.6361 248.319 41.505C248.522 41.3739 248.624 41.1903 248.624 40.9544C248.624 40.6398 248.411 40.3907 247.985 40.2072C247.559 40.0237 246.995 39.9319 246.294 39.9319C245.579 39.9319 244.872 40.0433 244.17 40.2662C243.469 40.4825 242.836 40.784 242.273 41.1707L241.87 40.453C243.187 39.5485 244.675 39.0962 246.333 39.0962C246.903 39.0962 247.438 39.1683 247.936 39.3125C248.44 39.4567 248.847 39.6697 249.155 39.9516C249.463 40.2334 249.617 40.5742 249.617 40.9741C249.617 41.3804 249.476 41.7114 249.194 41.9671C248.912 42.2161 248.506 42.4128 247.975 42.557C247.451 42.7012 246.753 42.8322 245.881 42.9502C245.088 43.0617 244.472 43.1862 244.033 43.3238C243.593 43.4615 243.279 43.6253 243.089 43.8154C242.905 43.9989 242.804 44.2316 242.784 44.5135H248.968V43.0485H249.784Z" fill="white"/>
<path opacity="0.5" d="M229.436 45.3666C228.773 45.3666 228.204 45.26 227.636 44.9166L227.92 44.0165C228.346 44.3955 229.021 44.5139 229.507 44.5139C229.827 44.5139 230.052 44.4784 230.241 44.4192C230.348 44.3126 230.419 44.1942 230.419 44.0402C230.419 43.1994 227.778 43.7797 227.778 42.1335C227.778 41.0914 228.631 40.6177 229.59 40.6177C230.146 40.6177 230.774 40.7243 231.212 41.0914L230.94 41.9559C230.549 41.6362 229.992 41.4467 229.531 41.4467C229.223 41.4467 229.033 41.494 228.832 41.5888C228.773 41.6835 228.725 41.7901 228.725 41.9322C228.725 42.8323 231.366 42.1691 231.366 43.8626C231.366 44.9521 230.407 45.3666 229.436 45.3666Z" fill="white"/>
<path opacity="0.5" d="M219.634 45.3784C218.52 45.3784 217.964 44.6087 217.964 43.5191V40.7598H218.911V43.377C218.911 43.9336 219.148 44.5139 219.847 44.5139C220.273 44.5139 220.735 44.2534 221.019 43.981V40.7598H221.967V45.2363H221.15L221.043 44.7745C220.7 45.1771 220.167 45.3784 219.634 45.3784Z" fill="white"/>
<path opacity="0.5" d="M210.439 45.3666C209.776 45.3666 209.207 45.26 208.639 44.9166L208.923 44.0165C209.349 44.3955 210.024 44.5139 210.51 44.5139C210.83 44.5139 211.055 44.4784 211.244 44.4192C211.351 44.3126 211.422 44.1942 211.422 44.0402C211.422 43.1994 208.781 43.7797 208.781 42.1335C208.781 41.0914 209.633 40.6177 210.593 40.6177C211.149 40.6177 211.777 40.7243 212.215 41.0914L211.943 41.9559C211.552 41.6362 210.995 41.4467 210.534 41.4467C210.226 41.4467 210.036 41.494 209.835 41.5888C209.776 41.6835 209.728 41.7901 209.728 41.9322C209.728 42.8323 212.369 42.1691 212.369 43.8626C212.369 44.9521 211.41 45.3666 210.439 45.3666Z" fill="white"/>
<path opacity="0.5" d="M202.102 42.6665C202.102 42.027 201.866 41.4704 201.202 41.4704C200.741 41.4704 200.267 41.7901 199.983 42.1099V45.2363H199.035V40.7598H199.864L199.971 41.2809C200.326 40.8427 200.8 40.6177 201.38 40.6177C202.552 40.6177 203.05 41.3875 203.05 42.5007V45.2363H202.102V42.6665Z" fill="white"/>
<path opacity="0.5" d="M191.289 45.3785C189.927 45.3785 188.968 44.6442 188.968 43.081C188.968 41.648 189.785 40.6177 191.171 40.6177C192.876 40.6177 193.397 41.8612 193.255 43.377H189.915C189.927 44.0165 190.424 44.5258 191.396 44.5258C191.822 44.5258 192.248 44.431 192.746 44.135L192.982 44.9403C192.497 45.2363 191.893 45.3785 191.289 45.3785ZM189.927 42.548H192.343C192.296 41.8375 191.834 41.4704 191.171 41.4704C190.685 41.4704 190.353 41.648 190.164 41.8375C190.01 42.0862 189.939 42.2993 189.927 42.548Z" fill="white"/>
<path opacity="0.5" d="M181.175 45.3785C178.83 45.3785 177.468 44.1231 177.468 41.7309C177.468 39.1018 179.102 37.6333 181.34 37.6333C182.122 37.6333 182.821 37.8109 183.46 38.1307L183.2 38.9952C182.631 38.711 182.039 38.5333 181.423 38.5333C180.642 38.5333 179.706 38.8176 179.197 39.2558C178.735 39.8361 178.474 40.7361 178.474 41.6717C178.474 43.4362 179.398 44.4784 181.198 44.4784C182.039 44.4784 182.868 44.2534 183.472 43.9336L183.721 44.7153C183.01 45.1771 182.11 45.3785 181.175 45.3785Z" fill="white"/>
<path opacity="0.5" d="M162.09 45.2363V40.7598H162.919L163.025 41.3046C163.333 40.8308 163.772 40.6177 164.293 40.6177C164.601 40.6177 164.873 40.7006 165.122 40.8664L164.814 41.8256C164.565 41.648 164.352 41.5296 164.068 41.5296C163.641 41.5296 163.25 41.8019 163.037 42.1335V45.2363H162.09Z" fill="white"/>
<path opacity="0.5" d="M155.269 45.2363L155.163 44.81C154.831 45.1771 154.298 45.3785 153.718 45.3785C152.759 45.3785 152.131 44.9284 152.131 43.9336C152.131 43.0336 152.77 42.5836 154.026 42.5836H155.151V42.3467C155.151 41.7309 154.819 41.4704 154.049 41.4704C153.611 41.4704 153.055 41.5888 152.759 41.7427L152.51 40.9611C152.972 40.7598 153.647 40.6177 154.18 40.6177C155.506 40.6177 156.098 41.1624 156.098 42.4178V45.2363H155.269ZM153.078 43.9336C153.078 44.36 153.339 44.5495 153.884 44.5495C154.393 44.5495 154.926 44.3245 155.151 44.0165V43.377H154.026C153.611 43.377 153.374 43.4007 153.185 43.4599C153.114 43.5902 153.078 43.756 153.078 43.9336Z" fill="white"/>
<path opacity="0.5" d="M145.745 45.3776C144.727 45.3776 144.253 44.7262 144.253 43.7315V41.5879H143.472V40.7589H144.253V39.1602H145.201V40.7589H146.669V41.5879H145.201V43.6959C145.201 44.1933 145.461 44.5131 145.994 44.5131C146.207 44.5131 146.432 44.4657 146.634 44.3473L146.823 45.1407C146.503 45.3421 146.148 45.3776 145.745 45.3776Z" fill="white"/>
<path opacity="0.5" d="M137.048 45.2363L136.941 44.81C136.609 45.1771 136.076 45.3785 135.496 45.3785C134.537 45.3785 133.909 44.9284 133.909 43.9336C133.909 43.0336 134.549 42.5836 135.804 42.5836H136.929V42.3467C136.929 41.7309 136.597 41.4704 135.828 41.4704C135.39 41.4704 134.833 41.5888 134.537 41.7427L134.288 40.9611C134.75 40.7598 135.425 40.6177 135.958 40.6177C137.284 40.6177 137.876 41.1624 137.876 42.4178V45.2363H137.048ZM134.857 43.9336C134.857 44.36 135.117 44.5495 135.662 44.5495C136.171 44.5495 136.704 44.3245 136.929 44.0165V43.377H135.804C135.39 43.377 135.153 43.4007 134.963 43.4599C134.892 43.5902 134.857 43.756 134.857 43.9336Z" fill="white"/>
<path opacity="0.5" d="M128.116 47.4154C126.434 47.4154 124.848 45.8522 123.403 45.1653C121.839 44.6324 121.129 43.4481 121.129 41.5059C121.129 39.2558 122.515 37.6333 124.776 37.6333C127.169 37.6333 128.483 39.1136 128.483 41.5059C128.483 43.4836 127.429 44.9995 125.309 45.2127C126.245 45.8995 127.406 46.5154 128.46 46.5154C128.708 46.5154 129.099 46.4206 129.36 46.3022L129.573 47.0483C129.158 47.3088 128.625 47.4154 128.116 47.4154ZM122.124 41.5059C122.124 43.0454 122.953 44.4784 124.776 44.4784C125.594 44.4784 126.423 44.135 126.849 43.7678C127.275 43.2231 127.488 42.2993 127.488 41.5059C127.488 39.9545 126.588 38.5333 124.776 38.5333C124.007 38.5333 123.19 38.8531 122.787 39.2202C122.325 39.765 122.124 40.7361 122.124 41.5059Z" fill="white"/>
<path d="M67.2871 7.65869H74.2201V15.8627H67.2871V7.65869Z" fill="white"/>
<path d="M67.2871 16.4404H74.2201V24.6445H67.2871V16.4404Z" fill="white"/>
<path d="M74.6709 16.4404H81.6039V24.6445H74.6709V16.4404Z" fill="white"/>
<path d="M82.1592 7.65869H89.0922V15.8627H82.1592V7.65869Z" fill="white"/>
<path d="M74.6709 34.0039H81.6039V42.208H74.6709V34.0039Z" fill="white"/>
<path d="M89.3975 34.0039H96.3305V42.208H89.3975V34.0039Z" fill="white"/>
<path d="M67.2871 25.2222H74.2201V33.4262H67.2871V25.2222Z" fill="white"/>
<path d="M82.1592 25.2222H89.0922V33.4262H82.1592V25.2222Z" fill="white"/>
<path d="M97.0264 25.2222H103.959V33.4262H97.0264V25.2222Z" fill="white"/>
<path d="M66.7854 7.7168V50.7592L31.6582 42.5551V15.4009L66.7854 7.7168Z" fill="white"/>
<path d="M67.2871 42.7856H74.2201V50.9897H67.2871V42.7856Z" fill="white"/>
<path d="M74.6709 42.7856H81.6039V50.9897H74.6709V42.7856Z" fill="white"/>
<path d="M23.9189 26.7241H30.2742V31.6928H23.9189V26.7241Z" fill="white"/>
<path d="M7.74414 26.7241H14.0994V31.6928H7.74414V26.7241Z" fill="white"/>
<path d="M0 20.9468H6.35525V25.9154H0V20.9468Z" fill="white"/>
<path d="M7.74414 36.6621H14.0994V41.6308H7.74414V36.6621Z" fill="white"/>
<path d="M23.9189 32.1558H30.2742V37.1244H23.9189V32.1558Z" fill="white"/>
<path d="M23.9189 37.5864H30.2742V42.5551H23.9189V37.5864Z" fill="white"/>
<path d="M16.1758 15.979H22.531V20.9477H16.1758V15.979Z" fill="white"/>
<path d="M23.9189 15.979H30.2742V20.9477H23.9189V15.979Z" fill="white"/>
<path d="M16.1758 21.7559H22.531V26.7245H16.1758V21.7559Z" fill="white"/>
<path d="M16.1758 31.6934H22.531V36.662H16.1758V31.6934Z" fill="white"/>
</svg>
