<svg width="183" height="101" viewBox="0 0 183 101" fill="none" xmlns="http://www.w3.org/2000/svg">
<path d="M180.452 82.9894H175.376L174.938 81.4107L175.376 79.8562H177.877C177.999 78.8847 178.023 78.0589 178.023 76.723V73.3713H180.889V76.723C180.889 78.6418 180.865 80.7306 180.452 82.9894ZM175.011 68.8536C175.011 67.9064 175.691 67.1777 176.639 67.1777C177.586 67.1777 178.266 67.9064 178.266 68.8536C178.266 69.7766 177.586 70.5295 176.639 70.5295C175.691 70.5295 175.011 69.7766 175.011 68.8536ZM179.019 68.8536C179.019 67.9064 179.699 67.1777 180.646 67.1777C181.593 67.1777 182.274 67.9064 182.274 68.8536C182.274 69.7766 181.593 70.5295 180.646 70.5295C179.699 70.5295 179.019 69.7766 179.019 68.8536Z" fill="white"/>
<path d="M167.79 82.9904H161.5L161.062 81.4117L161.5 79.8572H166.333C165.459 78.9586 164.39 78.1327 162.957 77.2827V74.3438C164.269 73.4451 166.455 72.8379 168.543 72.8379C171.701 72.8379 173.741 74.028 173.741 76.3597C173.741 77.8899 172.891 79.0557 171.992 79.8572H175.368V82.9904H171.531C170.316 82.9904 169.491 82.5775 168.932 82.116C168.519 82.5046 168.106 82.8204 167.79 82.9904ZM165.969 76.1411C167.183 76.9426 168.276 77.9142 169.078 78.8371C170.219 77.9627 171.021 77.0883 171.166 76.4569C170.729 75.9225 169.733 75.6553 168.543 75.6553C167.572 75.6553 166.722 75.8254 165.969 76.1411Z" fill="white"/>
<path d="M160.583 82.9901C159.15 82.9901 157.985 82.4315 157.037 81.2171L156.309 82.3344C154.997 83.0144 151.815 83.233 148.974 82.8201L149.241 79.6626C151.937 79.9541 154.268 79.9055 155.896 79.2497C155.143 77.5981 154.536 75.3393 154.001 72.4247L156.916 71.8418C158.13 78.1568 158.98 79.8569 160.705 79.8569H161.506V82.9901H160.583Z" fill="white"/>
<path d="M143.722 82.9901V66.5469H146.612V82.9901H143.722Z" fill="white"/>
<path d="M135.739 82.9905C133.844 82.9905 132.945 82.942 131.658 82.7962L131.78 79.663C132.994 79.7845 133.82 79.8574 135.666 79.8574H138.532C137.925 77.55 136.564 75.8498 134.184 74.6839L135.593 72.1094C139.382 73.4695 141.738 77.1371 141.422 81.2175L140.111 82.9905H135.739Z" fill="white"/>
<path d="M124.037 82.99H113.35L112.913 81.4113L113.35 79.8568H115.828C115.172 79.2739 114.735 78.5452 114.735 77.598C114.735 75.4606 116.921 72.1331 119.665 72.1331C122.677 72.1331 124.693 76.0678 124.693 79.4682C124.693 80.634 124.474 81.897 124.037 82.99ZM115.973 68.587C115.973 67.6398 116.653 66.9111 117.601 66.9111C118.548 66.9111 119.228 67.6398 119.228 68.587C119.228 69.51 118.548 70.2629 117.601 70.2629C116.653 70.2629 115.973 69.51 115.973 68.587ZM117.382 77.6223C118.135 78.7153 119.957 79.5896 121.73 79.8811C121.754 79.7111 121.754 79.5411 121.754 79.3953C121.754 77.4523 120.588 75.1935 119.568 75.1935C118.888 75.1935 117.649 76.2136 117.382 77.6223ZM119.981 68.587C119.981 67.6398 120.661 66.9111 121.608 66.9111C122.556 66.9111 123.236 67.6398 123.236 68.587C123.236 69.51 122.556 70.2629 121.608 70.2629C120.661 70.2629 119.981 69.51 119.981 68.587Z" fill="white"/>
<path d="M113.356 82.9901H95.9411L95.5039 81.4113L95.9411 79.8569H97.4713C98.0542 78.8853 98.6857 77.9624 99.3658 77.1123C99.5601 75.4607 99.6086 74.1248 99.6086 72.789V66.5469H102.475V70.9674C102.475 72.4247 102.45 73.3476 102.353 74.1734C103.665 73.2505 105.074 72.7161 106.579 72.7161C110.004 72.7161 112.069 75.5093 112.069 77.8895C112.069 78.7639 111.753 79.444 111.243 80.0512C111.753 79.9297 112.287 79.8569 112.821 79.8569H113.356V82.9901ZM100.313 79.8569H102.183C104.758 79.8569 107.818 79.614 109.227 78.6182C109.227 77.0637 108.037 75.8493 106.094 75.8493C104.223 75.8493 102.475 76.918 100.313 79.8569Z" fill="white"/>
<path d="M84.3623 86.0499C87.7627 84.3254 89.7543 82.5038 90.6287 80.3664C90.4587 79.2492 89.9972 77.6704 88.9771 74.853L91.7945 73.8086L93.0332 77.3547C93.7133 79.4192 94.2962 79.8564 95.4135 79.8564H95.9478V82.9896H95.0492C94.2962 82.9896 93.5433 82.7953 92.8875 82.3338C91.916 84.9084 89.4143 86.9 86.0382 88.6488L84.3623 86.0499Z" fill="white"/>
<path d="M75.485 73.9774C78.2134 73.9774 80.364 74.3626 81.9368 75.133C83.5096 75.8873 84.296 77.0749 84.296 78.6959C84.296 79.707 83.9028 80.5897 83.1164 81.344C82.3461 82.0983 81.2868 82.6841 79.9387 83.1014C78.5905 83.5026 77.0899 83.7032 75.4369 83.7032C73.1579 83.7032 71.1838 83.4625 69.5147 82.981C67.8616 82.4995 66.4814 81.9378 65.374 81.2958L66.1925 79.394C67.2357 79.9878 68.5678 80.5094 70.1888 80.9588C71.8258 81.4082 73.5912 81.6329 75.485 81.6329C77.2665 81.6329 78.7751 81.3761 80.0109 80.8625C81.2627 80.3489 81.8887 79.6187 81.8887 78.6718C81.8887 77.7891 81.3189 77.1231 80.1794 76.6737C79.056 76.2243 77.2424 75.9996 74.7387 75.9996C73.4869 75.9996 72.3474 76.0558 71.3203 76.1681C70.2931 76.2644 69.1376 76.4089 67.8536 76.6015C67.2759 76.6978 66.8425 76.7619 66.5536 76.794V68.4404H83.7183V70.4386H68.9129V74.5311C71.3203 74.162 73.511 73.9774 75.485 73.9774Z" fill="white"/>
<path d="M63.422 77.7812V83.3663H43.874V81.3682C43.9543 79.8917 44.7006 78.704 46.1129 77.8053C47.5413 76.8905 49.8042 76.1763 52.9017 75.6627C55.1646 75.2936 56.7615 75.0047 57.6924 74.796C58.6393 74.5874 59.3535 74.3226 59.835 74.0016C60.3325 73.6806 60.5813 73.2312 60.5813 72.6535C60.5813 71.8831 60.0597 71.2732 59.0165 70.8239C57.9733 70.3745 56.593 70.1498 54.8758 70.1498C53.1264 70.1498 51.3931 70.4226 49.6758 70.9683C47.9585 71.4979 46.4098 72.2362 45.0296 73.1831L44.0425 71.4257C47.2684 69.2109 50.9116 68.1035 54.9721 68.1035C56.3683 68.1035 57.6763 68.2801 58.8961 68.6331C60.1319 68.9862 61.1269 69.5078 61.8812 70.1979C62.6356 70.8881 63.0127 71.7226 63.0127 72.7016C63.0127 73.6967 62.6677 74.5072 61.9775 75.1331C61.2874 75.7429 60.2924 76.2244 58.9924 76.5775C57.7084 76.9306 55.9992 77.2516 53.8647 77.5405C51.9227 77.8133 50.4141 78.1182 49.3388 78.4553C48.2635 78.7923 47.4931 79.1935 47.0277 79.659C46.5783 80.1083 46.3296 80.6781 46.2814 81.3682H61.4238V77.7812H63.422Z" fill="white"/>
<path d="M32.2164 83.6793C30.3387 83.6793 28.5813 83.3984 26.9443 82.8367C25.3072 82.2589 23.9832 81.3842 22.9721 80.2126C21.977 79.0411 21.4795 77.6047 21.4795 75.9034C21.4795 74.2504 21.9931 72.838 23.0202 71.6664C24.0474 70.4948 25.3795 69.6121 27.0165 69.0183C28.6695 68.4085 30.4029 68.1035 32.2164 68.1035C34.0781 68.1035 35.8275 68.4085 37.4645 69.0183C39.1176 69.6121 40.4497 70.4948 41.4608 71.6664C42.4879 72.838 43.0015 74.2504 43.0015 75.9034C43.0015 77.6047 42.4879 79.0411 41.4608 80.2126C40.4336 81.3682 39.0935 82.2348 37.4404 82.8126C35.8034 83.3904 34.0621 83.6793 32.2164 83.6793ZM32.2405 81.8015C33.717 81.8015 35.0892 81.5768 36.3571 81.1275C37.625 80.6781 38.6361 80.012 39.3904 79.1293C40.1608 78.2306 40.546 77.1553 40.546 75.9034C40.546 74.6997 40.1688 73.6565 39.4145 72.7738C38.6602 71.8751 37.6491 71.185 36.3812 70.7035C35.1293 70.222 33.7491 69.9813 32.2405 69.9813C30.7961 69.9813 29.4399 70.222 28.172 70.7035C26.9041 71.185 25.885 71.8751 25.1146 72.7738C24.3443 73.6726 23.9591 74.7158 23.9591 75.9034C23.9591 77.1553 24.3282 78.2306 25.0665 79.1293C25.8208 80.012 26.8239 80.6781 28.0757 81.1275C29.3436 81.5768 30.7319 81.8015 32.2405 81.8015Z" fill="white"/>
<path d="M19.7149 77.7812V83.3663H0.166992V81.3682C0.247238 79.8917 0.993527 78.704 2.40586 77.8053C3.83424 76.8905 6.09718 76.1763 9.19468 75.6627C11.4576 75.2936 13.0545 75.0047 13.9854 74.796C14.9323 74.5874 15.6465 74.3226 16.1279 74.0016C16.6255 73.6806 16.8742 73.2312 16.8742 72.6535C16.8742 71.8831 16.3526 71.2732 15.3094 70.8239C14.2662 70.3745 12.886 70.1498 11.1687 70.1498C9.41937 70.1498 7.68605 70.4226 5.96878 70.9683C4.25152 71.4979 2.70277 72.2362 1.32254 73.1831L0.335509 71.4257C3.5614 69.2109 7.20457 68.1035 11.265 68.1035C12.6613 68.1035 13.9693 68.2801 15.1891 68.6331C16.4248 68.9862 17.4199 69.5078 18.1742 70.1979C18.9285 70.8881 19.3057 71.7226 19.3057 72.7016C19.3057 73.6967 18.9606 74.5072 18.2705 75.1331C17.5804 75.7429 16.5853 76.2244 15.2854 76.5775C14.0014 76.9306 12.2922 77.2516 10.1576 77.5405C8.21567 77.8133 6.70705 78.1182 5.63175 78.4553C4.55645 78.7923 3.78609 79.1935 3.32066 79.659C2.87129 80.1083 2.62252 80.6781 2.57437 81.3682H17.7168V77.7812H19.7149Z" fill="white"/>
<path d="M175.954 93.837C177.155 93.837 178.102 94.0065 178.794 94.3457C179.487 94.6778 179.833 95.2006 179.833 95.9142C179.833 96.3593 179.66 96.7479 179.314 97.08C178.975 97.4121 178.508 97.67 177.915 97.8537C177.321 98.0303 176.661 98.1186 175.933 98.1186C174.93 98.1186 174.061 98.0126 173.326 97.8007C172.598 97.5887 171.99 97.3414 171.503 97.0588L171.863 96.2215C172.323 96.483 172.909 96.7126 173.623 96.9104C174.343 97.1083 175.12 97.2072 175.954 97.2072C176.738 97.2072 177.403 97.0941 177.947 96.868C178.498 96.6419 178.773 96.3205 178.773 95.9036C178.773 95.515 178.522 95.2218 178.021 95.024C177.526 94.8261 176.728 94.7272 175.626 94.7272C175.074 94.7272 174.573 94.7519 174.121 94.8014C173.668 94.8438 173.16 94.9074 172.595 94.9922C172.34 95.0346 172.149 95.0628 172.022 95.077V91.3994H179.579V92.2791H173.061V94.0807C174.121 93.9182 175.085 93.837 175.954 93.837Z" fill="white"/>
<path d="M166.404 95.5114V97.9702H157.799V97.0905C157.834 96.4405 158.163 95.9177 158.784 95.522C159.413 95.1193 160.409 94.8049 161.773 94.5788C162.769 94.4163 163.472 94.2891 163.882 94.1972C164.299 94.1054 164.613 93.9888 164.825 93.8475C165.044 93.7062 165.154 93.5084 165.154 93.254C165.154 92.9149 164.924 92.6464 164.465 92.4486C164.006 92.2507 163.398 92.1518 162.642 92.1518C161.872 92.1518 161.109 92.2719 160.353 92.5121C159.597 92.7453 158.915 93.0703 158.308 93.4872L157.873 92.7135C159.293 91.7385 160.897 91.251 162.685 91.251C163.299 91.251 163.875 91.3287 164.412 91.4841C164.956 91.6396 165.394 91.8692 165.726 92.173C166.058 92.4768 166.224 92.8442 166.224 93.2752C166.224 93.7133 166.072 94.0701 165.769 94.3456C165.465 94.6141 165.027 94.8261 164.454 94.9815C163.889 95.1369 163.137 95.2783 162.197 95.4054C161.342 95.5255 160.678 95.6598 160.205 95.8082C159.731 95.9565 159.392 96.1332 159.187 96.3381C158.989 96.5359 158.88 96.7867 158.859 97.0905H165.525V95.5114H166.404Z" fill="white"/>
<path d="M148.428 98.1079C147.601 98.1079 146.828 97.9843 146.107 97.737C145.386 97.4827 144.803 97.0976 144.358 96.5818C143.92 96.066 143.701 95.4337 143.701 94.6848C143.701 93.957 143.927 93.3353 144.379 92.8195C144.832 92.3037 145.418 91.9151 146.139 91.6537C146.866 91.3852 147.63 91.251 148.428 91.251C149.248 91.251 150.018 91.3852 150.738 91.6537C151.466 91.9151 152.052 92.3037 152.498 92.8195C152.95 93.3353 153.176 93.957 153.176 94.6848C153.176 95.4337 152.95 96.066 152.498 96.5818C152.045 97.0905 151.455 97.4721 150.728 97.7264C150.007 97.9808 149.24 98.1079 148.428 98.1079ZM148.439 97.2813C149.089 97.2813 149.693 97.1824 150.251 96.9845C150.809 96.7867 151.254 96.4935 151.586 96.1049C151.925 95.7092 152.095 95.2359 152.095 94.6848C152.095 94.1549 151.929 93.6956 151.597 93.307C151.265 92.9113 150.82 92.6075 150.261 92.3956C149.71 92.1836 149.103 92.0776 148.439 92.0776C147.803 92.0776 147.206 92.1836 146.647 92.3956C146.089 92.6075 145.641 92.9113 145.301 93.307C144.962 93.7027 144.793 94.1619 144.793 94.6848C144.793 95.2359 144.955 95.7092 145.28 96.1049C145.612 96.4935 146.054 96.7867 146.605 96.9845C147.163 97.1824 147.774 97.2813 148.439 97.2813Z" fill="white"/>
<path d="M138.685 95.5114V97.9702H130.079V97.0905C130.114 96.4405 130.443 95.9177 131.065 95.522C131.694 95.1193 132.69 94.8049 134.053 94.5788C135.05 94.4163 135.753 94.2891 136.162 94.1972C136.579 94.1054 136.894 93.9888 137.106 93.8475C137.325 93.7062 137.434 93.5084 137.434 93.254C137.434 92.9149 137.205 92.6464 136.745 92.4486C136.286 92.2507 135.678 92.1518 134.922 92.1518C134.152 92.1518 133.389 92.2719 132.633 92.5121C131.877 92.7453 131.195 93.0703 130.588 93.4872L130.153 92.7135C131.573 91.7385 133.177 91.251 134.965 91.251C135.58 91.251 136.155 91.3287 136.692 91.4841C137.236 91.6396 137.674 91.8692 138.006 92.173C138.339 92.4768 138.505 92.8442 138.505 93.2752C138.505 93.7133 138.353 94.0701 138.049 94.3456C137.745 94.6141 137.307 94.8261 136.735 94.9815C136.169 95.1369 135.417 95.2783 134.477 95.4054C133.622 95.5255 132.958 95.6598 132.485 95.8082C132.011 95.9565 131.672 96.1332 131.467 96.3381C131.27 96.5359 131.16 96.7867 131.139 97.0905H137.805V95.5114H138.685Z" fill="white"/>
<path opacity="0.5" d="M116.748 98.0107C116.033 98.0107 115.42 97.8958 114.808 97.5256L115.114 96.5554C115.574 96.9639 116.301 97.0916 116.825 97.0916C117.169 97.0916 117.412 97.0533 117.616 96.9894C117.731 96.8746 117.808 96.7469 117.808 96.5809C117.808 95.6746 114.961 96.3001 114.961 94.5256C114.961 93.4022 115.88 92.8916 116.914 92.8916C117.514 92.8916 118.191 93.0065 118.663 93.4022L118.369 94.3341C117.948 93.9895 117.348 93.7852 116.85 93.7852C116.518 93.7852 116.314 93.8363 116.097 93.9384C116.033 94.0405 115.982 94.1554 115.982 94.3086C115.982 95.2788 118.829 94.5639 118.829 96.3894C118.829 97.5639 117.795 98.0107 116.748 98.0107Z" fill="white"/>
<path opacity="0.5" d="M106.187 98.0226C104.987 98.0226 104.387 97.1929 104.387 96.0184V93.0439H105.408V95.8652C105.408 96.4652 105.663 97.0907 106.416 97.0907C106.876 97.0907 107.374 96.8099 107.68 96.5163V93.0439H108.702V97.8694H107.821L107.706 97.3716C107.336 97.8056 106.761 98.0226 106.187 98.0226Z" fill="white"/>
<path opacity="0.5" d="M96.2754 98.0107C95.5605 98.0107 94.9477 97.8958 94.335 97.5256L94.6413 96.5554C95.1009 96.9639 95.8286 97.0916 96.352 97.0916C96.6966 97.0916 96.9392 97.0533 97.1435 96.9894C97.2583 96.8746 97.3349 96.7469 97.3349 96.5809C97.3349 95.6746 94.4882 96.3001 94.4882 94.5256C94.4882 93.4022 95.4073 92.8916 96.4413 92.8916C97.0413 92.8916 97.7179 93.0065 98.1903 93.4022L97.8966 94.3341C97.4754 93.9895 96.8754 93.7852 96.3775 93.7852C96.0456 93.7852 95.8413 93.8363 95.6243 93.9384C95.5605 94.0405 95.5094 94.1554 95.5094 94.3086C95.5094 95.2788 98.3562 94.5639 98.3562 96.3894C98.3562 97.5639 97.3222 98.0107 96.2754 98.0107Z" fill="white"/>
<path opacity="0.5" d="M87.2839 95.1001C87.2839 94.4107 87.0286 93.8107 86.3137 93.8107C85.8158 93.8107 85.3052 94.1554 84.9988 94.5001V97.8703H83.9775V93.0448H84.8711L84.986 93.6065C85.369 93.1342 85.8796 92.8916 86.5052 92.8916C87.769 92.8916 88.3052 93.7214 88.3052 94.9214V97.8703H87.2839V95.1001Z" fill="white"/>
<path opacity="0.5" d="M75.631 98.0235C74.1629 98.0235 73.1289 97.232 73.1289 95.5469C73.1289 94.0022 74.0097 92.8916 75.5034 92.8916C77.3416 92.8916 77.9033 94.232 77.7502 95.866H74.1502C74.1629 96.5554 74.6991 97.1043 75.7459 97.1043C76.2055 97.1043 76.6651 97.0022 77.2012 96.6831L77.4565 97.5511C76.9331 97.8703 76.2821 98.0235 75.631 98.0235ZM74.1629 94.9724H76.7672C76.7161 94.2065 76.2182 93.8107 75.5034 93.8107C74.98 93.8107 74.6225 94.0022 74.4183 94.2065C74.2523 94.4746 74.1757 94.7044 74.1629 94.9724Z" fill="white"/>
<path opacity="0.5" d="M64.7281 98.0227C62.2005 98.0227 60.7324 96.6695 60.7324 94.0908C60.7324 91.2568 62.4941 89.6738 64.9069 89.6738C65.7494 89.6738 66.5026 89.8653 67.192 90.21L66.9111 91.1419C66.2983 90.8355 65.66 90.644 64.9962 90.644C64.1537 90.644 63.1452 90.9504 62.5962 91.4228C62.0984 92.0483 61.8175 93.0185 61.8175 94.027C61.8175 95.9291 62.8133 97.0525 64.7537 97.0525C65.66 97.0525 66.5537 96.8099 67.2047 96.4653L67.4728 97.3078C66.7068 97.8057 65.7366 98.0227 64.7281 98.0227Z" fill="white"/>
<path opacity="0.5" d="M44.1543 97.8703V93.0448H45.0479L45.1628 93.632C45.4947 93.1214 45.9671 92.8916 46.5288 92.8916C46.8607 92.8916 47.1543 92.981 47.4224 93.1597L47.0904 94.1937C46.8224 94.0022 46.5926 93.8746 46.2862 93.8746C45.8266 93.8746 45.4054 94.1682 45.1756 94.5256V97.8703H44.1543Z" fill="white"/>
<path opacity="0.5" d="M36.7999 97.8703L36.6851 97.4107C36.3276 97.8065 35.7531 98.0235 35.1276 98.0235C34.0936 98.0235 33.417 97.5384 33.417 96.466C33.417 95.4958 34.1063 95.0107 35.4595 95.0107H36.6723V94.7554C36.6723 94.0916 36.3148 93.8107 35.4851 93.8107C35.0127 93.8107 34.4127 93.9384 34.0936 94.1044L33.8255 93.2618C34.3234 93.0448 35.051 92.8916 35.6255 92.8916C37.0553 92.8916 37.6936 93.4788 37.6936 94.832V97.8703H36.7999ZM34.4383 96.466C34.4383 96.9256 34.7191 97.1299 35.3063 97.1299C35.8553 97.1299 36.4297 96.8873 36.6723 96.5554V95.866H35.4595C35.0127 95.866 34.7574 95.8916 34.5532 95.9554C34.4766 96.0958 34.4383 96.2746 34.4383 96.466Z" fill="white"/>
<path opacity="0.5" d="M26.5341 98.0234C25.4362 98.0234 24.9256 97.3212 24.9256 96.2489V93.9383H24.083V93.0447H24.9256V91.3213H25.9468V93.0447H27.5298V93.9383H25.9468V96.2106C25.9468 96.7468 26.2277 97.0915 26.8021 97.0915C27.0319 97.0915 27.2745 97.0404 27.4915 96.9127L27.6957 97.7681C27.3511 97.9851 26.9681 98.0234 26.5341 98.0234Z" fill="white"/>
<path opacity="0.5" d="M17.1623 97.8703L17.0474 97.4107C16.6899 97.8065 16.1154 98.0235 15.4899 98.0235C14.4559 98.0235 13.7793 97.5384 13.7793 96.466C13.7793 95.4958 14.4687 95.0107 15.8218 95.0107H17.0346V94.7554C17.0346 94.0916 16.6771 93.8107 15.8474 93.8107C15.375 93.8107 14.775 93.9384 14.4559 94.1044L14.1878 93.2618C14.6857 93.0448 15.4133 92.8916 15.9878 92.8916C17.4176 92.8916 18.0559 93.4788 18.0559 94.832V97.8703H17.1623ZM14.8006 96.466C14.8006 96.9256 15.0814 97.1299 15.6686 97.1299C16.2176 97.1299 16.792 96.8873 17.0346 96.5554V95.866H15.8218C15.375 95.866 15.1197 95.8916 14.9155 95.9554C14.8389 96.0958 14.8006 96.2746 14.8006 96.466Z" fill="white"/>
<path opacity="0.5" d="M7.53186 100.218C5.71911 100.218 4.00848 98.5333 2.45105 97.7929C0.765952 97.2185 0 95.9419 0 93.8483C0 91.4228 1.49361 89.6738 3.93189 89.6738C6.51059 89.6738 7.92761 91.2696 7.92761 93.8483C7.92761 95.9802 6.79144 97.6142 4.50635 97.844C5.51486 98.5844 6.76591 99.2482 7.90207 99.2482C8.17016 99.2482 8.59143 99.1461 8.87228 99.0184L9.10207 99.8227C8.65526 100.104 8.08079 100.218 7.53186 100.218ZM1.07233 93.8483C1.07233 95.5078 1.96594 97.0525 3.93189 97.0525C4.81273 97.0525 5.70634 96.6823 6.16591 96.2865C6.62549 95.6993 6.85527 94.7036 6.85527 93.8483C6.85527 92.1759 5.88507 90.644 3.93189 90.644C3.10211 90.644 2.22126 90.9887 1.78722 91.3845C1.28935 91.9717 1.07233 93.0185 1.07233 93.8483Z" fill="white"/>
<path d="M114.376 0H123.425V10.7081H114.376V0Z" fill="white"/>
<path d="M114.376 11.4629H123.425V22.171H114.376V11.4629Z" fill="white"/>
<path d="M124.015 11.4629H133.064V22.171H124.015V11.4629Z" fill="white"/>
<path d="M133.785 0H142.834V10.7081H133.785V0Z" fill="white"/>
<path d="M124.015 34.3867H133.064V45.0948H124.015V34.3867Z" fill="white"/>
<path d="M143.23 34.3867H152.28V45.0948H143.23V34.3867Z" fill="white"/>
<path d="M114.376 22.9248H123.425V33.6329H114.376V22.9248Z" fill="white"/>
<path d="M133.785 22.9248H142.834V33.6329H133.785V22.9248Z" fill="white"/>
<path d="M153.188 22.9248H162.238V33.6329H153.188V22.9248Z" fill="white"/>
<path d="M113.724 0.0761719V56.2559L67.875 45.5478V10.1056L113.724 0.0761719Z" fill="white"/>
<path d="M114.376 45.8486H123.425V56.5567H114.376V45.8486Z" fill="white"/>
<path d="M124.015 45.8486H133.064V56.5567H124.015V45.8486Z" fill="white"/>
<path d="M57.7705 24.8848H66.0655V31.3699H57.7705V24.8848Z" fill="white"/>
<path d="M36.6572 24.8848H44.9522V31.3699H36.6572V24.8848Z" fill="white"/>
<path d="M26.5518 17.3447H34.8467V23.8299H26.5518V17.3447Z" fill="white"/>
<path d="M36.6572 37.8555H44.9522V44.3406H36.6572V37.8555Z" fill="white"/>
<path d="M57.7705 31.9736H66.0655V38.4588H57.7705V31.9736Z" fill="white"/>
<path d="M57.7705 39.0625H66.0655V45.5477H57.7705V39.0625Z" fill="white"/>
<path d="M47.665 10.8594H55.96V17.3445H47.665V10.8594Z" fill="white"/>
<path d="M57.7705 10.8594H66.0655V17.3445H57.7705V10.8594Z" fill="white"/>
<path d="M47.665 18.4004H55.96V24.8856H47.665V18.4004Z" fill="white"/>
<path d="M47.665 31.3701H55.96V37.8553H47.665V31.3701Z" fill="white"/>
</svg>
