<svg width="49" height="100" viewBox="0 0 49 100" fill="none" xmlns="http://www.w3.org/2000/svg">
<path d="M25.7832 1.73633C26.6599 1.42929 27.3805 1.44908 27.9961 1.63867C28.636 1.83584 29.2591 2.24809 29.8574 2.86523C31.078 4.12432 32.0004 6.03481 32.5732 7.75977L32.5977 7.83203L32.6289 7.90137C33.051 8.8404 33.3014 9.64651 33.5156 10.3779C33.7149 11.0585 33.9253 11.8506 34.2568 12.5127C34.6327 13.2633 35.1816 13.9062 36.0576 14.374C36.8696 14.8075 37.8817 15.0459 39.1143 15.1895L39.1943 15.1982L39.2744 15.1992C40.8508 15.2136 42.002 15.666 42.752 16.3691C43.4774 17.0492 43.9889 18.1159 44.0195 19.7158C43.9703 20.2673 43.794 20.8237 43.5049 21.6074C43.2187 22.3832 42.8322 23.3613 42.5586 24.541C42.2275 25.9655 42.7348 27.3067 43.0186 28.1211C43.372 29.1357 43.4618 29.5401 43.375 29.8545C43.2859 30.1752 43.0798 30.5235 42.7119 31.0049C42.4057 31.4056 41.8528 32.0541 41.4756 32.6562L41.4492 32.6982L41.4258 32.7412C39.7384 35.8756 39.0072 38.1791 38.8623 40.4756C38.7228 42.6889 39.1467 44.8361 39.5361 47.4287L39.5381 47.4453L39.541 47.4619C39.6831 48.282 39.841 49.0807 40.0088 49.7637C40.1668 50.4068 40.3643 51.077 40.6172 51.5576L40.6816 51.6807L40.7676 51.79C42.2893 53.7146 44.0249 54.4544 44.6914 54.9434C45.0469 55.2043 45.3476 55.5043 45.6289 56.0459C45.93 56.6256 46.2335 57.5309 46.4844 59.0371L46.4922 59.0781C46.6752 60.0185 46.6273 60.9591 46.4639 61.9795C46.3817 62.4924 46.2735 63.0098 46.1543 63.5586C46.0376 64.096 45.9074 64.675 45.7998 65.2549L45.791 65.3027L45.7861 65.3506C45.5271 67.5172 45.598 68.9836 45.748 70.1074C45.8201 70.6469 45.9121 71.1139 45.9717 71.4512C46.0353 71.811 46.0646 72.0354 46.0654 72.2344C46.0667 72.5433 46.0049 72.9635 45.4541 73.8906C44.881 74.8553 43.8636 76.2287 42.084 78.418L42.0527 78.4561L42.0244 78.4961C41.2847 79.5385 40.613 80.7233 40.2012 82.1895L40.1973 82.2021L40.1943 82.2148C38.3369 89.3034 36.6089 91.3766 35.5391 92.335C35.2415 92.6015 34.9816 92.7938 34.6689 93.0391C34.3786 93.2668 34.0218 93.5562 33.7051 93.9355C33.6677 93.9804 33.6309 94.0254 33.5957 94.0713C33.3472 93.6924 32.998 93.3498 32.5146 93.0654C31.8063 92.6487 30.8568 92.3796 29.6318 92.1914H29.6328C29.6216 92.1893 29.6099 92.1876 29.5986 92.1855C29.5931 92.1847 29.5875 92.1844 29.582 92.1836H29.5811C28.4682 91.9862 27.4925 92.1226 26.6357 92.5254C25.8029 92.917 25.183 93.5136 24.7061 94.0439C24.4668 94.3101 24.2398 94.5879 24.041 94.8291C23.8339 95.0804 23.6522 95.2985 23.4688 95.498C23.0999 95.8993 22.8052 96.1302 22.5166 96.2529L22.4844 96.2666L22.4521 96.2822C20.722 97.1161 17.1194 97.934 14.2783 97.7627L14.2344 97.7598H14.1914C12.5409 97.7557 11.528 97.0814 10.582 95.959C10.0803 95.3636 9.61873 94.6646 9.10059 93.8574C8.62403 93.115 8.09668 92.2777 7.49609 91.4756C5.78762 87.9534 6.14889 86.9712 6.33496 86.5879C6.40709 86.4394 6.50222 86.2916 6.64746 86.084C6.77518 85.9014 6.98385 85.6149 7.15918 85.3145C7.56829 84.6132 7.84915 83.7584 7.71973 82.585L7.69727 82.3789L7.61914 82.1875L7.36816 81.5811C6.79689 80.2385 6.33719 79.3877 6.04004 78.751C5.7147 78.0538 5.48395 77.4304 5.28125 76.1699L5.26367 76.0566L5.22754 75.9473L5.16113 75.7539C4.99742 75.3096 4.7837 74.9144 4.58984 74.583C4.31687 74.1164 4.19047 73.9389 3.98047 73.5654C3.68338 73.037 3.58782 72.7143 3.6123 72.4219L3.62988 72.2979C4.12331 70.1552 4.07558 68.8315 3.73145 67.5947C3.58057 67.0525 3.36152 66.503 3.20605 66.0693C3.04089 65.6087 2.88277 65.1159 2.75684 64.4834C2.65526 63.8529 2.65397 63.1659 2.68066 62.3633C2.70611 61.5984 2.76046 60.6731 2.71289 59.7861L2.70996 59.7314L2.70312 59.6768L2.44434 57.6855C2.16356 55.5183 1.83719 52.8756 1.65039 50.2412C1.44551 47.3518 1.42499 44.6459 1.74805 42.6543C2.10287 42.882 2.66167 43.2322 3.21387 43.3838C3.53762 43.4726 4.07358 43.5573 4.63965 43.3184C5.19815 43.0825 5.52824 42.6437 5.70801 42.2158C6.25653 41.1904 6.28504 40.11 6.20312 39.2168C6.16023 38.749 6.08229 38.2862 6.00781 37.8691C5.92994 37.433 5.85891 37.0597 5.80469 36.6826L5.80273 36.6738C5.79052 36.592 5.78295 36.513 5.77344 36.4375C5.89673 36.4449 6.02285 36.4457 6.15137 36.4346C6.95282 36.3651 7.57168 35.9118 7.91602 35.6719L7.93945 35.6562L7.96289 35.6387C9.87908 34.1911 10.1608 31.6519 10.2031 29.7432C10.2256 28.7281 10.177 27.6724 10.1523 26.7881C10.1264 25.8547 10.1276 25.1242 10.209 24.5791L10.2266 24.4668L10.2256 24.3535C10.2255 24.3411 10.225 24.3316 10.2256 24.3252C10.2653 24.2743 10.3594 24.1873 10.6377 23.9961C11.0595 23.7062 12.1971 23.059 12.6787 21.7734L12.71 21.6885L12.7314 21.6006C12.9601 20.657 13.1233 19.6925 13.2783 18.7793C13.4363 17.8487 13.5867 16.9642 13.7939 16.0957L13.7998 16.0742L13.8037 16.0518C14.535 12.5221 16.1678 11.2117 18.002 8.31836L18.043 8.25488L18.0762 8.1875C18.7963 6.74993 19.0238 6.36558 19.2422 6.14453C19.4333 5.95111 19.622 5.86383 20.7783 5.3125L20.8633 5.27148L20.9434 5.2207C21.8922 4.61147 22.8111 3.77398 23.5469 3.16699C24.3441 2.50936 25.0409 2.01328 25.7832 1.73633Z" stroke="white" stroke-width="3"/>
</svg>
