<svg width="56" height="39" viewBox="0 0 56 39" fill="none" xmlns="http://www.w3.org/2000/svg">
<path d="M29.9004 9.59824C29.8662 8.73428 30.5385 8.00554 31.4025 7.97097L45.4858 7.40872C46.35 7.37415 47.0785 8.04657 47.1131 8.91082L47.6775 22.994C47.712 23.858 47.0393 24.5864 46.1754 24.6213C45.3111 24.6558 44.5827 23.9834 44.5481 23.1192L44.1348 12.8137L27.9064 30.3945L25.6048 28.27L41.8333 10.6892L31.5277 11.1003C30.6635 11.1349 29.935 10.4625 29.9004 9.59824Z" fill="white"/>
<path d="M27.5444 26.9365C28.1519 27.5479 28.1519 28.5389 27.5444 29.1502C26.9369 29.7616 25.9522 29.7616 25.3447 29.1502L18.6667 22.4295L2.65529 38.5434C2.0478 39.1548 1.0631 39.1548 0.455616 38.5434C-0.151872 37.932 -0.151872 36.941 0.455616 36.3297L18.6667 18.002L27.5444 26.9365Z" fill="white"/>
</svg>
