<svg width="20" height="20" viewBox="0 0 20 20" fill="none" xmlns="http://www.w3.org/2000/svg">
<path d="M8.53016 0.0124155C12.3908 -0.194845 16.0365 2.21175 17.3745 5.81571C18.4781 8.78914 17.9584 12.0654 16.0165 14.555L19.8342 18.4505C20.4586 19.4936 19.1755 20.5093 18.2862 19.7178L14.5832 16.032C14.4847 16.0064 14.2386 16.2499 14.1357 16.3179C9.94854 19.0829 4.53989 18.2825 1.63146 14.1261C-2.41864 8.33716 1.51867 0.388231 8.53016 0.0124155ZM8.39057 2.02197C3.06044 2.41464 0.198753 8.58313 3.24802 12.9762C6.4618 17.6064 13.6927 16.655 15.5516 11.3312C17.2405 6.49492 13.4795 1.64678 8.38995 2.02197H8.39057Z" fill="#D1D1D1"/>
</svg>
