<svg width="32" height="32" viewBox="0 0 32 32" fill="none" xmlns="http://www.w3.org/2000/svg">
<path d="M15.4973 12.9563C13.6611 12.9563 12.1626 14.4548 12.1626 16.291C12.1626 18.1273 13.6611 19.6258 15.4973 19.6258C17.3335 19.6258 18.832 18.1273 18.832 16.291C18.832 14.4548 17.3335 12.9563 15.4973 12.9563ZM25.4989 16.291C25.4989 14.9101 25.5114 13.5417 25.4338 12.1632C25.3563 10.5621 24.9911 9.14118 23.8203 7.97039C22.647 6.7971 21.2286 6.43436 19.6275 6.3568C18.2466 6.27925 16.8782 6.29176 15.4998 6.29176C14.1189 6.29176 12.7505 6.27925 11.3721 6.3568C9.77105 6.43436 8.35012 6.7996 7.17935 7.97039C6.00608 9.14369 5.64334 10.5621 5.56579 12.1632C5.48824 13.5442 5.50074 14.9126 5.50074 16.291C5.50074 17.6694 5.48824 19.0404 5.56579 20.4188C5.64334 22.0199 6.00858 23.4408 7.17935 24.6116C8.35262 25.7849 9.77105 26.1477 11.3721 26.2252C12.753 26.3028 14.1214 26.2903 15.4998 26.2903C16.8807 26.2903 18.2491 26.3028 19.6275 26.2252C21.2286 26.1477 22.6495 25.7824 23.8203 24.6116C24.9936 23.4383 25.3563 22.0199 25.4338 20.4188C25.5139 19.0404 25.4989 17.6719 25.4989 16.291ZM15.4973 21.422C12.6579 21.422 10.3664 19.1304 10.3664 16.291C10.3664 13.4516 12.6579 11.16 15.4973 11.16C18.3367 11.16 20.6282 13.4516 20.6282 16.291C20.6282 19.1304 18.3367 21.422 15.4973 21.422ZM20.8383 12.1482C20.1754 12.1482 19.64 11.6129 19.64 10.9499C19.64 10.287 20.1754 9.7516 20.8383 9.7516C21.5013 9.7516 22.0366 10.287 22.0366 10.9499C22.0368 11.1073 22.0059 11.2632 21.9458 11.4087C21.8856 11.5542 21.7974 11.6864 21.6861 11.7977C21.5748 11.909 21.4426 11.9973 21.2971 12.0574C21.1516 12.1176 20.9957 12.1484 20.8383 12.1482Z" fill="#EDE4DC"/>
</svg>
