<svg width="32" height="32" viewBox="0 0 32 32" fill="none" xmlns="http://www.w3.org/2000/svg">
<path d="M27.5 8.66677C26.6174 9.0573 25.657 9.33836 24.6676 9.44783C25.6948 8.8219 26.4639 7.83304 26.8308 6.66677C25.867 7.2549 24.8111 7.66731 23.7101 7.8857C23.2499 7.38105 22.6933 6.97902 22.075 6.70466C21.4567 6.4303 20.7899 6.2895 20.1163 6.29103C17.3906 6.29103 15.1986 8.5573 15.1986 11.3384C15.1986 11.7289 15.2447 12.1194 15.3197 12.4952C11.2385 12.2762 7.59855 10.2762 5.17864 7.2141C4.73771 7.98663 4.50665 8.86625 4.50949 9.76144C4.50949 11.5129 5.37766 13.0573 6.70154 13.9656C5.92136 13.9341 5.15944 13.7141 4.47777 13.3236V13.3857C4.47777 15.8384 6.16795 17.8709 8.42056 18.3384C7.99761 18.4511 7.56251 18.5087 7.12553 18.51C6.80537 18.51 6.50252 18.4774 6.19679 18.433C6.81979 20.433 8.634 21.8857 10.7943 21.933C9.10413 23.291 6.98708 24.0898 4.68832 24.0898C4.27587 24.0898 3.89514 24.075 3.5 24.0277C5.68051 25.4626 8.2677 26.291 11.0539 26.291C20.099 26.291 25.0484 18.6046 25.0484 11.933C25.0484 11.7141 25.0484 11.4952 25.034 11.2762C25.9915 10.5573 26.8308 9.66677 27.5 8.66677Z" fill="#EDE4DC"/>
</svg>
