<svg width="32" height="32" viewBox="0 0 32 32" fill="none" xmlns="http://www.w3.org/2000/svg">
<path d="M17.5215 7.29785C18.8934 7.3154 20.2652 7.34736 21.5459 7.39648C24.0687 7.49473 25.9288 7.64921 26.6621 7.8457C27.469 8.06334 28.1077 8.70228 28.3252 9.5127C28.4901 10.1337 28.6231 11.0599 28.7178 12.1895C28.7915 13.0561 28.8372 13.9895 28.8652 14.9229C28.8758 15.249 28.8793 15.5541 28.8828 15.8242C28.8828 15.919 28.8867 16.004 28.8867 16.0742V16.2422C28.8867 16.3158 28.8863 16.3965 28.8828 16.4912C28.8793 16.7649 28.8723 17.0672 28.8652 17.3936C28.8407 18.3267 28.7914 19.2604 28.7178 20.127C28.623 21.2565 28.4901 22.1827 28.3252 22.8037C28.1077 23.6142 27.469 24.2566 26.6621 24.4707C25.9253 24.6672 24.0687 24.8252 21.5459 24.9199C20.2688 24.969 18.8934 25 17.5215 25.0176C17.0409 25.0246 16.5952 25.0283 16.1953 25.0283H15.1914L13.8652 25.0176C12.4934 25 11.1214 24.969 9.84082 24.9199C7.31809 24.8217 5.45802 24.6672 4.72461 24.4707C3.91759 24.2532 3.27908 23.6142 3.06152 22.8037C2.89663 22.1827 2.7627 21.2566 2.66797 20.127C2.5943 19.2604 2.54956 18.3267 2.52148 17.3936C2.51096 17.0672 2.50742 16.7614 2.50391 16.4912C2.5039 16.3965 2.5 16.3123 2.5 16.2422V16.0742C2.5 16.0005 2.5004 15.919 2.50391 15.8242C2.50742 15.5506 2.51447 15.249 2.52148 14.9229C2.54605 13.9895 2.59428 13.0561 2.66797 12.1895C2.76269 11.0598 2.89665 10.1338 3.06152 9.5127C3.27907 8.70216 3.91758 8.05974 4.72461 7.8457C5.46146 7.64921 7.31797 7.49122 9.84082 7.39648C11.1179 7.34737 12.4934 7.31539 13.8652 7.29785C14.3459 7.29084 14.7914 7.28809 15.1914 7.28809H16.1953L17.5215 7.29785ZM12.5703 20.8594L20.7109 16.123L12.5703 11.4561V20.8594Z" fill="#EDE4DC"/>
</svg>
