<svg width="30" height="30" viewBox="0 0 30 30" fill="none" xmlns="http://www.w3.org/2000/svg">
<g clip-path="url(#clip0_2187_5195)">
<path d="M9.94199 11.5138H10.0646C10.0371 11.2321 10.9374 10.7917 10.9391 10.7324C9.51728 8.85957 11.8194 6.52546 13.7335 7.93445C14.5879 8.5629 14.7548 9.91088 14.0639 10.7324C14.0656 10.7917 14.9659 11.2321 14.9384 11.5138H15.061C15.0335 11.2321 15.9338 10.7917 15.9355 10.7324C14.5587 8.92643 16.6773 6.61321 18.6172 7.86007C19.5685 8.47097 19.7854 9.85071 19.0603 10.7324C19.062 10.7917 19.9623 11.2321 19.9348 11.5138H20.0574C20.0299 11.2321 20.9302 10.7917 20.9319 10.7324C20.1167 9.73539 20.488 8.22277 21.6503 7.69711C23.5677 6.82965 25.34 9.0802 24.0567 10.7324C24.5698 11.0349 24.9762 11.3792 25.2332 11.9299C25.2974 12.067 25.4093 12.5224 25.4443 12.5634C25.4685 12.591 25.9716 12.7748 26.1118 12.8651C27.0639 13.4793 27.285 14.8524 26.5557 15.7374C27.3634 16.1803 27.92 16.9266 27.9934 17.8617C28.0409 18.471 28.076 20.0479 27.9875 20.6129C27.9158 21.0725 27.27 21.0775 27.0021 21.3775L26.9896 22.7339C28.9529 23.4233 31.3944 25.2535 29.0205 27.2149C26.4606 29.3301 20.1041 29.849 16.8433 29.9702C12.8766 30.1173 4.12205 29.8106 0.980535 27.2149C-1.3975 25.2502 1.05313 23.4325 3.01146 22.7339L2.99895 21.3775C2.92719 21.1694 2.04857 21.0324 2.0227 20.6664C2.08111 18.8821 1.50037 16.7068 3.44452 15.7382C2.50665 14.5749 3.16166 12.9236 4.55761 12.5659C4.6861 11.7528 5.24098 11.1243 5.94271 10.7332C4.73283 9.19469 6.20554 7.05279 8.08127 7.59181C9.40964 7.97373 9.9495 9.65432 9.06837 10.7332C9.07004 10.7925 9.97036 11.2338 9.94282 11.5146L9.94199 11.5138ZM7.30111 8.52696C6.09791 8.72168 6.30317 10.7265 7.7083 10.4984C8.9115 10.3037 8.70624 8.29882 7.30111 8.52696ZM12.2975 8.52696C11.0943 8.72168 11.2996 10.7265 12.7047 10.4984C13.9079 10.3037 13.7026 8.29882 12.2975 8.52696ZM17.2947 8.52696C16.0915 8.72168 16.2968 10.7265 17.7019 10.4984C18.9051 10.3037 18.6998 8.29882 17.2947 8.52696ZM22.2911 8.52696C21.0879 8.72168 21.2932 10.7265 22.6983 10.4984C23.9015 10.3037 23.6962 8.29882 22.2911 8.52696ZM9.44135 12.6394C9.2778 12.0152 8.74462 11.5697 8.1013 11.5113C7.06581 11.4168 5.89181 11.4603 5.5689 12.6394C6.91979 12.9512 7.45214 14.6694 6.56934 15.7366C6.57101 15.7959 7.47133 16.2363 7.44379 16.5179H7.56645C7.53892 16.2363 8.43923 15.7959 8.4409 15.7366C7.54976 14.6744 8.09546 12.9495 9.44135 12.6394ZM14.4377 12.6394C14.2742 12.0152 13.741 11.5697 13.0977 11.5113C12.0622 11.4168 10.8882 11.4603 10.5653 12.6394C11.9162 12.9512 12.4485 14.6694 11.5657 15.7366C11.5674 15.7959 12.4677 16.2363 12.4402 16.5179H12.5628C12.5353 16.2363 13.4356 15.7959 13.4373 15.7366C12.5461 14.6744 13.0918 12.9495 14.4377 12.6394ZM19.4341 12.6394C19.2706 12.0152 18.7374 11.5697 18.0941 11.5113C17.0586 11.4168 15.8846 11.4603 15.5617 12.6394C16.9126 12.9512 17.4449 14.6694 16.5621 15.7366C16.5638 15.7959 17.4641 16.2363 17.4366 16.5179H17.5592C17.5317 16.2363 18.432 15.7959 18.4337 15.7366C17.5425 14.6744 18.0882 12.9495 19.4341 12.6394ZM24.4313 12.6394C24.2678 12.0152 23.7346 11.5697 23.0913 11.5113C22.0558 11.4168 20.8818 11.4603 20.5589 12.6394C21.9098 12.9512 22.4421 14.6694 21.5593 15.7366C21.561 15.7959 22.4613 16.2363 22.4338 16.5179H22.5564C22.5289 16.2363 23.4292 15.7959 23.4309 15.7366C22.5398 14.6744 23.0854 12.9495 24.4313 12.6394ZM4.80292 13.5311C3.59972 13.7259 3.80498 15.7307 5.21011 15.5026C6.41331 15.3078 6.20805 13.303 4.80292 13.5311ZM9.7993 13.5311C8.5961 13.7259 8.80136 15.7307 10.2065 15.5026C11.4097 15.3078 11.2044 13.303 9.7993 13.5311ZM14.7965 13.5311C13.5933 13.7259 13.7986 15.7307 15.2037 15.5026C16.4069 15.3078 16.2017 13.303 14.7965 13.5311ZM19.7929 13.5311C18.5897 13.7259 18.795 15.7307 20.2001 15.5026C21.4033 15.3078 21.198 13.303 19.7929 13.5311ZM24.7893 13.5311C23.5861 13.7259 23.7914 15.7307 25.1965 15.5026C26.3997 15.3078 26.1944 13.303 24.7893 13.5311ZM6.00612 24.5256V20.8661C6.00612 20.5661 6.93147 20.353 6.99572 20.1683C6.90394 19.0225 7.44797 17.2166 6.10124 16.6425C5.65067 16.4502 4.36736 16.4486 3.91262 16.6425C2.56673 17.2166 3.10909 19.0184 3.01814 20.1683C3.08155 20.3538 4.00774 20.5661 4.00774 20.8661V24.5256H6.00612ZM11.0025 24.5256V20.8661C11.0025 20.5661 11.9279 20.353 11.9921 20.1683C11.9003 19.0225 12.4443 17.2166 11.0976 16.6425C10.6471 16.4502 9.36375 16.4486 8.909 16.6425C7.56311 17.2166 8.10547 19.0184 8.01452 20.1683C8.07794 20.3538 9.00412 20.5661 9.00412 20.8661V24.5256H11.0025ZM15.9989 24.5256V20.8661C15.9989 20.5661 16.9242 20.353 16.9885 20.1683C16.8967 19.0225 17.4407 17.2166 16.094 16.6425C15.6434 16.4502 14.3601 16.4486 13.9054 16.6425C12.5595 17.2166 13.1019 19.0184 13.0109 20.1683C13.0743 20.3538 14.0005 20.5661 14.0005 20.8661V24.5256H15.9989ZM20.9961 24.5256V20.8661C20.9961 20.5661 21.9215 20.353 21.9857 20.1683C21.8939 19.0225 22.438 17.2166 21.0912 16.6425C20.6407 16.4502 19.3573 16.4486 18.9026 16.6425C17.5567 17.2166 18.0991 19.0184 18.0081 20.1683C18.0715 20.3538 18.9977 20.5661 18.9977 20.8661V24.5256H20.9961ZM25.9925 24.5256V20.8661C25.9925 20.5661 26.9178 20.353 26.9821 20.1683C26.8903 19.0225 27.4343 17.2166 26.0876 16.6425C25.637 16.4502 24.3537 16.4486 23.899 16.6425C22.5531 17.2166 23.0955 19.0184 23.0045 20.1683C23.0679 20.3538 23.9941 20.5661 23.9941 20.8661V24.5256H25.9925ZM26.9921 23.8378V25.1825C26.9921 25.348 26.6876 25.5092 26.5248 25.5276C25.879 25.6028 24.1084 25.6028 23.4618 25.5276C23.1872 25.4959 23.0137 25.3429 22.9937 25.0588L22.9953 21.4294C22.7659 21.0257 22.2243 21.0265 21.9957 21.4294L21.9974 25.0588C21.9774 25.3413 21.8055 25.4959 21.5293 25.5276C20.5472 25.6421 19.3148 25.4633 18.3077 25.4984C18.1249 25.4257 18.0023 25.2585 17.9973 25.0588L17.9989 21.4294C17.7695 21.0257 17.228 21.0265 16.9993 21.4294L17.001 25.0588C16.981 25.3413 16.8091 25.4959 16.5329 25.5276C15.5583 25.6413 14.3576 25.4516 13.3597 25.5126C13.1711 25.4599 13.0351 25.3112 13.0067 25.1156L12.9934 21.3759C12.688 21.0332 12.2441 21.0341 12.0038 21.4285L12.0055 25.058C11.9854 25.3404 11.8135 25.495 11.5374 25.5268C10.5628 25.6404 9.36208 25.4507 8.36414 25.5118C8.17556 25.4591 8.03955 25.3103 8.01119 25.1148L7.99784 21.375C7.69245 21.0324 7.24854 21.0332 7.00824 21.4277L7.00991 25.0571C6.98905 25.3421 6.81633 25.4942 6.54181 25.526C5.89515 25.6012 4.12455 25.6012 3.47873 25.526C3.31602 25.5067 3.01146 25.3463 3.01146 25.1808V23.8362C1.74318 24.3877 0.00428764 25.3087 1.80492 26.5773C4.32731 28.354 10.3333 28.9348 13.4081 29.0309C17.1587 29.1479 25.0671 28.7593 28.1653 26.6032C29.9984 25.3271 28.3046 24.4036 26.9954 23.8362L26.9921 23.8378Z" fill="white"/>
<path d="M14.5 1.09905C14.5033 1.08568 14.6435 0.899322 14.6711 0.878429C14.8454 0.744717 15.7958 0.295945 16.0395 0.201511C16.6035 -0.0174425 17.0983 -0.0667489 17.6866 0.0970486C18.1497 0.225747 18.6586 0.62939 19.1534 0.62939C19.6841 0.62939 20.8298 -0.168704 20.9808 0.676189C21.1677 1.71914 20.8715 3.20001 20.9975 4.29143C20.9591 4.89815 19.5665 5.15555 19.09 5.13716C18.249 5.10457 17.6182 4.43434 16.8422 4.50871C16.4074 4.5505 15.8734 4.88227 15.4996 5.1029V7.51139H14.5V1.09905ZM19.9962 1.44336C19.5114 1.65814 19.0183 1.65814 18.5101 1.52443C17.9436 1.37484 17.5397 0.964506 16.9031 1.00211C16.4366 1.02969 15.8951 1.36397 15.4996 1.59964V3.94545C16.2572 3.57356 16.8847 3.36715 17.7358 3.61368C18.1522 3.73486 18.5986 4.09254 19.0375 4.12763C19.3671 4.15438 19.685 4.02568 19.997 3.94545V1.44336H19.9962Z" fill="white"/>
</g>
<defs>
<clipPath id="clip0_2187_5195">
<rect width="30" height="30" fill="white"/>
</clipPath>
</defs>
</svg>
