<svg width="30" height="28" viewBox="0 0 30 28" fill="none" xmlns="http://www.w3.org/2000/svg">
<g clip-path="url(#clip0_2187_6359)">
<path d="M-0.400391 26.8541V26.4984C-0.256363 26.2504 -0.100594 26.0801 0.211726 26.0801L29.1902 26.111C29.735 26.2972 29.7374 27.0522 29.1902 27.2407L0.211726 27.2716C-0.100594 27.2716 -0.257146 27.1013 -0.400391 26.8533L-0.400391 26.8541Z" fill="white"/>
<path d="M5.52327 9.84353C6.26376 11.7576 4.08377 13.606 2.41728 12.3494C0.296788 10.7507 2.48929 7.49527 4.73659 8.93243L9.02689 5.55503C8.45783 3.90079 9.79478 2.283 11.5059 2.73459C12.1 2.89145 12.7372 3.50942 12.8969 4.1147C12.9767 4.41734 12.9156 4.68117 13.0174 4.94182L16.6228 6.39324C16.8874 6.24588 17.029 5.99156 17.314 5.84975C17.7899 5.61286 18.3198 5.56454 18.8309 5.70001C19.0321 5.75309 19.3961 6.00979 19.5378 5.97096L23.4758 2.95404C23.7318 2.70844 23.5298 2.18872 23.5627 1.79655C23.6974 0.206487 25.6511 -0.557251 26.8769 0.463179C28.5763 1.87736 27.1885 4.64155 25.0179 4.06479C24.787 4.00379 24.4558 3.73125 24.2711 3.81602L20.2798 6.89474C20.1929 7.02625 20.3127 7.79316 20.2775 8.07837C20.0247 10.1414 16.8474 10.3799 16.3034 8.31843C16.2236 8.01579 16.2846 7.75196 16.1829 7.49131L12.5775 6.03989C12.3129 6.18725 12.1712 6.44157 11.8863 6.58338C11.2257 6.91217 10.4288 6.89078 9.81513 6.46613L5.52483 9.84353H5.52327ZM25.4241 1.19047C24.3877 1.35606 24.5388 3.07526 25.6965 2.95167C26.7994 2.83441 26.6468 0.994785 25.4241 1.19047ZM10.7756 3.8588C9.7392 4.02438 9.89028 5.74359 11.048 5.61999C12.1509 5.50274 11.9982 3.66311 10.7756 3.8588ZM18.0998 6.82423C17.0635 6.98981 17.2145 8.70901 18.3722 8.58542C19.4752 8.46817 19.3225 6.62854 18.0998 6.82423ZM3.4513 9.78886C2.41493 9.95444 2.566 11.6736 3.7237 11.5501C4.82661 11.4328 4.67397 9.59317 3.4513 9.78886Z" fill="white"/>
<path d="M23.077 8.89744L27.9278 8.88477C28.4335 8.92042 28.5133 9.30546 28.5454 9.74199V23.8014C28.4961 24.2998 28.3951 24.5525 27.8714 24.6024C26.4053 24.741 24.7295 24.4939 23.2406 24.6C22.735 24.5644 22.6551 24.1793 22.623 23.7428V9.68336C22.6512 9.35299 22.7287 9.0139 23.077 8.89744ZM27.3126 10.0708H23.8559V23.414H27.3126V10.0708Z" fill="white"/>
<path d="M8.42861 11.5664L13.2794 11.5537C13.7498 11.583 13.8617 11.9364 13.897 12.3523V23.802C13.8484 24.2996 13.7467 24.5531 13.223 24.603C11.7569 24.7417 10.081 24.4953 8.59221 24.6006C8.12177 24.5713 8.00983 24.218 7.97461 23.802V12.3523C8.00279 12.0219 8.08028 11.6828 8.42861 11.5664ZM12.6641 12.7405H9.20745V23.4154H12.6641V12.7405Z" fill="white"/>
<path d="M15.7546 14.5312L20.6054 14.5186C21.0758 14.5479 21.1878 14.9004 21.223 15.3172C21.0453 18.06 21.4523 21.0935 21.223 23.8015C21.1807 24.2982 21.0703 24.5533 20.549 24.6024C19.0829 24.7411 17.407 24.4947 15.9182 24.6001C15.4478 24.5707 15.3359 24.2182 15.3006 23.8015C15.0713 21.0935 15.4783 18.0592 15.3006 15.3172C15.3288 14.9868 15.4063 14.6477 15.7546 14.5312ZM19.9901 15.7046H16.5335V23.414H19.9901V15.7046Z" fill="white"/>
<path d="M1.10792 17.4971L5.95867 17.4844C6.42754 17.5137 6.54104 17.8647 6.57627 18.283C6.72499 20.0457 6.45885 22.0169 6.57627 23.8026C6.52774 24.2994 6.42754 24.5537 5.90231 24.6036C4.45264 24.7399 2.79946 24.4951 1.32787 24.6036C0.82221 24.5989 0.692272 24.2542 0.653917 23.8026C0.505193 22.0399 0.771331 20.0687 0.653917 18.283C0.682097 17.9526 0.75959 17.6135 1.10792 17.4971ZM5.34342 18.6704H1.88598V23.4144H5.34264V18.6704H5.34342Z" fill="white"/>
</g>
<defs>
<clipPath id="clip0_2187_6359">
<rect width="30" height="27.2727" fill="white" transform="translate(-0.400391)"/>
</clipPath>
</defs>
</svg>
