<svg width="30" height="30" viewBox="0 0 30 30" fill="none" xmlns="http://www.w3.org/2000/svg">
<g clip-path="url(#clip0_2187_6418)">
<path d="M16.5166 29.4995C16.5111 26.7371 16.5222 23.9733 16.5194 21.2094C16.5153 16.7966 16.3051 12.2438 16.866 7.85613C17.0998 6.02384 17.5744 3.09498 19.7956 2.81244L20.0322 0.126953L20.2521 2.77048L20.3273 2.8558C22.4734 3.09358 22.9716 6.10217 23.1901 7.86452C23.7426 12.3278 23.5464 16.9406 23.5436 21.4207C23.5422 24.1145 23.5506 26.8084 23.5464 29.5009H25.4948V29.9904H14.5V29.5009H16.518L16.5166 29.4995ZM18.9522 3.83349H20.8659C20.8979 3.83349 21.2931 4.36919 21.3878 4.00972C20.7949 3.36912 19.5827 3.14953 18.9522 3.83349ZM18.7281 4.27268C18.5082 4.15659 18.2953 4.54403 18.3259 4.74264C19.3461 4.52584 20.3829 4.61256 21.4142 4.66711C21.5701 5.25316 22.1519 4.93426 21.7037 4.59857C21.6105 4.52864 21.4963 4.52304 21.3892 4.49507C21.0357 4.39996 20.266 4.32583 19.893 4.32023C19.5465 4.31604 19.1276 4.43353 18.8423 4.39856C18.7128 4.38318 18.7448 4.28247 18.7268 4.27268H18.7281ZM22.1532 5.86159C22.163 5.67837 22.1421 5.47835 21.964 5.38744C21.7858 5.29652 20.8311 5.17903 20.5875 5.16225C19.8916 5.11609 19.0469 5.26575 18.4261 5.22519C18.3162 5.21819 18.2327 5.07553 18.1534 5.09091C18.0865 5.1035 17.8499 5.60703 18.0671 5.56787C18.9258 5.41401 19.7052 5.3175 20.5861 5.37205C20.7351 5.38184 21.6759 5.49094 21.7232 5.52311C21.7761 5.55948 21.7956 5.92873 22.1519 5.86159H22.1532ZM22.362 6.63088C22.3718 6.46863 22.3244 6.30358 22.1727 6.22665C21.9737 6.12595 20.8603 5.95251 20.5861 5.93293C20.0364 5.89237 19.3349 5.91195 18.7755 5.92873C18.4721 5.93852 18.2076 6.08399 17.882 5.92733C17.8138 5.93712 17.6593 6.40568 17.875 6.35393C18.923 6.19169 20.0197 6.09518 21.0746 6.21267C21.4017 6.24903 22.0043 6.23784 22.0238 6.62248L22.362 6.63088ZM22.4163 7.06447C21.3335 6.78753 20.1783 6.65046 19.0566 6.70081C18.6349 6.72039 18.1533 6.91481 17.7386 6.77774C17.5953 6.80991 17.6259 7.07566 17.6287 7.18895C18.7101 7.00572 19.7664 6.87705 20.8631 6.98055C21.0969 7.00293 21.7914 7.06867 21.964 7.13301C22.067 7.17217 22.6905 8.04775 22.4149 7.06447H22.4163ZM22.5541 7.90648C22.3063 7.62255 19.6091 7.44352 19.1276 7.47009C18.5834 7.49946 18.0225 7.70367 17.4923 7.60996V8.02957C18.5695 7.76661 19.7566 7.6701 20.8659 7.75123C21.1595 7.77221 21.918 7.87152 22.1769 7.95823C22.2604 7.98621 22.2326 8.3135 22.4678 8.3121C22.6849 8.3121 22.6445 8.00859 22.5555 7.90788L22.5541 7.90648ZM22.7099 9.07859C22.7211 8.91494 22.6696 8.75689 22.5235 8.67297C22.2757 8.5303 21.115 8.34427 20.7879 8.3191C20.163 8.27014 19.3363 8.27854 18.7059 8.30651C18.2786 8.32609 17.8388 8.52191 17.4213 8.37924V8.79885C18.4665 8.62681 19.5242 8.45337 20.5903 8.51631C20.8854 8.5331 21.9514 8.65059 22.1755 8.7415C22.3397 8.80864 22.2743 9.21566 22.7099 9.07859ZM22.6919 9.51638C22.5875 9.39469 20.9883 9.11635 20.717 9.08838C20.0768 9.02124 19.289 9.02823 18.6474 9.08838C18.2229 9.12754 17.7678 9.34014 17.3517 9.21986V9.63946C18.3385 9.3849 19.4254 9.23804 20.4511 9.28699C20.8102 9.30378 22.0252 9.44225 22.3133 9.56813C22.369 9.59331 22.4274 9.96676 22.6738 9.9192C22.8227 9.89123 22.7475 9.58072 22.6919 9.51778V9.51638ZM22.7795 10.6871C22.7795 10.5122 22.8296 10.378 22.664 10.2787C22.3815 10.108 20.8366 9.87444 20.447 9.84927C19.4407 9.78213 18.6182 9.92899 17.644 10.0395C17.3907 10.0675 17.1875 9.87165 17.3169 10.4087C18.4888 10.1276 19.7984 10.0451 21.0037 10.129C21.2375 10.1458 22.1505 10.2647 22.3147 10.35C22.4622 10.4269 22.4177 10.7682 22.7781 10.6871H22.7795ZM22.8422 11.1137C22.8199 11.0871 22.2674 10.943 22.1672 10.9179C20.4901 10.5011 19.3906 10.6158 17.7233 10.8214C17.5577 10.8423 17.3378 10.6955 17.2097 10.8731C17.2334 11.0102 17.1248 11.1794 17.3169 11.178C17.7859 11.1752 18.4206 10.9347 18.9188 10.8969C19.4644 10.8549 22.1101 10.8843 22.433 11.2116C22.4998 11.2801 22.5054 11.5585 22.7475 11.5137C22.8616 11.4927 22.8867 11.164 22.8422 11.1123V11.1137ZM22.831 11.8928C22.7113 11.7921 21.1874 11.4969 20.9257 11.4648C19.7469 11.3221 18.8673 11.469 17.7219 11.5906C17.5577 11.6074 17.3225 11.4648 17.207 11.6438C17.1276 11.7655 17.1026 11.9361 17.2515 12.0102C18.3385 11.7235 19.5298 11.6018 20.6557 11.6662C21.0454 11.6885 22.1226 11.806 22.4511 11.9445C22.5388 11.9809 22.5123 12.2984 22.7434 12.2984C22.9605 12.2984 22.9479 11.9935 22.831 11.8928ZM22.909 12.725C22.5068 12.5865 22.0976 12.4662 21.6787 12.3879C20.1783 12.1054 19.2737 12.2284 17.7998 12.3683C17.4964 12.3977 17.0079 12.1543 17.1777 12.7865C18.3218 12.5445 19.4797 12.3571 20.6557 12.4368C20.9327 12.455 22.2771 12.6355 22.4525 12.7292C22.6278 12.8229 22.5736 13.2257 22.9187 13.0271L22.9076 12.7264L22.909 12.725ZM22.909 13.4943C21.5715 13.0313 20.1853 12.9292 18.7755 12.9921C18.4874 13.0047 18.1603 13.1138 17.8736 13.1348C17.5521 13.1586 17.0678 12.8816 17.1429 13.5544C18.4707 13.3012 19.7845 13.1222 21.1442 13.2761C21.4087 13.3054 22.3425 13.4383 22.5221 13.553C22.6083 13.6076 22.5889 13.9055 22.8839 13.9055L22.909 13.4957V13.4943ZM22.9062 14.2663C21.6842 13.8985 20.4024 13.7069 19.1234 13.76C18.7546 13.7754 18.3788 13.8719 18.0128 13.9041C17.8068 13.9223 17.3531 13.7698 17.1596 13.9908C17.0636 14.0999 17.0093 14.4146 17.2849 14.3628C18.2536 14.181 19.1624 13.9544 20.17 13.974C20.5346 13.981 22.2688 14.1838 22.5221 14.3209C22.5847 14.3545 22.6251 14.7111 22.8825 14.6734C23.0328 14.651 22.9118 14.3461 22.9062 14.2663ZM22.9786 15.1028C22.9493 15.0552 22.227 14.8678 22.0962 14.8356C20.6822 14.4817 19.3043 14.5419 17.9028 14.5685C17.6078 14.5741 16.8521 14.7461 17.1081 15.1643C18.3343 14.865 19.598 14.7265 20.8645 14.8146C21.243 14.8412 22.1797 14.9755 22.5235 15.0916C22.6237 15.1251 22.5235 15.4315 22.8825 15.4454C23.0523 15.4524 23.0189 15.1671 22.9786 15.1028ZM22.9786 15.872C22.9354 15.8021 21.5965 15.4916 21.4031 15.4622C20.3927 15.307 19.0441 15.2776 18.0462 15.3307C17.9098 15.3377 17.1555 15.5042 17.1054 15.5797C17.0553 15.6552 16.9926 15.942 17.1777 15.9336C17.4255 15.9224 17.7623 15.7853 18.0337 15.7434C18.8965 15.6119 19.8541 15.5252 20.7267 15.5839C21.0705 15.6077 22.3495 15.7867 22.6042 15.928C22.6501 15.9546 22.5235 16.1965 22.8839 16.2147C23.0537 16.2231 23.0203 15.9364 22.9799 15.872H22.9786ZM22.9813 16.6385C22.9243 16.5714 21.4741 16.2637 21.2639 16.2329C20.3676 16.1 19.0594 16.0343 18.1645 16.0776C18.0239 16.0846 17.0901 16.3238 17.072 16.3979C17.0956 16.535 16.9871 16.7057 17.1791 16.7043C17.5994 16.7015 18.184 16.4791 18.6419 16.4231C19.9682 16.2595 21.3071 16.3728 22.6028 16.6931C22.632 17.3295 23.2082 16.9043 22.9827 16.6385H22.9813ZM22.9883 17.8204C22.9966 17.6064 23.0314 17.4959 22.831 17.384C22.6306 17.2721 21.552 17.0427 21.2653 16.9994C20.4414 16.8749 19.4644 16.8315 18.6558 16.7896C18.4929 16.7812 17.0914 17.0805 17.072 17.1658L17.1109 17.5407C18.3719 17.1896 19.7761 17.0623 21.076 17.191C21.3363 17.2162 22.4386 17.37 22.5749 17.5057C22.6863 17.6162 22.6237 17.8806 22.9911 17.819L22.9883 17.8204ZM22.9883 18.5897C23.1497 18.1071 22.3216 18.0064 21.9473 17.9239C20.8297 17.6764 18.9188 17.4875 17.8374 17.7141C17.7219 17.7379 17.0817 17.889 17.0706 17.9337L17.1109 18.3114C18.9411 17.8008 20.7963 17.8358 22.639 18.2442L22.6529 18.5072L22.9911 18.5883L22.9883 18.5897ZM22.9758 19.0205C22.9285 18.9408 21.6703 18.6415 21.4727 18.6079C20.8311 18.4988 20.177 18.5212 19.5465 18.4456C19.424 18.4316 19.3405 18.31 19.1276 18.3016C18.8938 18.2918 17.1847 18.6051 17.1054 18.7268C17.058 18.7981 16.9926 19.089 17.1777 19.0806C17.4213 19.0695 17.7122 18.9324 17.9641 18.8904C19.0872 18.703 21.5353 18.5785 22.5555 19.0569C22.6974 19.124 22.6501 19.5198 22.9897 19.3198L22.9772 19.0205H22.9758ZM22.9786 19.7884C21.9848 19.4121 20.9341 19.3702 19.8986 19.2121C19.3113 19.1226 19.1526 19.0681 18.5082 19.1576C18.3162 19.1841 17.1555 19.4205 17.104 19.4947C17.058 19.559 16.9926 19.8583 17.1763 19.8485C17.7818 19.8178 18.5361 19.5436 19.1958 19.4988C20.3398 19.4205 21.4936 19.5618 22.6 19.8387L22.6793 20.1297H22.9883L22.9786 19.787V19.7884ZM20.1491 20.0415C20.1143 20.0206 20.1129 19.8905 20.0225 19.8583C19.7302 19.7548 17.1916 20.1003 17.0831 20.2779L17.0734 20.6178C17.6495 20.5661 18.2021 20.401 18.7782 20.3381C20.0781 20.1968 21.3739 20.3059 22.6362 20.622L22.6487 20.8864L22.9869 20.9675C23.0245 20.6192 22.966 20.5856 22.6765 20.4765C22.1713 20.2863 20.2577 20.1115 20.1491 20.0429V20.0415ZM22.9883 21.7368C23.1483 21.2626 22.3286 21.1381 21.9598 21.057C21.5562 20.9675 21.0412 20.9731 20.671 20.8836C20.4818 20.8374 20.408 20.6528 20.2382 20.6192C19.9571 20.5647 19.0455 20.6556 18.717 20.6961C18.5096 20.7213 17.0914 20.9871 17.0692 21.0822C17.0469 21.1773 17.0664 21.4276 17.1749 21.4458C18.4206 21.1004 19.7163 20.9717 21.0037 21.1073C21.2625 21.1353 22.4497 21.3018 22.5722 21.4221C22.6835 21.5325 22.6209 21.7969 22.9883 21.7354V21.7368ZM20.7058 21.6514C20.6738 21.6319 20.6682 21.5242 20.6237 21.4948C20.5221 21.429 19.2835 21.4388 19.0538 21.4542C18.7518 21.4738 17.3169 21.6934 17.1415 21.8403C17.0288 21.9354 17.0789 22.1046 17.0734 22.2263C18.312 21.9186 19.5882 21.7927 20.8687 21.8738C21.1818 21.8934 22.2855 22.0445 22.5235 22.169C22.703 22.2627 22.6097 22.6095 22.9883 22.506C23.1372 21.9661 22.2284 21.92 21.8192 21.8291C21.6258 21.7857 20.7545 21.6808 20.7072 21.6514H20.7058ZM20.8255 22.2361C19.5743 22.1773 18.3398 22.2263 17.1415 22.6095L17.0734 22.9956C18.2563 22.7452 19.4421 22.569 20.6599 22.6431C20.9703 22.6627 22.3119 22.8263 22.5235 22.9382C22.703 23.0333 22.6097 23.3774 22.9883 23.2753L22.9465 22.9173C22.5722 22.8179 22.1978 22.6837 21.8206 22.5942C21.5019 22.5186 20.7879 22.5998 20.8255 22.2347V22.2361ZM20.8798 23.0893C20.536 22.8557 18.5389 23.0641 18.0309 23.1536C17.733 23.2068 17.4394 23.3243 17.1415 23.3788L17.0734 23.7649C18.916 23.3802 20.7643 23.2334 22.6 23.7565C22.6292 24.3929 23.2054 23.9677 22.9799 23.7019C22.9493 23.667 22.2061 23.4795 22.0837 23.4502C21.5534 23.3229 21.3307 23.3956 20.8784 23.0893H20.8798ZM20.8868 23.8544C20.671 23.5397 17.6147 23.9551 17.1137 24.1761C17.0065 24.2502 17.0803 24.5929 17.1763 24.6013C18.4164 24.1999 19.8443 24.1215 21.1345 24.2628C21.4323 24.295 22.2535 24.3971 22.4845 24.5118C22.6111 24.5747 22.561 24.6922 22.6404 24.7761C22.9048 25.0545 23.1581 24.6768 22.877 24.4712C22.7517 24.3803 21.9041 24.1845 21.6814 24.1341C21.4588 24.0838 21.1025 24.0964 20.9424 24.0488C20.8631 24.025 20.9215 23.9061 20.8868 23.8544ZM20.8158 24.6209C20.6098 24.495 18.6558 24.6307 18.3009 24.6824C18.145 24.7048 17.1207 24.9104 17.0803 24.9593C17.0372 25.0111 17.0594 25.3356 17.1749 25.3566C17.7247 25.2349 18.287 25.0838 18.8492 25.0237C19.5117 24.9538 20.4149 24.9524 21.0732 25.0237C21.3085 25.0489 22.3773 25.2209 22.5221 25.3006C22.5944 25.3412 22.5736 25.4727 22.6404 25.5454C22.902 25.8265 23.133 25.4433 22.9187 25.2685C22.6139 25.0181 21.4546 24.9817 21.0496 24.8391C20.8464 24.7677 20.8631 24.6502 20.8158 24.6209ZM20.6877 25.3818C19.7803 25.323 18.8618 25.3566 17.9655 25.5356C17.6565 25.5972 16.9912 25.6195 17.0789 26.0307C17.1457 26.2419 17.7525 25.9902 17.9655 25.9552C19.0176 25.7846 21.4518 25.6307 22.4024 26.0671C22.6348 26.1734 22.5527 26.2685 22.6334 26.3804C22.7837 26.5888 23.2736 26.2391 22.7601 25.9888C22.2465 25.7384 21.3029 25.6713 20.7323 25.5888L20.6877 25.3832V25.3818ZM20.479 26.151C20.0266 26.0461 17.2863 26.2853 17.1054 26.5581C17.0205 26.6853 17.0636 26.9077 17.2418 26.9091C19.0023 26.4224 20.7935 26.4797 22.5666 26.8462L22.6362 27.1609L22.9883 27.1903C23.0969 26.7553 22.3787 26.649 22.0405 26.5706C21.552 26.4573 21.0245 26.3958 20.5235 26.3566L20.479 26.151ZM20.2006 26.9203C19.1498 26.8686 18.0824 27.028 17.0831 27.3413C16.9397 28.0421 17.6565 27.5735 18.0434 27.5036C19.0622 27.3189 21.5743 27.2154 22.4845 27.6588C22.6139 27.7218 22.6125 28.0756 22.9173 28.0309C22.9994 27.7511 23.0523 27.712 22.7795 27.5749C22.1686 27.2686 20.9341 27.1637 20.2424 27.1259L20.2006 26.9189V26.9203ZM19.8527 27.6896C19.7483 27.5833 17.2529 27.947 17.1054 28.1679C17.0358 28.2729 17.0316 28.8309 17.1833 28.8673C18.3134 28.6183 19.5688 28.0407 20.7309 28.098C21.0927 28.1162 22.369 28.326 22.664 28.4645C22.8811 28.5666 22.6167 28.9079 22.9201 28.8701L22.8797 28.3722C21.9111 28.0938 20.909 27.8812 19.8958 27.8952L19.8527 27.6896Z" fill="white"/>
<path d="M12.9021 29.4982H14.5027V29.9877H3.50781V29.4982H4.96915C5.18766 28.0687 5.434 26.635 5.59544 25.1972C6.35116 18.4191 6.32889 11.8509 5.87379 5.05741C5.81812 4.22519 5.569 3.06847 5.61353 2.27681C5.65807 1.48515 6.39709 1.41941 7.02616 1.45158C8.35389 1.52151 12.2063 3.23491 13.4366 3.96083C14.0587 4.32729 14.2897 4.39023 14.216 5.18889C14.0754 6.73444 13.5479 8.56533 13.3294 10.1724C12.461 16.5673 12.5514 23.0684 12.9021 29.4996V29.4982ZM12.3454 4.18183C12.3886 3.94964 12.2536 3.92727 12.0935 3.84195C11.1137 3.31464 7.99065 2.08379 6.9524 2.01665C6.66848 1.99847 6.05472 1.99287 6.25792 2.43346C6.40962 2.76215 7.79859 3.23911 8.18688 3.36359C8.69348 3.52584 12.1436 4.38464 12.3468 4.18323L12.3454 4.18183ZM6.49869 4.25176L6.98302 3.2475L6.29132 2.923C6.29132 3.33142 6.26627 3.74544 6.3623 4.14686C6.38735 4.25176 6.31359 4.26995 6.49869 4.25176ZM7.75127 3.48528L7.4757 3.44332C7.38523 3.49787 6.49869 5.13574 6.45972 5.30078C6.41797 5.47562 6.50982 5.61829 6.50147 5.79032L7.69977 3.74264C7.73317 3.68249 7.78606 3.53144 7.75266 3.48528H7.75127ZM6.70745 7.25895C6.93292 6.72605 7.18204 6.17916 7.46178 5.67423C7.63714 5.35813 8.4541 4.15385 8.45271 3.93706C8.45132 3.27408 7.93776 4.20281 7.83477 4.37065C7.53972 4.8532 6.66013 6.40295 6.57384 6.87851C6.55853 6.96523 6.53627 7.4254 6.70745 7.25895ZM10.6753 4.46157C10.7004 4.3147 10.5793 4.26015 10.468 4.21679C10.3135 4.15525 8.85632 3.84195 8.79647 3.90349L8.80482 4.13987C8.82013 4.20141 8.86049 4.21959 8.91477 4.23917C9.37127 4.40842 10.1743 4.3231 10.6753 4.46157ZM11.0929 4.39163L13.0761 7.67716C13.1624 7.67996 13.2487 7.19601 13.2362 7.0995C13.225 7.02257 12.7852 6.19315 12.7282 6.1358C12.6502 6.05887 12.5278 6.17077 12.4526 6.07426C12.184 5.75536 11.7372 4.67696 11.4756 4.46157C11.3517 4.35946 11.2362 4.38604 11.0943 4.39163H11.0929ZM10.6753 5.65045L10.6071 4.77487L8.86606 4.5315L9.00384 5.47702L10.6753 5.65185V5.65045ZM12.9021 5.23085C12.6043 5.05321 12.6238 4.54829 12.2425 4.5301C12.1339 4.52451 12.1214 4.51891 12.1381 4.6364L13.2849 6.48967C13.6662 5.96796 13.2431 5.56793 12.9717 5.12595L12.9008 5.23085H12.9021ZM13.598 5.37072L13.6384 4.73851L13.1123 4.60144C13.0288 4.68396 13.4922 5.4966 13.598 5.36932V5.37072ZM8.58632 4.88117C8.47219 4.77487 8.43879 4.96649 8.40678 5.01265C7.92106 5.70361 7.3908 6.7806 7.04426 7.56107C7.0025 7.65478 6.38456 8.88283 6.74364 8.86605C7.04426 8.35413 7.23632 7.78206 7.50632 7.25615C7.74292 6.79319 8.52091 5.66864 8.62946 5.30358C8.66008 5.20147 8.64199 4.93432 8.58771 4.88257L8.58632 4.88117ZM12.9717 8.86745C12.923 8.65205 13.0622 8.41847 13.0302 8.22125C13.0149 8.12614 12.4763 7.18762 12.4178 7.15964C12.3594 7.13167 12.2619 7.2114 12.1729 7.12328C11.907 6.85753 11.516 5.86585 11.1778 5.46023C11.111 5.38051 11.0998 5.26721 10.9537 5.30218C11.0831 6.07706 11.651 6.71206 12.0532 7.37784C12.3482 7.86598 12.5779 8.46882 12.9703 8.86745H12.9717ZM10.7449 6.90928C10.7046 6.66031 10.8493 6.15678 10.635 6.00432C10.5668 5.95537 9.39075 5.82389 9.21261 5.8183C9.14998 5.8169 9.09709 5.76235 9.03725 5.85606C8.97183 5.96097 9.09152 6.73025 9.21261 6.80298L10.7449 6.90788V6.90928ZM8.69209 6.1414C8.18132 7.01138 7.66219 7.96529 7.25302 8.88983C7.1208 9.18775 6.77843 9.90808 6.72415 10.1766C6.69353 10.3249 6.67266 10.4438 6.81322 10.5431C7.2558 9.61015 7.66915 8.66744 8.134 7.7457C8.18271 7.64919 9.16807 6.12741 8.69209 6.14V6.1414ZM11.9989 8.37791C11.8319 8.0576 11.4088 7.07013 11.1638 6.87291C11.1123 6.83235 11.0261 6.80578 11.0219 6.87571L11.1485 7.37784L12.7282 10.0549C12.8924 10.0619 12.8298 9.47029 12.8005 9.35419C12.7755 9.25629 12.2619 8.31776 12.209 8.27021C12.0295 8.11215 12.1186 8.3863 11.9989 8.37651V8.37791ZM10.8145 8.1681C10.7797 7.92893 10.9203 7.34287 10.6753 7.22398L9.214 7.11908L9.349 8.06879L10.8159 8.1695L10.8145 8.1681ZM8.93426 7.46876C8.75054 7.43099 8.81456 7.51631 8.76168 7.60723C8.32049 8.35972 6.85637 11.3166 6.77704 12.0495C6.75199 12.2845 6.79374 12.546 6.77704 12.7838C7.0707 12.6551 6.90647 12.381 6.95936 12.1712C7.05261 11.8005 7.36575 11.1627 7.52859 10.7795C7.95029 9.79198 8.45132 8.82689 8.97462 7.88976L8.93147 7.46876H8.93426ZM10.8048 8.45763L9.35317 8.37791L9.50209 9.3486L10.8855 9.42832C10.8688 9.10662 10.9412 8.76255 10.8062 8.45903L10.8048 8.45763ZM11.7915 9.49686L11.1972 8.44784C11.1193 8.58351 11.1541 8.78912 11.2014 8.93319C11.2961 9.22132 12.216 10.8186 12.4276 11.1277C12.4763 11.1991 12.5347 11.2942 12.6238 11.3138C12.884 10.5235 12.2675 10.1193 12.0657 9.42553L11.7915 9.49546V9.49686ZM6.91621 14.742C7.18343 14.0706 7.26137 13.3852 7.5091 12.7153C7.69281 12.2187 7.96142 11.6425 8.17853 11.1501C8.34833 10.7655 9.15972 9.30804 9.14998 9.04368C9.1458 8.93319 9.13328 8.86605 9.03864 8.79891C8.93286 8.80171 8.18688 10.4857 8.08668 10.7081C7.71369 11.5334 6.73389 13.6174 6.77147 14.4286C6.77704 14.5503 6.76591 14.7014 6.91621 14.742ZM10.9537 10.6857L10.8883 9.73744C10.4986 9.75002 10.0323 9.63813 9.66632 9.63393C9.48121 9.63253 9.55359 10.0801 9.57029 10.2228C9.5856 10.3473 9.62317 10.4759 9.64683 10.599C9.65797 10.6158 9.79297 10.6871 9.8041 10.6871H10.9523L10.9537 10.6857ZM6.77843 16.9099C6.90091 16.8903 6.89812 16.7687 6.9357 16.6833C7.33513 15.7784 7.46874 14.8678 7.78745 13.9727C7.98369 13.4202 8.27178 12.795 8.5056 12.2467C8.68235 11.8327 9.24879 10.897 9.32116 10.5473C9.35039 10.406 9.26549 10.2689 9.28219 10.1263C9.03725 10.3836 8.86884 10.799 8.71436 11.1277C8.19802 12.2271 7.6775 13.4915 7.26415 14.6357C6.99137 15.391 6.66987 16.0805 6.77843 16.9099ZM11.3698 10.1263C11.1346 10.0633 11.2251 10.4172 11.2696 10.5417C11.3921 10.883 12.1061 12.1586 12.3287 12.4817C12.3705 12.5432 12.3176 12.6103 12.4832 12.5726C12.6697 11.8816 12.184 11.2312 11.8221 10.6844L11.7178 10.7893L11.3698 10.1249V10.1263ZM9.70111 10.9655L9.78322 11.8271L9.87508 11.9446H10.9885C11.1708 11.9446 10.9704 11.2354 11.0121 11.0816L10.9189 10.9655H9.70111ZM6.70884 18.2737C6.66152 18.5758 6.74364 18.973 6.70884 19.2877C6.84106 19.2667 6.82297 19.1394 6.85637 19.0513C7.26833 17.9645 7.6274 16.8428 7.86678 15.7364C8.09085 14.7014 9.45755 12.588 9.49513 11.7725C9.49931 11.69 9.48956 11.6075 9.49096 11.525C9.39353 11.5054 9.37683 11.5292 9.32255 11.5991C9.19173 11.7697 8.89946 12.5418 8.78255 12.8048C8.24812 14.0202 6.88977 17.1016 6.70745 18.2723L6.70884 18.2737ZM11.5201 12.0788L11.3726 11.8746C11.3559 12.0453 11.3712 12.1824 11.4255 12.346C11.5243 12.6439 11.9892 13.458 12.1715 13.7643C12.2174 13.8412 12.2411 13.9559 12.3468 13.9727C12.2995 13.7741 12.4192 13.5601 12.4122 13.3838C12.3969 12.995 11.8486 12.4411 11.7887 12.0145L11.5215 12.0788H11.5201ZM11.0929 12.2243H9.94467L9.84864 12.3348L9.97946 13.2034H11.0581C11.2863 13.2034 11.033 12.3796 11.0929 12.2243ZM6.56828 22.225C6.66987 21.8165 6.78261 21.3983 6.91482 20.9983C7.38523 19.5674 7.86678 18.3058 8.20359 16.8386C8.4541 15.749 9.33369 14.3909 9.6858 13.2915L9.59673 12.9251C9.0275 14.044 8.55987 15.2259 8.1173 16.4022C7.4924 18.0639 6.84941 19.8248 6.4973 21.5578L6.56828 22.225ZM11.6148 13.3447C11.2501 13.9825 11.8792 14.7322 12.1715 15.3C12.5445 14.6482 11.8778 13.9335 11.6148 13.3447ZM11.1625 13.4831H10.1534C9.98503 13.4831 10.0518 14.5266 10.2856 14.5294C10.5417 14.5322 10.93 14.3909 11.232 14.4636L11.1625 13.4845V13.4831ZM6.15075 26.0714C6.55436 24.4769 7.03451 22.9019 7.52302 21.3312C7.87792 20.1927 8.2523 19.3437 8.47498 18.1674C8.66426 17.1645 9.54384 15.7504 9.88065 14.742L9.83889 14.3223C9.72616 14.3503 9.68719 14.4832 9.63987 14.5755C8.68096 16.4623 7.82225 19.2108 7.17647 21.2613C6.72694 22.6879 6.1925 24.1873 6.08255 25.6867C6.07699 25.7693 6.0241 26.07 6.15075 26.07V26.0714ZM10.3371 15.7812L11.342 15.6539L11.2362 14.7727L10.1882 14.8119L10.3371 15.7812ZM11.7178 15.0217C11.5939 15.0161 11.5702 14.9867 11.5786 15.1252C11.6134 15.6945 11.676 16.0707 11.9627 16.5617C12.0156 16.6526 11.9502 16.7379 12.1353 16.6987C12.2466 16.0371 11.9502 15.5938 11.7164 15.0203L11.7178 15.0217ZM6.01297 29.2884C6.35116 27.7862 6.73389 26.291 7.16255 24.8125C7.68724 23.0012 8.29683 21.2165 8.76725 19.4192C9.05812 18.3044 9.76235 17.1547 10.0574 16.0344L9.94606 15.7196C8.16322 20.0514 6.78121 24.5482 5.74853 29.1275L5.8056 29.2534L6.01436 29.287L6.01297 29.2884ZM11.367 16.005L10.3956 16.0707L10.5306 17.019C10.8326 17.1281 11.1318 16.9379 11.4408 16.9799L11.367 16.005ZM11.7205 16.9099C11.7526 17.0428 11.7386 17.7268 11.9627 17.6792C12.2063 17.6275 11.9154 16.9393 11.7205 16.9099ZM10.2578 17.1897C10.0783 17.1533 10.1367 17.2274 10.0838 17.3253C9.94606 17.5827 9.83194 17.9394 9.7192 18.2205C8.29962 21.7676 7.22379 25.5636 6.3623 29.287L6.64761 29.245C7.02199 27.8365 7.37271 26.4182 7.78884 25.021C8.22864 23.5425 8.84101 22.0921 9.08874 20.5983C9.2307 19.7409 10.0268 18.5254 10.2258 17.6778C10.2648 17.51 10.2717 17.3575 10.2592 17.1883L10.2578 17.1897ZM11.5062 18.2359L11.445 17.2904L10.5654 17.3967L10.6851 18.2988L11.5062 18.2359ZM11.58 18.5184L10.7755 18.6541C10.7101 18.7464 10.8103 19.5549 10.8827 19.608L11.6426 19.4905L11.58 18.5184ZM10.4666 18.6583C10.3302 18.4974 10.0268 19.4066 9.99755 19.4793C8.75333 22.6586 7.83199 25.9805 6.98859 29.287L7.32956 29.28L10.468 18.6569L10.4666 18.6583ZM11.7804 20.7479L11.6523 19.8066C11.4784 19.808 10.9996 19.8472 10.9147 19.9871L11.0233 20.8962L11.779 20.7465L11.7804 20.7479ZM7.95168 29.3485C8.22585 28.3764 8.46941 27.3889 8.76168 26.421C9.11518 25.2503 9.47008 24.1622 9.73173 22.99C9.90152 22.2264 10.5849 21.0864 10.6628 20.422C10.6795 20.278 10.6405 20.1885 10.6044 20.057L10.3441 20.5983C9.32395 23.467 8.28987 26.3721 7.68307 29.3583L7.95168 29.3485ZM11.0956 21.1787L11.2279 22.1257L11.8681 21.9844L11.7887 21.0361L11.097 21.1787H11.0956ZM10.8841 21.5256C10.699 21.4907 10.763 21.5662 10.7143 21.6655C10.6572 21.7816 10.603 21.941 10.5543 22.0669C9.64822 24.4153 8.95235 26.9232 8.30936 29.3569L8.6573 29.3051L10.8841 21.5242V21.5256ZM11.9279 22.3648L11.3058 22.439L11.3712 23.4153C11.5535 23.4264 11.7567 23.418 11.8945 23.2754L11.9279 22.3648ZM9.27384 29.4184L10.3803 25.8797C10.3107 24.8433 11.1277 23.9286 11.0915 22.9229C10.841 23.1943 10.7171 23.6922 10.5863 24.0573C10.0463 25.5706 9.24183 27.7946 8.94539 29.3331C8.91477 29.494 9.22931 29.445 9.27245 29.417L9.27384 29.4184ZM11.5869 24.6657C11.7108 24.6923 11.8736 24.6951 11.9182 24.558C11.914 24.3845 12.0045 23.6698 11.8263 23.639L11.445 23.8083L11.5855 24.6671L11.5869 24.6657ZM9.63152 29.4982C9.98224 29.5709 10.0003 29.2912 10.0978 29.024C10.3956 28.2044 10.5863 27.3931 10.7018 26.5609C10.7742 26.042 11.2752 25.2224 11.3545 24.6923C11.3768 24.5426 11.4116 24.4279 11.2654 24.3258L9.63013 29.4996L9.63152 29.4982ZM10.3274 29.4982C10.6642 29.5485 10.667 29.3835 10.7644 29.1331C10.962 28.6198 10.9537 28.2198 11.0525 27.7484C11.1611 27.2253 11.4951 26.6588 11.5661 26.1595C11.5869 26.0182 11.6106 25.8937 11.4756 25.793L10.3274 29.4982ZM11.7887 27.3302C11.6189 27.2826 11.5883 27.568 11.5494 27.6827C11.4798 27.8841 10.9551 29.4338 11.0247 29.4968H11.3726C11.2529 28.7149 11.8235 28.0939 11.7887 27.3302Z" fill="white"/>
</g>
<defs>
<clipPath id="clip0_2187_6418">
<rect width="30" height="30" fill="white" transform="translate(-0.5)"/>
</clipPath>
</defs>
</svg>
