<svg width="30" height="30" viewBox="0 0 30 30" fill="none" xmlns="http://www.w3.org/2000/svg">
<g clip-path="url(#clip0_2187_7628)">
<path d="M0.414349 29.5777C0.217704 29.4123 -0.0192962 29.2672 0.00124877 28.9746L0.0298649 14.6384C0.147265 14.4275 0.307222 14.2657 0.558897 14.2368C1.9266 14.0779 3.60762 14.3553 5.00908 14.2412C5.38769 14.3473 5.65991 14.7244 5.41997 15.0999C5.37815 15.1657 5.12648 15.391 5.07144 15.391H1.17598V28.4243H4.3399V25.7425C4.3399 25.6652 4.70017 25.3099 4.77941 25.3099H6.21462V4.11718C6.21462 3.7741 6.83244 3.16595 7.18097 3.16595H8.55748V0.484185C8.55748 0.393179 8.91408 0.0378252 9.05863 0.0551596C10.2378 0.161332 11.7155 -0.10085 12.858 0.0573264C13.671 0.17 13.4068 1.20573 12.9218 1.20573H9.72854V3.16668H20.274V1.20573H17.0807C17.066 1.20573 16.8518 1.08294 16.8217 1.05694C16.4423 0.726866 16.6559 0.129553 17.1431 0.0558818C18.2613 -0.112406 19.7823 0.170722 20.9439 0.0558818C21.0884 0.0385475 21.445 0.393902 21.445 0.484907V3.16668H22.8215C23.2361 3.16668 23.7145 3.74377 23.7732 4.13307C23.9456 5.2858 23.6514 6.713 23.8187 7.8939L29.707 13.6894L29.9983 14.0657V29.5785H0.414349V29.5777ZM11.6627 4.31869H7.38568V8.70139H11.6627V4.31869ZM17.1702 4.31869H12.8352V8.70139H17.1702V4.31869ZM22.6183 4.31869H18.3413V8.70139H22.6183V4.31869ZM28.8287 28.4243V14.4976L23.7901 9.56666V14.2375H25.7529C25.9803 14.2375 26.2569 14.6081 26.2474 14.8378C26.2379 15.0472 25.9605 15.3903 25.7529 15.3903H23.7901V17.0053H25.7529C25.9803 17.0053 26.2569 17.3758 26.2474 17.6055C26.2379 17.8149 25.9605 18.158 25.7529 18.158H23.7901V19.773H25.8116C25.9855 19.773 26.2555 20.1775 26.2474 20.3732C26.2379 20.5826 25.9598 20.9257 25.7529 20.9257H23.7901V22.5407H25.8116C25.9855 22.5407 26.2555 22.9452 26.2474 23.1409C26.2379 23.3504 25.9598 23.6934 25.7529 23.6934H23.7901V25.3084H25.2253C25.3045 25.3084 25.6648 25.6638 25.6648 25.7411V28.4228H28.8287V28.4243ZM11.6627 9.85485H7.38568V14.2375H11.6627V9.85485ZM17.1702 9.85485H12.8352V14.2375H17.1702V9.85485ZM22.6183 9.85485H18.3413V14.2375H22.6183V9.85485ZM11.6627 15.391H7.38568V19.7737H11.6627V15.391ZM17.1702 15.391H12.8352V19.7737H17.1702V15.391ZM22.6183 15.391H18.3413V19.7737H22.6183V15.391ZM11.6627 20.9272H7.38568V25.3099H11.6627V20.9272ZM17.1702 20.9272H12.8352V25.3099H17.1702V20.9272ZM22.6183 20.9272H18.3413V25.3099H22.6183V20.9272ZM24.493 26.4633H5.51169V28.4243H24.493V26.4633Z" fill="white"/>
<path d="M3.50724 16.7317C3.913 16.6277 4.23658 16.8617 4.28501 17.2633C4.4413 18.5547 4.16834 20.1473 4.28061 21.4712C4.06562 22.1588 3.25483 22.1097 3.11101 21.4177C3.22988 20.1083 2.95693 18.5402 3.11101 17.2633C3.1367 17.048 3.28418 16.7888 3.50724 16.7317Z" fill="white"/>
<path d="M14.9274 0.0617965C15.8504 -0.0696557 15.7521 1.44927 14.8334 1.16614C14.2362 0.981962 14.3301 0.147024 14.9274 0.0617965Z" fill="white"/>
<path d="M3.50597 23.0176C4.36665 22.7973 4.56917 24.0273 3.75764 24.132C3.06939 24.2209 2.87935 23.1779 3.50597 23.0176Z" fill="white"/>
</g>
<defs>
<clipPath id="clip0_2187_7628">
<rect width="30" height="29.5775" fill="white"/>
</clipPath>
</defs>
</svg>
