<svg width="30" height="30" viewBox="0 0 30 30" fill="none" xmlns="http://www.w3.org/2000/svg">
<g clip-path="url(#clip0_2187_7615)">
<path d="M18.7804 22.3799L18.6594 22.8967C18.5019 24.6845 18.4109 26.6112 17.9724 28.3535C17.8197 28.9581 17.5078 30.2396 16.6551 29.9495C16.2962 29.8276 15.7675 28.824 16.2279 28.6152C16.6389 28.4291 16.6965 28.8866 16.8208 29.115C16.859 29.1857 16.8183 29.2174 16.9556 29.1922C17.3146 28.2885 17.4778 27.3158 17.6167 26.3553C18.0203 23.5622 18.1185 20.6693 18.2347 17.8494C18.3273 17.5829 18.6375 17.3984 18.8738 17.6325C19.1101 17.8665 18.9437 18.0501 18.9599 18.2704C19.0549 19.5941 19.2742 21.0764 19.4577 22.401C19.7525 24.5268 20.0603 26.751 20.7872 28.7663C20.9017 28.8525 21.164 27.8798 21.1835 27.7952C21.8137 25.0412 21.6496 21.3543 21.635 18.519C21.6188 15.3871 21.5627 12.2837 21.4076 9.16155C22.9279 7.30631 24.6122 5.57134 26.0034 3.60233C26.3428 3.12206 27.5756 1.34889 27.4043 0.824744C27.3815 0.754045 27.3385 0.726416 27.2646 0.72479C26.8634 0.717476 25.672 1.66013 25.3163 1.9413C22.4666 4.19474 19.841 7.44771 15.9559 7.66062C15.7147 7.67362 14.9334 7.69963 14.7499 7.64599C14.5176 7.57773 14.5461 7.18848 14.6865 7.04546C15.6034 6.91787 16.5325 6.93738 17.4429 6.71634C20.3519 6.01016 23.325 2.32243 25.8474 0.649215C26.3623 0.307909 27.4571 -0.356825 27.95 0.337164C28.4024 0.973456 27.8647 1.93318 27.544 2.52884C26.2007 5.02362 23.8829 7.20311 22.1247 9.39315C22.1653 10.1026 22.158 10.8136 22.1816 11.5231C22.344 16.3249 22.6688 21.642 22.1158 26.4162C22.0411 27.0606 21.7714 29.2921 21.0446 29.4806C20.1578 29.7098 19.8881 28.4478 19.7087 27.8058C19.2246 26.0733 19.0151 24.1628 18.7788 22.379L18.7804 22.3799Z" fill="white"/>
<path d="M13.004 27.6122L12.5298 29.1749C12.2398 29.8835 11.4513 30.3207 10.8138 29.7129C9.84654 28.7905 9.86765 25.1239 9.90176 23.8083L10.1373 20.1709C8.87606 19.2242 7.42237 18.3149 6.34713 17.1512C5.76241 16.5181 4.92431 15.4422 5.64709 14.6247C6.36987 13.8072 7.75372 14.5889 8.50736 14.9896C9.51925 15.5284 11.4553 17.0252 12.5493 16.9066C13.9583 16.7538 16.2387 14.1071 17.8792 13.6634C18.6815 13.4464 19.5968 13.7779 19.5034 14.7401C19.3597 16.2256 16.9395 18.1158 15.935 19.1389L15.9861 22.0489C15.9845 22.1928 15.9228 22.326 15.9203 22.4699C15.8862 24.3219 15.9057 26.2876 15.5403 28.1112C15.4103 28.7597 15.1496 30.0135 14.3115 29.99C13.5067 29.9672 13.0682 28.2648 13.004 27.613V27.6122ZM18.2162 14.3053C16.8307 14.5386 14.677 16.9407 13.082 17.5014C11.219 18.1564 8.93859 15.7795 7.22828 15.174C6.91074 15.0619 6.43403 14.8742 6.16522 15.1423C5.98737 15.5048 6.42591 16.0907 6.65086 16.3605C7.84142 17.7891 9.33897 18.4985 10.6887 19.6191C11.1256 19.9816 10.8641 20.0758 10.8162 20.5269C10.5953 22.5966 10.4613 25.5359 10.7634 27.574C10.8877 28.4127 11.4204 30.3744 12.0279 28.4915C12.4721 27.1141 12.2983 25.8399 12.464 24.4876C12.5241 23.9976 12.8782 23.8197 13.1713 24.252C13.3971 25.6773 13.4637 27.314 13.9908 28.6629C14.1824 29.153 14.3075 29.543 14.595 28.871C15.2763 27.279 15.0238 24.8484 15.2552 23.1452L15.265 18.7756C16.2801 17.7338 17.7809 16.6579 18.4996 15.3821C18.7498 14.9384 19.0689 14.1631 18.2146 14.3061L18.2162 14.3053Z" fill="white"/>
<path d="M15.9077 10.2585C15.6446 10.5373 14.5636 10.3447 14.1909 10.3357C12.7096 10.2992 10.2107 10.3772 8.99902 9.44753C7.55021 8.33584 6.5172 4.40432 5.53941 2.69048C5.24299 2.17039 4.41544 1.00264 4.43006 2.39793C4.44955 4.2873 5.68721 6.86254 6.04779 8.81205C6.3564 10.482 5.83827 12.1211 5.34775 13.7122C4.60791 16.1103 3.60414 18.4239 2.64097 20.7358C2.47611 21.2088 3.00317 21.5273 3.34589 21.7354C4.52102 22.4489 6.39619 22.8015 7.75567 22.9795C8.06184 23.0193 8.99415 22.9998 9.14358 23.1713C9.42619 23.4955 9.10216 23.7921 8.72046 23.7824C7.07918 23.7418 3.12661 23.0079 2.12528 21.6175C1.92387 21.338 1.83048 21.0007 1.89545 20.6578C3.08438 17.6673 4.63634 14.4883 5.26654 11.3182C5.77898 8.73891 4.66314 6.83572 4.07435 4.39864C3.87782 3.58519 3.38812 1.6885 4.22135 1.1481C5.30877 0.443548 6.22483 2.44181 6.57242 3.17562C7.25135 4.60911 8.34039 8.10343 9.54395 8.96157C10.378 9.55561 12.7144 9.62712 13.7629 9.66775C14.1584 9.68319 15.6519 9.57917 15.8606 9.75877C15.9946 9.87335 16.0303 10.1277 15.9069 10.2585H15.9077Z" fill="white"/>
<path d="M15.5209 4.65794C13.0131 2.07539 16.934 -1.70985 19.4142 0.853192C21.9115 3.43412 17.9865 7.19661 15.5209 4.65794ZM17.31 0.741862C14.6601 0.986464 14.9638 5.06101 17.7721 4.73352C20.2458 4.44503 19.8536 0.50701 17.31 0.741862Z" fill="white"/>
<path d="M11.4142 3.05383C14.7853 2.86936 15.3164 7.84268 12.1094 8.43428C8.28348 9.14046 7.67115 3.25862 11.4142 3.05383ZM12.9848 4.33454C11.1113 2.45898 8.27698 5.3804 10.1465 7.20476C12.0444 9.05757 14.8413 6.19304 12.9848 4.33454Z" fill="white"/>
<path d="M12.3904 11.8707C13.8059 11.8147 14.8827 13.236 14.4872 14.5825C14.0219 16.1663 11.9023 16.597 10.8506 15.3244C9.75342 13.9966 10.6744 11.939 12.3904 11.8707ZM12.2645 12.6029C10.2358 12.8825 11.0755 16.1005 13.0327 15.2562C14.484 14.6305 13.8822 12.3795 12.2645 12.6029Z" fill="white"/>
<path d="M5.83184 28.7669C6.06248 28.5531 6.13557 28.0948 6.21597 27.7828C6.48397 26.7369 6.61553 25.6569 6.79907 24.5948C7.17508 24.0739 7.51211 24.3648 7.46419 24.9572C7.39597 25.8081 6.87297 28.6328 6.42875 29.2739C6.18024 29.6331 5.89519 29.7469 5.52567 29.4673C4.89872 28.9944 4.7298 26.728 4.6762 25.9373C4.64696 25.5066 4.57469 24.7524 4.61204 24.3534C4.6429 24.0268 4.83538 23.7537 5.16022 23.9934C5.46639 24.2194 5.31858 24.9085 5.34214 25.2717C5.41685 26.4452 5.52324 27.6324 5.83184 28.7669Z" fill="white"/>
<path d="M8.25206 24.5234C8.39986 24.6762 8.36332 25.2995 8.38768 25.5124C8.5298 26.75 8.67273 28.0072 9.05686 29.1928C9.2469 29.0124 9.40201 28.9352 9.64971 29.0855C9.92745 29.6048 9.36628 30.1566 8.82866 29.9372C8.27155 29.7096 8.00761 27.9982 7.91909 27.4416C7.84681 26.9873 7.54633 24.8151 7.71444 24.5494C7.79565 24.4218 8.15136 24.4194 8.25206 24.5234Z" fill="white"/>
<path d="M15.5418 11.0745C15.8171 11.0249 15.9552 11.2102 15.9844 11.4588C16.0356 11.9017 16.0461 13.345 15.9795 13.7675C15.9081 14.2218 15.3136 14.2372 15.2527 13.7115C15.2015 13.2702 15.191 11.8237 15.2576 11.4028C15.2827 11.2443 15.3761 11.1037 15.5418 11.0737V11.0745Z" fill="white"/>
</g>
<defs>
<clipPath id="clip0_2187_7615">
<rect width="30" height="30" fill="white"/>
</clipPath>
</defs>
</svg>
