<svg width="42" height="42" viewBox="0 0 42 42" fill="none" xmlns="http://www.w3.org/2000/svg">
<path fill-rule="evenodd" clip-rule="evenodd" d="M12.6923 19.3721C13.0747 19.3721 13.3846 19.6845 13.3846 20.0698V21.9302C13.3846 26.1687 16.7941 29.6047 21 29.6047C25.2059 29.6047 28.6154 26.1687 28.6154 21.9302V20.0698C28.6154 19.6845 28.9253 19.3721 29.3077 19.3721C29.69 19.3721 30 19.6845 30 20.0698V21.9302C30 26.9393 25.9706 31 21 31C16.0294 31 12 26.9393 12 21.9302V20.0698C12 19.6845 12.31 19.3721 12.6923 19.3721Z" fill="#FF9364"/>
<path fill-rule="evenodd" clip-rule="evenodd" d="M21 11C17.5588 11 14.7692 13.8112 14.7692 17.2791V21.9302C14.7692 25.3981 17.5588 28.2093 21 28.2093C24.4412 28.2093 27.2308 25.3981 27.2308 21.9302V17.2791C27.2308 13.8112 24.4412 11 21 11ZM18.6782 16.3907C18.4004 16.126 18.3881 15.6844 18.6508 15.4044L19.1538 15.8837C18.6508 15.4044 18.6515 15.4036 18.6515 15.4036L18.6523 15.4028L18.6539 15.4011L18.6572 15.3977L18.6643 15.3904C18.6693 15.3853 18.6749 15.3798 18.681 15.3739C18.6932 15.3622 18.7075 15.349 18.7241 15.3346C18.7574 15.3058 18.7996 15.2723 18.8518 15.2361C18.9566 15.1636 19.0997 15.0814 19.2887 15.0044C19.6676 14.85 20.2189 14.7209 21 14.7209C21.7811 14.7209 22.3324 14.85 22.7113 15.0044C22.9003 15.0814 23.0434 15.1636 23.1482 15.2361C23.2004 15.2723 23.2426 15.3058 23.2759 15.3346C23.2925 15.349 23.3068 15.3622 23.319 15.3739C23.3251 15.3798 23.3307 15.3853 23.3357 15.3904L23.3428 15.3977L23.3461 15.4011L23.3477 15.4028L23.3485 15.4036C23.3485 15.4036 23.3492 15.4044 22.8562 15.8741L23.3492 15.4044C23.6119 15.6844 23.5996 16.126 23.3218 16.3907C23.0536 16.6462 22.6359 16.6435 22.371 16.3911L22.3637 16.386C22.3426 16.3713 22.2885 16.3372 22.1922 16.2979C22.0004 16.2198 21.6287 16.1163 21 16.1163C20.3713 16.1163 19.9996 16.2198 19.8078 16.2979C19.7115 16.3372 19.6574 16.3713 19.6363 16.386L19.629 16.3911C19.3641 16.6435 18.9464 16.6462 18.6782 16.3907ZM18.6782 19.1814C18.4004 18.9167 18.3881 18.4751 18.6508 18.1951L19.1538 18.6744C18.6508 18.1951 18.6515 18.1943 18.6515 18.1943L18.6523 18.1935L18.6539 18.1918L18.6572 18.1884L18.6643 18.1811C18.6693 18.176 18.6749 18.1705 18.681 18.1646C18.6932 18.1529 18.7075 18.1397 18.7241 18.1253C18.7574 18.0965 18.7996 18.063 18.8518 18.0268C18.9566 17.9543 19.0997 17.8721 19.2887 17.7951C19.6676 17.6407 20.2189 17.5116 21 17.5116C21.7811 17.5116 22.3324 17.6407 22.7113 17.7951C22.9003 17.8721 23.0434 17.9543 23.1482 18.0268C23.2004 18.063 23.2426 18.0965 23.2759 18.1253C23.2925 18.1397 23.3068 18.1529 23.319 18.1646C23.3251 18.1705 23.3307 18.176 23.3357 18.1811L23.3428 18.1884L23.3461 18.1918L23.3477 18.1935L23.3485 18.1943C23.3485 18.1943 23.3492 18.1951 22.8562 18.6648L23.3492 18.1951C23.6119 18.4751 23.5996 18.9167 23.3218 19.1814C23.0536 19.4369 22.6359 19.4342 22.371 19.1818L22.3637 19.1767C22.3426 19.162 22.2885 19.1279 22.1922 19.0886C22.0004 19.0105 21.6287 18.907 21 18.907C20.3713 18.907 19.9996 19.0105 19.8078 19.0886C19.7115 19.1279 19.6574 19.162 19.6363 19.1767L19.629 19.1818C19.3641 19.4342 18.9464 19.4369 18.6782 19.1814Z" fill="#FF9364"/>
</svg>
