<svg width="76" height="99" viewBox="0 0 76 99" fill="none" xmlns="http://www.w3.org/2000/svg">
<path d="M64.3343 95.4762H71.9095C71.7757 93.7666 71.6555 92.1221 71.5135 90.4803C71.2951 87.9539 71.0466 85.4329 70.8363 82.9065C70.7598 81.9865 71.3715 81.2538 72.1962 81.1724C72.9691 81.0964 73.66 81.6365 73.8019 82.551C73.9521 83.517 74.0095 84.4994 74.0941 85.4763C74.4109 89.1805 74.7195 92.8873 75.039 96.5915C75.1455 97.8235 74.5666 98.4829 73.2667 98.4857C69.4873 98.4965 65.7052 98.4884 61.9257 98.4911C46.2592 98.4965 30.5926 98.5074 14.9261 98.5101C10.6005 98.5101 6.27493 98.4992 1.94936 98.4884C0.327267 98.4829 -0.175193 97.9809 0.0514624 96.3826C0.450158 93.5386 0.928045 90.7056 1.37316 87.8698C2.08863 83.2972 2.8041 78.7247 3.5223 74.1522C4.3033 69.178 5.08977 64.2066 5.87624 59.2351C6.23397 56.9665 6.63813 54.7033 6.94124 52.4265C7.05594 51.5717 7.43825 51.0045 8.10456 50.5134C11.1385 48.2719 14.1423 45.9924 17.1872 43.7672C17.7579 43.3493 18.061 42.9015 18.1156 42.2041C18.2658 40.2503 18.4625 38.2991 18.6372 36.3453C18.8912 33.4824 19.1424 30.6222 19.3909 27.7592C19.6203 25.1324 19.8388 22.5056 20.0682 19.8787C20.1856 18.5328 20.3522 17.1868 20.4204 15.8381C20.4614 15.0077 20.8628 14.4785 21.4745 13.9765C26.3244 9.98199 31.1606 5.96575 35.9996 1.95766C36.5758 1.48006 37.1438 0.997021 37.72 0.519415C38.5447 -0.16443 39.2929 -0.172571 40.0958 0.492279C45.5082 4.98069 50.9152 9.47453 56.3358 13.9521C56.9721 14.4785 57.3571 15.0403 57.4227 15.9059C57.6165 18.5355 57.9142 21.1569 58.1245 23.7837C58.1709 24.3536 58.4167 24.7037 58.8317 25.0429C62.0049 27.6561 65.1508 30.2992 68.3376 32.8962C69.1432 33.5529 69.673 34.2368 69.744 35.3331C69.9433 38.4375 70.2519 41.5338 70.484 44.6329C70.5578 45.6206 69.9952 46.2882 69.1569 46.356C68.3049 46.4266 67.6113 45.778 67.5239 44.7685C67.2972 42.1743 67.0705 39.5827 66.8876 36.9857C66.8193 36.0007 66.5626 35.2246 65.7079 34.5624C63.5861 32.9206 61.5598 31.1595 59.4926 29.4472C59.2605 29.2572 59.0147 29.0835 58.545 28.7253C60.4866 51.1104 62.4091 73.2621 64.337 95.4762H64.3343ZM40.4781 4.69033V95.4735H61.314C61.0328 92.114 60.7624 88.8196 60.4811 85.5279C60.2354 82.665 59.9759 79.802 59.7274 76.9391C59.4981 74.3123 59.2823 71.6827 59.0529 69.0559C58.8072 66.2255 58.5477 63.3979 58.302 60.5675C58.0699 57.9054 57.8569 55.2433 57.6247 52.5812C57.3134 49.01 56.983 45.4415 56.6744 41.8703C56.4396 39.1757 56.232 36.4783 55.9999 33.7836C55.6804 30.0442 55.35 26.3074 55.0196 22.568C54.8557 20.7146 54.6755 18.8638 54.5253 17.0104C54.4789 16.427 54.214 16.0308 53.7607 15.659C50.8688 13.2927 47.996 10.8992 45.1177 8.5166C43.6048 7.2656 42.092 6.01731 40.4781 4.68761V4.69033ZM13.5061 95.4735C14.9015 79.3841 16.2887 63.387 17.6924 47.1946C17.3292 47.4035 17.179 47.4713 17.0506 47.5663C14.8442 49.2081 12.6459 50.8634 10.4257 52.4889C9.95877 52.8308 9.82224 53.265 9.74577 53.7806C9.52185 55.3166 9.287 56.8552 9.04396 58.3884C8.18376 63.8592 7.32083 69.3327 6.4579 74.8034C5.6687 79.8074 4.87404 84.8115 4.08484 89.8155C3.79264 91.6743 3.51137 93.5359 3.21372 95.4708H13.5033L13.5061 95.4735ZM17.2199 87.7721C17.5804 87.5875 17.7333 87.5224 17.8699 87.4356C24.1835 83.4329 30.4916 79.4221 36.8134 75.4357C37.324 75.1128 37.4469 74.7383 37.4442 74.1874C37.4251 70.9717 37.436 67.7588 37.4333 64.5431C37.4333 64.2527 37.406 63.965 37.3868 63.5824C37.0946 63.7344 36.8789 63.8239 36.6878 63.946C30.7729 67.6882 24.8689 71.4439 18.9403 75.1644C18.2822 75.5768 18.1703 76.1087 18.1184 76.7763C17.9491 78.9337 17.7443 81.0856 17.564 83.2402C17.4439 84.6839 17.3428 86.1276 17.2199 87.7667V87.7721ZM16.5209 95.4599H37.3623V78.7138C37.223 78.7464 37.1465 78.7464 37.0919 78.779C30.5162 82.9417 23.9404 87.1018 17.3811 91.289C17.1162 91.4572 16.8923 91.8534 16.8458 92.1709C16.6902 93.2374 16.6246 94.3147 16.5154 95.4572L16.5209 95.4599ZM37.4387 48.5215C37.1902 48.6084 37.0865 48.6219 37.0045 48.6735C31.3736 52.2338 25.7482 55.8023 20.1146 59.3545C19.6804 59.6286 19.5739 59.9759 19.5439 60.4508C19.4619 61.7317 19.3227 63.0098 19.2162 64.2907C19.0059 66.7764 18.8011 69.2621 18.5799 71.9025C19.4865 71.3299 20.2839 70.8279 21.0786 70.3232C26.2753 67.0288 31.4665 63.7262 36.6741 60.4536C37.2203 60.1089 37.5097 59.7643 37.4578 59.0831C37.3896 58.1741 37.4415 57.2568 37.4415 56.3423C37.4415 53.7725 37.4415 51.2026 37.4415 48.5215H37.4387ZM19.978 55.8403C20.2375 55.7155 20.4259 55.6476 20.5897 55.5445C26.0104 52.1117 31.4255 48.6681 36.8571 45.2516C37.3349 44.9503 37.4497 44.6003 37.4469 44.0847C37.4305 40.8039 37.4415 37.5257 37.4333 34.2449C37.4333 34.0007 37.3732 33.7537 37.3349 33.4634C37.1138 33.5665 36.9854 33.6126 36.8707 33.6859C31.7641 36.9206 26.663 40.158 21.5537 43.3873C21.1769 43.6261 21.0021 43.9002 20.9639 44.3588C20.7236 47.219 20.4423 50.0765 20.1856 52.9367C20.1009 53.8729 20.049 54.8118 19.9753 55.843L19.978 55.8403ZM21.3544 39.8975C21.6793 39.751 21.8077 39.7103 21.9169 39.6397C26.9115 36.4756 31.9007 33.3006 36.9035 30.1527C37.4005 29.8406 37.4415 29.4472 37.4415 28.956C37.4333 25.876 37.436 22.7959 37.436 19.7159C37.436 19.2872 37.436 18.8611 37.436 18.3835C37.2421 18.4432 37.1356 18.4541 37.0564 18.5029C32.3458 21.4798 27.6407 24.4648 22.9246 27.4363C22.5341 27.6805 22.3893 27.9872 22.3511 28.4268C22.1081 31.2897 21.8432 34.1499 21.5892 37.0129C21.51 37.9165 21.439 38.8202 21.3489 39.8975H21.3544ZM22.7662 23.857C22.9765 23.8136 23.0884 23.819 23.1676 23.7701C27.7608 20.8665 32.3485 17.9548 36.9472 15.0593C37.3978 14.7743 37.4469 14.4026 37.4442 13.9412C37.4333 11.5722 37.4387 9.20588 37.4387 6.83684C37.4387 6.17199 37.4387 5.50443 37.4387 4.83415C37.2885 4.85315 37.2039 4.83415 37.1629 4.86943C32.7144 8.54645 28.266 12.2208 23.8339 15.9195C23.6045 16.1122 23.4325 16.4677 23.3888 16.7716C23.2441 17.7404 23.1594 18.7173 23.0775 19.6915C22.9628 21.0619 22.8727 22.435 22.7662 23.8597V23.857Z" fill="white"/>
<path d="M72.9265 72.1877C72.9265 72.3261 72.9319 72.5296 72.9265 72.7331C72.8992 73.6069 72.394 74.1958 71.6157 74.2718C70.821 74.3504 70.1274 73.8023 69.9936 72.9149C69.8789 72.1469 69.8352 71.3708 69.7642 70.5947C69.7151 70.0574 69.6796 69.5174 69.6331 68.9774C69.5512 67.9842 70.0946 67.2271 70.963 67.1267C71.755 67.0344 72.4786 67.6233 72.6042 68.5866C72.7572 69.7589 72.82 70.9421 72.9265 72.1849V72.1877Z" fill="white"/>
<path d="M71.679 57.9468C71.6899 58.1829 71.7117 58.419 71.7117 58.6551C71.7035 59.5913 71.1956 60.1965 70.3682 60.2589C69.5708 60.3186 68.9017 59.7704 68.7734 58.8749C68.6587 58.0744 68.6096 57.2657 68.544 56.457C68.5058 55.9875 68.4867 55.5127 68.4675 55.0405C68.4239 54.0446 68.9127 53.3824 69.7565 53.2874C70.614 53.1897 71.3212 53.8085 71.4332 54.818C71.5479 55.8573 71.6107 56.9021 71.6926 57.9441H71.6817L71.679 57.9468Z" fill="white"/>
</svg>
