<svg width="87" height="89" viewBox="0 0 87 89" fill="none" xmlns="http://www.w3.org/2000/svg">
<path d="M48.851 34.859C46.6368 31.3605 43.6298 29.197 39.544 28.8774C36.9447 28.6738 34.3199 28.7982 31.7064 28.7925C27.6093 28.7841 23.5121 28.8321 19.415 28.7784C15.8473 28.7303 13.3726 30.3226 11.787 33.4647C9.07159 38.8468 6.3562 44.2317 3.57569 49.5827C2.37231 51.8962 2.50255 53.9862 3.99757 56.1187C8.16834 62.0721 12.2881 68.0594 16.4164 74.0411C17.1668 75.1271 18.0785 75.9388 19.415 76.2131C21.3036 76.5978 22.8609 76.0265 23.985 74.5021C25.1402 72.9352 25.16 71.2298 24.22 69.5301C23.9991 69.1313 23.7188 68.7608 23.4583 68.3846C20.0464 63.4522 16.6515 58.5057 13.1999 53.6016C12.543 52.6683 12.4864 51.9018 13.013 50.8922C15.0573 46.9892 17.0309 43.0467 19.0327 39.1212C19.6443 37.922 20.3239 37.543 21.1393 37.9305C21.9378 38.3095 22.0596 39.1466 21.4706 40.309C19.6358 43.9235 17.8124 47.5464 15.9379 51.1439C15.5783 51.834 15.6123 52.3289 16.054 52.9596C19.432 57.7873 22.7703 62.6434 26.1312 67.4824C27.4026 69.3151 27.9236 71.3062 27.3969 73.4952C26.9099 75.5117 25.7773 77.1125 23.934 78.0826C23.1752 78.4813 22.9911 78.948 23.0053 79.7342C23.0506 82.1665 23.0223 84.6016 23.0195 87.0367C23.0195 87.3534 23.0478 87.6843 22.9657 87.9841C22.7901 88.6318 22.3399 89.0023 21.649 88.9825C20.9581 88.9627 20.5306 88.5752 20.3947 87.9106C20.3324 87.6052 20.3607 87.2771 20.3607 86.9603C20.3607 84.3866 20.3607 81.813 20.3607 79.2139C20.1965 79.1488 20.0775 79.0668 19.9501 79.0555C17.4641 78.8292 15.584 77.6357 14.1796 75.5824C11.3736 71.4759 8.52511 67.3948 5.69364 63.3023C4.34868 61.3594 3.00939 59.4107 1.65311 57.4734C-0.331755 54.6339 -0.527123 51.6925 1.05567 48.6013C3.85034 43.14 6.62236 37.6646 9.40004 32.1949C11.4868 28.0855 14.8535 26.0379 19.4518 26.0294C25.5989 26.0152 31.7432 25.9954 37.8904 26.035C43.8195 26.0718 48.3244 28.6624 51.3088 33.79C51.6599 34.3924 52.0619 34.497 52.6707 34.4942C58.2176 34.4801 63.7616 34.4801 69.3085 34.4885C73.5132 34.4942 76.6108 36.3467 78.5419 40.0912C80.8212 44.5089 83.0694 48.9464 85.3629 53.3555C86.7249 55.9745 86.6201 58.4774 85.0175 60.9578C81.9114 65.7544 78.8364 70.5737 75.7331 75.3703C74.4872 77.2935 73.567 77.8818 70.4779 78.8179C70.4779 79.293 70.4779 79.8106 70.4779 80.3282C70.4779 82.5511 70.4863 84.7741 70.4694 86.9971C70.4665 87.41 70.4184 87.8484 70.2711 88.2302C70.0616 88.7789 69.5605 89.1041 69.0055 88.9457C68.5836 88.8269 68.1192 88.4989 67.8955 88.1312C67.6803 87.7748 67.7115 87.246 67.7087 86.7935C67.6945 84.3244 67.6832 81.8526 67.7143 79.3835C67.7228 78.7048 67.5275 78.3258 66.8847 77.9977C63.1358 76.0915 61.9664 71.7813 64.226 68.1895C66.4798 64.6062 68.779 61.0511 71.1036 57.513C71.5623 56.8144 71.6416 56.2771 71.231 55.5163C69.8125 52.8776 68.4675 50.1964 67.0999 47.5294C66.9385 47.2155 66.7573 46.9044 66.6638 46.5678C66.4798 45.9032 66.7545 45.3941 67.3321 45.0519C67.9012 44.7154 68.4392 44.8341 68.8752 45.2782C69.1159 45.5242 69.2801 45.8523 69.4415 46.1634C71.0441 49.2659 72.6213 52.3798 74.2466 55.4682C74.6968 56.3223 74.6345 57.0294 74.1135 57.8269C71.6076 61.6676 69.1499 65.5423 66.6525 69.3887C65.9447 70.4803 65.6049 71.6286 65.9248 72.9013C66.3326 74.5162 67.3887 75.5881 69.0083 75.9105C70.744 76.2555 72.2475 75.704 73.2527 74.1881C74.8497 71.7757 76.3985 69.3321 77.9643 66.8998C79.5301 64.4676 81.0676 62.0155 82.6645 59.6059C83.7688 57.9401 83.8453 56.2969 82.9222 54.5264C80.6259 50.1172 78.3805 45.6798 76.1012 41.2621C74.7336 38.6092 72.5816 37.2234 69.5491 37.2319C63.7559 37.2489 57.9627 37.2828 52.1695 37.2206C48.1516 37.1782 45.4816 40.0573 44.9662 42.8685C44.8162 43.6831 44.8445 44.5315 44.785 45.4507C45.4023 45.5327 45.8808 45.6204 46.3622 45.66C51.7221 46.0983 56.0855 50.6037 56.2808 55.9038C56.4875 61.5573 52.5404 66.2691 47.0672 67.2222C42.3783 68.0396 35.8404 65.152 34.637 58.1946C33.7932 53.3216 36.4378 48.5674 41.0984 46.5028C41.7752 46.203 42.0583 45.8693 42.0526 45.1085C42.0187 40.3995 44.0828 37.0057 48.4688 35.1136C48.5594 35.074 48.6387 35.0005 48.8567 34.8534L48.851 34.859ZM45.4108 64.6033C49.9581 64.592 53.5484 61.0143 53.5598 56.4779C53.5711 51.9499 49.8845 48.3072 45.3088 48.327C40.8181 48.3468 37.1995 52.0121 37.2136 56.5231C37.2278 61.0143 40.8804 64.6118 45.4108 64.6005V64.6033Z" fill="white"/>
<path d="M45.7264 12.8177C45.7038 19.9137 40.004 25.5531 32.897 25.5107C25.8891 25.4711 20.1638 19.7242 20.1836 12.7498C20.2035 5.76978 26.0788 -0.0421924 33.0697 0.000230784C40.0465 0.0426539 45.7462 5.81503 45.7264 12.8177ZM33.0669 2.78036C27.4549 2.74642 23.0095 7.10469 22.9698 12.6847C22.9302 18.2705 27.3416 22.7984 32.8573 22.8352C38.4042 22.872 42.9969 18.4147 43.045 12.9478C43.0931 7.32246 38.6704 2.81713 33.0669 2.78319V2.78036Z" fill="white"/>
<path d="M71.8293 22.8058C71.8661 28.7677 67.146 34.2091 60.4042 34.2714C54.1155 34.3279 49.0019 29.1919 48.9651 22.9444C48.9254 16.5837 53.974 11.4279 60.2683 11.4025C66.6901 11.3742 71.7981 16.4169 71.8293 22.8086V22.8058ZM60.3674 31.5308C65.2263 31.5365 69.1252 27.6534 69.1195 22.8086C69.1167 18.0318 65.2291 14.1091 60.458 14.0638C55.6757 14.0186 51.6522 17.9894 51.6323 22.7747C51.6097 27.594 55.5341 31.528 60.3674 31.5308Z" fill="white"/>
<path d="M45.3864 70.38C43.0561 70.38 40.7258 70.3546 38.3955 70.3857C35.0204 70.4281 32.3843 72.4276 31.6169 75.5415C31.4499 76.2146 31.4386 76.9386 31.4329 77.6372C31.4131 80.669 31.4301 83.7009 31.4187 86.7355C31.4187 87.1541 31.3933 87.584 31.2998 87.9913C31.1554 88.605 30.7279 88.9529 30.0908 88.984C29.3942 89.0179 28.944 88.6474 28.7515 88.0111C28.6524 87.683 28.6581 87.3153 28.6581 86.9646C28.6524 83.7914 28.6609 80.6181 28.6524 77.4449C28.6354 71.5792 33.3753 67.5942 38.4521 67.6932C43.1467 67.7837 47.8413 67.7017 52.5359 67.7158C57.1427 67.7328 60.9058 70.7505 61.877 75.2445C62.0695 76.1326 62.112 77.0631 62.1205 77.9738C62.1488 80.8642 62.1346 83.7574 62.1261 86.6479C62.1261 87.0693 62.1035 87.4963 62.027 87.9093C61.9024 88.5824 61.4636 88.95 60.7783 88.984C60.1158 89.0179 59.5693 88.5824 59.4249 87.8866C59.3626 87.5812 59.3768 87.2559 59.3768 86.9392C59.3739 83.7659 59.3824 80.5927 59.3711 77.4194C59.3569 73.3355 56.4887 70.4422 52.3745 70.3857C50.0442 70.3546 47.7139 70.38 45.3836 70.38H45.3864Z" fill="white"/>
<path d="M54.5731 82.4826C54.5731 83.9985 54.5788 85.5144 54.5675 87.0304C54.5675 87.3782 54.5505 87.7431 54.4457 88.0711C54.256 88.6679 53.8171 89.0016 53.1716 88.9846C52.5373 88.9705 52.0899 88.6481 51.9314 88.0315C51.8351 87.661 51.8068 87.2651 51.804 86.8833C51.7926 83.9561 51.7983 81.0289 51.7983 78.1017C51.7983 77.8896 51.7955 77.6775 51.8181 77.4682C51.9229 76.4868 52.4665 75.9353 53.2678 75.9834C54.0238 76.0286 54.5052 76.5886 54.5646 77.5106C54.5816 77.7567 54.5703 78.0027 54.5703 78.2516C54.5703 79.6629 54.5703 81.0713 54.5703 82.4826H54.5731Z" fill="white"/>
<path d="M38.911 82.5904C38.911 84.2477 38.911 85.9022 38.911 87.5595C38.911 88.2835 38.5769 88.7898 37.869 88.9595C37.2574 89.1066 36.7392 88.8831 36.4391 88.3203C36.3117 88.0856 36.2607 87.783 36.2607 87.5114C36.2494 84.1628 36.2437 80.8171 36.2607 77.4685C36.2664 76.5352 36.7704 75.9978 37.5519 75.9808C38.3702 75.9639 38.8968 76.5295 38.9081 77.5137C38.928 79.205 38.9138 80.8963 38.9138 82.5875L38.911 82.5904Z" fill="white"/>
</svg>
