<svg width="96" height="96" viewBox="0 0 96 96" fill="none" xmlns="http://www.w3.org/2000/svg">
<path d="M6.3995 50.8496C6.3995 50.2727 6.3995 49.8641 6.3995 49.4555C6.3995 34.2158 6.3995 18.9642 6.3995 3.7245C6.3995 3.37596 6.38748 3.0154 6.42354 2.66686C6.5798 1.12847 7.68568 0.022756 9.20025 0.022756C13.3593 -0.0012813 17.5304 -0.0133 21.6895 0.022756C23.3964 0.0347747 24.4902 1.28471 24.4902 3.13559C24.4902 9.25308 24.4902 15.3706 24.4902 21.4881C24.4902 21.8727 24.4902 22.2452 24.4902 22.75C24.959 22.6539 25.3196 22.5818 25.6802 22.4856C31.6664 20.8631 37.6526 19.2406 43.6388 17.6181C43.8191 17.57 44.0114 17.5099 44.2037 17.4859C45.2014 17.3657 45.8144 17.8584 45.8505 18.868C45.8866 19.7934 45.8505 20.7309 45.8625 21.6563C45.8625 21.9688 45.8625 22.2813 45.8625 22.738C46.3674 22.6298 46.7641 22.5577 47.1487 22.4616C53.0988 20.8511 59.061 19.2286 65.0111 17.6181C65.1072 17.594 65.1914 17.558 65.2875 17.5339C66.5136 17.2695 67.2108 17.7863 67.2829 19.0483C67.319 19.6492 67.2829 20.2622 67.2829 20.8751C67.2829 21.452 67.2829 22.0169 67.2829 22.726C67.8479 22.6058 68.3046 22.5217 68.7494 22.4015C74.5192 20.8391 80.289 19.2646 86.0588 17.7022C88.0782 17.1614 88.6672 17.606 88.6672 19.6612C88.6672 29.5886 88.6672 39.5161 88.6672 49.4435V50.7655C89.088 50.8016 89.4245 50.8376 89.7611 50.8496C90.6867 50.8737 91.6243 50.8376 92.5498 50.9218C93.9322 51.0419 94.9659 52.1597 95.014 53.5418C95.0621 54.7557 95.0501 55.9816 95.014 57.1955C94.9659 58.5897 93.9682 59.6713 92.5859 59.8757C92.1411 59.9357 91.6964 59.9478 91.2396 59.9478C62.0901 59.9478 32.9526 59.9478 3.80309 59.9478C3.32227 59.9478 2.84145 59.9357 2.37265 59.8636C1.08647 59.6593 0.088775 58.6137 0.0406934 57.3037C-0.00738831 56.0297 -0.0194087 54.7437 0.0406934 53.4577C0.100795 52.1236 1.14657 51.054 2.49286 50.9218C3.32227 50.8376 4.15168 50.8737 4.9931 50.8617C5.4018 50.8617 5.82251 50.8617 6.38747 50.8617L6.3995 50.8496ZM21.6654 50.7895V11.8371H9.27238V50.7895H21.6654ZM67.355 50.7535H85.8424V20.6588C79.6039 22.3534 73.4614 24.012 67.355 25.6706V50.7535ZM45.9226 50.7535H64.41V20.6708L45.9226 25.6826V50.7655V50.7535ZM24.5744 25.6585V50.7655H43.0498V20.6588C36.8472 22.3414 30.7168 24 24.5744 25.6585ZM92.2493 53.7341H2.86549V57.0513H92.2373V53.7341H92.2493ZM21.6774 8.8805V2.81108H9.26035V8.8805H21.6774Z" fill="white"/>
<path d="M25.5998 62.6644C27.9438 62.6644 30.2758 62.6644 32.6197 62.6644C34.0141 62.6644 34.4709 63.1091 34.519 64.4672C34.7353 71.0894 40.0243 76.6541 46.4793 77.0627C53.4631 77.5074 59.3772 72.8562 60.459 66.0536C60.5552 65.4287 60.5792 64.7796 60.6273 64.1427C60.7115 63.1812 61.1923 62.6644 62.1539 62.6644C67.1183 62.6523 72.0828 62.6523 77.0472 62.6644C78.0088 62.6644 78.5137 63.1932 78.5377 64.1667C78.5618 65.1642 78.5738 66.1498 78.5377 67.1473C78.4897 68.6497 77.4319 69.8996 75.9654 70.2241C75.5927 70.3082 75.2081 70.3443 74.8234 70.3683C72.7679 70.5125 71.3375 71.5942 70.5201 73.4331C69.7147 75.2719 69.9071 77.0627 71.1572 78.6732C71.3375 78.9016 71.5419 79.1059 71.7222 79.3222C72.8641 80.7284 72.8521 82.4711 71.602 83.7691C70.2076 85.2354 68.7772 86.6536 67.3227 88.0478C65.9403 89.3698 64.1373 89.3578 62.6588 88.0237C61.5288 87.0021 60.2667 86.4613 58.7401 86.5334C56.1798 86.6536 54.0521 88.6847 53.8959 91.2327C53.8238 92.4346 53.5954 93.5763 52.5496 94.2614C51.9846 94.634 51.2754 94.9224 50.6143 94.9585C48.5949 95.0426 46.5754 95.0066 44.568 94.9825C42.9092 94.9585 41.6471 93.8648 41.3466 92.2423C41.2865 91.9298 41.2624 91.6053 41.2384 91.2928C41.0941 89.2015 40.0003 87.7473 38.1131 86.942C36.1898 86.1248 34.3266 86.3772 32.7399 87.7954C31.6942 88.7208 30.5763 89.3338 29.1699 88.829C28.5929 88.6247 28.0279 88.2401 27.5712 87.8194C26.285 86.6175 25.0589 85.3436 23.8208 84.0936C22.198 82.4591 22.15 80.7524 23.6765 79.0097C25.72 76.6541 25.4796 73.361 23.1116 71.426C22.2341 70.7169 21.2244 70.3803 20.0945 70.3443C18.5559 70.2962 17.1975 69.6712 16.849 68.1329C16.5244 66.7026 16.6206 65.1522 16.6686 63.6619C16.6927 63.0129 17.3538 62.6644 18.2073 62.6523C20.6714 62.6523 23.1356 62.6523 25.5998 62.6523V62.6644ZM19.3853 65.4647C19.3732 65.7171 19.3492 65.8974 19.3372 66.0897C19.3131 67.4598 19.3131 67.4838 20.6594 67.616C21.8975 67.7362 23.0395 68.0968 24.0852 68.7458C28.2203 71.3058 29.0737 76.9185 25.9003 80.6803C25.2152 81.4976 25.2031 81.5817 25.9484 82.3389C27.0062 83.4086 28.076 84.4662 29.1338 85.5359C29.7348 86.1288 30.3559 86.1568 30.997 85.62C35.4205 81.8822 42.2721 84.0455 43.7386 89.6462C43.8949 90.2592 43.967 90.9082 44.0391 91.5332C44.0992 92.05 44.3517 92.2663 44.8565 92.2663C46.6476 92.2663 48.4386 92.2663 50.2297 92.2663C50.7345 92.2663 50.9869 92.05 51.035 91.5332C51.0951 90.9563 51.1432 90.3794 51.2754 89.8265C52.6938 84.0576 59.6176 81.8341 64.1493 85.6801C65.0148 86.4132 65.0508 86.4132 65.8682 85.608C66.938 84.5503 67.9958 83.4807 69.0536 82.411C69.883 81.5697 69.883 81.5336 69.1137 80.6082C67.4429 78.6011 66.8779 76.3176 67.4549 73.7816C68.2603 70.2842 70.8447 68.0247 74.4268 67.616C75.773 67.4598 75.7851 67.4598 75.749 66.0897C75.749 65.8854 75.6889 65.669 75.6649 65.4647H63.4281C62.1058 75.3921 53.8959 79.9352 47.489 79.9111C40.9739 79.8871 32.9203 75.2118 31.6461 65.4647H19.3612H19.3853Z" fill="white"/>
<path d="M47.5059 62.6655C50.0062 62.6655 52.5064 62.6655 54.9946 62.6655C56.377 62.6655 56.8217 63.1342 56.7857 64.5164C56.6535 69.1676 52.6988 73.1337 48.0108 73.302C43.2146 73.4823 39.296 70.3935 38.3704 65.6942C38.2743 65.2255 38.2502 64.7447 38.2502 64.264C38.2382 63.1823 38.731 62.6775 39.8129 62.6655C41.8563 62.6535 43.9118 62.6655 45.9553 62.6655C46.4722 62.6655 46.977 62.6655 47.4939 62.6655H47.5059ZM41.2553 65.4658C41.5438 68.2061 44.4167 70.5497 47.4699 70.5618C50.5832 70.5738 53.456 68.2782 53.7926 65.4658H41.2673H41.2553Z" fill="white"/>
<path d="M81.614 34.2197C81.614 35.2052 81.626 36.2028 81.614 37.1883C81.5899 38.4503 80.8567 39.2435 79.5945 39.2675C77.5871 39.3156 75.5677 39.3156 73.5603 39.2675C72.3222 39.2435 71.5769 38.4022 71.5649 37.1523C71.5409 35.2052 71.5409 33.2582 71.5649 31.3112C71.5769 30.0132 72.2621 29.244 73.5483 29.2079C75.5917 29.1599 77.6352 29.1599 79.6787 29.2079C80.9288 29.244 81.5659 29.9891 81.626 31.2391C81.626 31.2992 81.626 31.3713 81.626 31.4314C81.626 32.3568 81.626 33.2823 81.626 34.2077L81.614 34.2197ZM74.3657 32.0323V36.4432H78.7772V32.0323H74.3657Z" fill="white"/>
<path d="M50.1513 34.2077C50.1513 33.2222 50.1273 32.2246 50.1513 31.2391C50.1874 29.9891 50.8485 29.244 52.0986 29.2079C54.1421 29.1599 56.1856 29.1599 58.229 29.2079C59.5032 29.244 60.2004 30.0252 60.2124 31.3112C60.2364 33.2582 60.2364 35.2052 60.2124 37.1523C60.2004 38.4383 59.407 39.2435 58.0968 39.2675C56.1495 39.3036 54.2022 39.3036 52.2549 39.2675C50.8966 39.2435 50.1754 38.4623 50.1513 37.0801C50.1393 36.1187 50.1513 35.1692 50.1513 34.2077ZM52.9641 32.0323V36.4311H57.3996V32.0323H52.9641Z" fill="white"/>
<path d="M33.7763 29.1826C34.738 29.1826 35.6996 29.1585 36.6492 29.1826C38.0436 29.2306 38.7888 29.9518 38.8249 31.3219C38.861 33.2328 38.861 35.1558 38.8249 37.0788C38.8009 38.497 38.0075 39.2542 36.5891 39.2782C34.7019 39.3023 32.8147 39.3023 30.9275 39.2782C29.5572 39.2662 28.7518 38.5211 28.7157 37.1629C28.6677 35.2159 28.6677 33.2689 28.7157 31.3219C28.7518 29.9397 29.4971 29.2547 30.8914 29.1826C30.9515 29.1826 31.0237 29.1826 31.0838 29.1826C31.9733 29.1826 32.8748 29.1826 33.7643 29.1826H33.7763ZM31.5646 36.4298H35.94V32.055H31.5646V36.4298Z" fill="white"/>
</svg>
